M48
; DRILL file {KiCad (5.1.10)-1} date 05/29/21 17:35:07
; FORMAT={-:-/ absolute / metric / decimal}
; #@! TF.CreationDate,2021-05-29T17:35:07+08:00
; #@! TF.GenerationSoftware,Kicad,Pcbnew,(5.1.10)-1
; #@! TF.FileFunction,Plated,1,2,PTH
FMAT,2
METRIC
T1C0.300
T2C0.400
T3C0.650
T4C0.800
T5C0.950
T6C1.750
%
G90
G05
T1
X-11.047Y-11.265
X-11.042Y-12.393
X-10.998Y-13.213
X-0.379Y2.369
X-0.142Y1.651
X4.267Y-2.045
X4.267Y-3.401
X7.414Y-2.698
X8.075Y-2.698
X10.945Y-2.131
X11.421Y-1.645
T2
X-15.588Y-8.075
X-14.839Y-9.746
X-14.402Y10.886
X-13.912Y11.755
X-13.488Y10.879
X-12.911Y11.793
X-12.748Y-8.087
X-12.736Y-9.296
X-11.689Y-9.322
X-11.638Y-8.075
X-10.579Y-9.322
X-10.554Y-8.1
X-9.815Y9.787
X-8.56Y9.804
X-8.494Y13.02
X-7.694Y13.007
X-7.254Y9.822
X-6.805Y-12.703
X-5.484Y9.855
X-3.955Y12.865
X-3.95Y13.861
X-3.485Y10.94
X-3.465Y-12.753
X-2.59Y9.884
X-2.568Y8.725
X-2.568Y7.788
X-2.568Y6.454
X-2.533Y12.106
X-2.058Y-12.753
X-1.644Y-5.946
X1.829Y-5.946
X2.004Y15.039
X2.164Y2.553
X2.199Y3.571
X2.723Y13.825
X3.165Y3.561
X3.2Y2.482
X5.336Y-0.262
X5.921Y-1.433
X6.065Y-14.788
X6.528Y-5.319
X6.649Y-7.899
X7.254Y3.658
X7.274Y5.852
X7.315Y8.402
X8.476Y-5.291
X10.404Y-7.943
X10.691Y-13.015
T3
X-3.386Y16.924
X-2.116Y16.924
X-0.846Y16.924
X0.424Y16.924
T4
X3.711Y16.294
X5.125Y14.88
X6.539Y13.466
X7.953Y12.051
T5
X12.954Y7.587
X12.954Y5.087
X12.954Y2.587
X12.977Y-3.343
X12.977Y-5.843
X12.977Y-8.343
T6
X-1.964Y-15.583
X1.916Y-15.583
T0
M30
