G04 #@! TF.GenerationSoftware,KiCad,Pcbnew,(5.1.10)-1*
G04 #@! TF.CreationDate,2021-05-29T18:44:49+08:00*
G04 #@! TF.ProjectId,Light_detector_V1.0,4c696768-745f-4646-9574-6563746f725f,rev?*
G04 #@! TF.SameCoordinates,Original*
G04 #@! TF.FileFunction,Copper,L2,Bot*
G04 #@! TF.FilePolarity,Positive*
%FSLAX46Y46*%
G04 Gerber Fmt 4.6, Leading zero omitted, Abs format (unit mm)*
G04 Created by KiCad (PCBNEW (5.1.10)-1) date 2021-05-29 18:44:49*
%MOMM*%
%LPD*%
G01*
G04 APERTURE LIST*
G04 #@! TA.AperFunction,ComponentPad*
%ADD10O,1.700000X2.000000*%
G04 #@! TD*
G04 #@! TA.AperFunction,ComponentPad*
%ADD11O,1.700000X1.700000*%
G04 #@! TD*
G04 #@! TA.AperFunction,ComponentPad*
%ADD12R,1.700000X1.700000*%
G04 #@! TD*
G04 #@! TA.AperFunction,ComponentPad*
%ADD13C,3.000000*%
G04 #@! TD*
G04 #@! TA.AperFunction,ComponentPad*
%ADD14R,3.000000X3.000000*%
G04 #@! TD*
G04 #@! TA.AperFunction,ComponentPad*
%ADD15R,1.350000X1.350000*%
G04 #@! TD*
G04 #@! TA.AperFunction,ComponentPad*
%ADD16O,1.350000X1.350000*%
G04 #@! TD*
G04 #@! TA.AperFunction,ComponentPad*
%ADD17O,2.000000X1.700000*%
G04 #@! TD*
G04 #@! TA.AperFunction,ComponentPad*
%ADD18O,1.950000X1.700000*%
G04 #@! TD*
G04 #@! TA.AperFunction,ComponentPad*
%ADD19R,1.000000X1.000000*%
G04 #@! TD*
G04 #@! TA.AperFunction,ComponentPad*
%ADD20O,1.000000X1.000000*%
G04 #@! TD*
G04 #@! TA.AperFunction,ViaPad*
%ADD21C,0.600000*%
G04 #@! TD*
G04 #@! TA.AperFunction,ViaPad*
%ADD22C,0.800000*%
G04 #@! TD*
G04 #@! TA.AperFunction,Conductor*
%ADD23C,0.762000*%
G04 #@! TD*
G04 #@! TA.AperFunction,Conductor*
%ADD24C,1.270000*%
G04 #@! TD*
G04 #@! TA.AperFunction,Conductor*
%ADD25C,2.032000*%
G04 #@! TD*
G04 #@! TA.AperFunction,Conductor*
%ADD26C,0.381000*%
G04 #@! TD*
G04 #@! TA.AperFunction,Conductor*
%ADD27C,0.203200*%
G04 #@! TD*
G04 #@! TA.AperFunction,Conductor*
%ADD28C,0.254000*%
G04 #@! TD*
G04 #@! TA.AperFunction,Conductor*
%ADD29C,0.100000*%
G04 #@! TD*
G04 APERTURE END LIST*
D10*
X81431540Y-43103840D03*
G04 #@! TA.AperFunction,ComponentPad*
G36*
G01*
X84781540Y-42353840D02*
X84781540Y-43853840D01*
G75*
G02*
X84531540Y-44103840I-250000J0D01*
G01*
X83331540Y-44103840D01*
G75*
G02*
X83081540Y-43853840I0J250000D01*
G01*
X83081540Y-42353840D01*
G75*
G02*
X83331540Y-42103840I250000J0D01*
G01*
X84531540Y-42103840D01*
G75*
G02*
X84781540Y-42353840I0J-250000D01*
G01*
G37*
G04 #@! TD.AperFunction*
D11*
X95506320Y-37368520D03*
X92966320Y-37368520D03*
X87886320Y-37368520D03*
X80266320Y-37368520D03*
D12*
X98046320Y-37368520D03*
D11*
X90426320Y-37368520D03*
X82806320Y-37368520D03*
X85346320Y-37368520D03*
X95557120Y-21823720D03*
X93017120Y-21823720D03*
X87937120Y-21823720D03*
X80317120Y-21823720D03*
D12*
X98097120Y-21823720D03*
D11*
X90477120Y-21823720D03*
X82857120Y-21823720D03*
X85397120Y-21823720D03*
D10*
X75070120Y-22966720D03*
G04 #@! TA.AperFunction,ComponentPad*
G36*
G01*
X71720120Y-23716720D02*
X71720120Y-22216720D01*
G75*
G02*
X71970120Y-21966720I250000J0D01*
G01*
X73170120Y-21966720D01*
G75*
G02*
X73420120Y-22216720I0J-250000D01*
G01*
X73420120Y-23716720D01*
G75*
G02*
X73170120Y-23966720I-250000J0D01*
G01*
X71970120Y-23966720D01*
G75*
G02*
X71720120Y-23716720I0J250000D01*
G01*
G37*
G04 #@! TD.AperFunction*
D13*
X92713440Y-42042120D03*
D14*
X96593440Y-42042120D03*
D15*
X76080400Y-29499600D03*
D16*
X76080400Y-31499600D03*
X76080400Y-33499600D03*
X76080400Y-35499600D03*
G04 #@! TA.AperFunction,ComponentPad*
G36*
G01*
X45053600Y-31240400D02*
X46553600Y-31240400D01*
G75*
G02*
X46803600Y-31490400I0J-250000D01*
G01*
X46803600Y-32690400D01*
G75*
G02*
X46553600Y-32940400I-250000J0D01*
G01*
X45053600Y-32940400D01*
G75*
G02*
X44803600Y-32690400I0J250000D01*
G01*
X44803600Y-31490400D01*
G75*
G02*
X45053600Y-31240400I250000J0D01*
G01*
G37*
G04 #@! TD.AperFunction*
D17*
X45803600Y-34590400D03*
G04 #@! TA.AperFunction,ComponentPad*
G36*
G01*
X45053600Y-22096400D02*
X46553600Y-22096400D01*
G75*
G02*
X46803600Y-22346400I0J-250000D01*
G01*
X46803600Y-23546400D01*
G75*
G02*
X46553600Y-23796400I-250000J0D01*
G01*
X45053600Y-23796400D01*
G75*
G02*
X44803600Y-23546400I0J250000D01*
G01*
X44803600Y-22346400D01*
G75*
G02*
X45053600Y-22096400I250000J0D01*
G01*
G37*
G04 #@! TD.AperFunction*
X45803600Y-25446400D03*
G04 #@! TA.AperFunction,ComponentPad*
G36*
G01*
X45078600Y-52017600D02*
X46528600Y-52017600D01*
G75*
G02*
X46778600Y-52267600I0J-250000D01*
G01*
X46778600Y-53467600D01*
G75*
G02*
X46528600Y-53717600I-250000J0D01*
G01*
X45078600Y-53717600D01*
G75*
G02*
X44828600Y-53467600I0J250000D01*
G01*
X44828600Y-52267600D01*
G75*
G02*
X45078600Y-52017600I250000J0D01*
G01*
G37*
G04 #@! TD.AperFunction*
D18*
X45803600Y-55367600D03*
X45803600Y-57867600D03*
G04 #@! TA.AperFunction,ComponentPad*
G36*
G01*
X45078600Y-40435200D02*
X46528600Y-40435200D01*
G75*
G02*
X46778600Y-40685200I0J-250000D01*
G01*
X46778600Y-41885200D01*
G75*
G02*
X46528600Y-42135200I-250000J0D01*
G01*
X45078600Y-42135200D01*
G75*
G02*
X44828600Y-41885200I0J250000D01*
G01*
X44828600Y-40685200D01*
G75*
G02*
X45078600Y-40435200I250000J0D01*
G01*
G37*
G04 #@! TD.AperFunction*
X45803600Y-43785200D03*
X45803600Y-46285200D03*
G04 #@! TA.AperFunction,ComponentPad*
G36*
G01*
X74316000Y-53643000D02*
X74316000Y-52143000D01*
G75*
G02*
X74566000Y-51893000I250000J0D01*
G01*
X75766000Y-51893000D01*
G75*
G02*
X76016000Y-52143000I0J-250000D01*
G01*
X76016000Y-53643000D01*
G75*
G02*
X75766000Y-53893000I-250000J0D01*
G01*
X74566000Y-53893000D01*
G75*
G02*
X74316000Y-53643000I0J250000D01*
G01*
G37*
G04 #@! TD.AperFunction*
D10*
X77666000Y-52893000D03*
D12*
X69070000Y-50289500D03*
D11*
X66530000Y-50289500D03*
X63990000Y-50289500D03*
D12*
X58973500Y-50289500D03*
D11*
X56433500Y-50289500D03*
X53893500Y-50289500D03*
D19*
X64345600Y-21574800D03*
D20*
X65615600Y-21574800D03*
X66885600Y-21574800D03*
X68155600Y-21574800D03*
D21*
X92542140Y-47185620D03*
X91010520Y-47091640D03*
X61246800Y-44536400D03*
X63837600Y-46263600D03*
X65361600Y-33919200D03*
X66377600Y-33919200D03*
X65361600Y-35087600D03*
X66428400Y-35087600D03*
D22*
X62364400Y-31836400D03*
X60027600Y-27416800D03*
D21*
X59722800Y-45501600D03*
X65412400Y-46212800D03*
X66987200Y-46212800D03*
X62161200Y-43571200D03*
X60434000Y-45501600D03*
X70492400Y-46212800D03*
X66987200Y-43469600D03*
X70441600Y-43469600D03*
X68917600Y-40472400D03*
X64040800Y-41640800D03*
D22*
X62872400Y-32700000D03*
D21*
X40418800Y-43774400D03*
X40418800Y-40218400D03*
X40418800Y-48244800D03*
X40469600Y-53020000D03*
X40418800Y-57642800D03*
X40418800Y-34478000D03*
X40469600Y-30058400D03*
X40469600Y-25994400D03*
X40418800Y-21371600D03*
X52610800Y-21371600D03*
X59164000Y-21371600D03*
X52610800Y-26553200D03*
X52661600Y-34528800D03*
X54287200Y-34528800D03*
X56217600Y-34528800D03*
X50934400Y-36967200D03*
X52509200Y-36967200D03*
X54490400Y-36967200D03*
X52407600Y-41488400D03*
X55049200Y-41437600D03*
X59722800Y-37932400D03*
X62770800Y-37983200D03*
X59722800Y-41234400D03*
X62262800Y-25842000D03*
X65768000Y-25842000D03*
X65869600Y-29398000D03*
X70848000Y-25842000D03*
X76131200Y-25791200D03*
X71000400Y-31074400D03*
X78823600Y-28686800D03*
X78922660Y-33751560D03*
X78823600Y-41285200D03*
X75826400Y-41386800D03*
X73873140Y-39692620D03*
X76842400Y-56931600D03*
X53220400Y-56474400D03*
X57538400Y-56474400D03*
X62212000Y-56474400D03*
X68866800Y-56372800D03*
X55404800Y-58862000D03*
X60281600Y-58963600D03*
X65717200Y-58811200D03*
X82379600Y-57185600D03*
X96855060Y-51435040D03*
X96857600Y-55153600D03*
X95587600Y-57998400D03*
X76598560Y-49845000D03*
X78564520Y-49855160D03*
X80855600Y-49855160D03*
X80845440Y-48168600D03*
X80845440Y-51927800D03*
X83116200Y-49778960D03*
X93512420Y-47144980D03*
X77187840Y-39758660D03*
X78038740Y-43004780D03*
X85597780Y-40467320D03*
X87731380Y-40434300D03*
X89847200Y-40416520D03*
X86745860Y-42451060D03*
X89092820Y-42418040D03*
X88140320Y-43812500D03*
X90520300Y-43713440D03*
X84663060Y-32649200D03*
X86428360Y-32613640D03*
X88384160Y-32595860D03*
X90301860Y-32567920D03*
X91909680Y-32486640D03*
X84741800Y-30911840D03*
X86593460Y-30845800D03*
X88419720Y-30784840D03*
X90319640Y-30792460D03*
X91940160Y-30731500D03*
X57284400Y-45298400D03*
X58503600Y-47635200D03*
X58351200Y-34732000D03*
X58808400Y-34274800D03*
D22*
X93454000Y-54493200D03*
X89491600Y-46974800D03*
D21*
X69705000Y-36761460D03*
X65722280Y-31638280D03*
X70263800Y-36182340D03*
X64899711Y-31679802D03*
X64172880Y-37343120D03*
D23*
X57284400Y-35798800D02*
X58478200Y-34605000D01*
X57284400Y-46416000D02*
X57284400Y-45298400D01*
X58503600Y-47635200D02*
X58503600Y-47635200D01*
X69908200Y-47635200D02*
X58503600Y-47635200D01*
X75166000Y-52893000D02*
X69908200Y-47635200D01*
X57284400Y-45298400D02*
X57284400Y-35798800D01*
X58503600Y-47635200D02*
X57284400Y-46416000D01*
X58478200Y-34605000D02*
X58808400Y-34274800D01*
X58808400Y-34274800D02*
X58808400Y-34274800D01*
D24*
X69070000Y-50784800D02*
X69070000Y-50289500D01*
D25*
X58973500Y-50299660D02*
X61663360Y-52989520D01*
X58973500Y-50289500D02*
X58973500Y-50299660D01*
X45849320Y-52913320D02*
X45803600Y-52867600D01*
X61663360Y-52989520D02*
X61587160Y-52913320D01*
X61734480Y-52918400D02*
X61663360Y-52989520D01*
X69180860Y-52918400D02*
X61734480Y-52918400D01*
X69070000Y-52807540D02*
X69180860Y-52918400D01*
X69070000Y-50289500D02*
X69070000Y-52807540D01*
X46778600Y-41285200D02*
X48658560Y-43165160D01*
X45803600Y-41285200D02*
X46778600Y-41285200D01*
X48658560Y-52913320D02*
X45849320Y-52913320D01*
X48658560Y-51079440D02*
X48683960Y-51079440D01*
X48683960Y-51079440D02*
X50517840Y-52913320D01*
X50517840Y-52913320D02*
X48658560Y-52913320D01*
X61587160Y-52913320D02*
X50517840Y-52913320D01*
X48658560Y-43165160D02*
X48658560Y-51079440D01*
X48658560Y-51079440D02*
X48658560Y-52913320D01*
D24*
X96852743Y-60030177D02*
X76292637Y-60030177D01*
X99187591Y-57695329D02*
X96852743Y-60030177D01*
X76292637Y-60030177D02*
X69070000Y-52807540D01*
X99187591Y-42995431D02*
X99187591Y-57695329D01*
X98234280Y-42042120D02*
X99187591Y-42995431D01*
X96593440Y-42042120D02*
X98234280Y-42042120D01*
D26*
X94269340Y-21310446D02*
X93474514Y-20515620D01*
X94269340Y-37837020D02*
X94269340Y-21310446D01*
X86705220Y-20515620D02*
X85397120Y-21823720D01*
X96593440Y-40161120D02*
X94269340Y-37837020D01*
X93474514Y-20515620D02*
X86705220Y-20515620D01*
X96593440Y-42042120D02*
X96593440Y-40161120D01*
D23*
X93454000Y-50942280D02*
X93454000Y-54493200D01*
X89491600Y-46979880D02*
X93454000Y-50942280D01*
X89491600Y-46974800D02*
X89491600Y-46979880D01*
D27*
X69705000Y-35011400D02*
X66331880Y-31638280D01*
X69705000Y-36761460D02*
X69705000Y-35011400D01*
X66331880Y-31638280D02*
X65722280Y-31638280D01*
X64899711Y-31255538D02*
X64899711Y-31679802D01*
X70263800Y-36182340D02*
X70263800Y-35067291D01*
X70263800Y-35067291D02*
X66235068Y-31038559D01*
X66235068Y-31038559D02*
X65116690Y-31038559D01*
X65116690Y-31038559D02*
X64899711Y-31255538D01*
X93017120Y-31000740D02*
X93017120Y-21823720D01*
X92252580Y-31765280D02*
X93017120Y-31000740D01*
X83400680Y-31765280D02*
X92252580Y-31765280D01*
X77492640Y-37673320D02*
X83400680Y-31765280D01*
X64503080Y-37673320D02*
X77492640Y-37673320D01*
X64172880Y-37343120D02*
X64503080Y-37673320D01*
D28*
X86010992Y-20401624D02*
X85767786Y-20644831D01*
X85756189Y-20640027D01*
X85518363Y-20592720D01*
X85275877Y-20592720D01*
X85038051Y-20640027D01*
X84814023Y-20732822D01*
X84612403Y-20867540D01*
X84440940Y-21039003D01*
X84306222Y-21240623D01*
X84213427Y-21464651D01*
X84166120Y-21702477D01*
X84166120Y-21944963D01*
X84213427Y-22182789D01*
X84306222Y-22406817D01*
X84440940Y-22608437D01*
X84612403Y-22779900D01*
X84814023Y-22914618D01*
X85038051Y-23007413D01*
X85275877Y-23054720D01*
X85518363Y-23054720D01*
X85756189Y-23007413D01*
X85980217Y-22914618D01*
X86181837Y-22779900D01*
X86353300Y-22608437D01*
X86488018Y-22406817D01*
X86580813Y-22182789D01*
X86628120Y-21944963D01*
X86628120Y-21702477D01*
X86580813Y-21464651D01*
X86576009Y-21453054D01*
X86941944Y-21087120D01*
X89488789Y-21087120D01*
X89386222Y-21240623D01*
X89293427Y-21464651D01*
X89246120Y-21702477D01*
X89246120Y-21944963D01*
X89293427Y-22182789D01*
X89386222Y-22406817D01*
X89520940Y-22608437D01*
X89692403Y-22779900D01*
X89894023Y-22914618D01*
X90118051Y-23007413D01*
X90355877Y-23054720D01*
X90598363Y-23054720D01*
X90836189Y-23007413D01*
X91060217Y-22914618D01*
X91261837Y-22779900D01*
X91433300Y-22608437D01*
X91568018Y-22406817D01*
X91660813Y-22182789D01*
X91708120Y-21944963D01*
X91708120Y-21702477D01*
X91660813Y-21464651D01*
X91568018Y-21240623D01*
X91465451Y-21087120D01*
X92028789Y-21087120D01*
X91926222Y-21240623D01*
X91833427Y-21464651D01*
X91786120Y-21702477D01*
X91786120Y-21944963D01*
X91833427Y-22182789D01*
X91926222Y-22406817D01*
X92060940Y-22608437D01*
X92232403Y-22779900D01*
X92434023Y-22914618D01*
X92534521Y-22956245D01*
X92534520Y-30800840D01*
X92052681Y-31282680D01*
X83424384Y-31282680D01*
X83400679Y-31280345D01*
X83376974Y-31282680D01*
X83376973Y-31282680D01*
X83306074Y-31289663D01*
X83215103Y-31317258D01*
X83131265Y-31362071D01*
X83057779Y-31422379D01*
X83042663Y-31440798D01*
X77292741Y-37190720D01*
X70237209Y-37190720D01*
X70308494Y-37084034D01*
X70359829Y-36960100D01*
X70381062Y-36853356D01*
X70462440Y-36837169D01*
X70586374Y-36785834D01*
X70697912Y-36711307D01*
X70792767Y-36616452D01*
X70867294Y-36504914D01*
X70918629Y-36380980D01*
X70944800Y-36249413D01*
X70944800Y-36115267D01*
X70918629Y-35983700D01*
X70867294Y-35859766D01*
X70792767Y-35748228D01*
X70746400Y-35701861D01*
X70746400Y-35090987D01*
X70748734Y-35067290D01*
X70746400Y-35043593D01*
X70746400Y-35043584D01*
X70739417Y-34972685D01*
X70711822Y-34881714D01*
X70667009Y-34797876D01*
X70606701Y-34724390D01*
X70588282Y-34709274D01*
X66593085Y-30714077D01*
X66577969Y-30695658D01*
X66504483Y-30635350D01*
X66420645Y-30590537D01*
X66329674Y-30562942D01*
X66258775Y-30555959D01*
X66258773Y-30555959D01*
X66235068Y-30553624D01*
X66211363Y-30555959D01*
X65140397Y-30555959D01*
X65116690Y-30553624D01*
X65022083Y-30562942D01*
X64931113Y-30590537D01*
X64847275Y-30635350D01*
X64773789Y-30695658D01*
X64758673Y-30714077D01*
X64575229Y-30897521D01*
X64556810Y-30912637D01*
X64496502Y-30986123D01*
X64451689Y-31069962D01*
X64424094Y-31160933D01*
X64421594Y-31186317D01*
X64420663Y-31195771D01*
X64370744Y-31245690D01*
X64296217Y-31357228D01*
X64244882Y-31481162D01*
X64218711Y-31612729D01*
X64218711Y-31746875D01*
X64244882Y-31878442D01*
X64296217Y-32002376D01*
X64370744Y-32113914D01*
X64465599Y-32208769D01*
X64577137Y-32283296D01*
X64701071Y-32334631D01*
X64832638Y-32360802D01*
X64966784Y-32360802D01*
X65098351Y-32334631D01*
X65222285Y-32283296D01*
X65333823Y-32208769D01*
X65340427Y-32202165D01*
X65399706Y-32241774D01*
X65523640Y-32293109D01*
X65655207Y-32319280D01*
X65789353Y-32319280D01*
X65920920Y-32293109D01*
X66044854Y-32241774D01*
X66156392Y-32167247D01*
X66167370Y-32156269D01*
X69222401Y-35211301D01*
X69222400Y-36280981D01*
X69176033Y-36327348D01*
X69101506Y-36438886D01*
X69050171Y-36562820D01*
X69024000Y-36694387D01*
X69024000Y-36828533D01*
X69050171Y-36960100D01*
X69101506Y-37084034D01*
X69172791Y-37190720D01*
X64836907Y-37190720D01*
X64827709Y-37144480D01*
X64776374Y-37020546D01*
X64701847Y-36909008D01*
X64606992Y-36814153D01*
X64495454Y-36739626D01*
X64371520Y-36688291D01*
X64239953Y-36662120D01*
X64105807Y-36662120D01*
X63974240Y-36688291D01*
X63850306Y-36739626D01*
X63738768Y-36814153D01*
X63643913Y-36909008D01*
X63569386Y-37020546D01*
X63518051Y-37144480D01*
X63491880Y-37276047D01*
X63491880Y-37410193D01*
X63518051Y-37541760D01*
X63569386Y-37665694D01*
X63643913Y-37777232D01*
X63738768Y-37872087D01*
X63850306Y-37946614D01*
X63974240Y-37997949D01*
X64105807Y-38024120D01*
X64169804Y-38024120D01*
X64233665Y-38076529D01*
X64317503Y-38121342D01*
X64408474Y-38148937D01*
X64479373Y-38155920D01*
X64479374Y-38155920D01*
X64503079Y-38158255D01*
X64526784Y-38155920D01*
X77468935Y-38155920D01*
X77492640Y-38158255D01*
X77516345Y-38155920D01*
X77516347Y-38155920D01*
X77587246Y-38148937D01*
X77678217Y-38121342D01*
X77762055Y-38076529D01*
X77835541Y-38016221D01*
X77850657Y-37997802D01*
X78601182Y-37247277D01*
X79035320Y-37247277D01*
X79035320Y-37489763D01*
X79082627Y-37727589D01*
X79175422Y-37951617D01*
X79310140Y-38153237D01*
X79481603Y-38324700D01*
X79683223Y-38459418D01*
X79907251Y-38552213D01*
X80145077Y-38599520D01*
X80387563Y-38599520D01*
X80625389Y-38552213D01*
X80849417Y-38459418D01*
X81051037Y-38324700D01*
X81222500Y-38153237D01*
X81357218Y-37951617D01*
X81450013Y-37727589D01*
X81497320Y-37489763D01*
X81497320Y-37247277D01*
X81575320Y-37247277D01*
X81575320Y-37489763D01*
X81622627Y-37727589D01*
X81715422Y-37951617D01*
X81850140Y-38153237D01*
X82021603Y-38324700D01*
X82223223Y-38459418D01*
X82447251Y-38552213D01*
X82685077Y-38599520D01*
X82927563Y-38599520D01*
X83165389Y-38552213D01*
X83389417Y-38459418D01*
X83591037Y-38324700D01*
X83762500Y-38153237D01*
X83897218Y-37951617D01*
X83990013Y-37727589D01*
X84037320Y-37489763D01*
X84037320Y-37247277D01*
X84115320Y-37247277D01*
X84115320Y-37489763D01*
X84162627Y-37727589D01*
X84255422Y-37951617D01*
X84390140Y-38153237D01*
X84561603Y-38324700D01*
X84763223Y-38459418D01*
X84987251Y-38552213D01*
X85225077Y-38599520D01*
X85467563Y-38599520D01*
X85705389Y-38552213D01*
X85929417Y-38459418D01*
X86131037Y-38324700D01*
X86302500Y-38153237D01*
X86437218Y-37951617D01*
X86530013Y-37727589D01*
X86577320Y-37489763D01*
X86577320Y-37247277D01*
X86655320Y-37247277D01*
X86655320Y-37489763D01*
X86702627Y-37727589D01*
X86795422Y-37951617D01*
X86930140Y-38153237D01*
X87101603Y-38324700D01*
X87303223Y-38459418D01*
X87527251Y-38552213D01*
X87765077Y-38599520D01*
X88007563Y-38599520D01*
X88245389Y-38552213D01*
X88469417Y-38459418D01*
X88671037Y-38324700D01*
X88842500Y-38153237D01*
X88977218Y-37951617D01*
X89070013Y-37727589D01*
X89117320Y-37489763D01*
X89117320Y-37247277D01*
X89195320Y-37247277D01*
X89195320Y-37489763D01*
X89242627Y-37727589D01*
X89335422Y-37951617D01*
X89470140Y-38153237D01*
X89641603Y-38324700D01*
X89843223Y-38459418D01*
X90067251Y-38552213D01*
X90305077Y-38599520D01*
X90547563Y-38599520D01*
X90785389Y-38552213D01*
X91009417Y-38459418D01*
X91211037Y-38324700D01*
X91382500Y-38153237D01*
X91517218Y-37951617D01*
X91610013Y-37727589D01*
X91657320Y-37489763D01*
X91657320Y-37247277D01*
X91610013Y-37009451D01*
X91517218Y-36785423D01*
X91382500Y-36583803D01*
X91211037Y-36412340D01*
X91009417Y-36277622D01*
X90785389Y-36184827D01*
X90547563Y-36137520D01*
X90305077Y-36137520D01*
X90067251Y-36184827D01*
X89843223Y-36277622D01*
X89641603Y-36412340D01*
X89470140Y-36583803D01*
X89335422Y-36785423D01*
X89242627Y-37009451D01*
X89195320Y-37247277D01*
X89117320Y-37247277D01*
X89070013Y-37009451D01*
X88977218Y-36785423D01*
X88842500Y-36583803D01*
X88671037Y-36412340D01*
X88469417Y-36277622D01*
X88245389Y-36184827D01*
X88007563Y-36137520D01*
X87765077Y-36137520D01*
X87527251Y-36184827D01*
X87303223Y-36277622D01*
X87101603Y-36412340D01*
X86930140Y-36583803D01*
X86795422Y-36785423D01*
X86702627Y-37009451D01*
X86655320Y-37247277D01*
X86577320Y-37247277D01*
X86530013Y-37009451D01*
X86437218Y-36785423D01*
X86302500Y-36583803D01*
X86131037Y-36412340D01*
X85929417Y-36277622D01*
X85705389Y-36184827D01*
X85467563Y-36137520D01*
X85225077Y-36137520D01*
X84987251Y-36184827D01*
X84763223Y-36277622D01*
X84561603Y-36412340D01*
X84390140Y-36583803D01*
X84255422Y-36785423D01*
X84162627Y-37009451D01*
X84115320Y-37247277D01*
X84037320Y-37247277D01*
X83990013Y-37009451D01*
X83897218Y-36785423D01*
X83762500Y-36583803D01*
X83591037Y-36412340D01*
X83389417Y-36277622D01*
X83165389Y-36184827D01*
X82927563Y-36137520D01*
X82685077Y-36137520D01*
X82447251Y-36184827D01*
X82223223Y-36277622D01*
X82021603Y-36412340D01*
X81850140Y-36583803D01*
X81715422Y-36785423D01*
X81622627Y-37009451D01*
X81575320Y-37247277D01*
X81497320Y-37247277D01*
X81450013Y-37009451D01*
X81357218Y-36785423D01*
X81222500Y-36583803D01*
X81051037Y-36412340D01*
X80849417Y-36277622D01*
X80625389Y-36184827D01*
X80387563Y-36137520D01*
X80145077Y-36137520D01*
X79907251Y-36184827D01*
X79683223Y-36277622D01*
X79481603Y-36412340D01*
X79310140Y-36583803D01*
X79175422Y-36785423D01*
X79082627Y-37009451D01*
X79035320Y-37247277D01*
X78601182Y-37247277D01*
X83600579Y-32247880D01*
X92228875Y-32247880D01*
X92252580Y-32250215D01*
X92276285Y-32247880D01*
X92276287Y-32247880D01*
X92347186Y-32240897D01*
X92438157Y-32213302D01*
X92521995Y-32168489D01*
X92595481Y-32108181D01*
X92610597Y-32089762D01*
X93341607Y-31358753D01*
X93360021Y-31343641D01*
X93420329Y-31270155D01*
X93465142Y-31186317D01*
X93481265Y-31133165D01*
X93492737Y-31095347D01*
X93502055Y-31000740D01*
X93499720Y-30977033D01*
X93499720Y-22956245D01*
X93600217Y-22914618D01*
X93697841Y-22849388D01*
X93697840Y-36376795D01*
X93549417Y-36277622D01*
X93325389Y-36184827D01*
X93087563Y-36137520D01*
X92845077Y-36137520D01*
X92607251Y-36184827D01*
X92383223Y-36277622D01*
X92181603Y-36412340D01*
X92010140Y-36583803D01*
X91875422Y-36785423D01*
X91782627Y-37009451D01*
X91735320Y-37247277D01*
X91735320Y-37489763D01*
X91782627Y-37727589D01*
X91875422Y-37951617D01*
X92010140Y-38153237D01*
X92181603Y-38324700D01*
X92383223Y-38459418D01*
X92607251Y-38552213D01*
X92845077Y-38599520D01*
X93087563Y-38599520D01*
X93325389Y-38552213D01*
X93549417Y-38459418D01*
X93751037Y-38324700D01*
X93849470Y-38226267D01*
X93863273Y-38243087D01*
X93885088Y-38260990D01*
X95783373Y-40159277D01*
X95093440Y-40159277D01*
X95018751Y-40166633D01*
X94946932Y-40188419D01*
X94880744Y-40223798D01*
X94822729Y-40271409D01*
X94775118Y-40329424D01*
X94739739Y-40395612D01*
X94717953Y-40467431D01*
X94710597Y-40542120D01*
X94710597Y-43542120D01*
X94717953Y-43616809D01*
X94739739Y-43688628D01*
X94775118Y-43754816D01*
X94822729Y-43812831D01*
X94880744Y-43860442D01*
X94946932Y-43895821D01*
X95018751Y-43917607D01*
X95093440Y-43924963D01*
X98093440Y-43924963D01*
X98168129Y-43917607D01*
X98171591Y-43916557D01*
X98171592Y-57274487D01*
X96431903Y-59014177D01*
X76713478Y-59014177D01*
X70581005Y-52881705D01*
X70557646Y-52644540D01*
X70477764Y-52381205D01*
X70467000Y-52361067D01*
X70467000Y-50220875D01*
X70446786Y-50015640D01*
X70366904Y-49752305D01*
X70302843Y-49632455D01*
X70302843Y-49439500D01*
X70295487Y-49364811D01*
X70273701Y-49292992D01*
X70238322Y-49226804D01*
X70190711Y-49168789D01*
X70132696Y-49121178D01*
X70066508Y-49085799D01*
X69994689Y-49064013D01*
X69920000Y-49056657D01*
X69727044Y-49056657D01*
X69607194Y-48992596D01*
X69343859Y-48912714D01*
X69070000Y-48885741D01*
X68796140Y-48912714D01*
X68532805Y-48992596D01*
X68412955Y-49056657D01*
X68220000Y-49056657D01*
X68145311Y-49064013D01*
X68073492Y-49085799D01*
X68007304Y-49121178D01*
X67949289Y-49168789D01*
X67901678Y-49226804D01*
X67866299Y-49292992D01*
X67844513Y-49364811D01*
X67837157Y-49439500D01*
X67837157Y-49632456D01*
X67773096Y-49752306D01*
X67715819Y-49941121D01*
X67713693Y-49930431D01*
X67620898Y-49706403D01*
X67486180Y-49504783D01*
X67314717Y-49333320D01*
X67113097Y-49198602D01*
X66889069Y-49105807D01*
X66651243Y-49058500D01*
X66408757Y-49058500D01*
X66170931Y-49105807D01*
X65946903Y-49198602D01*
X65745283Y-49333320D01*
X65573820Y-49504783D01*
X65439102Y-49706403D01*
X65346307Y-49930431D01*
X65299000Y-50168257D01*
X65299000Y-50410743D01*
X65346307Y-50648569D01*
X65439102Y-50872597D01*
X65573820Y-51074217D01*
X65745283Y-51245680D01*
X65946903Y-51380398D01*
X66170931Y-51473193D01*
X66408757Y-51520500D01*
X66651243Y-51520500D01*
X66889069Y-51473193D01*
X67113097Y-51380398D01*
X67314717Y-51245680D01*
X67486180Y-51074217D01*
X67620898Y-50872597D01*
X67673000Y-50746811D01*
X67673000Y-51521400D01*
X62170897Y-51521400D01*
X60206343Y-49556848D01*
X60206343Y-49439500D01*
X60198987Y-49364811D01*
X60177201Y-49292992D01*
X60141822Y-49226804D01*
X60094211Y-49168789D01*
X60036196Y-49121178D01*
X59970008Y-49085799D01*
X59898189Y-49064013D01*
X59823500Y-49056657D01*
X59630544Y-49056657D01*
X59510694Y-48992596D01*
X59247359Y-48912714D01*
X58973500Y-48885741D01*
X58699640Y-48912714D01*
X58436305Y-48992596D01*
X58316455Y-49056657D01*
X58123500Y-49056657D01*
X58048811Y-49064013D01*
X57976992Y-49085799D01*
X57910804Y-49121178D01*
X57852789Y-49168789D01*
X57805178Y-49226804D01*
X57769799Y-49292992D01*
X57748013Y-49364811D01*
X57740657Y-49439500D01*
X57740657Y-49632456D01*
X57676596Y-49752306D01*
X57619319Y-49941121D01*
X57617193Y-49930431D01*
X57524398Y-49706403D01*
X57389680Y-49504783D01*
X57218217Y-49333320D01*
X57016597Y-49198602D01*
X56792569Y-49105807D01*
X56554743Y-49058500D01*
X56312257Y-49058500D01*
X56074431Y-49105807D01*
X55850403Y-49198602D01*
X55648783Y-49333320D01*
X55477320Y-49504783D01*
X55342602Y-49706403D01*
X55249807Y-49930431D01*
X55202500Y-50168257D01*
X55202500Y-50410743D01*
X55249807Y-50648569D01*
X55342602Y-50872597D01*
X55477320Y-51074217D01*
X55648783Y-51245680D01*
X55850403Y-51380398D01*
X56074431Y-51473193D01*
X56291243Y-51516320D01*
X51096496Y-51516320D01*
X50055560Y-50475385D01*
X50055560Y-43233785D01*
X50062319Y-43165160D01*
X50035346Y-42891300D01*
X50006516Y-42796260D01*
X49955464Y-42627965D01*
X49825743Y-42385273D01*
X49651167Y-42172552D01*
X49597861Y-42128805D01*
X47814964Y-40345909D01*
X47771208Y-40292592D01*
X47558487Y-40118017D01*
X47315795Y-39988296D01*
X47052460Y-39908414D01*
X46847225Y-39888200D01*
X46778600Y-39881441D01*
X46709975Y-39888200D01*
X45734975Y-39888200D01*
X45529740Y-39908414D01*
X45266405Y-39988296D01*
X45146555Y-40052357D01*
X45078600Y-40052357D01*
X44955138Y-40064517D01*
X44836421Y-40100529D01*
X44727011Y-40159010D01*
X44631112Y-40237712D01*
X44552410Y-40333611D01*
X44493929Y-40443021D01*
X44457917Y-40561738D01*
X44445757Y-40685200D01*
X44445757Y-40948893D01*
X44426814Y-41011340D01*
X44399841Y-41285200D01*
X44426814Y-41559060D01*
X44445757Y-41621507D01*
X44445757Y-41885200D01*
X44457917Y-42008662D01*
X44493929Y-42127379D01*
X44552410Y-42236789D01*
X44631112Y-42332688D01*
X44727011Y-42411390D01*
X44836421Y-42469871D01*
X44955138Y-42505883D01*
X45078600Y-42518043D01*
X45146555Y-42518043D01*
X45266405Y-42582104D01*
X45335209Y-42602975D01*
X45205237Y-42642402D01*
X44991384Y-42756709D01*
X44803940Y-42910540D01*
X44650109Y-43097984D01*
X44535802Y-43311837D01*
X44465412Y-43543882D01*
X44441644Y-43785200D01*
X44465412Y-44026518D01*
X44535802Y-44258563D01*
X44650109Y-44472416D01*
X44803940Y-44659860D01*
X44991384Y-44813691D01*
X45205237Y-44927998D01*
X45437282Y-44998388D01*
X45618128Y-45016200D01*
X45989072Y-45016200D01*
X46169918Y-44998388D01*
X46401963Y-44927998D01*
X46615816Y-44813691D01*
X46803260Y-44659860D01*
X46957091Y-44472416D01*
X47071398Y-44258563D01*
X47141788Y-44026518D01*
X47165556Y-43785200D01*
X47150546Y-43632802D01*
X47261560Y-43743816D01*
X47261561Y-51010805D01*
X47254801Y-51079440D01*
X47261560Y-51148065D01*
X47261560Y-51516320D01*
X46161540Y-51516320D01*
X46077459Y-51490814D01*
X45803600Y-51463841D01*
X45529741Y-51490814D01*
X45266405Y-51570697D01*
X45146557Y-51634757D01*
X45078600Y-51634757D01*
X44955138Y-51646917D01*
X44836421Y-51682929D01*
X44727011Y-51741410D01*
X44631112Y-51820112D01*
X44552410Y-51916011D01*
X44493929Y-52025421D01*
X44457917Y-52144138D01*
X44445757Y-52267600D01*
X44445757Y-52531295D01*
X44426814Y-52593741D01*
X44399841Y-52867600D01*
X44426814Y-53141459D01*
X44445757Y-53203905D01*
X44445757Y-53467600D01*
X44457917Y-53591062D01*
X44493929Y-53709779D01*
X44552410Y-53819189D01*
X44631112Y-53915088D01*
X44727011Y-53993790D01*
X44836421Y-54052271D01*
X44955138Y-54088283D01*
X45078600Y-54100443D01*
X45106738Y-54100443D01*
X45290825Y-54198839D01*
X45205237Y-54224802D01*
X44991384Y-54339109D01*
X44803940Y-54492940D01*
X44650109Y-54680384D01*
X44535802Y-54894237D01*
X44465412Y-55126282D01*
X44441644Y-55367600D01*
X44465412Y-55608918D01*
X44535802Y-55840963D01*
X44650109Y-56054816D01*
X44803940Y-56242260D01*
X44991384Y-56396091D01*
X45205237Y-56510398D01*
X45437282Y-56580788D01*
X45618128Y-56598600D01*
X45989072Y-56598600D01*
X46169918Y-56580788D01*
X46401963Y-56510398D01*
X46615816Y-56396091D01*
X46803260Y-56242260D01*
X46957091Y-56054816D01*
X47071398Y-55840963D01*
X47141788Y-55608918D01*
X47165556Y-55367600D01*
X47141788Y-55126282D01*
X47071398Y-54894237D01*
X46957091Y-54680384D01*
X46803260Y-54492940D01*
X46615816Y-54339109D01*
X46561956Y-54310320D01*
X48589935Y-54310320D01*
X48658560Y-54317079D01*
X48727185Y-54310320D01*
X50449215Y-54310320D01*
X50517840Y-54317079D01*
X50586465Y-54310320D01*
X61204941Y-54310320D01*
X61389500Y-54366306D01*
X61663359Y-54393279D01*
X61663360Y-54393279D01*
X61937219Y-54366306D01*
X62105032Y-54315400D01*
X69112235Y-54315400D01*
X69144165Y-54318545D01*
X75261884Y-60436265D01*
X38043500Y-60424627D01*
X38043499Y-34590400D01*
X44416644Y-34590400D01*
X44440412Y-34831718D01*
X44510802Y-35063763D01*
X44625109Y-35277616D01*
X44778940Y-35465060D01*
X44966384Y-35618891D01*
X45180237Y-35733198D01*
X45412282Y-35803588D01*
X45593128Y-35821400D01*
X46014072Y-35821400D01*
X46194918Y-35803588D01*
X46210701Y-35798800D01*
X56518714Y-35798800D01*
X56522401Y-35836233D01*
X56522400Y-45335825D01*
X56522401Y-45335835D01*
X56522400Y-46378576D01*
X56518714Y-46416000D01*
X56522400Y-46453423D01*
X56522400Y-46453425D01*
X56533426Y-46565377D01*
X56576998Y-46709014D01*
X56576999Y-46709015D01*
X56647755Y-46841392D01*
X56682908Y-46884226D01*
X56742978Y-46957422D01*
X56772054Y-46981284D01*
X57938320Y-48147551D01*
X57962178Y-48176622D01*
X58078208Y-48271845D01*
X58210585Y-48342602D01*
X58354222Y-48386174D01*
X58466174Y-48397200D01*
X58466176Y-48397200D01*
X58503599Y-48400886D01*
X58541022Y-48397200D01*
X69592570Y-48397200D01*
X73933157Y-52737788D01*
X73933157Y-53643000D01*
X73945317Y-53766462D01*
X73981329Y-53885179D01*
X74039810Y-53994589D01*
X74118512Y-54090488D01*
X74214411Y-54169190D01*
X74323821Y-54227671D01*
X74442538Y-54263683D01*
X74566000Y-54275843D01*
X75766000Y-54275843D01*
X75889462Y-54263683D01*
X76008179Y-54227671D01*
X76117589Y-54169190D01*
X76213488Y-54090488D01*
X76292190Y-53994589D01*
X76350671Y-53885179D01*
X76386683Y-53766462D01*
X76398843Y-53643000D01*
X76398843Y-52682529D01*
X76435000Y-52682529D01*
X76435000Y-53103472D01*
X76452812Y-53284318D01*
X76523202Y-53516363D01*
X76637510Y-53730216D01*
X76791341Y-53917660D01*
X76978785Y-54071491D01*
X77192638Y-54185798D01*
X77424683Y-54256188D01*
X77666000Y-54279956D01*
X77907318Y-54256188D01*
X78139363Y-54185798D01*
X78353216Y-54071491D01*
X78540660Y-53917660D01*
X78694491Y-53730215D01*
X78808798Y-53516362D01*
X78879188Y-53284317D01*
X78897000Y-53103471D01*
X78897000Y-52682528D01*
X78879188Y-52501682D01*
X78808798Y-52269637D01*
X78694491Y-52055784D01*
X78540660Y-51868340D01*
X78353215Y-51714509D01*
X78139362Y-51600202D01*
X77907317Y-51529812D01*
X77666000Y-51506044D01*
X77424682Y-51529812D01*
X77192637Y-51600202D01*
X76978784Y-51714509D01*
X76791340Y-51868340D01*
X76637509Y-52055785D01*
X76523202Y-52269638D01*
X76452812Y-52501683D01*
X76435000Y-52682529D01*
X76398843Y-52682529D01*
X76398843Y-52143000D01*
X76386683Y-52019538D01*
X76350671Y-51900821D01*
X76292190Y-51791411D01*
X76213488Y-51695512D01*
X76117589Y-51616810D01*
X76008179Y-51558329D01*
X75889462Y-51522317D01*
X75766000Y-51510157D01*
X74860788Y-51510157D01*
X70473484Y-47122854D01*
X70449622Y-47093778D01*
X70333592Y-46998555D01*
X70201215Y-46927798D01*
X70102583Y-46897878D01*
X88710600Y-46897878D01*
X88710600Y-47051722D01*
X88740613Y-47202609D01*
X88799487Y-47344742D01*
X88884958Y-47472659D01*
X88993741Y-47581442D01*
X89059411Y-47625321D01*
X92692000Y-51257911D01*
X92692001Y-54320753D01*
X92673000Y-54416278D01*
X92673000Y-54570122D01*
X92703013Y-54721009D01*
X92761887Y-54863142D01*
X92847358Y-54991059D01*
X92956141Y-55099842D01*
X93084058Y-55185313D01*
X93226191Y-55244187D01*
X93377078Y-55274200D01*
X93530922Y-55274200D01*
X93681809Y-55244187D01*
X93823942Y-55185313D01*
X93951859Y-55099842D01*
X94060642Y-54991059D01*
X94146113Y-54863142D01*
X94204987Y-54721009D01*
X94235000Y-54570122D01*
X94235000Y-54416278D01*
X94216000Y-54320758D01*
X94216000Y-50979703D01*
X94219686Y-50942280D01*
X94212823Y-50872597D01*
X94204974Y-50792902D01*
X94161402Y-50649265D01*
X94128465Y-50587644D01*
X94090645Y-50516887D01*
X94019279Y-50429928D01*
X93995422Y-50400858D01*
X93966353Y-50377002D01*
X90162580Y-46573230D01*
X90098242Y-46476941D01*
X89989459Y-46368158D01*
X89861542Y-46282687D01*
X89719409Y-46223813D01*
X89568522Y-46193800D01*
X89414678Y-46193800D01*
X89263791Y-46223813D01*
X89121658Y-46282687D01*
X88993741Y-46368158D01*
X88884958Y-46476941D01*
X88799487Y-46604858D01*
X88740613Y-46746991D01*
X88710600Y-46897878D01*
X70102583Y-46897878D01*
X70057578Y-46884226D01*
X69945626Y-46873200D01*
X69945623Y-46873200D01*
X69908200Y-46869514D01*
X69870777Y-46873200D01*
X58819231Y-46873200D01*
X58046400Y-46100370D01*
X58046400Y-42893368D01*
X80200540Y-42893368D01*
X80200540Y-43314311D01*
X80218352Y-43495157D01*
X80288742Y-43727202D01*
X80403049Y-43941055D01*
X80556880Y-44128500D01*
X80744324Y-44282331D01*
X80958177Y-44396638D01*
X81190222Y-44467028D01*
X81431540Y-44490796D01*
X81672857Y-44467028D01*
X81904902Y-44396638D01*
X82118755Y-44282331D01*
X82306200Y-44128500D01*
X82460031Y-43941056D01*
X82574338Y-43727203D01*
X82644728Y-43495158D01*
X82662540Y-43314312D01*
X82662540Y-42893369D01*
X82644728Y-42712523D01*
X82574338Y-42480478D01*
X82506649Y-42353840D01*
X82698697Y-42353840D01*
X82698697Y-43853840D01*
X82710857Y-43977302D01*
X82746869Y-44096019D01*
X82805350Y-44205429D01*
X82884052Y-44301328D01*
X82979951Y-44380030D01*
X83089361Y-44438511D01*
X83208078Y-44474523D01*
X83331540Y-44486683D01*
X84531540Y-44486683D01*
X84655002Y-44474523D01*
X84773719Y-44438511D01*
X84883129Y-44380030D01*
X84979028Y-44301328D01*
X85057730Y-44205429D01*
X85116211Y-44096019D01*
X85152223Y-43977302D01*
X85164383Y-43853840D01*
X85164383Y-42353840D01*
X85152223Y-42230378D01*
X85116211Y-42111661D01*
X85057730Y-42002251D01*
X84979028Y-41906352D01*
X84883129Y-41827650D01*
X84773719Y-41769169D01*
X84655002Y-41733157D01*
X84531540Y-41720997D01*
X83331540Y-41720997D01*
X83208078Y-41733157D01*
X83089361Y-41769169D01*
X82979951Y-41827650D01*
X82884052Y-41906352D01*
X82805350Y-42002251D01*
X82746869Y-42111661D01*
X82710857Y-42230378D01*
X82698697Y-42353840D01*
X82506649Y-42353840D01*
X82460031Y-42266625D01*
X82306200Y-42079180D01*
X82118756Y-41925349D01*
X81904903Y-41811042D01*
X81672858Y-41740652D01*
X81431540Y-41716884D01*
X81190223Y-41740652D01*
X80958178Y-41811042D01*
X80744325Y-41925349D01*
X80556881Y-42079180D01*
X80403050Y-42266624D01*
X80288742Y-42480477D01*
X80218352Y-42712522D01*
X80200540Y-42893368D01*
X58046400Y-42893368D01*
X58046400Y-36114430D01*
X59043479Y-35117352D01*
X59043484Y-35117346D01*
X59320746Y-34840084D01*
X59349822Y-34816222D01*
X59445045Y-34700192D01*
X59515802Y-34567815D01*
X59559374Y-34424178D01*
X59574086Y-34274800D01*
X59559374Y-34125422D01*
X59515802Y-33981785D01*
X59445045Y-33849408D01*
X59349822Y-33733378D01*
X59233792Y-33638155D01*
X59101415Y-33567398D01*
X58957778Y-33523826D01*
X58845826Y-33512800D01*
X58845822Y-33512800D01*
X58808399Y-33509114D01*
X58770976Y-33512800D01*
X58770974Y-33512800D01*
X58659022Y-33523826D01*
X58515385Y-33567398D01*
X58383008Y-33638155D01*
X58266978Y-33733378D01*
X58243116Y-33762454D01*
X57965854Y-34039716D01*
X57965848Y-34039721D01*
X56772049Y-35233521D01*
X56742979Y-35257378D01*
X56719122Y-35286448D01*
X56719121Y-35286449D01*
X56647755Y-35373408D01*
X56576999Y-35505785D01*
X56533427Y-35649422D01*
X56518714Y-35798800D01*
X46210701Y-35798800D01*
X46426963Y-35733198D01*
X46640816Y-35618891D01*
X46828260Y-35465060D01*
X46982091Y-35277616D01*
X47096398Y-35063763D01*
X47166788Y-34831718D01*
X47190556Y-34590400D01*
X47166788Y-34349082D01*
X47096398Y-34117037D01*
X46982091Y-33903184D01*
X46828260Y-33715740D01*
X46640816Y-33561909D01*
X46426963Y-33447602D01*
X46194918Y-33377212D01*
X46014072Y-33359400D01*
X45593128Y-33359400D01*
X45412282Y-33377212D01*
X45180237Y-33447602D01*
X44966384Y-33561909D01*
X44778940Y-33715740D01*
X44625109Y-33903184D01*
X44510802Y-34117037D01*
X44440412Y-34349082D01*
X44416644Y-34590400D01*
X38043499Y-34590400D01*
X38043499Y-28824600D01*
X75022557Y-28824600D01*
X75022557Y-30174600D01*
X75029913Y-30249289D01*
X75051699Y-30321108D01*
X75087078Y-30387296D01*
X75134689Y-30445311D01*
X75192704Y-30492922D01*
X75258892Y-30528301D01*
X75330711Y-30550087D01*
X75405400Y-30557443D01*
X75595507Y-30557443D01*
X75580196Y-30563785D01*
X75407239Y-30679351D01*
X75260151Y-30826439D01*
X75144585Y-30999396D01*
X75064981Y-31191576D01*
X75024400Y-31395593D01*
X75024400Y-31603607D01*
X75064981Y-31807624D01*
X75144585Y-31999804D01*
X75260151Y-32172761D01*
X75407239Y-32319849D01*
X75580196Y-32435415D01*
X75735151Y-32499600D01*
X75580196Y-32563785D01*
X75407239Y-32679351D01*
X75260151Y-32826439D01*
X75144585Y-32999396D01*
X75064981Y-33191576D01*
X75024400Y-33395593D01*
X75024400Y-33603607D01*
X75064981Y-33807624D01*
X75144585Y-33999804D01*
X75260151Y-34172761D01*
X75407239Y-34319849D01*
X75580196Y-34435415D01*
X75735151Y-34499600D01*
X75580196Y-34563785D01*
X75407239Y-34679351D01*
X75260151Y-34826439D01*
X75144585Y-34999396D01*
X75064981Y-35191576D01*
X75024400Y-35395593D01*
X75024400Y-35603607D01*
X75064981Y-35807624D01*
X75144585Y-35999804D01*
X75260151Y-36172761D01*
X75407239Y-36319849D01*
X75580196Y-36435415D01*
X75772376Y-36515019D01*
X75976393Y-36555600D01*
X76184407Y-36555600D01*
X76388424Y-36515019D01*
X76580604Y-36435415D01*
X76753561Y-36319849D01*
X76900649Y-36172761D01*
X77016215Y-35999804D01*
X77095819Y-35807624D01*
X77136400Y-35603607D01*
X77136400Y-35395593D01*
X77095819Y-35191576D01*
X77016215Y-34999396D01*
X76900649Y-34826439D01*
X76753561Y-34679351D01*
X76580604Y-34563785D01*
X76425649Y-34499600D01*
X76580604Y-34435415D01*
X76753561Y-34319849D01*
X76900649Y-34172761D01*
X77016215Y-33999804D01*
X77095819Y-33807624D01*
X77136400Y-33603607D01*
X77136400Y-33395593D01*
X77095819Y-33191576D01*
X77016215Y-32999396D01*
X76900649Y-32826439D01*
X76753561Y-32679351D01*
X76580604Y-32563785D01*
X76425649Y-32499600D01*
X76580604Y-32435415D01*
X76753561Y-32319849D01*
X76900649Y-32172761D01*
X77016215Y-31999804D01*
X77095819Y-31807624D01*
X77136400Y-31603607D01*
X77136400Y-31395593D01*
X77095819Y-31191576D01*
X77016215Y-30999396D01*
X76900649Y-30826439D01*
X76753561Y-30679351D01*
X76580604Y-30563785D01*
X76565293Y-30557443D01*
X76755400Y-30557443D01*
X76830089Y-30550087D01*
X76901908Y-30528301D01*
X76968096Y-30492922D01*
X77026111Y-30445311D01*
X77073722Y-30387296D01*
X77109101Y-30321108D01*
X77130887Y-30249289D01*
X77138243Y-30174600D01*
X77138243Y-28824600D01*
X77130887Y-28749911D01*
X77109101Y-28678092D01*
X77073722Y-28611904D01*
X77026111Y-28553889D01*
X76968096Y-28506278D01*
X76901908Y-28470899D01*
X76830089Y-28449113D01*
X76755400Y-28441757D01*
X75405400Y-28441757D01*
X75330711Y-28449113D01*
X75258892Y-28470899D01*
X75192704Y-28506278D01*
X75134689Y-28553889D01*
X75087078Y-28611904D01*
X75051699Y-28678092D01*
X75029913Y-28749911D01*
X75022557Y-28824600D01*
X38043499Y-28824600D01*
X38043499Y-25446400D01*
X44416644Y-25446400D01*
X44440412Y-25687718D01*
X44510802Y-25919763D01*
X44625109Y-26133616D01*
X44778940Y-26321060D01*
X44966384Y-26474891D01*
X45180237Y-26589198D01*
X45412282Y-26659588D01*
X45593128Y-26677400D01*
X46014072Y-26677400D01*
X46194918Y-26659588D01*
X46426963Y-26589198D01*
X46640816Y-26474891D01*
X46828260Y-26321060D01*
X46982091Y-26133616D01*
X47096398Y-25919763D01*
X47166788Y-25687718D01*
X47190556Y-25446400D01*
X47166788Y-25205082D01*
X47096398Y-24973037D01*
X46982091Y-24759184D01*
X46828260Y-24571740D01*
X46640816Y-24417909D01*
X46426963Y-24303602D01*
X46194918Y-24233212D01*
X46014072Y-24215400D01*
X45593128Y-24215400D01*
X45412282Y-24233212D01*
X45180237Y-24303602D01*
X44966384Y-24417909D01*
X44778940Y-24571740D01*
X44625109Y-24759184D01*
X44510802Y-24973037D01*
X44440412Y-25205082D01*
X44416644Y-25446400D01*
X38043499Y-25446400D01*
X38043499Y-21074800D01*
X63462757Y-21074800D01*
X63462757Y-22074800D01*
X63470113Y-22149489D01*
X63491899Y-22221308D01*
X63527278Y-22287496D01*
X63574889Y-22345511D01*
X63632904Y-22393122D01*
X63699092Y-22428501D01*
X63770911Y-22450287D01*
X63845600Y-22457643D01*
X64845600Y-22457643D01*
X64920289Y-22450287D01*
X64992108Y-22428501D01*
X65058296Y-22393122D01*
X65116311Y-22345511D01*
X65140032Y-22316606D01*
X65198290Y-22355532D01*
X65358622Y-22421944D01*
X65528829Y-22455800D01*
X65702371Y-22455800D01*
X65872578Y-22421944D01*
X66032910Y-22355532D01*
X66177205Y-22259118D01*
X66250600Y-22185723D01*
X66323995Y-22259118D01*
X66468290Y-22355532D01*
X66628622Y-22421944D01*
X66798829Y-22455800D01*
X66972371Y-22455800D01*
X67142578Y-22421944D01*
X67302910Y-22355532D01*
X67447205Y-22259118D01*
X67489603Y-22216720D01*
X71337277Y-22216720D01*
X71337277Y-23716720D01*
X71349437Y-23840182D01*
X71385449Y-23958899D01*
X71443930Y-24068309D01*
X71522632Y-24164208D01*
X71618531Y-24242910D01*
X71727941Y-24301391D01*
X71846658Y-24337403D01*
X71970120Y-24349563D01*
X73170120Y-24349563D01*
X73293582Y-24337403D01*
X73412299Y-24301391D01*
X73521709Y-24242910D01*
X73617608Y-24164208D01*
X73696310Y-24068309D01*
X73754791Y-23958899D01*
X73790803Y-23840182D01*
X73802963Y-23716720D01*
X73802963Y-22756249D01*
X73839120Y-22756249D01*
X73839120Y-23177192D01*
X73856932Y-23358038D01*
X73927322Y-23590083D01*
X74041630Y-23803936D01*
X74195461Y-23991380D01*
X74382905Y-24145211D01*
X74596758Y-24259518D01*
X74828803Y-24329908D01*
X75070120Y-24353676D01*
X75311438Y-24329908D01*
X75543483Y-24259518D01*
X75757336Y-24145211D01*
X75944780Y-23991380D01*
X76098611Y-23803935D01*
X76212918Y-23590082D01*
X76283308Y-23358037D01*
X76301120Y-23177191D01*
X76301120Y-22756248D01*
X76283308Y-22575402D01*
X76212918Y-22343357D01*
X76098611Y-22129504D01*
X75944780Y-21942060D01*
X75757335Y-21788229D01*
X75596905Y-21702477D01*
X79086120Y-21702477D01*
X79086120Y-21944963D01*
X79133427Y-22182789D01*
X79226222Y-22406817D01*
X79360940Y-22608437D01*
X79532403Y-22779900D01*
X79734023Y-22914618D01*
X79958051Y-23007413D01*
X80195877Y-23054720D01*
X80438363Y-23054720D01*
X80676189Y-23007413D01*
X80900217Y-22914618D01*
X81101837Y-22779900D01*
X81273300Y-22608437D01*
X81408018Y-22406817D01*
X81500813Y-22182789D01*
X81548120Y-21944963D01*
X81548120Y-21702477D01*
X81626120Y-21702477D01*
X81626120Y-21944963D01*
X81673427Y-22182789D01*
X81766222Y-22406817D01*
X81900940Y-22608437D01*
X82072403Y-22779900D01*
X82274023Y-22914618D01*
X82498051Y-23007413D01*
X82735877Y-23054720D01*
X82978363Y-23054720D01*
X83216189Y-23007413D01*
X83440217Y-22914618D01*
X83641837Y-22779900D01*
X83813300Y-22608437D01*
X83948018Y-22406817D01*
X84040813Y-22182789D01*
X84088120Y-21944963D01*
X84088120Y-21702477D01*
X84040813Y-21464651D01*
X83948018Y-21240623D01*
X83813300Y-21039003D01*
X83641837Y-20867540D01*
X83440217Y-20732822D01*
X83216189Y-20640027D01*
X82978363Y-20592720D01*
X82735877Y-20592720D01*
X82498051Y-20640027D01*
X82274023Y-20732822D01*
X82072403Y-20867540D01*
X81900940Y-21039003D01*
X81766222Y-21240623D01*
X81673427Y-21464651D01*
X81626120Y-21702477D01*
X81548120Y-21702477D01*
X81500813Y-21464651D01*
X81408018Y-21240623D01*
X81273300Y-21039003D01*
X81101837Y-20867540D01*
X80900217Y-20732822D01*
X80676189Y-20640027D01*
X80438363Y-20592720D01*
X80195877Y-20592720D01*
X79958051Y-20640027D01*
X79734023Y-20732822D01*
X79532403Y-20867540D01*
X79360940Y-21039003D01*
X79226222Y-21240623D01*
X79133427Y-21464651D01*
X79086120Y-21702477D01*
X75596905Y-21702477D01*
X75543482Y-21673922D01*
X75311437Y-21603532D01*
X75070120Y-21579764D01*
X74828802Y-21603532D01*
X74596757Y-21673922D01*
X74382904Y-21788229D01*
X74195460Y-21942060D01*
X74041629Y-22129505D01*
X73927322Y-22343358D01*
X73856932Y-22575403D01*
X73839120Y-22756249D01*
X73802963Y-22756249D01*
X73802963Y-22216720D01*
X73790803Y-22093258D01*
X73754791Y-21974541D01*
X73696310Y-21865131D01*
X73617608Y-21769232D01*
X73521709Y-21690530D01*
X73412299Y-21632049D01*
X73293582Y-21596037D01*
X73170120Y-21583877D01*
X71970120Y-21583877D01*
X71846658Y-21596037D01*
X71727941Y-21632049D01*
X71618531Y-21690530D01*
X71522632Y-21769232D01*
X71443930Y-21865131D01*
X71385449Y-21974541D01*
X71349437Y-22093258D01*
X71337277Y-22216720D01*
X67489603Y-22216720D01*
X67569918Y-22136405D01*
X67666332Y-21992110D01*
X67732744Y-21831778D01*
X67766600Y-21661571D01*
X67766600Y-21488029D01*
X67732744Y-21317822D01*
X67666332Y-21157490D01*
X67569918Y-21013195D01*
X67447205Y-20890482D01*
X67302910Y-20794068D01*
X67142578Y-20727656D01*
X66972371Y-20693800D01*
X66798829Y-20693800D01*
X66628622Y-20727656D01*
X66468290Y-20794068D01*
X66323995Y-20890482D01*
X66250600Y-20963877D01*
X66177205Y-20890482D01*
X66032910Y-20794068D01*
X65872578Y-20727656D01*
X65702371Y-20693800D01*
X65528829Y-20693800D01*
X65358622Y-20727656D01*
X65198290Y-20794068D01*
X65140032Y-20832994D01*
X65116311Y-20804089D01*
X65058296Y-20756478D01*
X64992108Y-20721099D01*
X64920289Y-20699313D01*
X64845600Y-20691957D01*
X63845600Y-20691957D01*
X63770911Y-20699313D01*
X63699092Y-20721099D01*
X63632904Y-20756478D01*
X63574889Y-20804089D01*
X63527278Y-20862104D01*
X63491899Y-20928292D01*
X63470113Y-21000111D01*
X63462757Y-21074800D01*
X38043499Y-21074800D01*
X38043498Y-20386625D01*
X86010992Y-20401624D01*
G04 #@! TA.AperFunction,Conductor*
D29*
G36*
X86010992Y-20401624D02*
G01*
X85767786Y-20644831D01*
X85756189Y-20640027D01*
X85518363Y-20592720D01*
X85275877Y-20592720D01*
X85038051Y-20640027D01*
X84814023Y-20732822D01*
X84612403Y-20867540D01*
X84440940Y-21039003D01*
X84306222Y-21240623D01*
X84213427Y-21464651D01*
X84166120Y-21702477D01*
X84166120Y-21944963D01*
X84213427Y-22182789D01*
X84306222Y-22406817D01*
X84440940Y-22608437D01*
X84612403Y-22779900D01*
X84814023Y-22914618D01*
X85038051Y-23007413D01*
X85275877Y-23054720D01*
X85518363Y-23054720D01*
X85756189Y-23007413D01*
X85980217Y-22914618D01*
X86181837Y-22779900D01*
X86353300Y-22608437D01*
X86488018Y-22406817D01*
X86580813Y-22182789D01*
X86628120Y-21944963D01*
X86628120Y-21702477D01*
X86580813Y-21464651D01*
X86576009Y-21453054D01*
X86941944Y-21087120D01*
X89488789Y-21087120D01*
X89386222Y-21240623D01*
X89293427Y-21464651D01*
X89246120Y-21702477D01*
X89246120Y-21944963D01*
X89293427Y-22182789D01*
X89386222Y-22406817D01*
X89520940Y-22608437D01*
X89692403Y-22779900D01*
X89894023Y-22914618D01*
X90118051Y-23007413D01*
X90355877Y-23054720D01*
X90598363Y-23054720D01*
X90836189Y-23007413D01*
X91060217Y-22914618D01*
X91261837Y-22779900D01*
X91433300Y-22608437D01*
X91568018Y-22406817D01*
X91660813Y-22182789D01*
X91708120Y-21944963D01*
X91708120Y-21702477D01*
X91660813Y-21464651D01*
X91568018Y-21240623D01*
X91465451Y-21087120D01*
X92028789Y-21087120D01*
X91926222Y-21240623D01*
X91833427Y-21464651D01*
X91786120Y-21702477D01*
X91786120Y-21944963D01*
X91833427Y-22182789D01*
X91926222Y-22406817D01*
X92060940Y-22608437D01*
X92232403Y-22779900D01*
X92434023Y-22914618D01*
X92534521Y-22956245D01*
X92534520Y-30800840D01*
X92052681Y-31282680D01*
X83424384Y-31282680D01*
X83400679Y-31280345D01*
X83376974Y-31282680D01*
X83376973Y-31282680D01*
X83306074Y-31289663D01*
X83215103Y-31317258D01*
X83131265Y-31362071D01*
X83057779Y-31422379D01*
X83042663Y-31440798D01*
X77292741Y-37190720D01*
X70237209Y-37190720D01*
X70308494Y-37084034D01*
X70359829Y-36960100D01*
X70381062Y-36853356D01*
X70462440Y-36837169D01*
X70586374Y-36785834D01*
X70697912Y-36711307D01*
X70792767Y-36616452D01*
X70867294Y-36504914D01*
X70918629Y-36380980D01*
X70944800Y-36249413D01*
X70944800Y-36115267D01*
X70918629Y-35983700D01*
X70867294Y-35859766D01*
X70792767Y-35748228D01*
X70746400Y-35701861D01*
X70746400Y-35090987D01*
X70748734Y-35067290D01*
X70746400Y-35043593D01*
X70746400Y-35043584D01*
X70739417Y-34972685D01*
X70711822Y-34881714D01*
X70667009Y-34797876D01*
X70606701Y-34724390D01*
X70588282Y-34709274D01*
X66593085Y-30714077D01*
X66577969Y-30695658D01*
X66504483Y-30635350D01*
X66420645Y-30590537D01*
X66329674Y-30562942D01*
X66258775Y-30555959D01*
X66258773Y-30555959D01*
X66235068Y-30553624D01*
X66211363Y-30555959D01*
X65140397Y-30555959D01*
X65116690Y-30553624D01*
X65022083Y-30562942D01*
X64931113Y-30590537D01*
X64847275Y-30635350D01*
X64773789Y-30695658D01*
X64758673Y-30714077D01*
X64575229Y-30897521D01*
X64556810Y-30912637D01*
X64496502Y-30986123D01*
X64451689Y-31069962D01*
X64424094Y-31160933D01*
X64421594Y-31186317D01*
X64420663Y-31195771D01*
X64370744Y-31245690D01*
X64296217Y-31357228D01*
X64244882Y-31481162D01*
X64218711Y-31612729D01*
X64218711Y-31746875D01*
X64244882Y-31878442D01*
X64296217Y-32002376D01*
X64370744Y-32113914D01*
X64465599Y-32208769D01*
X64577137Y-32283296D01*
X64701071Y-32334631D01*
X64832638Y-32360802D01*
X64966784Y-32360802D01*
X65098351Y-32334631D01*
X65222285Y-32283296D01*
X65333823Y-32208769D01*
X65340427Y-32202165D01*
X65399706Y-32241774D01*
X65523640Y-32293109D01*
X65655207Y-32319280D01*
X65789353Y-32319280D01*
X65920920Y-32293109D01*
X66044854Y-32241774D01*
X66156392Y-32167247D01*
X66167370Y-32156269D01*
X69222401Y-35211301D01*
X69222400Y-36280981D01*
X69176033Y-36327348D01*
X69101506Y-36438886D01*
X69050171Y-36562820D01*
X69024000Y-36694387D01*
X69024000Y-36828533D01*
X69050171Y-36960100D01*
X69101506Y-37084034D01*
X69172791Y-37190720D01*
X64836907Y-37190720D01*
X64827709Y-37144480D01*
X64776374Y-37020546D01*
X64701847Y-36909008D01*
X64606992Y-36814153D01*
X64495454Y-36739626D01*
X64371520Y-36688291D01*
X64239953Y-36662120D01*
X64105807Y-36662120D01*
X63974240Y-36688291D01*
X63850306Y-36739626D01*
X63738768Y-36814153D01*
X63643913Y-36909008D01*
X63569386Y-37020546D01*
X63518051Y-37144480D01*
X63491880Y-37276047D01*
X63491880Y-37410193D01*
X63518051Y-37541760D01*
X63569386Y-37665694D01*
X63643913Y-37777232D01*
X63738768Y-37872087D01*
X63850306Y-37946614D01*
X63974240Y-37997949D01*
X64105807Y-38024120D01*
X64169804Y-38024120D01*
X64233665Y-38076529D01*
X64317503Y-38121342D01*
X64408474Y-38148937D01*
X64479373Y-38155920D01*
X64479374Y-38155920D01*
X64503079Y-38158255D01*
X64526784Y-38155920D01*
X77468935Y-38155920D01*
X77492640Y-38158255D01*
X77516345Y-38155920D01*
X77516347Y-38155920D01*
X77587246Y-38148937D01*
X77678217Y-38121342D01*
X77762055Y-38076529D01*
X77835541Y-38016221D01*
X77850657Y-37997802D01*
X78601182Y-37247277D01*
X79035320Y-37247277D01*
X79035320Y-37489763D01*
X79082627Y-37727589D01*
X79175422Y-37951617D01*
X79310140Y-38153237D01*
X79481603Y-38324700D01*
X79683223Y-38459418D01*
X79907251Y-38552213D01*
X80145077Y-38599520D01*
X80387563Y-38599520D01*
X80625389Y-38552213D01*
X80849417Y-38459418D01*
X81051037Y-38324700D01*
X81222500Y-38153237D01*
X81357218Y-37951617D01*
X81450013Y-37727589D01*
X81497320Y-37489763D01*
X81497320Y-37247277D01*
X81575320Y-37247277D01*
X81575320Y-37489763D01*
X81622627Y-37727589D01*
X81715422Y-37951617D01*
X81850140Y-38153237D01*
X82021603Y-38324700D01*
X82223223Y-38459418D01*
X82447251Y-38552213D01*
X82685077Y-38599520D01*
X82927563Y-38599520D01*
X83165389Y-38552213D01*
X83389417Y-38459418D01*
X83591037Y-38324700D01*
X83762500Y-38153237D01*
X83897218Y-37951617D01*
X83990013Y-37727589D01*
X84037320Y-37489763D01*
X84037320Y-37247277D01*
X84115320Y-37247277D01*
X84115320Y-37489763D01*
X84162627Y-37727589D01*
X84255422Y-37951617D01*
X84390140Y-38153237D01*
X84561603Y-38324700D01*
X84763223Y-38459418D01*
X84987251Y-38552213D01*
X85225077Y-38599520D01*
X85467563Y-38599520D01*
X85705389Y-38552213D01*
X85929417Y-38459418D01*
X86131037Y-38324700D01*
X86302500Y-38153237D01*
X86437218Y-37951617D01*
X86530013Y-37727589D01*
X86577320Y-37489763D01*
X86577320Y-37247277D01*
X86655320Y-37247277D01*
X86655320Y-37489763D01*
X86702627Y-37727589D01*
X86795422Y-37951617D01*
X86930140Y-38153237D01*
X87101603Y-38324700D01*
X87303223Y-38459418D01*
X87527251Y-38552213D01*
X87765077Y-38599520D01*
X88007563Y-38599520D01*
X88245389Y-38552213D01*
X88469417Y-38459418D01*
X88671037Y-38324700D01*
X88842500Y-38153237D01*
X88977218Y-37951617D01*
X89070013Y-37727589D01*
X89117320Y-37489763D01*
X89117320Y-37247277D01*
X89195320Y-37247277D01*
X89195320Y-37489763D01*
X89242627Y-37727589D01*
X89335422Y-37951617D01*
X89470140Y-38153237D01*
X89641603Y-38324700D01*
X89843223Y-38459418D01*
X90067251Y-38552213D01*
X90305077Y-38599520D01*
X90547563Y-38599520D01*
X90785389Y-38552213D01*
X91009417Y-38459418D01*
X91211037Y-38324700D01*
X91382500Y-38153237D01*
X91517218Y-37951617D01*
X91610013Y-37727589D01*
X91657320Y-37489763D01*
X91657320Y-37247277D01*
X91610013Y-37009451D01*
X91517218Y-36785423D01*
X91382500Y-36583803D01*
X91211037Y-36412340D01*
X91009417Y-36277622D01*
X90785389Y-36184827D01*
X90547563Y-36137520D01*
X90305077Y-36137520D01*
X90067251Y-36184827D01*
X89843223Y-36277622D01*
X89641603Y-36412340D01*
X89470140Y-36583803D01*
X89335422Y-36785423D01*
X89242627Y-37009451D01*
X89195320Y-37247277D01*
X89117320Y-37247277D01*
X89070013Y-37009451D01*
X88977218Y-36785423D01*
X88842500Y-36583803D01*
X88671037Y-36412340D01*
X88469417Y-36277622D01*
X88245389Y-36184827D01*
X88007563Y-36137520D01*
X87765077Y-36137520D01*
X87527251Y-36184827D01*
X87303223Y-36277622D01*
X87101603Y-36412340D01*
X86930140Y-36583803D01*
X86795422Y-36785423D01*
X86702627Y-37009451D01*
X86655320Y-37247277D01*
X86577320Y-37247277D01*
X86530013Y-37009451D01*
X86437218Y-36785423D01*
X86302500Y-36583803D01*
X86131037Y-36412340D01*
X85929417Y-36277622D01*
X85705389Y-36184827D01*
X85467563Y-36137520D01*
X85225077Y-36137520D01*
X84987251Y-36184827D01*
X84763223Y-36277622D01*
X84561603Y-36412340D01*
X84390140Y-36583803D01*
X84255422Y-36785423D01*
X84162627Y-37009451D01*
X84115320Y-37247277D01*
X84037320Y-37247277D01*
X83990013Y-37009451D01*
X83897218Y-36785423D01*
X83762500Y-36583803D01*
X83591037Y-36412340D01*
X83389417Y-36277622D01*
X83165389Y-36184827D01*
X82927563Y-36137520D01*
X82685077Y-36137520D01*
X82447251Y-36184827D01*
X82223223Y-36277622D01*
X82021603Y-36412340D01*
X81850140Y-36583803D01*
X81715422Y-36785423D01*
X81622627Y-37009451D01*
X81575320Y-37247277D01*
X81497320Y-37247277D01*
X81450013Y-37009451D01*
X81357218Y-36785423D01*
X81222500Y-36583803D01*
X81051037Y-36412340D01*
X80849417Y-36277622D01*
X80625389Y-36184827D01*
X80387563Y-36137520D01*
X80145077Y-36137520D01*
X79907251Y-36184827D01*
X79683223Y-36277622D01*
X79481603Y-36412340D01*
X79310140Y-36583803D01*
X79175422Y-36785423D01*
X79082627Y-37009451D01*
X79035320Y-37247277D01*
X78601182Y-37247277D01*
X83600579Y-32247880D01*
X92228875Y-32247880D01*
X92252580Y-32250215D01*
X92276285Y-32247880D01*
X92276287Y-32247880D01*
X92347186Y-32240897D01*
X92438157Y-32213302D01*
X92521995Y-32168489D01*
X92595481Y-32108181D01*
X92610597Y-32089762D01*
X93341607Y-31358753D01*
X93360021Y-31343641D01*
X93420329Y-31270155D01*
X93465142Y-31186317D01*
X93481265Y-31133165D01*
X93492737Y-31095347D01*
X93502055Y-31000740D01*
X93499720Y-30977033D01*
X93499720Y-22956245D01*
X93600217Y-22914618D01*
X93697841Y-22849388D01*
X93697840Y-36376795D01*
X93549417Y-36277622D01*
X93325389Y-36184827D01*
X93087563Y-36137520D01*
X92845077Y-36137520D01*
X92607251Y-36184827D01*
X92383223Y-36277622D01*
X92181603Y-36412340D01*
X92010140Y-36583803D01*
X91875422Y-36785423D01*
X91782627Y-37009451D01*
X91735320Y-37247277D01*
X91735320Y-37489763D01*
X91782627Y-37727589D01*
X91875422Y-37951617D01*
X92010140Y-38153237D01*
X92181603Y-38324700D01*
X92383223Y-38459418D01*
X92607251Y-38552213D01*
X92845077Y-38599520D01*
X93087563Y-38599520D01*
X93325389Y-38552213D01*
X93549417Y-38459418D01*
X93751037Y-38324700D01*
X93849470Y-38226267D01*
X93863273Y-38243087D01*
X93885088Y-38260990D01*
X95783373Y-40159277D01*
X95093440Y-40159277D01*
X95018751Y-40166633D01*
X94946932Y-40188419D01*
X94880744Y-40223798D01*
X94822729Y-40271409D01*
X94775118Y-40329424D01*
X94739739Y-40395612D01*
X94717953Y-40467431D01*
X94710597Y-40542120D01*
X94710597Y-43542120D01*
X94717953Y-43616809D01*
X94739739Y-43688628D01*
X94775118Y-43754816D01*
X94822729Y-43812831D01*
X94880744Y-43860442D01*
X94946932Y-43895821D01*
X95018751Y-43917607D01*
X95093440Y-43924963D01*
X98093440Y-43924963D01*
X98168129Y-43917607D01*
X98171591Y-43916557D01*
X98171592Y-57274487D01*
X96431903Y-59014177D01*
X76713478Y-59014177D01*
X70581005Y-52881705D01*
X70557646Y-52644540D01*
X70477764Y-52381205D01*
X70467000Y-52361067D01*
X70467000Y-50220875D01*
X70446786Y-50015640D01*
X70366904Y-49752305D01*
X70302843Y-49632455D01*
X70302843Y-49439500D01*
X70295487Y-49364811D01*
X70273701Y-49292992D01*
X70238322Y-49226804D01*
X70190711Y-49168789D01*
X70132696Y-49121178D01*
X70066508Y-49085799D01*
X69994689Y-49064013D01*
X69920000Y-49056657D01*
X69727044Y-49056657D01*
X69607194Y-48992596D01*
X69343859Y-48912714D01*
X69070000Y-48885741D01*
X68796140Y-48912714D01*
X68532805Y-48992596D01*
X68412955Y-49056657D01*
X68220000Y-49056657D01*
X68145311Y-49064013D01*
X68073492Y-49085799D01*
X68007304Y-49121178D01*
X67949289Y-49168789D01*
X67901678Y-49226804D01*
X67866299Y-49292992D01*
X67844513Y-49364811D01*
X67837157Y-49439500D01*
X67837157Y-49632456D01*
X67773096Y-49752306D01*
X67715819Y-49941121D01*
X67713693Y-49930431D01*
X67620898Y-49706403D01*
X67486180Y-49504783D01*
X67314717Y-49333320D01*
X67113097Y-49198602D01*
X66889069Y-49105807D01*
X66651243Y-49058500D01*
X66408757Y-49058500D01*
X66170931Y-49105807D01*
X65946903Y-49198602D01*
X65745283Y-49333320D01*
X65573820Y-49504783D01*
X65439102Y-49706403D01*
X65346307Y-49930431D01*
X65299000Y-50168257D01*
X65299000Y-50410743D01*
X65346307Y-50648569D01*
X65439102Y-50872597D01*
X65573820Y-51074217D01*
X65745283Y-51245680D01*
X65946903Y-51380398D01*
X66170931Y-51473193D01*
X66408757Y-51520500D01*
X66651243Y-51520500D01*
X66889069Y-51473193D01*
X67113097Y-51380398D01*
X67314717Y-51245680D01*
X67486180Y-51074217D01*
X67620898Y-50872597D01*
X67673000Y-50746811D01*
X67673000Y-51521400D01*
X62170897Y-51521400D01*
X60206343Y-49556848D01*
X60206343Y-49439500D01*
X60198987Y-49364811D01*
X60177201Y-49292992D01*
X60141822Y-49226804D01*
X60094211Y-49168789D01*
X60036196Y-49121178D01*
X59970008Y-49085799D01*
X59898189Y-49064013D01*
X59823500Y-49056657D01*
X59630544Y-49056657D01*
X59510694Y-48992596D01*
X59247359Y-48912714D01*
X58973500Y-48885741D01*
X58699640Y-48912714D01*
X58436305Y-48992596D01*
X58316455Y-49056657D01*
X58123500Y-49056657D01*
X58048811Y-49064013D01*
X57976992Y-49085799D01*
X57910804Y-49121178D01*
X57852789Y-49168789D01*
X57805178Y-49226804D01*
X57769799Y-49292992D01*
X57748013Y-49364811D01*
X57740657Y-49439500D01*
X57740657Y-49632456D01*
X57676596Y-49752306D01*
X57619319Y-49941121D01*
X57617193Y-49930431D01*
X57524398Y-49706403D01*
X57389680Y-49504783D01*
X57218217Y-49333320D01*
X57016597Y-49198602D01*
X56792569Y-49105807D01*
X56554743Y-49058500D01*
X56312257Y-49058500D01*
X56074431Y-49105807D01*
X55850403Y-49198602D01*
X55648783Y-49333320D01*
X55477320Y-49504783D01*
X55342602Y-49706403D01*
X55249807Y-49930431D01*
X55202500Y-50168257D01*
X55202500Y-50410743D01*
X55249807Y-50648569D01*
X55342602Y-50872597D01*
X55477320Y-51074217D01*
X55648783Y-51245680D01*
X55850403Y-51380398D01*
X56074431Y-51473193D01*
X56291243Y-51516320D01*
X51096496Y-51516320D01*
X50055560Y-50475385D01*
X50055560Y-43233785D01*
X50062319Y-43165160D01*
X50035346Y-42891300D01*
X50006516Y-42796260D01*
X49955464Y-42627965D01*
X49825743Y-42385273D01*
X49651167Y-42172552D01*
X49597861Y-42128805D01*
X47814964Y-40345909D01*
X47771208Y-40292592D01*
X47558487Y-40118017D01*
X47315795Y-39988296D01*
X47052460Y-39908414D01*
X46847225Y-39888200D01*
X46778600Y-39881441D01*
X46709975Y-39888200D01*
X45734975Y-39888200D01*
X45529740Y-39908414D01*
X45266405Y-39988296D01*
X45146555Y-40052357D01*
X45078600Y-40052357D01*
X44955138Y-40064517D01*
X44836421Y-40100529D01*
X44727011Y-40159010D01*
X44631112Y-40237712D01*
X44552410Y-40333611D01*
X44493929Y-40443021D01*
X44457917Y-40561738D01*
X44445757Y-40685200D01*
X44445757Y-40948893D01*
X44426814Y-41011340D01*
X44399841Y-41285200D01*
X44426814Y-41559060D01*
X44445757Y-41621507D01*
X44445757Y-41885200D01*
X44457917Y-42008662D01*
X44493929Y-42127379D01*
X44552410Y-42236789D01*
X44631112Y-42332688D01*
X44727011Y-42411390D01*
X44836421Y-42469871D01*
X44955138Y-42505883D01*
X45078600Y-42518043D01*
X45146555Y-42518043D01*
X45266405Y-42582104D01*
X45335209Y-42602975D01*
X45205237Y-42642402D01*
X44991384Y-42756709D01*
X44803940Y-42910540D01*
X44650109Y-43097984D01*
X44535802Y-43311837D01*
X44465412Y-43543882D01*
X44441644Y-43785200D01*
X44465412Y-44026518D01*
X44535802Y-44258563D01*
X44650109Y-44472416D01*
X44803940Y-44659860D01*
X44991384Y-44813691D01*
X45205237Y-44927998D01*
X45437282Y-44998388D01*
X45618128Y-45016200D01*
X45989072Y-45016200D01*
X46169918Y-44998388D01*
X46401963Y-44927998D01*
X46615816Y-44813691D01*
X46803260Y-44659860D01*
X46957091Y-44472416D01*
X47071398Y-44258563D01*
X47141788Y-44026518D01*
X47165556Y-43785200D01*
X47150546Y-43632802D01*
X47261560Y-43743816D01*
X47261561Y-51010805D01*
X47254801Y-51079440D01*
X47261560Y-51148065D01*
X47261560Y-51516320D01*
X46161540Y-51516320D01*
X46077459Y-51490814D01*
X45803600Y-51463841D01*
X45529741Y-51490814D01*
X45266405Y-51570697D01*
X45146557Y-51634757D01*
X45078600Y-51634757D01*
X44955138Y-51646917D01*
X44836421Y-51682929D01*
X44727011Y-51741410D01*
X44631112Y-51820112D01*
X44552410Y-51916011D01*
X44493929Y-52025421D01*
X44457917Y-52144138D01*
X44445757Y-52267600D01*
X44445757Y-52531295D01*
X44426814Y-52593741D01*
X44399841Y-52867600D01*
X44426814Y-53141459D01*
X44445757Y-53203905D01*
X44445757Y-53467600D01*
X44457917Y-53591062D01*
X44493929Y-53709779D01*
X44552410Y-53819189D01*
X44631112Y-53915088D01*
X44727011Y-53993790D01*
X44836421Y-54052271D01*
X44955138Y-54088283D01*
X45078600Y-54100443D01*
X45106738Y-54100443D01*
X45290825Y-54198839D01*
X45205237Y-54224802D01*
X44991384Y-54339109D01*
X44803940Y-54492940D01*
X44650109Y-54680384D01*
X44535802Y-54894237D01*
X44465412Y-55126282D01*
X44441644Y-55367600D01*
X44465412Y-55608918D01*
X44535802Y-55840963D01*
X44650109Y-56054816D01*
X44803940Y-56242260D01*
X44991384Y-56396091D01*
X45205237Y-56510398D01*
X45437282Y-56580788D01*
X45618128Y-56598600D01*
X45989072Y-56598600D01*
X46169918Y-56580788D01*
X46401963Y-56510398D01*
X46615816Y-56396091D01*
X46803260Y-56242260D01*
X46957091Y-56054816D01*
X47071398Y-55840963D01*
X47141788Y-55608918D01*
X47165556Y-55367600D01*
X47141788Y-55126282D01*
X47071398Y-54894237D01*
X46957091Y-54680384D01*
X46803260Y-54492940D01*
X46615816Y-54339109D01*
X46561956Y-54310320D01*
X48589935Y-54310320D01*
X48658560Y-54317079D01*
X48727185Y-54310320D01*
X50449215Y-54310320D01*
X50517840Y-54317079D01*
X50586465Y-54310320D01*
X61204941Y-54310320D01*
X61389500Y-54366306D01*
X61663359Y-54393279D01*
X61663360Y-54393279D01*
X61937219Y-54366306D01*
X62105032Y-54315400D01*
X69112235Y-54315400D01*
X69144165Y-54318545D01*
X75261884Y-60436265D01*
X38043500Y-60424627D01*
X38043499Y-34590400D01*
X44416644Y-34590400D01*
X44440412Y-34831718D01*
X44510802Y-35063763D01*
X44625109Y-35277616D01*
X44778940Y-35465060D01*
X44966384Y-35618891D01*
X45180237Y-35733198D01*
X45412282Y-35803588D01*
X45593128Y-35821400D01*
X46014072Y-35821400D01*
X46194918Y-35803588D01*
X46210701Y-35798800D01*
X56518714Y-35798800D01*
X56522401Y-35836233D01*
X56522400Y-45335825D01*
X56522401Y-45335835D01*
X56522400Y-46378576D01*
X56518714Y-46416000D01*
X56522400Y-46453423D01*
X56522400Y-46453425D01*
X56533426Y-46565377D01*
X56576998Y-46709014D01*
X56576999Y-46709015D01*
X56647755Y-46841392D01*
X56682908Y-46884226D01*
X56742978Y-46957422D01*
X56772054Y-46981284D01*
X57938320Y-48147551D01*
X57962178Y-48176622D01*
X58078208Y-48271845D01*
X58210585Y-48342602D01*
X58354222Y-48386174D01*
X58466174Y-48397200D01*
X58466176Y-48397200D01*
X58503599Y-48400886D01*
X58541022Y-48397200D01*
X69592570Y-48397200D01*
X73933157Y-52737788D01*
X73933157Y-53643000D01*
X73945317Y-53766462D01*
X73981329Y-53885179D01*
X74039810Y-53994589D01*
X74118512Y-54090488D01*
X74214411Y-54169190D01*
X74323821Y-54227671D01*
X74442538Y-54263683D01*
X74566000Y-54275843D01*
X75766000Y-54275843D01*
X75889462Y-54263683D01*
X76008179Y-54227671D01*
X76117589Y-54169190D01*
X76213488Y-54090488D01*
X76292190Y-53994589D01*
X76350671Y-53885179D01*
X76386683Y-53766462D01*
X76398843Y-53643000D01*
X76398843Y-52682529D01*
X76435000Y-52682529D01*
X76435000Y-53103472D01*
X76452812Y-53284318D01*
X76523202Y-53516363D01*
X76637510Y-53730216D01*
X76791341Y-53917660D01*
X76978785Y-54071491D01*
X77192638Y-54185798D01*
X77424683Y-54256188D01*
X77666000Y-54279956D01*
X77907318Y-54256188D01*
X78139363Y-54185798D01*
X78353216Y-54071491D01*
X78540660Y-53917660D01*
X78694491Y-53730215D01*
X78808798Y-53516362D01*
X78879188Y-53284317D01*
X78897000Y-53103471D01*
X78897000Y-52682528D01*
X78879188Y-52501682D01*
X78808798Y-52269637D01*
X78694491Y-52055784D01*
X78540660Y-51868340D01*
X78353215Y-51714509D01*
X78139362Y-51600202D01*
X77907317Y-51529812D01*
X77666000Y-51506044D01*
X77424682Y-51529812D01*
X77192637Y-51600202D01*
X76978784Y-51714509D01*
X76791340Y-51868340D01*
X76637509Y-52055785D01*
X76523202Y-52269638D01*
X76452812Y-52501683D01*
X76435000Y-52682529D01*
X76398843Y-52682529D01*
X76398843Y-52143000D01*
X76386683Y-52019538D01*
X76350671Y-51900821D01*
X76292190Y-51791411D01*
X76213488Y-51695512D01*
X76117589Y-51616810D01*
X76008179Y-51558329D01*
X75889462Y-51522317D01*
X75766000Y-51510157D01*
X74860788Y-51510157D01*
X70473484Y-47122854D01*
X70449622Y-47093778D01*
X70333592Y-46998555D01*
X70201215Y-46927798D01*
X70102583Y-46897878D01*
X88710600Y-46897878D01*
X88710600Y-47051722D01*
X88740613Y-47202609D01*
X88799487Y-47344742D01*
X88884958Y-47472659D01*
X88993741Y-47581442D01*
X89059411Y-47625321D01*
X92692000Y-51257911D01*
X92692001Y-54320753D01*
X92673000Y-54416278D01*
X92673000Y-54570122D01*
X92703013Y-54721009D01*
X92761887Y-54863142D01*
X92847358Y-54991059D01*
X92956141Y-55099842D01*
X93084058Y-55185313D01*
X93226191Y-55244187D01*
X93377078Y-55274200D01*
X93530922Y-55274200D01*
X93681809Y-55244187D01*
X93823942Y-55185313D01*
X93951859Y-55099842D01*
X94060642Y-54991059D01*
X94146113Y-54863142D01*
X94204987Y-54721009D01*
X94235000Y-54570122D01*
X94235000Y-54416278D01*
X94216000Y-54320758D01*
X94216000Y-50979703D01*
X94219686Y-50942280D01*
X94212823Y-50872597D01*
X94204974Y-50792902D01*
X94161402Y-50649265D01*
X94128465Y-50587644D01*
X94090645Y-50516887D01*
X94019279Y-50429928D01*
X93995422Y-50400858D01*
X93966353Y-50377002D01*
X90162580Y-46573230D01*
X90098242Y-46476941D01*
X89989459Y-46368158D01*
X89861542Y-46282687D01*
X89719409Y-46223813D01*
X89568522Y-46193800D01*
X89414678Y-46193800D01*
X89263791Y-46223813D01*
X89121658Y-46282687D01*
X88993741Y-46368158D01*
X88884958Y-46476941D01*
X88799487Y-46604858D01*
X88740613Y-46746991D01*
X88710600Y-46897878D01*
X70102583Y-46897878D01*
X70057578Y-46884226D01*
X69945626Y-46873200D01*
X69945623Y-46873200D01*
X69908200Y-46869514D01*
X69870777Y-46873200D01*
X58819231Y-46873200D01*
X58046400Y-46100370D01*
X58046400Y-42893368D01*
X80200540Y-42893368D01*
X80200540Y-43314311D01*
X80218352Y-43495157D01*
X80288742Y-43727202D01*
X80403049Y-43941055D01*
X80556880Y-44128500D01*
X80744324Y-44282331D01*
X80958177Y-44396638D01*
X81190222Y-44467028D01*
X81431540Y-44490796D01*
X81672857Y-44467028D01*
X81904902Y-44396638D01*
X82118755Y-44282331D01*
X82306200Y-44128500D01*
X82460031Y-43941056D01*
X82574338Y-43727203D01*
X82644728Y-43495158D01*
X82662540Y-43314312D01*
X82662540Y-42893369D01*
X82644728Y-42712523D01*
X82574338Y-42480478D01*
X82506649Y-42353840D01*
X82698697Y-42353840D01*
X82698697Y-43853840D01*
X82710857Y-43977302D01*
X82746869Y-44096019D01*
X82805350Y-44205429D01*
X82884052Y-44301328D01*
X82979951Y-44380030D01*
X83089361Y-44438511D01*
X83208078Y-44474523D01*
X83331540Y-44486683D01*
X84531540Y-44486683D01*
X84655002Y-44474523D01*
X84773719Y-44438511D01*
X84883129Y-44380030D01*
X84979028Y-44301328D01*
X85057730Y-44205429D01*
X85116211Y-44096019D01*
X85152223Y-43977302D01*
X85164383Y-43853840D01*
X85164383Y-42353840D01*
X85152223Y-42230378D01*
X85116211Y-42111661D01*
X85057730Y-42002251D01*
X84979028Y-41906352D01*
X84883129Y-41827650D01*
X84773719Y-41769169D01*
X84655002Y-41733157D01*
X84531540Y-41720997D01*
X83331540Y-41720997D01*
X83208078Y-41733157D01*
X83089361Y-41769169D01*
X82979951Y-41827650D01*
X82884052Y-41906352D01*
X82805350Y-42002251D01*
X82746869Y-42111661D01*
X82710857Y-42230378D01*
X82698697Y-42353840D01*
X82506649Y-42353840D01*
X82460031Y-42266625D01*
X82306200Y-42079180D01*
X82118756Y-41925349D01*
X81904903Y-41811042D01*
X81672858Y-41740652D01*
X81431540Y-41716884D01*
X81190223Y-41740652D01*
X80958178Y-41811042D01*
X80744325Y-41925349D01*
X80556881Y-42079180D01*
X80403050Y-42266624D01*
X80288742Y-42480477D01*
X80218352Y-42712522D01*
X80200540Y-42893368D01*
X58046400Y-42893368D01*
X58046400Y-36114430D01*
X59043479Y-35117352D01*
X59043484Y-35117346D01*
X59320746Y-34840084D01*
X59349822Y-34816222D01*
X59445045Y-34700192D01*
X59515802Y-34567815D01*
X59559374Y-34424178D01*
X59574086Y-34274800D01*
X59559374Y-34125422D01*
X59515802Y-33981785D01*
X59445045Y-33849408D01*
X59349822Y-33733378D01*
X59233792Y-33638155D01*
X59101415Y-33567398D01*
X58957778Y-33523826D01*
X58845826Y-33512800D01*
X58845822Y-33512800D01*
X58808399Y-33509114D01*
X58770976Y-33512800D01*
X58770974Y-33512800D01*
X58659022Y-33523826D01*
X58515385Y-33567398D01*
X58383008Y-33638155D01*
X58266978Y-33733378D01*
X58243116Y-33762454D01*
X57965854Y-34039716D01*
X57965848Y-34039721D01*
X56772049Y-35233521D01*
X56742979Y-35257378D01*
X56719122Y-35286448D01*
X56719121Y-35286449D01*
X56647755Y-35373408D01*
X56576999Y-35505785D01*
X56533427Y-35649422D01*
X56518714Y-35798800D01*
X46210701Y-35798800D01*
X46426963Y-35733198D01*
X46640816Y-35618891D01*
X46828260Y-35465060D01*
X46982091Y-35277616D01*
X47096398Y-35063763D01*
X47166788Y-34831718D01*
X47190556Y-34590400D01*
X47166788Y-34349082D01*
X47096398Y-34117037D01*
X46982091Y-33903184D01*
X46828260Y-33715740D01*
X46640816Y-33561909D01*
X46426963Y-33447602D01*
X46194918Y-33377212D01*
X46014072Y-33359400D01*
X45593128Y-33359400D01*
X45412282Y-33377212D01*
X45180237Y-33447602D01*
X44966384Y-33561909D01*
X44778940Y-33715740D01*
X44625109Y-33903184D01*
X44510802Y-34117037D01*
X44440412Y-34349082D01*
X44416644Y-34590400D01*
X38043499Y-34590400D01*
X38043499Y-28824600D01*
X75022557Y-28824600D01*
X75022557Y-30174600D01*
X75029913Y-30249289D01*
X75051699Y-30321108D01*
X75087078Y-30387296D01*
X75134689Y-30445311D01*
X75192704Y-30492922D01*
X75258892Y-30528301D01*
X75330711Y-30550087D01*
X75405400Y-30557443D01*
X75595507Y-30557443D01*
X75580196Y-30563785D01*
X75407239Y-30679351D01*
X75260151Y-30826439D01*
X75144585Y-30999396D01*
X75064981Y-31191576D01*
X75024400Y-31395593D01*
X75024400Y-31603607D01*
X75064981Y-31807624D01*
X75144585Y-31999804D01*
X75260151Y-32172761D01*
X75407239Y-32319849D01*
X75580196Y-32435415D01*
X75735151Y-32499600D01*
X75580196Y-32563785D01*
X75407239Y-32679351D01*
X75260151Y-32826439D01*
X75144585Y-32999396D01*
X75064981Y-33191576D01*
X75024400Y-33395593D01*
X75024400Y-33603607D01*
X75064981Y-33807624D01*
X75144585Y-33999804D01*
X75260151Y-34172761D01*
X75407239Y-34319849D01*
X75580196Y-34435415D01*
X75735151Y-34499600D01*
X75580196Y-34563785D01*
X75407239Y-34679351D01*
X75260151Y-34826439D01*
X75144585Y-34999396D01*
X75064981Y-35191576D01*
X75024400Y-35395593D01*
X75024400Y-35603607D01*
X75064981Y-35807624D01*
X75144585Y-35999804D01*
X75260151Y-36172761D01*
X75407239Y-36319849D01*
X75580196Y-36435415D01*
X75772376Y-36515019D01*
X75976393Y-36555600D01*
X76184407Y-36555600D01*
X76388424Y-36515019D01*
X76580604Y-36435415D01*
X76753561Y-36319849D01*
X76900649Y-36172761D01*
X77016215Y-35999804D01*
X77095819Y-35807624D01*
X77136400Y-35603607D01*
X77136400Y-35395593D01*
X77095819Y-35191576D01*
X77016215Y-34999396D01*
X76900649Y-34826439D01*
X76753561Y-34679351D01*
X76580604Y-34563785D01*
X76425649Y-34499600D01*
X76580604Y-34435415D01*
X76753561Y-34319849D01*
X76900649Y-34172761D01*
X77016215Y-33999804D01*
X77095819Y-33807624D01*
X77136400Y-33603607D01*
X77136400Y-33395593D01*
X77095819Y-33191576D01*
X77016215Y-32999396D01*
X76900649Y-32826439D01*
X76753561Y-32679351D01*
X76580604Y-32563785D01*
X76425649Y-32499600D01*
X76580604Y-32435415D01*
X76753561Y-32319849D01*
X76900649Y-32172761D01*
X77016215Y-31999804D01*
X77095819Y-31807624D01*
X77136400Y-31603607D01*
X77136400Y-31395593D01*
X77095819Y-31191576D01*
X77016215Y-30999396D01*
X76900649Y-30826439D01*
X76753561Y-30679351D01*
X76580604Y-30563785D01*
X76565293Y-30557443D01*
X76755400Y-30557443D01*
X76830089Y-30550087D01*
X76901908Y-30528301D01*
X76968096Y-30492922D01*
X77026111Y-30445311D01*
X77073722Y-30387296D01*
X77109101Y-30321108D01*
X77130887Y-30249289D01*
X77138243Y-30174600D01*
X77138243Y-28824600D01*
X77130887Y-28749911D01*
X77109101Y-28678092D01*
X77073722Y-28611904D01*
X77026111Y-28553889D01*
X76968096Y-28506278D01*
X76901908Y-28470899D01*
X76830089Y-28449113D01*
X76755400Y-28441757D01*
X75405400Y-28441757D01*
X75330711Y-28449113D01*
X75258892Y-28470899D01*
X75192704Y-28506278D01*
X75134689Y-28553889D01*
X75087078Y-28611904D01*
X75051699Y-28678092D01*
X75029913Y-28749911D01*
X75022557Y-28824600D01*
X38043499Y-28824600D01*
X38043499Y-25446400D01*
X44416644Y-25446400D01*
X44440412Y-25687718D01*
X44510802Y-25919763D01*
X44625109Y-26133616D01*
X44778940Y-26321060D01*
X44966384Y-26474891D01*
X45180237Y-26589198D01*
X45412282Y-26659588D01*
X45593128Y-26677400D01*
X46014072Y-26677400D01*
X46194918Y-26659588D01*
X46426963Y-26589198D01*
X46640816Y-26474891D01*
X46828260Y-26321060D01*
X46982091Y-26133616D01*
X47096398Y-25919763D01*
X47166788Y-25687718D01*
X47190556Y-25446400D01*
X47166788Y-25205082D01*
X47096398Y-24973037D01*
X46982091Y-24759184D01*
X46828260Y-24571740D01*
X46640816Y-24417909D01*
X46426963Y-24303602D01*
X46194918Y-24233212D01*
X46014072Y-24215400D01*
X45593128Y-24215400D01*
X45412282Y-24233212D01*
X45180237Y-24303602D01*
X44966384Y-24417909D01*
X44778940Y-24571740D01*
X44625109Y-24759184D01*
X44510802Y-24973037D01*
X44440412Y-25205082D01*
X44416644Y-25446400D01*
X38043499Y-25446400D01*
X38043499Y-21074800D01*
X63462757Y-21074800D01*
X63462757Y-22074800D01*
X63470113Y-22149489D01*
X63491899Y-22221308D01*
X63527278Y-22287496D01*
X63574889Y-22345511D01*
X63632904Y-22393122D01*
X63699092Y-22428501D01*
X63770911Y-22450287D01*
X63845600Y-22457643D01*
X64845600Y-22457643D01*
X64920289Y-22450287D01*
X64992108Y-22428501D01*
X65058296Y-22393122D01*
X65116311Y-22345511D01*
X65140032Y-22316606D01*
X65198290Y-22355532D01*
X65358622Y-22421944D01*
X65528829Y-22455800D01*
X65702371Y-22455800D01*
X65872578Y-22421944D01*
X66032910Y-22355532D01*
X66177205Y-22259118D01*
X66250600Y-22185723D01*
X66323995Y-22259118D01*
X66468290Y-22355532D01*
X66628622Y-22421944D01*
X66798829Y-22455800D01*
X66972371Y-22455800D01*
X67142578Y-22421944D01*
X67302910Y-22355532D01*
X67447205Y-22259118D01*
X67489603Y-22216720D01*
X71337277Y-22216720D01*
X71337277Y-23716720D01*
X71349437Y-23840182D01*
X71385449Y-23958899D01*
X71443930Y-24068309D01*
X71522632Y-24164208D01*
X71618531Y-24242910D01*
X71727941Y-24301391D01*
X71846658Y-24337403D01*
X71970120Y-24349563D01*
X73170120Y-24349563D01*
X73293582Y-24337403D01*
X73412299Y-24301391D01*
X73521709Y-24242910D01*
X73617608Y-24164208D01*
X73696310Y-24068309D01*
X73754791Y-23958899D01*
X73790803Y-23840182D01*
X73802963Y-23716720D01*
X73802963Y-22756249D01*
X73839120Y-22756249D01*
X73839120Y-23177192D01*
X73856932Y-23358038D01*
X73927322Y-23590083D01*
X74041630Y-23803936D01*
X74195461Y-23991380D01*
X74382905Y-24145211D01*
X74596758Y-24259518D01*
X74828803Y-24329908D01*
X75070120Y-24353676D01*
X75311438Y-24329908D01*
X75543483Y-24259518D01*
X75757336Y-24145211D01*
X75944780Y-23991380D01*
X76098611Y-23803935D01*
X76212918Y-23590082D01*
X76283308Y-23358037D01*
X76301120Y-23177191D01*
X76301120Y-22756248D01*
X76283308Y-22575402D01*
X76212918Y-22343357D01*
X76098611Y-22129504D01*
X75944780Y-21942060D01*
X75757335Y-21788229D01*
X75596905Y-21702477D01*
X79086120Y-21702477D01*
X79086120Y-21944963D01*
X79133427Y-22182789D01*
X79226222Y-22406817D01*
X79360940Y-22608437D01*
X79532403Y-22779900D01*
X79734023Y-22914618D01*
X79958051Y-23007413D01*
X80195877Y-23054720D01*
X80438363Y-23054720D01*
X80676189Y-23007413D01*
X80900217Y-22914618D01*
X81101837Y-22779900D01*
X81273300Y-22608437D01*
X81408018Y-22406817D01*
X81500813Y-22182789D01*
X81548120Y-21944963D01*
X81548120Y-21702477D01*
X81626120Y-21702477D01*
X81626120Y-21944963D01*
X81673427Y-22182789D01*
X81766222Y-22406817D01*
X81900940Y-22608437D01*
X82072403Y-22779900D01*
X82274023Y-22914618D01*
X82498051Y-23007413D01*
X82735877Y-23054720D01*
X82978363Y-23054720D01*
X83216189Y-23007413D01*
X83440217Y-22914618D01*
X83641837Y-22779900D01*
X83813300Y-22608437D01*
X83948018Y-22406817D01*
X84040813Y-22182789D01*
X84088120Y-21944963D01*
X84088120Y-21702477D01*
X84040813Y-21464651D01*
X83948018Y-21240623D01*
X83813300Y-21039003D01*
X83641837Y-20867540D01*
X83440217Y-20732822D01*
X83216189Y-20640027D01*
X82978363Y-20592720D01*
X82735877Y-20592720D01*
X82498051Y-20640027D01*
X82274023Y-20732822D01*
X82072403Y-20867540D01*
X81900940Y-21039003D01*
X81766222Y-21240623D01*
X81673427Y-21464651D01*
X81626120Y-21702477D01*
X81548120Y-21702477D01*
X81500813Y-21464651D01*
X81408018Y-21240623D01*
X81273300Y-21039003D01*
X81101837Y-20867540D01*
X80900217Y-20732822D01*
X80676189Y-20640027D01*
X80438363Y-20592720D01*
X80195877Y-20592720D01*
X79958051Y-20640027D01*
X79734023Y-20732822D01*
X79532403Y-20867540D01*
X79360940Y-21039003D01*
X79226222Y-21240623D01*
X79133427Y-21464651D01*
X79086120Y-21702477D01*
X75596905Y-21702477D01*
X75543482Y-21673922D01*
X75311437Y-21603532D01*
X75070120Y-21579764D01*
X74828802Y-21603532D01*
X74596757Y-21673922D01*
X74382904Y-21788229D01*
X74195460Y-21942060D01*
X74041629Y-22129505D01*
X73927322Y-22343358D01*
X73856932Y-22575403D01*
X73839120Y-22756249D01*
X73802963Y-22756249D01*
X73802963Y-22216720D01*
X73790803Y-22093258D01*
X73754791Y-21974541D01*
X73696310Y-21865131D01*
X73617608Y-21769232D01*
X73521709Y-21690530D01*
X73412299Y-21632049D01*
X73293582Y-21596037D01*
X73170120Y-21583877D01*
X71970120Y-21583877D01*
X71846658Y-21596037D01*
X71727941Y-21632049D01*
X71618531Y-21690530D01*
X71522632Y-21769232D01*
X71443930Y-21865131D01*
X71385449Y-21974541D01*
X71349437Y-22093258D01*
X71337277Y-22216720D01*
X67489603Y-22216720D01*
X67569918Y-22136405D01*
X67666332Y-21992110D01*
X67732744Y-21831778D01*
X67766600Y-21661571D01*
X67766600Y-21488029D01*
X67732744Y-21317822D01*
X67666332Y-21157490D01*
X67569918Y-21013195D01*
X67447205Y-20890482D01*
X67302910Y-20794068D01*
X67142578Y-20727656D01*
X66972371Y-20693800D01*
X66798829Y-20693800D01*
X66628622Y-20727656D01*
X66468290Y-20794068D01*
X66323995Y-20890482D01*
X66250600Y-20963877D01*
X66177205Y-20890482D01*
X66032910Y-20794068D01*
X65872578Y-20727656D01*
X65702371Y-20693800D01*
X65528829Y-20693800D01*
X65358622Y-20727656D01*
X65198290Y-20794068D01*
X65140032Y-20832994D01*
X65116311Y-20804089D01*
X65058296Y-20756478D01*
X64992108Y-20721099D01*
X64920289Y-20699313D01*
X64845600Y-20691957D01*
X63845600Y-20691957D01*
X63770911Y-20699313D01*
X63699092Y-20721099D01*
X63632904Y-20756478D01*
X63574889Y-20804089D01*
X63527278Y-20862104D01*
X63491899Y-20928292D01*
X63470113Y-21000111D01*
X63462757Y-21074800D01*
X38043499Y-21074800D01*
X38043498Y-20386625D01*
X86010992Y-20401624D01*
G37*
G04 #@! TD.AperFunction*
M02*
