M48
; DRILL file {KiCad (5.1.10)-1} date 05/29/21 18:44:52
; FORMAT={-:-/ absolute / metric / decimal}
; #@! TF.CreationDate,2021-05-29T18:44:52+08:00
; #@! TF.GenerationSoftware,Kicad,Pcbnew,(5.1.10)-1
; #@! TF.FileFunction,Plated,1,2,PTH
FMAT,2
METRIC
T1C0.300
T2C0.400
T3C0.650
T4C0.800
T5C0.950
T6C1.000
T7C1.750
%
G90
G05
T1
X40.419Y-21.372
X40.419Y-34.478
X40.419Y-40.218
X40.419Y-43.774
X40.419Y-48.245
X40.419Y-57.643
X40.47Y-25.994
X40.47Y-30.058
X40.47Y-53.02
X50.934Y-36.967
X52.408Y-41.488
X52.509Y-36.967
X52.611Y-21.372
X52.611Y-26.553
X52.662Y-34.529
X53.22Y-56.474
X54.287Y-34.529
X54.49Y-36.967
X55.049Y-41.438
X55.405Y-58.862
X56.218Y-34.529
X57.284Y-45.298
X57.538Y-56.474
X58.351Y-34.732
X58.504Y-47.635
X58.808Y-34.275
X59.164Y-21.372
X59.723Y-37.932
X59.723Y-41.234
X59.723Y-45.502
X60.282Y-58.964
X60.434Y-45.502
X61.247Y-44.536
X62.161Y-43.571
X62.212Y-56.474
X62.263Y-25.842
X62.771Y-37.983
X63.838Y-46.264
X64.041Y-41.641
X64.173Y-37.343
X64.9Y-31.68
X65.362Y-33.919
X65.362Y-35.088
X65.412Y-46.213
X65.717Y-58.811
X65.722Y-31.638
X65.768Y-25.842
X65.87Y-29.398
X66.378Y-33.919
X66.428Y-35.088
X66.987Y-43.47
X66.987Y-46.213
X68.867Y-56.373
X68.918Y-40.472
X69.705Y-36.761
X70.264Y-36.182
X70.442Y-43.47
X70.492Y-46.213
X70.848Y-25.842
X71.0Y-31.074
X73.873Y-39.693
X75.826Y-41.387
X76.131Y-25.791
X76.599Y-49.845
X76.842Y-56.932
X77.188Y-39.759
X78.039Y-43.005
X78.565Y-49.855
X78.824Y-28.687
X78.824Y-41.285
X78.923Y-33.752
X80.845Y-48.169
X80.845Y-51.928
X80.856Y-49.855
X82.38Y-57.186
X83.116Y-49.779
X84.663Y-32.649
X84.742Y-30.912
X85.598Y-40.467
X86.428Y-32.614
X86.593Y-30.846
X86.746Y-42.451
X87.731Y-40.434
X88.14Y-43.812
X88.384Y-32.596
X88.42Y-30.785
X89.093Y-42.418
X89.847Y-40.417
X90.302Y-32.568
X90.32Y-30.792
X90.52Y-43.713
X91.011Y-47.092
X91.91Y-32.487
X91.94Y-30.731
X92.542Y-47.186
X93.512Y-47.145
X95.588Y-57.998
X96.855Y-51.435
X96.858Y-55.154
T2
X60.028Y-27.417
X62.364Y-31.836
X62.872Y-32.7
X89.492Y-46.975
X93.454Y-54.493
T3
X64.346Y-21.575
X65.616Y-21.575
X66.886Y-21.575
X68.156Y-21.575
T4
X76.08Y-29.5
X76.08Y-31.5
X76.08Y-33.5
X76.08Y-35.5
T5
X45.804Y-41.285
X45.804Y-43.785
X45.804Y-46.285
X45.804Y-52.868
X45.804Y-55.368
X45.804Y-57.868
T6
X45.804Y-22.946
X45.804Y-25.446
X45.804Y-32.09
X45.804Y-34.59
X53.893Y-50.289
X56.433Y-50.289
X58.973Y-50.289
X63.99Y-50.289
X66.53Y-50.289
X69.07Y-50.289
X72.57Y-22.967
X75.07Y-22.967
X75.166Y-52.893
X77.666Y-52.893
X80.266Y-37.369
X80.317Y-21.824
X81.432Y-43.104
X82.806Y-37.369
X82.857Y-21.824
X83.932Y-43.104
X85.346Y-37.369
X85.397Y-21.824
X87.886Y-37.369
X87.937Y-21.824
X90.426Y-37.369
X90.477Y-21.824
X92.966Y-37.369
X93.017Y-21.824
X95.506Y-37.369
X95.557Y-21.824
X98.046Y-37.369
X98.097Y-21.824
T7
X92.713Y-42.042
X96.593Y-42.042
T0
M30
