G04 #@! TF.GenerationSoftware,KiCad,Pcbnew,(5.1.10)-1*
G04 #@! TF.CreationDate,2021-05-29T18:44:49+08:00*
G04 #@! TF.ProjectId,Light_detector_V1.0,4c696768-745f-4646-9574-6563746f725f,rev?*
G04 #@! TF.SameCoordinates,Original*
G04 #@! TF.FileFunction,Soldermask,Top*
G04 #@! TF.FilePolarity,Negative*
%FSLAX46Y46*%
G04 Gerber Fmt 4.6, Leading zero omitted, Abs format (unit mm)*
G04 Created by KiCad (PCBNEW (5.1.10)-1) date 2021-05-29 18:44:49*
%MOMM*%
%LPD*%
G01*
G04 APERTURE LIST*
%ADD10O,1.800000X2.100000*%
%ADD11O,1.800000X1.800000*%
%ADD12C,3.100000*%
%ADD13O,1.450000X1.450000*%
%ADD14O,2.100000X1.800000*%
%ADD15O,2.050000X1.800000*%
%ADD16O,1.100000X1.100000*%
%ADD17C,0.100000*%
G04 APERTURE END LIST*
G36*
G01*
X95805360Y-46644680D02*
X96355360Y-46644680D01*
G75*
G02*
X96605360Y-46894680I0J-250000D01*
G01*
X96605360Y-47394680D01*
G75*
G02*
X96355360Y-47644680I-250000J0D01*
G01*
X95805360Y-47644680D01*
G75*
G02*
X95555360Y-47394680I0J250000D01*
G01*
X95555360Y-46894680D01*
G75*
G02*
X95805360Y-46644680I250000J0D01*
G01*
G37*
G36*
G01*
X95805360Y-48194680D02*
X96355360Y-48194680D01*
G75*
G02*
X96605360Y-48444680I0J-250000D01*
G01*
X96605360Y-48944680D01*
G75*
G02*
X96355360Y-49194680I-250000J0D01*
G01*
X95805360Y-49194680D01*
G75*
G02*
X95555360Y-48944680I0J250000D01*
G01*
X95555360Y-48444680D01*
G75*
G02*
X95805360Y-48194680I250000J0D01*
G01*
G37*
G36*
G01*
X96653340Y-44672200D02*
X96653340Y-45772200D01*
G75*
G02*
X96603340Y-45822200I-50000J0D01*
G01*
X95503340Y-45822200D01*
G75*
G02*
X95453340Y-45772200I0J50000D01*
G01*
X95453340Y-44672200D01*
G75*
G02*
X95503340Y-44622200I50000J0D01*
G01*
X96603340Y-44622200D01*
G75*
G02*
X96653340Y-44672200I0J-50000D01*
G01*
G37*
G36*
G01*
X93853340Y-44672200D02*
X93853340Y-45772200D01*
G75*
G02*
X93803340Y-45822200I-50000J0D01*
G01*
X92703340Y-45822200D01*
G75*
G02*
X92653340Y-45772200I0J50000D01*
G01*
X92653340Y-44672200D01*
G75*
G02*
X92703340Y-44622200I50000J0D01*
G01*
X93803340Y-44622200D01*
G75*
G02*
X93853340Y-44672200I0J-50000D01*
G01*
G37*
D10*
X81431540Y-43103840D03*
G36*
G01*
X84831540Y-42318545D02*
X84831540Y-43889135D01*
G75*
G02*
X84566835Y-44153840I-264705J0D01*
G01*
X83296245Y-44153840D01*
G75*
G02*
X83031540Y-43889135I0J264705D01*
G01*
X83031540Y-42318545D01*
G75*
G02*
X83296245Y-42053840I264705J0D01*
G01*
X84566835Y-42053840D01*
G75*
G02*
X84831540Y-42318545I0J-264705D01*
G01*
G37*
D11*
X95506320Y-37368520D03*
X92966320Y-37368520D03*
X87886320Y-37368520D03*
X80266320Y-37368520D03*
G36*
G01*
X97196320Y-36468520D02*
X98896320Y-36468520D01*
G75*
G02*
X98946320Y-36518520I0J-50000D01*
G01*
X98946320Y-38218520D01*
G75*
G02*
X98896320Y-38268520I-50000J0D01*
G01*
X97196320Y-38268520D01*
G75*
G02*
X97146320Y-38218520I0J50000D01*
G01*
X97146320Y-36518520D01*
G75*
G02*
X97196320Y-36468520I50000J0D01*
G01*
G37*
X90426320Y-37368520D03*
X82806320Y-37368520D03*
X85346320Y-37368520D03*
X95557120Y-21823720D03*
X93017120Y-21823720D03*
X87937120Y-21823720D03*
X80317120Y-21823720D03*
G36*
G01*
X97247120Y-20923720D02*
X98947120Y-20923720D01*
G75*
G02*
X98997120Y-20973720I0J-50000D01*
G01*
X98997120Y-22673720D01*
G75*
G02*
X98947120Y-22723720I-50000J0D01*
G01*
X97247120Y-22723720D01*
G75*
G02*
X97197120Y-22673720I0J50000D01*
G01*
X97197120Y-20973720D01*
G75*
G02*
X97247120Y-20923720I50000J0D01*
G01*
G37*
X90477120Y-21823720D03*
X82857120Y-21823720D03*
X85397120Y-21823720D03*
D10*
X75070120Y-22966720D03*
G36*
G01*
X71670120Y-23752015D02*
X71670120Y-22181425D01*
G75*
G02*
X71934825Y-21916720I264705J0D01*
G01*
X73205415Y-21916720D01*
G75*
G02*
X73470120Y-22181425I0J-264705D01*
G01*
X73470120Y-23752015D01*
G75*
G02*
X73205415Y-24016720I-264705J0D01*
G01*
X71934825Y-24016720D01*
G75*
G02*
X71670120Y-23752015I0J264705D01*
G01*
G37*
D12*
X92713440Y-42042120D03*
G36*
G01*
X98143440Y-40542120D02*
X98143440Y-43542120D01*
G75*
G02*
X98093440Y-43592120I-50000J0D01*
G01*
X95093440Y-43592120D01*
G75*
G02*
X95043440Y-43542120I0J50000D01*
G01*
X95043440Y-40542120D01*
G75*
G02*
X95093440Y-40492120I50000J0D01*
G01*
X98093440Y-40492120D01*
G75*
G02*
X98143440Y-40542120I0J-50000D01*
G01*
G37*
G36*
G01*
X75355400Y-30174600D02*
X75355400Y-28824600D01*
G75*
G02*
X75405400Y-28774600I50000J0D01*
G01*
X76755400Y-28774600D01*
G75*
G02*
X76805400Y-28824600I0J-50000D01*
G01*
X76805400Y-30174600D01*
G75*
G02*
X76755400Y-30224600I-50000J0D01*
G01*
X75405400Y-30224600D01*
G75*
G02*
X75355400Y-30174600I0J50000D01*
G01*
G37*
D13*
X76080400Y-31499600D03*
X76080400Y-33499600D03*
X76080400Y-35499600D03*
G36*
G01*
X85667500Y-47517000D02*
X85667500Y-46717000D01*
G75*
G02*
X85717500Y-46667000I50000J0D01*
G01*
X86617500Y-46667000D01*
G75*
G02*
X86667500Y-46717000I0J-50000D01*
G01*
X86667500Y-47517000D01*
G75*
G02*
X86617500Y-47567000I-50000J0D01*
G01*
X85717500Y-47567000D01*
G75*
G02*
X85667500Y-47517000I0J50000D01*
G01*
G37*
G36*
G01*
X85667500Y-49417000D02*
X85667500Y-48617000D01*
G75*
G02*
X85717500Y-48567000I50000J0D01*
G01*
X86617500Y-48567000D01*
G75*
G02*
X86667500Y-48617000I0J-50000D01*
G01*
X86667500Y-49417000D01*
G75*
G02*
X86617500Y-49467000I-50000J0D01*
G01*
X85717500Y-49467000D01*
G75*
G02*
X85667500Y-49417000I0J50000D01*
G01*
G37*
G36*
G01*
X87667500Y-48467000D02*
X87667500Y-47667000D01*
G75*
G02*
X87717500Y-47617000I50000J0D01*
G01*
X88617500Y-47617000D01*
G75*
G02*
X88667500Y-47667000I0J-50000D01*
G01*
X88667500Y-48467000D01*
G75*
G02*
X88617500Y-48517000I-50000J0D01*
G01*
X87717500Y-48517000D01*
G75*
G02*
X87667500Y-48467000I0J50000D01*
G01*
G37*
G36*
G01*
X45018305Y-31190400D02*
X46588895Y-31190400D01*
G75*
G02*
X46853600Y-31455105I0J-264705D01*
G01*
X46853600Y-32725695D01*
G75*
G02*
X46588895Y-32990400I-264705J0D01*
G01*
X45018305Y-32990400D01*
G75*
G02*
X44753600Y-32725695I0J264705D01*
G01*
X44753600Y-31455105D01*
G75*
G02*
X45018305Y-31190400I264705J0D01*
G01*
G37*
D14*
X45803600Y-34590400D03*
G36*
G01*
X45018305Y-22046400D02*
X46588895Y-22046400D01*
G75*
G02*
X46853600Y-22311105I0J-264705D01*
G01*
X46853600Y-23581695D01*
G75*
G02*
X46588895Y-23846400I-264705J0D01*
G01*
X45018305Y-23846400D01*
G75*
G02*
X44753600Y-23581695I0J264705D01*
G01*
X44753600Y-22311105D01*
G75*
G02*
X45018305Y-22046400I264705J0D01*
G01*
G37*
X45803600Y-25446400D03*
G36*
G01*
X45043305Y-51967600D02*
X46563895Y-51967600D01*
G75*
G02*
X46828600Y-52232305I0J-264705D01*
G01*
X46828600Y-53502895D01*
G75*
G02*
X46563895Y-53767600I-264705J0D01*
G01*
X45043305Y-53767600D01*
G75*
G02*
X44778600Y-53502895I0J264705D01*
G01*
X44778600Y-52232305D01*
G75*
G02*
X45043305Y-51967600I264705J0D01*
G01*
G37*
D15*
X45803600Y-55367600D03*
X45803600Y-57867600D03*
G36*
G01*
X45043305Y-40385200D02*
X46563895Y-40385200D01*
G75*
G02*
X46828600Y-40649905I0J-264705D01*
G01*
X46828600Y-41920495D01*
G75*
G02*
X46563895Y-42185200I-264705J0D01*
G01*
X45043305Y-42185200D01*
G75*
G02*
X44778600Y-41920495I0J264705D01*
G01*
X44778600Y-40649905D01*
G75*
G02*
X45043305Y-40385200I264705J0D01*
G01*
G37*
X45803600Y-43785200D03*
X45803600Y-46285200D03*
G36*
G01*
X74266000Y-53678295D02*
X74266000Y-52107705D01*
G75*
G02*
X74530705Y-51843000I264705J0D01*
G01*
X75801295Y-51843000D01*
G75*
G02*
X76066000Y-52107705I0J-264705D01*
G01*
X76066000Y-53678295D01*
G75*
G02*
X75801295Y-53943000I-264705J0D01*
G01*
X74530705Y-53943000D01*
G75*
G02*
X74266000Y-53678295I0J264705D01*
G01*
G37*
D10*
X77666000Y-52893000D03*
G36*
G01*
X59346000Y-31203600D02*
X59346000Y-30003600D01*
G75*
G02*
X59396000Y-29953600I50000J0D01*
G01*
X60796000Y-29953600D01*
G75*
G02*
X60846000Y-30003600I0J-50000D01*
G01*
X60846000Y-31203600D01*
G75*
G02*
X60796000Y-31253600I-50000J0D01*
G01*
X59396000Y-31253600D01*
G75*
G02*
X59346000Y-31203600I0J50000D01*
G01*
G37*
G36*
G01*
X61546000Y-31203600D02*
X61546000Y-30003600D01*
G75*
G02*
X61596000Y-29953600I50000J0D01*
G01*
X62996000Y-29953600D01*
G75*
G02*
X63046000Y-30003600I0J-50000D01*
G01*
X63046000Y-31203600D01*
G75*
G02*
X62996000Y-31253600I-50000J0D01*
G01*
X61596000Y-31253600D01*
G75*
G02*
X61546000Y-31203600I0J50000D01*
G01*
G37*
G36*
G01*
X61546000Y-29503600D02*
X61546000Y-28303600D01*
G75*
G02*
X61596000Y-28253600I50000J0D01*
G01*
X62996000Y-28253600D01*
G75*
G02*
X63046000Y-28303600I0J-50000D01*
G01*
X63046000Y-29503600D01*
G75*
G02*
X62996000Y-29553600I-50000J0D01*
G01*
X61596000Y-29553600D01*
G75*
G02*
X61546000Y-29503600I0J50000D01*
G01*
G37*
G36*
G01*
X59346000Y-29503600D02*
X59346000Y-28303600D01*
G75*
G02*
X59396000Y-28253600I50000J0D01*
G01*
X60796000Y-28253600D01*
G75*
G02*
X60846000Y-28303600I0J-50000D01*
G01*
X60846000Y-29503600D01*
G75*
G02*
X60796000Y-29553600I-50000J0D01*
G01*
X59396000Y-29553600D01*
G75*
G02*
X59346000Y-29503600I0J50000D01*
G01*
G37*
G36*
G01*
X63298000Y-47739500D02*
X63298000Y-47989500D01*
G75*
G02*
X63248000Y-48039500I-50000J0D01*
G01*
X62498000Y-48039500D01*
G75*
G02*
X62448000Y-47989500I0J50000D01*
G01*
X62448000Y-47739500D01*
G75*
G02*
X62498000Y-47689500I50000J0D01*
G01*
X63248000Y-47689500D01*
G75*
G02*
X63298000Y-47739500I0J-50000D01*
G01*
G37*
G36*
G01*
X63298000Y-47239500D02*
X63298000Y-47489500D01*
G75*
G02*
X63248000Y-47539500I-50000J0D01*
G01*
X62498000Y-47539500D01*
G75*
G02*
X62448000Y-47489500I0J50000D01*
G01*
X62448000Y-47239500D01*
G75*
G02*
X62498000Y-47189500I50000J0D01*
G01*
X63248000Y-47189500D01*
G75*
G02*
X63298000Y-47239500I0J-50000D01*
G01*
G37*
G36*
G01*
X63298000Y-46739500D02*
X63298000Y-46989500D01*
G75*
G02*
X63248000Y-47039500I-50000J0D01*
G01*
X62498000Y-47039500D01*
G75*
G02*
X62448000Y-46989500I0J50000D01*
G01*
X62448000Y-46739500D01*
G75*
G02*
X62498000Y-46689500I50000J0D01*
G01*
X63248000Y-46689500D01*
G75*
G02*
X63298000Y-46739500I0J-50000D01*
G01*
G37*
G36*
G01*
X63298000Y-46239500D02*
X63298000Y-46489500D01*
G75*
G02*
X63248000Y-46539500I-50000J0D01*
G01*
X62498000Y-46539500D01*
G75*
G02*
X62448000Y-46489500I0J50000D01*
G01*
X62448000Y-46239500D01*
G75*
G02*
X62498000Y-46189500I50000J0D01*
G01*
X63248000Y-46189500D01*
G75*
G02*
X63298000Y-46239500I0J-50000D01*
G01*
G37*
G36*
G01*
X60198000Y-46239500D02*
X60198000Y-46489500D01*
G75*
G02*
X60148000Y-46539500I-50000J0D01*
G01*
X59398000Y-46539500D01*
G75*
G02*
X59348000Y-46489500I0J50000D01*
G01*
X59348000Y-46239500D01*
G75*
G02*
X59398000Y-46189500I50000J0D01*
G01*
X60148000Y-46189500D01*
G75*
G02*
X60198000Y-46239500I0J-50000D01*
G01*
G37*
G36*
G01*
X60198000Y-46739500D02*
X60198000Y-46989500D01*
G75*
G02*
X60148000Y-47039500I-50000J0D01*
G01*
X59398000Y-47039500D01*
G75*
G02*
X59348000Y-46989500I0J50000D01*
G01*
X59348000Y-46739500D01*
G75*
G02*
X59398000Y-46689500I50000J0D01*
G01*
X60148000Y-46689500D01*
G75*
G02*
X60198000Y-46739500I0J-50000D01*
G01*
G37*
G36*
G01*
X60198000Y-47239500D02*
X60198000Y-47489500D01*
G75*
G02*
X60148000Y-47539500I-50000J0D01*
G01*
X59398000Y-47539500D01*
G75*
G02*
X59348000Y-47489500I0J50000D01*
G01*
X59348000Y-47239500D01*
G75*
G02*
X59398000Y-47189500I50000J0D01*
G01*
X60148000Y-47189500D01*
G75*
G02*
X60198000Y-47239500I0J-50000D01*
G01*
G37*
G36*
G01*
X60198000Y-47739500D02*
X60198000Y-47989500D01*
G75*
G02*
X60148000Y-48039500I-50000J0D01*
G01*
X59398000Y-48039500D01*
G75*
G02*
X59348000Y-47989500I0J50000D01*
G01*
X59348000Y-47739500D01*
G75*
G02*
X59398000Y-47689500I50000J0D01*
G01*
X60148000Y-47689500D01*
G75*
G02*
X60198000Y-47739500I0J-50000D01*
G01*
G37*
G36*
G01*
X52312200Y-46502200D02*
X52312200Y-46252200D01*
G75*
G02*
X52362200Y-46202200I50000J0D01*
G01*
X53112200Y-46202200D01*
G75*
G02*
X53162200Y-46252200I0J-50000D01*
G01*
X53162200Y-46502200D01*
G75*
G02*
X53112200Y-46552200I-50000J0D01*
G01*
X52362200Y-46552200D01*
G75*
G02*
X52312200Y-46502200I0J50000D01*
G01*
G37*
G36*
G01*
X52312200Y-47002200D02*
X52312200Y-46752200D01*
G75*
G02*
X52362200Y-46702200I50000J0D01*
G01*
X53112200Y-46702200D01*
G75*
G02*
X53162200Y-46752200I0J-50000D01*
G01*
X53162200Y-47002200D01*
G75*
G02*
X53112200Y-47052200I-50000J0D01*
G01*
X52362200Y-47052200D01*
G75*
G02*
X52312200Y-47002200I0J50000D01*
G01*
G37*
G36*
G01*
X52312200Y-47502200D02*
X52312200Y-47252200D01*
G75*
G02*
X52362200Y-47202200I50000J0D01*
G01*
X53112200Y-47202200D01*
G75*
G02*
X53162200Y-47252200I0J-50000D01*
G01*
X53162200Y-47502200D01*
G75*
G02*
X53112200Y-47552200I-50000J0D01*
G01*
X52362200Y-47552200D01*
G75*
G02*
X52312200Y-47502200I0J50000D01*
G01*
G37*
G36*
G01*
X52312200Y-48002200D02*
X52312200Y-47752200D01*
G75*
G02*
X52362200Y-47702200I50000J0D01*
G01*
X53112200Y-47702200D01*
G75*
G02*
X53162200Y-47752200I0J-50000D01*
G01*
X53162200Y-48002200D01*
G75*
G02*
X53112200Y-48052200I-50000J0D01*
G01*
X52362200Y-48052200D01*
G75*
G02*
X52312200Y-48002200I0J50000D01*
G01*
G37*
G36*
G01*
X55412200Y-48002200D02*
X55412200Y-47752200D01*
G75*
G02*
X55462200Y-47702200I50000J0D01*
G01*
X56212200Y-47702200D01*
G75*
G02*
X56262200Y-47752200I0J-50000D01*
G01*
X56262200Y-48002200D01*
G75*
G02*
X56212200Y-48052200I-50000J0D01*
G01*
X55462200Y-48052200D01*
G75*
G02*
X55412200Y-48002200I0J50000D01*
G01*
G37*
G36*
G01*
X55412200Y-47502200D02*
X55412200Y-47252200D01*
G75*
G02*
X55462200Y-47202200I50000J0D01*
G01*
X56212200Y-47202200D01*
G75*
G02*
X56262200Y-47252200I0J-50000D01*
G01*
X56262200Y-47502200D01*
G75*
G02*
X56212200Y-47552200I-50000J0D01*
G01*
X55462200Y-47552200D01*
G75*
G02*
X55412200Y-47502200I0J50000D01*
G01*
G37*
G36*
G01*
X55412200Y-47002200D02*
X55412200Y-46752200D01*
G75*
G02*
X55462200Y-46702200I50000J0D01*
G01*
X56212200Y-46702200D01*
G75*
G02*
X56262200Y-46752200I0J-50000D01*
G01*
X56262200Y-47002200D01*
G75*
G02*
X56212200Y-47052200I-50000J0D01*
G01*
X55462200Y-47052200D01*
G75*
G02*
X55412200Y-47002200I0J50000D01*
G01*
G37*
G36*
G01*
X55412200Y-46502200D02*
X55412200Y-46252200D01*
G75*
G02*
X55462200Y-46202200I50000J0D01*
G01*
X56212200Y-46202200D01*
G75*
G02*
X56262200Y-46252200I0J-50000D01*
G01*
X56262200Y-46502200D01*
G75*
G02*
X56212200Y-46552200I-50000J0D01*
G01*
X55462200Y-46552200D01*
G75*
G02*
X55412200Y-46502200I0J50000D01*
G01*
G37*
G36*
G01*
X92065760Y-47623680D02*
X92065760Y-46823680D01*
G75*
G02*
X92115760Y-46773680I50000J0D01*
G01*
X93015760Y-46773680D01*
G75*
G02*
X93065760Y-46823680I0J-50000D01*
G01*
X93065760Y-47623680D01*
G75*
G02*
X93015760Y-47673680I-50000J0D01*
G01*
X92115760Y-47673680D01*
G75*
G02*
X92065760Y-47623680I0J50000D01*
G01*
G37*
G36*
G01*
X92065760Y-49523680D02*
X92065760Y-48723680D01*
G75*
G02*
X92115760Y-48673680I50000J0D01*
G01*
X93015760Y-48673680D01*
G75*
G02*
X93065760Y-48723680I0J-50000D01*
G01*
X93065760Y-49523680D01*
G75*
G02*
X93015760Y-49573680I-50000J0D01*
G01*
X92115760Y-49573680D01*
G75*
G02*
X92065760Y-49523680I0J50000D01*
G01*
G37*
G36*
G01*
X94065760Y-48573680D02*
X94065760Y-47773680D01*
G75*
G02*
X94115760Y-47723680I50000J0D01*
G01*
X95015760Y-47723680D01*
G75*
G02*
X95065760Y-47773680I0J-50000D01*
G01*
X95065760Y-48573680D01*
G75*
G02*
X95015760Y-48623680I-50000J0D01*
G01*
X94115760Y-48623680D01*
G75*
G02*
X94065760Y-48573680I0J50000D01*
G01*
G37*
G36*
G01*
X59502400Y-32198800D02*
X59502400Y-31778800D01*
G75*
G02*
X59662400Y-31618800I160000J0D01*
G01*
X59982400Y-31618800D01*
G75*
G02*
X60142400Y-31778800I0J-160000D01*
G01*
X60142400Y-32198800D01*
G75*
G02*
X59982400Y-32358800I-160000J0D01*
G01*
X59662400Y-32358800D01*
G75*
G02*
X59502400Y-32198800I0J160000D01*
G01*
G37*
G36*
G01*
X60522400Y-32198800D02*
X60522400Y-31778800D01*
G75*
G02*
X60682400Y-31618800I160000J0D01*
G01*
X61002400Y-31618800D01*
G75*
G02*
X61162400Y-31778800I0J-160000D01*
G01*
X61162400Y-32198800D01*
G75*
G02*
X61002400Y-32358800I-160000J0D01*
G01*
X60682400Y-32358800D01*
G75*
G02*
X60522400Y-32198800I0J160000D01*
G01*
G37*
G36*
G01*
X77496000Y-46284500D02*
X77916000Y-46284500D01*
G75*
G02*
X78076000Y-46444500I0J-160000D01*
G01*
X78076000Y-46764500D01*
G75*
G02*
X77916000Y-46924500I-160000J0D01*
G01*
X77496000Y-46924500D01*
G75*
G02*
X77336000Y-46764500I0J160000D01*
G01*
X77336000Y-46444500D01*
G75*
G02*
X77496000Y-46284500I160000J0D01*
G01*
G37*
G36*
G01*
X77496000Y-47304500D02*
X77916000Y-47304500D01*
G75*
G02*
X78076000Y-47464500I0J-160000D01*
G01*
X78076000Y-47784500D01*
G75*
G02*
X77916000Y-47944500I-160000J0D01*
G01*
X77496000Y-47944500D01*
G75*
G02*
X77336000Y-47784500I0J160000D01*
G01*
X77336000Y-47464500D01*
G75*
G02*
X77496000Y-47304500I160000J0D01*
G01*
G37*
G36*
G01*
X82488000Y-48465200D02*
X82068000Y-48465200D01*
G75*
G02*
X81908000Y-48305200I0J160000D01*
G01*
X81908000Y-47985200D01*
G75*
G02*
X82068000Y-47825200I160000J0D01*
G01*
X82488000Y-47825200D01*
G75*
G02*
X82648000Y-47985200I0J-160000D01*
G01*
X82648000Y-48305200D01*
G75*
G02*
X82488000Y-48465200I-160000J0D01*
G01*
G37*
G36*
G01*
X82488000Y-47445200D02*
X82068000Y-47445200D01*
G75*
G02*
X81908000Y-47285200I0J160000D01*
G01*
X81908000Y-46965200D01*
G75*
G02*
X82068000Y-46805200I160000J0D01*
G01*
X82488000Y-46805200D01*
G75*
G02*
X82648000Y-46965200I0J-160000D01*
G01*
X82648000Y-47285200D01*
G75*
G02*
X82488000Y-47445200I-160000J0D01*
G01*
G37*
G36*
G01*
X83808800Y-48465200D02*
X83388800Y-48465200D01*
G75*
G02*
X83228800Y-48305200I0J160000D01*
G01*
X83228800Y-47985200D01*
G75*
G02*
X83388800Y-47825200I160000J0D01*
G01*
X83808800Y-47825200D01*
G75*
G02*
X83968800Y-47985200I0J-160000D01*
G01*
X83968800Y-48305200D01*
G75*
G02*
X83808800Y-48465200I-160000J0D01*
G01*
G37*
G36*
G01*
X83808800Y-47445200D02*
X83388800Y-47445200D01*
G75*
G02*
X83228800Y-47285200I0J160000D01*
G01*
X83228800Y-46965200D01*
G75*
G02*
X83388800Y-46805200I160000J0D01*
G01*
X83808800Y-46805200D01*
G75*
G02*
X83968800Y-46965200I0J-160000D01*
G01*
X83968800Y-47285200D01*
G75*
G02*
X83808800Y-47445200I-160000J0D01*
G01*
G37*
G36*
G01*
X85091500Y-48452500D02*
X84671500Y-48452500D01*
G75*
G02*
X84511500Y-48292500I0J160000D01*
G01*
X84511500Y-47972500D01*
G75*
G02*
X84671500Y-47812500I160000J0D01*
G01*
X85091500Y-47812500D01*
G75*
G02*
X85251500Y-47972500I0J-160000D01*
G01*
X85251500Y-48292500D01*
G75*
G02*
X85091500Y-48452500I-160000J0D01*
G01*
G37*
G36*
G01*
X85091500Y-47432500D02*
X84671500Y-47432500D01*
G75*
G02*
X84511500Y-47272500I0J160000D01*
G01*
X84511500Y-46952500D01*
G75*
G02*
X84671500Y-46792500I160000J0D01*
G01*
X85091500Y-46792500D01*
G75*
G02*
X85251500Y-46952500I0J-160000D01*
G01*
X85251500Y-47272500D01*
G75*
G02*
X85091500Y-47432500I-160000J0D01*
G01*
G37*
G36*
G01*
X89281600Y-47668800D02*
X89701600Y-47668800D01*
G75*
G02*
X89861600Y-47828800I0J-160000D01*
G01*
X89861600Y-48148800D01*
G75*
G02*
X89701600Y-48308800I-160000J0D01*
G01*
X89281600Y-48308800D01*
G75*
G02*
X89121600Y-48148800I0J160000D01*
G01*
X89121600Y-47828800D01*
G75*
G02*
X89281600Y-47668800I160000J0D01*
G01*
G37*
G36*
G01*
X89281600Y-48688800D02*
X89701600Y-48688800D01*
G75*
G02*
X89861600Y-48848800I0J-160000D01*
G01*
X89861600Y-49168800D01*
G75*
G02*
X89701600Y-49328800I-160000J0D01*
G01*
X89281600Y-49328800D01*
G75*
G02*
X89121600Y-49168800I0J160000D01*
G01*
X89121600Y-48848800D01*
G75*
G02*
X89281600Y-48688800I160000J0D01*
G01*
G37*
G36*
G01*
X76094500Y-47220000D02*
X76094500Y-48020000D01*
G75*
G02*
X76044500Y-48070000I-50000J0D01*
G01*
X75144500Y-48070000D01*
G75*
G02*
X75094500Y-48020000I0J50000D01*
G01*
X75094500Y-47220000D01*
G75*
G02*
X75144500Y-47170000I50000J0D01*
G01*
X76044500Y-47170000D01*
G75*
G02*
X76094500Y-47220000I0J-50000D01*
G01*
G37*
G36*
G01*
X76094500Y-45320000D02*
X76094500Y-46120000D01*
G75*
G02*
X76044500Y-46170000I-50000J0D01*
G01*
X75144500Y-46170000D01*
G75*
G02*
X75094500Y-46120000I0J50000D01*
G01*
X75094500Y-45320000D01*
G75*
G02*
X75144500Y-45270000I50000J0D01*
G01*
X76044500Y-45270000D01*
G75*
G02*
X76094500Y-45320000I0J-50000D01*
G01*
G37*
G36*
G01*
X74094500Y-46270000D02*
X74094500Y-47070000D01*
G75*
G02*
X74044500Y-47120000I-50000J0D01*
G01*
X73144500Y-47120000D01*
G75*
G02*
X73094500Y-47070000I0J50000D01*
G01*
X73094500Y-46270000D01*
G75*
G02*
X73144500Y-46220000I50000J0D01*
G01*
X74044500Y-46220000D01*
G75*
G02*
X74094500Y-46270000I0J-50000D01*
G01*
G37*
G36*
G01*
X68220000Y-49389500D02*
X69920000Y-49389500D01*
G75*
G02*
X69970000Y-49439500I0J-50000D01*
G01*
X69970000Y-51139500D01*
G75*
G02*
X69920000Y-51189500I-50000J0D01*
G01*
X68220000Y-51189500D01*
G75*
G02*
X68170000Y-51139500I0J50000D01*
G01*
X68170000Y-49439500D01*
G75*
G02*
X68220000Y-49389500I50000J0D01*
G01*
G37*
D11*
X66530000Y-50289500D03*
X63990000Y-50289500D03*
G36*
G01*
X58123500Y-49389500D02*
X59823500Y-49389500D01*
G75*
G02*
X59873500Y-49439500I0J-50000D01*
G01*
X59873500Y-51139500D01*
G75*
G02*
X59823500Y-51189500I-50000J0D01*
G01*
X58123500Y-51189500D01*
G75*
G02*
X58073500Y-51139500I0J50000D01*
G01*
X58073500Y-49439500D01*
G75*
G02*
X58123500Y-49389500I50000J0D01*
G01*
G37*
X56433500Y-50289500D03*
X53893500Y-50289500D03*
G36*
G01*
X64845600Y-22124800D02*
X63845600Y-22124800D01*
G75*
G02*
X63795600Y-22074800I0J50000D01*
G01*
X63795600Y-21074800D01*
G75*
G02*
X63845600Y-21024800I50000J0D01*
G01*
X64845600Y-21024800D01*
G75*
G02*
X64895600Y-21074800I0J-50000D01*
G01*
X64895600Y-22074800D01*
G75*
G02*
X64845600Y-22124800I-50000J0D01*
G01*
G37*
D16*
X65615600Y-21574800D03*
X66885600Y-21574800D03*
X68155600Y-21574800D03*
G36*
G01*
X64320400Y-33678000D02*
X63770400Y-33678000D01*
G75*
G02*
X63720400Y-33628000I0J50000D01*
G01*
X63720400Y-33328000D01*
G75*
G02*
X63770400Y-33278000I50000J0D01*
G01*
X64320400Y-33278000D01*
G75*
G02*
X64370400Y-33328000I0J-50000D01*
G01*
X64370400Y-33628000D01*
G75*
G02*
X64320400Y-33678000I-50000J0D01*
G01*
G37*
G36*
G01*
X64320400Y-34178000D02*
X63770400Y-34178000D01*
G75*
G02*
X63720400Y-34128000I0J50000D01*
G01*
X63720400Y-33828000D01*
G75*
G02*
X63770400Y-33778000I50000J0D01*
G01*
X64320400Y-33778000D01*
G75*
G02*
X64370400Y-33828000I0J-50000D01*
G01*
X64370400Y-34128000D01*
G75*
G02*
X64320400Y-34178000I-50000J0D01*
G01*
G37*
G36*
G01*
X64320400Y-34678000D02*
X63770400Y-34678000D01*
G75*
G02*
X63720400Y-34628000I0J50000D01*
G01*
X63720400Y-34328000D01*
G75*
G02*
X63770400Y-34278000I50000J0D01*
G01*
X64320400Y-34278000D01*
G75*
G02*
X64370400Y-34328000I0J-50000D01*
G01*
X64370400Y-34628000D01*
G75*
G02*
X64320400Y-34678000I-50000J0D01*
G01*
G37*
G36*
G01*
X64320400Y-35178000D02*
X63770400Y-35178000D01*
G75*
G02*
X63720400Y-35128000I0J50000D01*
G01*
X63720400Y-34828000D01*
G75*
G02*
X63770400Y-34778000I50000J0D01*
G01*
X64320400Y-34778000D01*
G75*
G02*
X64370400Y-34828000I0J-50000D01*
G01*
X64370400Y-35128000D01*
G75*
G02*
X64320400Y-35178000I-50000J0D01*
G01*
G37*
G36*
G01*
X64320400Y-35678000D02*
X63770400Y-35678000D01*
G75*
G02*
X63720400Y-35628000I0J50000D01*
G01*
X63720400Y-35328000D01*
G75*
G02*
X63770400Y-35278000I50000J0D01*
G01*
X64320400Y-35278000D01*
G75*
G02*
X64370400Y-35328000I0J-50000D01*
G01*
X64370400Y-35628000D01*
G75*
G02*
X64320400Y-35678000I-50000J0D01*
G01*
G37*
G36*
G01*
X64720400Y-36628000D02*
X64720400Y-36078000D01*
G75*
G02*
X64770400Y-36028000I50000J0D01*
G01*
X65070400Y-36028000D01*
G75*
G02*
X65120400Y-36078000I0J-50000D01*
G01*
X65120400Y-36628000D01*
G75*
G02*
X65070400Y-36678000I-50000J0D01*
G01*
X64770400Y-36678000D01*
G75*
G02*
X64720400Y-36628000I0J50000D01*
G01*
G37*
G36*
G01*
X65220400Y-36628000D02*
X65220400Y-36078000D01*
G75*
G02*
X65270400Y-36028000I50000J0D01*
G01*
X65570400Y-36028000D01*
G75*
G02*
X65620400Y-36078000I0J-50000D01*
G01*
X65620400Y-36628000D01*
G75*
G02*
X65570400Y-36678000I-50000J0D01*
G01*
X65270400Y-36678000D01*
G75*
G02*
X65220400Y-36628000I0J50000D01*
G01*
G37*
G36*
G01*
X65720400Y-36628000D02*
X65720400Y-36078000D01*
G75*
G02*
X65770400Y-36028000I50000J0D01*
G01*
X66070400Y-36028000D01*
G75*
G02*
X66120400Y-36078000I0J-50000D01*
G01*
X66120400Y-36628000D01*
G75*
G02*
X66070400Y-36678000I-50000J0D01*
G01*
X65770400Y-36678000D01*
G75*
G02*
X65720400Y-36628000I0J50000D01*
G01*
G37*
G36*
G01*
X66220400Y-36628000D02*
X66220400Y-36078000D01*
G75*
G02*
X66270400Y-36028000I50000J0D01*
G01*
X66570400Y-36028000D01*
G75*
G02*
X66620400Y-36078000I0J-50000D01*
G01*
X66620400Y-36628000D01*
G75*
G02*
X66570400Y-36678000I-50000J0D01*
G01*
X66270400Y-36678000D01*
G75*
G02*
X66220400Y-36628000I0J50000D01*
G01*
G37*
G36*
G01*
X66720400Y-36628000D02*
X66720400Y-36078000D01*
G75*
G02*
X66770400Y-36028000I50000J0D01*
G01*
X67070400Y-36028000D01*
G75*
G02*
X67120400Y-36078000I0J-50000D01*
G01*
X67120400Y-36628000D01*
G75*
G02*
X67070400Y-36678000I-50000J0D01*
G01*
X66770400Y-36678000D01*
G75*
G02*
X66720400Y-36628000I0J50000D01*
G01*
G37*
G36*
G01*
X68070400Y-35678000D02*
X67520400Y-35678000D01*
G75*
G02*
X67470400Y-35628000I0J50000D01*
G01*
X67470400Y-35328000D01*
G75*
G02*
X67520400Y-35278000I50000J0D01*
G01*
X68070400Y-35278000D01*
G75*
G02*
X68120400Y-35328000I0J-50000D01*
G01*
X68120400Y-35628000D01*
G75*
G02*
X68070400Y-35678000I-50000J0D01*
G01*
G37*
G36*
G01*
X68070400Y-35178000D02*
X67520400Y-35178000D01*
G75*
G02*
X67470400Y-35128000I0J50000D01*
G01*
X67470400Y-34828000D01*
G75*
G02*
X67520400Y-34778000I50000J0D01*
G01*
X68070400Y-34778000D01*
G75*
G02*
X68120400Y-34828000I0J-50000D01*
G01*
X68120400Y-35128000D01*
G75*
G02*
X68070400Y-35178000I-50000J0D01*
G01*
G37*
G36*
G01*
X68070400Y-34678000D02*
X67520400Y-34678000D01*
G75*
G02*
X67470400Y-34628000I0J50000D01*
G01*
X67470400Y-34328000D01*
G75*
G02*
X67520400Y-34278000I50000J0D01*
G01*
X68070400Y-34278000D01*
G75*
G02*
X68120400Y-34328000I0J-50000D01*
G01*
X68120400Y-34628000D01*
G75*
G02*
X68070400Y-34678000I-50000J0D01*
G01*
G37*
G36*
G01*
X68070400Y-34178000D02*
X67520400Y-34178000D01*
G75*
G02*
X67470400Y-34128000I0J50000D01*
G01*
X67470400Y-33828000D01*
G75*
G02*
X67520400Y-33778000I50000J0D01*
G01*
X68070400Y-33778000D01*
G75*
G02*
X68120400Y-33828000I0J-50000D01*
G01*
X68120400Y-34128000D01*
G75*
G02*
X68070400Y-34178000I-50000J0D01*
G01*
G37*
G36*
G01*
X68070400Y-33678000D02*
X67520400Y-33678000D01*
G75*
G02*
X67470400Y-33628000I0J50000D01*
G01*
X67470400Y-33328000D01*
G75*
G02*
X67520400Y-33278000I50000J0D01*
G01*
X68070400Y-33278000D01*
G75*
G02*
X68120400Y-33328000I0J-50000D01*
G01*
X68120400Y-33628000D01*
G75*
G02*
X68070400Y-33678000I-50000J0D01*
G01*
G37*
G36*
G01*
X66720400Y-32878000D02*
X66720400Y-32328000D01*
G75*
G02*
X66770400Y-32278000I50000J0D01*
G01*
X67070400Y-32278000D01*
G75*
G02*
X67120400Y-32328000I0J-50000D01*
G01*
X67120400Y-32878000D01*
G75*
G02*
X67070400Y-32928000I-50000J0D01*
G01*
X66770400Y-32928000D01*
G75*
G02*
X66720400Y-32878000I0J50000D01*
G01*
G37*
G36*
G01*
X66220400Y-32878000D02*
X66220400Y-32328000D01*
G75*
G02*
X66270400Y-32278000I50000J0D01*
G01*
X66570400Y-32278000D01*
G75*
G02*
X66620400Y-32328000I0J-50000D01*
G01*
X66620400Y-32878000D01*
G75*
G02*
X66570400Y-32928000I-50000J0D01*
G01*
X66270400Y-32928000D01*
G75*
G02*
X66220400Y-32878000I0J50000D01*
G01*
G37*
G36*
G01*
X65720400Y-32878000D02*
X65720400Y-32328000D01*
G75*
G02*
X65770400Y-32278000I50000J0D01*
G01*
X66070400Y-32278000D01*
G75*
G02*
X66120400Y-32328000I0J-50000D01*
G01*
X66120400Y-32878000D01*
G75*
G02*
X66070400Y-32928000I-50000J0D01*
G01*
X65770400Y-32928000D01*
G75*
G02*
X65720400Y-32878000I0J50000D01*
G01*
G37*
G36*
G01*
X65220400Y-32878000D02*
X65220400Y-32328000D01*
G75*
G02*
X65270400Y-32278000I50000J0D01*
G01*
X65570400Y-32278000D01*
G75*
G02*
X65620400Y-32328000I0J-50000D01*
G01*
X65620400Y-32878000D01*
G75*
G02*
X65570400Y-32928000I-50000J0D01*
G01*
X65270400Y-32928000D01*
G75*
G02*
X65220400Y-32878000I0J50000D01*
G01*
G37*
G36*
G01*
X64720400Y-32878000D02*
X64720400Y-32328000D01*
G75*
G02*
X64770400Y-32278000I50000J0D01*
G01*
X65070400Y-32278000D01*
G75*
G02*
X65120400Y-32328000I0J-50000D01*
G01*
X65120400Y-32878000D01*
G75*
G02*
X65070400Y-32928000I-50000J0D01*
G01*
X64770400Y-32928000D01*
G75*
G02*
X64720400Y-32878000I0J50000D01*
G01*
G37*
D17*
G36*
X64580155Y-32278961D02*
G01*
X64589534Y-32281806D01*
X64598179Y-32286427D01*
X64605755Y-32292645D01*
X64611973Y-32300221D01*
X64616594Y-32308866D01*
X64619439Y-32318245D01*
X64620400Y-32328000D01*
X64620400Y-32878000D01*
X64619439Y-32887755D01*
X64616594Y-32897134D01*
X64611973Y-32905779D01*
X64605755Y-32913355D01*
X64598179Y-32919573D01*
X64589534Y-32924194D01*
X64580155Y-32927039D01*
X64570400Y-32928000D01*
X64420400Y-32928000D01*
X64410645Y-32927039D01*
X64401266Y-32924194D01*
X64392621Y-32919573D01*
X64385045Y-32913355D01*
X64235045Y-32763355D01*
X64228827Y-32755779D01*
X64224206Y-32747134D01*
X64221361Y-32737755D01*
X64220400Y-32728000D01*
X64220400Y-32328000D01*
X64221361Y-32318245D01*
X64224206Y-32308866D01*
X64228827Y-32300221D01*
X64235045Y-32292645D01*
X64242621Y-32286427D01*
X64251266Y-32281806D01*
X64260645Y-32278961D01*
X64270400Y-32278000D01*
X64570400Y-32278000D01*
X64580155Y-32278961D01*
G37*
G36*
X68119439Y-33137755D02*
G01*
X68116594Y-33147134D01*
X68111973Y-33155779D01*
X68105755Y-33163355D01*
X68098179Y-33169573D01*
X68089534Y-33174194D01*
X68080155Y-33177039D01*
X68070400Y-33178000D01*
X67520400Y-33178000D01*
X67510645Y-33177039D01*
X67501266Y-33174194D01*
X67492621Y-33169573D01*
X67485045Y-33163355D01*
X67478827Y-33155779D01*
X67474206Y-33147134D01*
X67471361Y-33137755D01*
X67470400Y-33128000D01*
X67470400Y-32978000D01*
X67471361Y-32968245D01*
X67474206Y-32958866D01*
X67478827Y-32950221D01*
X67485045Y-32942645D01*
X67635045Y-32792645D01*
X67642621Y-32786427D01*
X67651266Y-32781806D01*
X67660645Y-32778961D01*
X67670400Y-32778000D01*
X68070400Y-32778000D01*
X68080155Y-32778961D01*
X68089534Y-32781806D01*
X68098179Y-32786427D01*
X68105755Y-32792645D01*
X68111973Y-32800221D01*
X68116594Y-32808866D01*
X68119439Y-32818245D01*
X68120400Y-32828000D01*
X68120400Y-33128000D01*
X68119439Y-33137755D01*
G37*
G36*
X67260645Y-36677039D02*
G01*
X67251266Y-36674194D01*
X67242621Y-36669573D01*
X67235045Y-36663355D01*
X67228827Y-36655779D01*
X67224206Y-36647134D01*
X67221361Y-36637755D01*
X67220400Y-36628000D01*
X67220400Y-36078000D01*
X67221361Y-36068245D01*
X67224206Y-36058866D01*
X67228827Y-36050221D01*
X67235045Y-36042645D01*
X67242621Y-36036427D01*
X67251266Y-36031806D01*
X67260645Y-36028961D01*
X67270400Y-36028000D01*
X67420400Y-36028000D01*
X67430155Y-36028961D01*
X67439534Y-36031806D01*
X67448179Y-36036427D01*
X67455755Y-36042645D01*
X67605755Y-36192645D01*
X67611973Y-36200221D01*
X67616594Y-36208866D01*
X67619439Y-36218245D01*
X67620400Y-36228000D01*
X67620400Y-36628000D01*
X67619439Y-36637755D01*
X67616594Y-36647134D01*
X67611973Y-36655779D01*
X67605755Y-36663355D01*
X67598179Y-36669573D01*
X67589534Y-36674194D01*
X67580155Y-36677039D01*
X67570400Y-36678000D01*
X67270400Y-36678000D01*
X67260645Y-36677039D01*
G37*
G36*
X63721361Y-35818245D02*
G01*
X63724206Y-35808866D01*
X63728827Y-35800221D01*
X63735045Y-35792645D01*
X63742621Y-35786427D01*
X63751266Y-35781806D01*
X63760645Y-35778961D01*
X63770400Y-35778000D01*
X64320400Y-35778000D01*
X64330155Y-35778961D01*
X64339534Y-35781806D01*
X64348179Y-35786427D01*
X64355755Y-35792645D01*
X64361973Y-35800221D01*
X64366594Y-35808866D01*
X64369439Y-35818245D01*
X64370400Y-35828000D01*
X64370400Y-35978000D01*
X64369439Y-35987755D01*
X64366594Y-35997134D01*
X64361973Y-36005779D01*
X64355755Y-36013355D01*
X64205755Y-36163355D01*
X64198179Y-36169573D01*
X64189534Y-36174194D01*
X64180155Y-36177039D01*
X64170400Y-36178000D01*
X63770400Y-36178000D01*
X63760645Y-36177039D01*
X63751266Y-36174194D01*
X63742621Y-36169573D01*
X63735045Y-36163355D01*
X63728827Y-36155779D01*
X63724206Y-36147134D01*
X63721361Y-36137755D01*
X63720400Y-36128000D01*
X63720400Y-35828000D01*
X63721361Y-35818245D01*
G37*
G36*
X63721361Y-32818245D02*
G01*
X63724206Y-32808866D01*
X63728827Y-32800221D01*
X63735045Y-32792645D01*
X63742621Y-32786427D01*
X63751266Y-32781806D01*
X63760645Y-32778961D01*
X63770400Y-32778000D01*
X64170400Y-32778000D01*
X64180155Y-32778961D01*
X64189534Y-32781806D01*
X64198179Y-32786427D01*
X64205755Y-32792645D01*
X64355755Y-32942645D01*
X64361973Y-32950221D01*
X64366594Y-32958866D01*
X64369439Y-32968245D01*
X64370400Y-32978000D01*
X64370400Y-33128000D01*
X64369439Y-33137755D01*
X64366594Y-33147134D01*
X64361973Y-33155779D01*
X64355755Y-33163355D01*
X64348179Y-33169573D01*
X64339534Y-33174194D01*
X64330155Y-33177039D01*
X64320400Y-33178000D01*
X63770400Y-33178000D01*
X63760645Y-33177039D01*
X63751266Y-33174194D01*
X63742621Y-33169573D01*
X63735045Y-33163355D01*
X63728827Y-33155779D01*
X63724206Y-33147134D01*
X63721361Y-33137755D01*
X63720400Y-33128000D01*
X63720400Y-32828000D01*
X63721361Y-32818245D01*
G37*
G36*
X64260645Y-36677039D02*
G01*
X64251266Y-36674194D01*
X64242621Y-36669573D01*
X64235045Y-36663355D01*
X64228827Y-36655779D01*
X64224206Y-36647134D01*
X64221361Y-36637755D01*
X64220400Y-36628000D01*
X64220400Y-36228000D01*
X64221361Y-36218245D01*
X64224206Y-36208866D01*
X64228827Y-36200221D01*
X64235045Y-36192645D01*
X64385045Y-36042645D01*
X64392621Y-36036427D01*
X64401266Y-36031806D01*
X64410645Y-36028961D01*
X64420400Y-36028000D01*
X64570400Y-36028000D01*
X64580155Y-36028961D01*
X64589534Y-36031806D01*
X64598179Y-36036427D01*
X64605755Y-36042645D01*
X64611973Y-36050221D01*
X64616594Y-36058866D01*
X64619439Y-36068245D01*
X64620400Y-36078000D01*
X64620400Y-36628000D01*
X64619439Y-36637755D01*
X64616594Y-36647134D01*
X64611973Y-36655779D01*
X64605755Y-36663355D01*
X64598179Y-36669573D01*
X64589534Y-36674194D01*
X64580155Y-36677039D01*
X64570400Y-36678000D01*
X64270400Y-36678000D01*
X64260645Y-36677039D01*
G37*
G36*
X68119439Y-36137755D02*
G01*
X68116594Y-36147134D01*
X68111973Y-36155779D01*
X68105755Y-36163355D01*
X68098179Y-36169573D01*
X68089534Y-36174194D01*
X68080155Y-36177039D01*
X68070400Y-36178000D01*
X67670400Y-36178000D01*
X67660645Y-36177039D01*
X67651266Y-36174194D01*
X67642621Y-36169573D01*
X67635045Y-36163355D01*
X67485045Y-36013355D01*
X67478827Y-36005779D01*
X67474206Y-35997134D01*
X67471361Y-35987755D01*
X67470400Y-35978000D01*
X67470400Y-35828000D01*
X67471361Y-35818245D01*
X67474206Y-35808866D01*
X67478827Y-35800221D01*
X67485045Y-35792645D01*
X67492621Y-35786427D01*
X67501266Y-35781806D01*
X67510645Y-35778961D01*
X67520400Y-35778000D01*
X68070400Y-35778000D01*
X68080155Y-35778961D01*
X68089534Y-35781806D01*
X68098179Y-35786427D01*
X68105755Y-35792645D01*
X68111973Y-35800221D01*
X68116594Y-35808866D01*
X68119439Y-35818245D01*
X68120400Y-35828000D01*
X68120400Y-36128000D01*
X68119439Y-36137755D01*
G37*
G36*
X67580155Y-32278961D02*
G01*
X67589534Y-32281806D01*
X67598179Y-32286427D01*
X67605755Y-32292645D01*
X67611973Y-32300221D01*
X67616594Y-32308866D01*
X67619439Y-32318245D01*
X67620400Y-32328000D01*
X67620400Y-32728000D01*
X67619439Y-32737755D01*
X67616594Y-32747134D01*
X67611973Y-32755779D01*
X67605755Y-32763355D01*
X67455755Y-32913355D01*
X67448179Y-32919573D01*
X67439534Y-32924194D01*
X67430155Y-32927039D01*
X67420400Y-32928000D01*
X67270400Y-32928000D01*
X67260645Y-32927039D01*
X67251266Y-32924194D01*
X67242621Y-32919573D01*
X67235045Y-32913355D01*
X67228827Y-32905779D01*
X67224206Y-32897134D01*
X67221361Y-32887755D01*
X67220400Y-32878000D01*
X67220400Y-32328000D01*
X67221361Y-32318245D01*
X67224206Y-32308866D01*
X67228827Y-32300221D01*
X67235045Y-32292645D01*
X67242621Y-32286427D01*
X67251266Y-32281806D01*
X67260645Y-32278961D01*
X67270400Y-32278000D01*
X67570400Y-32278000D01*
X67580155Y-32278961D01*
G37*
G36*
G01*
X91300760Y-49194680D02*
X90750760Y-49194680D01*
G75*
G02*
X90500760Y-48944680I0J250000D01*
G01*
X90500760Y-48444680D01*
G75*
G02*
X90750760Y-48194680I250000J0D01*
G01*
X91300760Y-48194680D01*
G75*
G02*
X91550760Y-48444680I0J-250000D01*
G01*
X91550760Y-48944680D01*
G75*
G02*
X91300760Y-49194680I-250000J0D01*
G01*
G37*
G36*
G01*
X91300760Y-47644680D02*
X90750760Y-47644680D01*
G75*
G02*
X90500760Y-47394680I0J250000D01*
G01*
X90500760Y-46894680D01*
G75*
G02*
X90750760Y-46644680I250000J0D01*
G01*
X91300760Y-46644680D01*
G75*
G02*
X91550760Y-46894680I0J-250000D01*
G01*
X91550760Y-47394680D01*
G75*
G02*
X91300760Y-47644680I-250000J0D01*
G01*
G37*
G36*
G01*
X58410200Y-28130800D02*
X58800200Y-28130800D01*
G75*
G02*
X58965200Y-28295800I0J-165000D01*
G01*
X58965200Y-28625800D01*
G75*
G02*
X58800200Y-28790800I-165000J0D01*
G01*
X58410200Y-28790800D01*
G75*
G02*
X58245200Y-28625800I0J165000D01*
G01*
X58245200Y-28295800D01*
G75*
G02*
X58410200Y-28130800I165000J0D01*
G01*
G37*
G36*
G01*
X58410200Y-29090800D02*
X58800200Y-29090800D01*
G75*
G02*
X58965200Y-29255800I0J-165000D01*
G01*
X58965200Y-29585800D01*
G75*
G02*
X58800200Y-29750800I-165000J0D01*
G01*
X58410200Y-29750800D01*
G75*
G02*
X58245200Y-29585800I0J165000D01*
G01*
X58245200Y-29255800D01*
G75*
G02*
X58410200Y-29090800I165000J0D01*
G01*
G37*
G36*
G01*
X63642600Y-28181600D02*
X64032600Y-28181600D01*
G75*
G02*
X64197600Y-28346600I0J-165000D01*
G01*
X64197600Y-28676600D01*
G75*
G02*
X64032600Y-28841600I-165000J0D01*
G01*
X63642600Y-28841600D01*
G75*
G02*
X63477600Y-28676600I0J165000D01*
G01*
X63477600Y-28346600D01*
G75*
G02*
X63642600Y-28181600I165000J0D01*
G01*
G37*
G36*
G01*
X63642600Y-29141600D02*
X64032600Y-29141600D01*
G75*
G02*
X64197600Y-29306600I0J-165000D01*
G01*
X64197600Y-29636600D01*
G75*
G02*
X64032600Y-29801600I-165000J0D01*
G01*
X63642600Y-29801600D01*
G75*
G02*
X63477600Y-29636600I0J165000D01*
G01*
X63477600Y-29306600D01*
G75*
G02*
X63642600Y-29141600I165000J0D01*
G01*
G37*
G36*
G01*
X59680200Y-33668000D02*
X60070200Y-33668000D01*
G75*
G02*
X60235200Y-33833000I0J-165000D01*
G01*
X60235200Y-34163000D01*
G75*
G02*
X60070200Y-34328000I-165000J0D01*
G01*
X59680200Y-34328000D01*
G75*
G02*
X59515200Y-34163000I0J165000D01*
G01*
X59515200Y-33833000D01*
G75*
G02*
X59680200Y-33668000I165000J0D01*
G01*
G37*
G36*
G01*
X59680200Y-34628000D02*
X60070200Y-34628000D01*
G75*
G02*
X60235200Y-34793000I0J-165000D01*
G01*
X60235200Y-35123000D01*
G75*
G02*
X60070200Y-35288000I-165000J0D01*
G01*
X59680200Y-35288000D01*
G75*
G02*
X59515200Y-35123000I0J165000D01*
G01*
X59515200Y-34793000D01*
G75*
G02*
X59680200Y-34628000I165000J0D01*
G01*
G37*
G36*
G01*
X92404000Y-54892500D02*
X92404000Y-54092500D01*
G75*
G02*
X92454000Y-54042500I50000J0D01*
G01*
X94454000Y-54042500D01*
G75*
G02*
X94504000Y-54092500I0J-50000D01*
G01*
X94504000Y-54892500D01*
G75*
G02*
X94454000Y-54942500I-50000J0D01*
G01*
X92454000Y-54942500D01*
G75*
G02*
X92404000Y-54892500I0J50000D01*
G01*
G37*
G36*
G01*
X92404000Y-56392500D02*
X92404000Y-55592500D01*
G75*
G02*
X92454000Y-55542500I50000J0D01*
G01*
X94454000Y-55542500D01*
G75*
G02*
X94504000Y-55592500I0J-50000D01*
G01*
X94504000Y-56392500D01*
G75*
G02*
X94454000Y-56442500I-50000J0D01*
G01*
X92454000Y-56442500D01*
G75*
G02*
X92404000Y-56392500I0J50000D01*
G01*
G37*
M02*
