G04 #@! TF.GenerationSoftware,KiCad,Pcbnew,(5.1.10)-1*
G04 #@! TF.CreationDate,2021-05-29T19:25:13+08:00*
G04 #@! TF.ProjectId,tiny2_V1.0,74696e79-325f-4563-912e-302e6b696361,rev?*
G04 #@! TF.SameCoordinates,Original*
G04 #@! TF.FileFunction,Copper,L1,Top*
G04 #@! TF.FilePolarity,Positive*
%FSLAX46Y46*%
G04 Gerber Fmt 4.6, Leading zero omitted, Abs format (unit mm)*
G04 Created by KiCad (PCBNEW (5.1.10)-1) date 2021-05-29 19:25:13*
%MOMM*%
%LPD*%
G01*
G04 APERTURE LIST*
G04 #@! TA.AperFunction,ComponentPad*
%ADD10C,3.000000*%
G04 #@! TD*
G04 #@! TA.AperFunction,ComponentPad*
%ADD11C,0.100000*%
G04 #@! TD*
G04 #@! TA.AperFunction,ComponentPad*
%ADD12O,1.700000X2.000000*%
G04 #@! TD*
G04 #@! TA.AperFunction,SMDPad,CuDef*
%ADD13R,2.500000X1.500000*%
G04 #@! TD*
G04 #@! TA.AperFunction,ViaPad*
%ADD14C,0.800000*%
G04 #@! TD*
G04 #@! TA.AperFunction,Conductor*
%ADD15C,2.032000*%
G04 #@! TD*
G04 #@! TA.AperFunction,Conductor*
%ADD16C,0.254000*%
G04 #@! TD*
G04 #@! TA.AperFunction,Conductor*
%ADD17C,0.100000*%
G04 #@! TD*
G04 APERTURE END LIST*
G04 #@! TA.AperFunction,ComponentPad*
G36*
G01*
X12407816Y-8072282D02*
X12667624Y-8222282D01*
G75*
G02*
X12978746Y-9383404I-425000J-736122D01*
G01*
X12978746Y-9383404D01*
G75*
G02*
X11817624Y-9694526I-736122J425000D01*
G01*
X11557816Y-9544526D01*
G75*
G02*
X11246694Y-8383404I425000J736122D01*
G01*
X11246694Y-8383404D01*
G75*
G02*
X12407816Y-8072282I736122J-425000D01*
G01*
G37*
G04 #@! TD.AperFunction*
G04 #@! TA.AperFunction,ComponentPad*
G36*
G01*
X13138201Y-5607219D02*
X14437239Y-6357219D01*
G75*
G02*
X14528745Y-6698725I-125000J-216506D01*
G01*
X13928745Y-7737955D01*
G75*
G02*
X13587239Y-7829461I-216506J125000D01*
G01*
X12288201Y-7079461D01*
G75*
G02*
X12196695Y-6737955I125000J216506D01*
G01*
X12796695Y-5698725D01*
G75*
G02*
X13138201Y-5607219I216506J-125000D01*
G01*
G37*
G04 #@! TD.AperFunction*
G04 #@! TA.AperFunction,SMDPad,CuDef*
G36*
G01*
X13069380Y187500D02*
X13069380Y-182500D01*
G75*
G02*
X12934380Y-317500I-135000J0D01*
G01*
X12664380Y-317500D01*
G75*
G02*
X12529380Y-182500I0J135000D01*
G01*
X12529380Y187500D01*
G75*
G02*
X12664380Y322500I135000J0D01*
G01*
X12934380Y322500D01*
G75*
G02*
X13069380Y187500I0J-135000D01*
G01*
G37*
G04 #@! TD.AperFunction*
G04 #@! TA.AperFunction,SMDPad,CuDef*
G36*
G01*
X14089380Y187500D02*
X14089380Y-182500D01*
G75*
G02*
X13954380Y-317500I-135000J0D01*
G01*
X13684380Y-317500D01*
G75*
G02*
X13549380Y-182500I0J135000D01*
G01*
X13549380Y187500D01*
G75*
G02*
X13684380Y322500I135000J0D01*
G01*
X13954380Y322500D01*
G75*
G02*
X14089380Y187500I0J-135000D01*
G01*
G37*
G04 #@! TD.AperFunction*
G04 #@! TA.AperFunction,SMDPad,CuDef*
G36*
G01*
X-5520940Y12784200D02*
X-5520940Y13154200D01*
G75*
G02*
X-5385940Y13289200I135000J0D01*
G01*
X-5115940Y13289200D01*
G75*
G02*
X-4980940Y13154200I0J-135000D01*
G01*
X-4980940Y12784200D01*
G75*
G02*
X-5115940Y12649200I-135000J0D01*
G01*
X-5385940Y12649200D01*
G75*
G02*
X-5520940Y12784200I0J135000D01*
G01*
G37*
G04 #@! TD.AperFunction*
G04 #@! TA.AperFunction,SMDPad,CuDef*
G36*
G01*
X-6540940Y12784200D02*
X-6540940Y13154200D01*
G75*
G02*
X-6405940Y13289200I135000J0D01*
G01*
X-6135940Y13289200D01*
G75*
G02*
X-6000940Y13154200I0J-135000D01*
G01*
X-6000940Y12784200D01*
G75*
G02*
X-6135940Y12649200I-135000J0D01*
G01*
X-6405940Y12649200D01*
G75*
G02*
X-6540940Y12784200I0J135000D01*
G01*
G37*
G04 #@! TD.AperFunction*
G04 #@! TA.AperFunction,SMDPad,CuDef*
G36*
G01*
X-5470140Y-13197460D02*
X-5470140Y-12827460D01*
G75*
G02*
X-5335140Y-12692460I135000J0D01*
G01*
X-5065140Y-12692460D01*
G75*
G02*
X-4930140Y-12827460I0J-135000D01*
G01*
X-4930140Y-13197460D01*
G75*
G02*
X-5065140Y-13332460I-135000J0D01*
G01*
X-5335140Y-13332460D01*
G75*
G02*
X-5470140Y-13197460I0J135000D01*
G01*
G37*
G04 #@! TD.AperFunction*
G04 #@! TA.AperFunction,SMDPad,CuDef*
G36*
G01*
X-6490140Y-13197460D02*
X-6490140Y-12827460D01*
G75*
G02*
X-6355140Y-12692460I135000J0D01*
G01*
X-6085140Y-12692460D01*
G75*
G02*
X-5950140Y-12827460I0J-135000D01*
G01*
X-5950140Y-13197460D01*
G75*
G02*
X-6085140Y-13332460I-135000J0D01*
G01*
X-6355140Y-13332460D01*
G75*
G02*
X-6490140Y-13197460I0J135000D01*
G01*
G37*
G04 #@! TD.AperFunction*
G04 #@! TA.AperFunction,SMDPad,CuDef*
G36*
G01*
X-13052040Y-169800D02*
X-13052040Y200200D01*
G75*
G02*
X-12917040Y335200I135000J0D01*
G01*
X-12647040Y335200D01*
G75*
G02*
X-12512040Y200200I0J-135000D01*
G01*
X-12512040Y-169800D01*
G75*
G02*
X-12647040Y-304800I-135000J0D01*
G01*
X-12917040Y-304800D01*
G75*
G02*
X-13052040Y-169800I0J135000D01*
G01*
G37*
G04 #@! TD.AperFunction*
G04 #@! TA.AperFunction,SMDPad,CuDef*
G36*
G01*
X-14072040Y-169800D02*
X-14072040Y200200D01*
G75*
G02*
X-13937040Y335200I135000J0D01*
G01*
X-13667040Y335200D01*
G75*
G02*
X-13532040Y200200I0J-135000D01*
G01*
X-13532040Y-169800D01*
G75*
G02*
X-13667040Y-304800I-135000J0D01*
G01*
X-13937040Y-304800D01*
G75*
G02*
X-14072040Y-169800I0J135000D01*
G01*
G37*
G04 #@! TD.AperFunction*
G04 #@! TA.AperFunction,SMDPad,CuDef*
G36*
G01*
X5591620Y-12776660D02*
X5591620Y-13146660D01*
G75*
G02*
X5456620Y-13281660I-135000J0D01*
G01*
X5186620Y-13281660D01*
G75*
G02*
X5051620Y-13146660I0J135000D01*
G01*
X5051620Y-12776660D01*
G75*
G02*
X5186620Y-12641660I135000J0D01*
G01*
X5456620Y-12641660D01*
G75*
G02*
X5591620Y-12776660I0J-135000D01*
G01*
G37*
G04 #@! TD.AperFunction*
G04 #@! TA.AperFunction,SMDPad,CuDef*
G36*
G01*
X6611620Y-12776660D02*
X6611620Y-13146660D01*
G75*
G02*
X6476620Y-13281660I-135000J0D01*
G01*
X6206620Y-13281660D01*
G75*
G02*
X6071620Y-13146660I0J135000D01*
G01*
X6071620Y-12776660D01*
G75*
G02*
X6206620Y-12641660I135000J0D01*
G01*
X6476620Y-12641660D01*
G75*
G02*
X6611620Y-12776660I0J-135000D01*
G01*
G37*
G04 #@! TD.AperFunction*
G04 #@! TA.AperFunction,SMDPad,CuDef*
G36*
G01*
X5528120Y13207540D02*
X5528120Y12837540D01*
G75*
G02*
X5393120Y12702540I-135000J0D01*
G01*
X5123120Y12702540D01*
G75*
G02*
X4988120Y12837540I0J135000D01*
G01*
X4988120Y13207540D01*
G75*
G02*
X5123120Y13342540I135000J0D01*
G01*
X5393120Y13342540D01*
G75*
G02*
X5528120Y13207540I0J-135000D01*
G01*
G37*
G04 #@! TD.AperFunction*
G04 #@! TA.AperFunction,SMDPad,CuDef*
G36*
G01*
X6548120Y13207540D02*
X6548120Y12837540D01*
G75*
G02*
X6413120Y12702540I-135000J0D01*
G01*
X6143120Y12702540D01*
G75*
G02*
X6008120Y12837540I0J135000D01*
G01*
X6008120Y13207540D01*
G75*
G02*
X6143120Y13342540I135000J0D01*
G01*
X6413120Y13342540D01*
G75*
G02*
X6548120Y13207540I0J-135000D01*
G01*
G37*
G04 #@! TD.AperFunction*
D10*
X-10788160Y8663659D03*
G04 #@! TA.AperFunction,ComponentPad*
D11*
G36*
X-12179122Y3254442D02*
G01*
X-14777198Y4754442D01*
X-13277198Y7352518D01*
X-10679122Y5852518D01*
X-12179122Y3254442D01*
G37*
G04 #@! TD.AperFunction*
D12*
X-1004160Y-15016520D03*
G04 #@! TA.AperFunction,ComponentPad*
G36*
G01*
X2345840Y-14266520D02*
X2345840Y-15766520D01*
G75*
G02*
X2095840Y-16016520I-250000J0D01*
G01*
X895840Y-16016520D01*
G75*
G02*
X645840Y-15766520I0J250000D01*
G01*
X645840Y-14266520D01*
G75*
G02*
X895840Y-14016520I250000J0D01*
G01*
X2095840Y-14016520D01*
G75*
G02*
X2345840Y-14266520I0J-250000D01*
G01*
G37*
G04 #@! TD.AperFunction*
D13*
X4765000Y-8000000D03*
X4765000Y-4000000D03*
X4775200Y8000000D03*
X4765000Y4000000D03*
X4765000Y0D03*
X-4765000Y-10000000D03*
X-4765000Y-6000000D03*
X-4765000Y-2000000D03*
X-4765000Y10000000D03*
X-4765000Y6000000D03*
X-4765000Y2000000D03*
G04 #@! TA.AperFunction,SMDPad,CuDef*
G36*
G01*
X14916100Y105040D02*
X14916100Y-94960D01*
G75*
G02*
X14816100Y-194960I-100000J0D01*
G01*
X14556100Y-194960D01*
G75*
G02*
X14456100Y-94960I0J100000D01*
G01*
X14456100Y105040D01*
G75*
G02*
X14556100Y205040I100000J0D01*
G01*
X14816100Y205040D01*
G75*
G02*
X14916100Y105040I0J-100000D01*
G01*
G37*
G04 #@! TD.AperFunction*
G04 #@! TA.AperFunction,SMDPad,CuDef*
G36*
G01*
X15556100Y105040D02*
X15556100Y-94960D01*
G75*
G02*
X15456100Y-194960I-100000J0D01*
G01*
X15196100Y-194960D01*
G75*
G02*
X15096100Y-94960I0J100000D01*
G01*
X15096100Y105040D01*
G75*
G02*
X15196100Y205040I100000J0D01*
G01*
X15456100Y205040D01*
G75*
G02*
X15556100Y105040I0J-100000D01*
G01*
G37*
G04 #@! TD.AperFunction*
G04 #@! TA.AperFunction,SMDPad,CuDef*
G36*
G01*
X-7443860Y12859040D02*
X-7443860Y13059040D01*
G75*
G02*
X-7343860Y13159040I100000J0D01*
G01*
X-7083860Y13159040D01*
G75*
G02*
X-6983860Y13059040I0J-100000D01*
G01*
X-6983860Y12859040D01*
G75*
G02*
X-7083860Y12759040I-100000J0D01*
G01*
X-7343860Y12759040D01*
G75*
G02*
X-7443860Y12859040I0J100000D01*
G01*
G37*
G04 #@! TD.AperFunction*
G04 #@! TA.AperFunction,SMDPad,CuDef*
G36*
G01*
X-8083860Y12859040D02*
X-8083860Y13059040D01*
G75*
G02*
X-7983860Y13159040I100000J0D01*
G01*
X-7723860Y13159040D01*
G75*
G02*
X-7623860Y13059040I0J-100000D01*
G01*
X-7623860Y12859040D01*
G75*
G02*
X-7723860Y12759040I-100000J0D01*
G01*
X-7983860Y12759040D01*
G75*
G02*
X-8083860Y12859040I0J100000D01*
G01*
G37*
G04 #@! TD.AperFunction*
G04 #@! TA.AperFunction,SMDPad,CuDef*
G36*
G01*
X-7349880Y-13115000D02*
X-7349880Y-12915000D01*
G75*
G02*
X-7249880Y-12815000I100000J0D01*
G01*
X-6989880Y-12815000D01*
G75*
G02*
X-6889880Y-12915000I0J-100000D01*
G01*
X-6889880Y-13115000D01*
G75*
G02*
X-6989880Y-13215000I-100000J0D01*
G01*
X-7249880Y-13215000D01*
G75*
G02*
X-7349880Y-13115000I0J100000D01*
G01*
G37*
G04 #@! TD.AperFunction*
G04 #@! TA.AperFunction,SMDPad,CuDef*
G36*
G01*
X-7989880Y-13115000D02*
X-7989880Y-12915000D01*
G75*
G02*
X-7889880Y-12815000I100000J0D01*
G01*
X-7629880Y-12815000D01*
G75*
G02*
X-7529880Y-12915000I0J-100000D01*
G01*
X-7529880Y-13115000D01*
G75*
G02*
X-7629880Y-13215000I-100000J0D01*
G01*
X-7889880Y-13215000D01*
G75*
G02*
X-7989880Y-13115000I0J100000D01*
G01*
G37*
G04 #@! TD.AperFunction*
G04 #@! TA.AperFunction,SMDPad,CuDef*
G36*
G01*
X-14919080Y-94960D02*
X-14919080Y105040D01*
G75*
G02*
X-14819080Y205040I100000J0D01*
G01*
X-14559080Y205040D01*
G75*
G02*
X-14459080Y105040I0J-100000D01*
G01*
X-14459080Y-94960D01*
G75*
G02*
X-14559080Y-194960I-100000J0D01*
G01*
X-14819080Y-194960D01*
G75*
G02*
X-14919080Y-94960I0J100000D01*
G01*
G37*
G04 #@! TD.AperFunction*
G04 #@! TA.AperFunction,SMDPad,CuDef*
G36*
G01*
X-15559080Y-94960D02*
X-15559080Y105040D01*
G75*
G02*
X-15459080Y205040I100000J0D01*
G01*
X-15199080Y205040D01*
G75*
G02*
X-15099080Y105040I0J-100000D01*
G01*
X-15099080Y-94960D01*
G75*
G02*
X-15199080Y-194960I-100000J0D01*
G01*
X-15459080Y-194960D01*
G75*
G02*
X-15559080Y-94960I0J100000D01*
G01*
G37*
G04 #@! TD.AperFunction*
G04 #@! TA.AperFunction,SMDPad,CuDef*
G36*
G01*
X7461200Y-12866740D02*
X7461200Y-13066740D01*
G75*
G02*
X7361200Y-13166740I-100000J0D01*
G01*
X7101200Y-13166740D01*
G75*
G02*
X7001200Y-13066740I0J100000D01*
G01*
X7001200Y-12866740D01*
G75*
G02*
X7101200Y-12766740I100000J0D01*
G01*
X7361200Y-12766740D01*
G75*
G02*
X7461200Y-12866740I0J-100000D01*
G01*
G37*
G04 #@! TD.AperFunction*
G04 #@! TA.AperFunction,SMDPad,CuDef*
G36*
G01*
X8101200Y-12866740D02*
X8101200Y-13066740D01*
G75*
G02*
X8001200Y-13166740I-100000J0D01*
G01*
X7741200Y-13166740D01*
G75*
G02*
X7641200Y-13066740I0J100000D01*
G01*
X7641200Y-12866740D01*
G75*
G02*
X7741200Y-12766740I100000J0D01*
G01*
X8001200Y-12766740D01*
G75*
G02*
X8101200Y-12866740I0J-100000D01*
G01*
G37*
G04 #@! TD.AperFunction*
G04 #@! TA.AperFunction,SMDPad,CuDef*
G36*
G01*
X7412940Y13089520D02*
X7412940Y12889520D01*
G75*
G02*
X7312940Y12789520I-100000J0D01*
G01*
X7052940Y12789520D01*
G75*
G02*
X6952940Y12889520I0J100000D01*
G01*
X6952940Y13089520D01*
G75*
G02*
X7052940Y13189520I100000J0D01*
G01*
X7312940Y13189520D01*
G75*
G02*
X7412940Y13089520I0J-100000D01*
G01*
G37*
G04 #@! TD.AperFunction*
G04 #@! TA.AperFunction,SMDPad,CuDef*
G36*
G01*
X8052940Y13089520D02*
X8052940Y12889520D01*
G75*
G02*
X7952940Y12789520I-100000J0D01*
G01*
X7692940Y12789520D01*
G75*
G02*
X7592940Y12889520I0J100000D01*
G01*
X7592940Y13089520D01*
G75*
G02*
X7692940Y13189520I100000J0D01*
G01*
X7952940Y13189520D01*
G75*
G02*
X8052940Y13089520I0J-100000D01*
G01*
G37*
G04 #@! TD.AperFunction*
D14*
X-9426160Y-1808520D03*
X-8664160Y-4602520D03*
X-28160Y1747480D03*
X-28160Y-2316520D03*
X9115840Y5811480D03*
X9115840Y2001480D03*
X9115840Y-2316520D03*
X9115840Y-6126520D03*
D15*
X-9424680Y2000000D02*
X-12728160Y5303480D01*
X-4765000Y2000000D02*
X-9424680Y2000000D01*
X-4765000Y-2000000D02*
X-4765000Y2000000D01*
X-6101341Y8663659D02*
X-4765000Y10000000D01*
X-10788160Y8663659D02*
X-6101341Y8663659D01*
X-4765000Y7327318D02*
X-6101341Y8663659D01*
X-4765000Y6000000D02*
X-4765000Y7327318D01*
D16*
X7149920Y13022540D02*
X7182940Y12989520D01*
X6278120Y13022540D02*
X7149920Y13022540D01*
X14232956Y-8883404D02*
X12112720Y-8883404D01*
X15326100Y-7790260D02*
X14232956Y-8883404D01*
X15326100Y5040D02*
X15326100Y-7790260D01*
X-7853860Y13159040D02*
X-7853860Y12959040D01*
X-7390950Y13621950D02*
X-7853860Y13159040D01*
X7390510Y13621950D02*
X-7390950Y13621950D01*
X7822940Y13189520D02*
X7390510Y13621950D01*
X7822940Y12989520D02*
X7822940Y13189520D01*
X-15329080Y2062400D02*
X-15329080Y5040D01*
X-16792160Y3525480D02*
X-15329080Y2062400D01*
X-16792160Y7335480D02*
X-16792160Y3525480D01*
X-11168600Y12959040D02*
X-16792160Y7335480D01*
X-7853860Y12959040D02*
X-11168600Y12959040D01*
X-7759880Y-11094800D02*
X-7759880Y-13015000D01*
X-13236160Y-5618520D02*
X-7759880Y-11094800D01*
X-13236160Y-2316520D02*
X-13236160Y-5618520D01*
X-15198490Y-125550D02*
X-15198490Y-354190D01*
X-15198490Y-354190D02*
X-13236160Y-2316520D01*
X-15329080Y5040D02*
X-15198490Y-125550D01*
X7871200Y-11435160D02*
X7871200Y-12966740D01*
X10422956Y-8883404D02*
X7871200Y-11435160D01*
X12112720Y-8883404D02*
X10422956Y-8883404D01*
X7822940Y11168380D02*
X15326100Y3665220D01*
X15326100Y3665220D02*
X15326100Y5040D01*
X7822940Y12989520D02*
X7822940Y11168380D01*
X-3164360Y-17810520D02*
X-7759880Y-13215000D01*
X3227420Y-17810520D02*
X-3164360Y-17810520D01*
X7871200Y-13166740D02*
X3227420Y-17810520D01*
X7871200Y-12966740D02*
X7871200Y-13166740D01*
X-7759880Y-13215000D02*
X-7759880Y-13015000D01*
X-3838160Y-10926840D02*
X-4765000Y-10000000D01*
X-3838160Y-15016520D02*
X-3838160Y-10926840D01*
X-2060160Y-16794520D02*
X-3838160Y-15016520D01*
X733840Y-16794520D02*
X-2060160Y-16794520D01*
X1495840Y-16032520D02*
X733840Y-16794520D01*
X1495840Y-15016520D02*
X1495840Y-16032520D01*
X-1004160Y-9760840D02*
X-4765000Y-6000000D01*
X-1004160Y-15016520D02*
X-1004160Y-9760840D01*
X7226120Y-12961660D02*
X7231200Y-12966740D01*
X6341620Y-12961660D02*
X7226120Y-12961660D01*
X-14678920Y15200D02*
X-14689080Y5040D01*
X-13802040Y15200D02*
X-14678920Y15200D01*
X-6222680Y-13015000D02*
X-6220140Y-13012460D01*
X-7119880Y-13015000D02*
X-6222680Y-13015000D01*
X-7203700Y12969200D02*
X-7213860Y12959040D01*
X-6270940Y12969200D02*
X-7203700Y12969200D01*
X13821920Y5040D02*
X13819380Y2500D01*
X14686100Y5040D02*
X13821920Y5040D01*
X11564940Y-6718340D02*
X5321620Y-12961660D01*
X13362720Y-6718340D02*
X11564940Y-6718340D01*
X-5197600Y13022540D02*
X-5250940Y12969200D01*
X5258120Y13022540D02*
X-5197600Y13022540D01*
X-12782040Y343313D02*
X-12782040Y15200D01*
X-16284160Y3845433D02*
X-12782040Y343313D01*
X-16284160Y6827480D02*
X-16284160Y3845433D01*
X-11185901Y11925739D02*
X-16284160Y6827480D01*
X-6294401Y11925739D02*
X-11185901Y11925739D01*
X-5250940Y12969200D02*
X-6294401Y11925739D01*
X-12782040Y-5310640D02*
X-5200140Y-12892540D01*
X-5200140Y-12892540D02*
X-5200140Y-13012460D01*
X-12782040Y15200D02*
X-12782040Y-5310640D01*
X14703840Y3576820D02*
X5258120Y13022540D01*
X14703840Y1906960D02*
X14703840Y3576820D01*
X12799380Y2500D02*
X14703840Y1906960D01*
X14195840Y-5885220D02*
X13362720Y-6718340D01*
X14195840Y-1393960D02*
X14195840Y-5885220D01*
X12799380Y2500D02*
X14195840Y-1393960D01*
X-2466571Y-17404109D02*
X-5200140Y-14670540D01*
X5321620Y-12961660D02*
X5321620Y-15000740D01*
X-5200140Y-14670540D02*
X-5200140Y-13012460D01*
X5321620Y-15000740D02*
X2918251Y-17404109D01*
X2918251Y-17404109D02*
X-2466571Y-17404109D01*
X4756950Y12471370D02*
X4835422Y12406969D01*
X4924950Y12359115D01*
X5022094Y12329647D01*
X5123120Y12319697D01*
X5242543Y12319697D01*
X14195841Y3366398D01*
X14195840Y2117381D01*
X12783803Y705343D01*
X12664380Y705343D01*
X12563354Y695393D01*
X12466210Y665925D01*
X12376682Y618071D01*
X12298210Y553670D01*
X12233809Y475198D01*
X12185955Y385670D01*
X12156487Y288526D01*
X12146537Y187500D01*
X12146537Y-182500D01*
X12156487Y-283526D01*
X12185955Y-380670D01*
X12233809Y-470198D01*
X12298210Y-548670D01*
X12376682Y-613071D01*
X12466210Y-660925D01*
X12563354Y-690393D01*
X12664380Y-700343D01*
X12783803Y-700343D01*
X13687840Y-1604380D01*
X13687841Y-5482484D01*
X13329623Y-5275667D01*
X13216622Y-5224467D01*
X13095804Y-5196296D01*
X12971811Y-5192237D01*
X12849409Y-5212446D01*
X12733302Y-5256145D01*
X12627951Y-5321657D01*
X12537405Y-5406463D01*
X12465143Y-5507303D01*
X12059244Y-6210340D01*
X11589884Y-6210340D01*
X11564940Y-6207883D01*
X11539996Y-6210340D01*
X11539993Y-6210340D01*
X11465355Y-6217691D01*
X11369597Y-6246739D01*
X11281345Y-6293911D01*
X11203992Y-6357392D01*
X11188085Y-6376775D01*
X5306043Y-12258817D01*
X5186620Y-12258817D01*
X5085594Y-12268767D01*
X4988450Y-12298235D01*
X4898922Y-12346089D01*
X4820450Y-12410490D01*
X4756049Y-12488962D01*
X4708195Y-12578490D01*
X4678727Y-12675634D01*
X4668777Y-12776660D01*
X4668777Y-13146660D01*
X4678727Y-13247686D01*
X4708195Y-13344830D01*
X4756049Y-13434358D01*
X4813620Y-13504508D01*
X4813621Y-14790318D01*
X2707831Y-16896109D01*
X1350671Y-16896109D01*
X1837405Y-16409375D01*
X1849605Y-16399363D01*
X2095840Y-16399363D01*
X2219302Y-16387203D01*
X2338019Y-16351191D01*
X2447429Y-16292710D01*
X2543328Y-16214008D01*
X2622030Y-16118109D01*
X2680511Y-16008699D01*
X2716523Y-15889982D01*
X2728683Y-15766520D01*
X2728683Y-14266520D01*
X2716523Y-14143058D01*
X2680511Y-14024341D01*
X2622030Y-13914931D01*
X2543328Y-13819032D01*
X2447429Y-13740330D01*
X2338019Y-13681849D01*
X2219302Y-13645837D01*
X2095840Y-13633677D01*
X895840Y-13633677D01*
X772378Y-13645837D01*
X653661Y-13681849D01*
X544251Y-13740330D01*
X448352Y-13819032D01*
X369650Y-13914931D01*
X311169Y-14024341D01*
X275157Y-14143058D01*
X262997Y-14266520D01*
X262997Y-15766520D01*
X275157Y-15889982D01*
X311169Y-16008699D01*
X369650Y-16118109D01*
X448352Y-16214008D01*
X529410Y-16280530D01*
X523420Y-16286520D01*
X-488146Y-16286520D01*
X-316945Y-16195011D01*
X-129500Y-16041180D01*
X24331Y-15853736D01*
X138638Y-15639883D01*
X209028Y-15407838D01*
X226840Y-15226992D01*
X226840Y-14806049D01*
X209028Y-14625203D01*
X138638Y-14393158D01*
X24331Y-14179305D01*
X-129500Y-13991860D01*
X-316944Y-13838029D01*
X-496160Y-13742236D01*
X-496160Y-10445008D01*
X1344000Y-10445008D01*
X1344000Y-10654992D01*
X1384966Y-10860941D01*
X1465323Y-11054940D01*
X1581984Y-11229535D01*
X1730465Y-11378016D01*
X1905060Y-11494677D01*
X2099059Y-11575034D01*
X2305008Y-11616000D01*
X2514992Y-11616000D01*
X2720941Y-11575034D01*
X2914940Y-11494677D01*
X3089535Y-11378016D01*
X3238016Y-11229535D01*
X3354677Y-11054940D01*
X3435034Y-10860941D01*
X3476000Y-10654992D01*
X3476000Y-10445008D01*
X3435034Y-10239059D01*
X3354677Y-10045060D01*
X3238016Y-9870465D01*
X3089535Y-9721984D01*
X2914940Y-9605323D01*
X2720941Y-9524966D01*
X2514992Y-9484000D01*
X2305008Y-9484000D01*
X2099059Y-9524966D01*
X1905060Y-9605323D01*
X1730465Y-9721984D01*
X1581984Y-9870465D01*
X1465323Y-10045060D01*
X1384966Y-10239059D01*
X1344000Y-10445008D01*
X-496160Y-10445008D01*
X-496160Y-9785784D01*
X-493703Y-9760840D01*
X-497530Y-9721984D01*
X-503511Y-9661255D01*
X-532559Y-9565497D01*
X-567914Y-9499352D01*
X-579731Y-9477244D01*
X-627310Y-9419269D01*
X-643212Y-9399892D01*
X-662589Y-9383990D01*
X-2796579Y-7250000D01*
X3132157Y-7250000D01*
X3132157Y-8750000D01*
X3139513Y-8824689D01*
X3161299Y-8896508D01*
X3196678Y-8962696D01*
X3244289Y-9020711D01*
X3302304Y-9068322D01*
X3368492Y-9103701D01*
X3440311Y-9125487D01*
X3515000Y-9132843D01*
X6015000Y-9132843D01*
X6089689Y-9125487D01*
X6161508Y-9103701D01*
X6227696Y-9068322D01*
X6285711Y-9020711D01*
X6333322Y-8962696D01*
X6368701Y-8896508D01*
X6390487Y-8824689D01*
X6397843Y-8750000D01*
X6397843Y-7250000D01*
X6390487Y-7175311D01*
X6368701Y-7103492D01*
X6333322Y-7037304D01*
X6285711Y-6979289D01*
X6227696Y-6931678D01*
X6161508Y-6896299D01*
X6089689Y-6874513D01*
X6015000Y-6867157D01*
X3515000Y-6867157D01*
X3440311Y-6874513D01*
X3368492Y-6896299D01*
X3302304Y-6931678D01*
X3244289Y-6979289D01*
X3196678Y-7037304D01*
X3161299Y-7103492D01*
X3139513Y-7175311D01*
X3132157Y-7250000D01*
X-2796579Y-7250000D01*
X-3158686Y-6887894D01*
X-3139513Y-6824689D01*
X-3132157Y-6750000D01*
X-3132157Y-5250000D01*
X-3139513Y-5175311D01*
X-3161299Y-5103492D01*
X-3196678Y-5037304D01*
X-3244289Y-4979289D01*
X-3302304Y-4931678D01*
X-3368492Y-4896299D01*
X-3440311Y-4874513D01*
X-3515000Y-4867157D01*
X-6015000Y-4867157D01*
X-6089689Y-4874513D01*
X-6161508Y-4896299D01*
X-6227696Y-4931678D01*
X-6285711Y-4979289D01*
X-6333322Y-5037304D01*
X-6368701Y-5103492D01*
X-6390487Y-5175311D01*
X-6397843Y-5250000D01*
X-6397843Y-6750000D01*
X-6390487Y-6824689D01*
X-6368701Y-6896508D01*
X-6333322Y-6962696D01*
X-6285711Y-7020711D01*
X-6227696Y-7068322D01*
X-6161508Y-7103701D01*
X-6089689Y-7125487D01*
X-6015000Y-7132843D01*
X-4350577Y-7132843D01*
X-1512159Y-9971262D01*
X-1512160Y-13742236D01*
X-1691375Y-13838029D01*
X-1878819Y-13991860D01*
X-2032650Y-14179304D01*
X-2146958Y-14393157D01*
X-2217348Y-14625202D01*
X-2235160Y-14806048D01*
X-2235160Y-15226991D01*
X-2217348Y-15407837D01*
X-2146958Y-15639882D01*
X-2032651Y-15853735D01*
X-1878820Y-16041180D01*
X-1691376Y-16195011D01*
X-1520175Y-16286520D01*
X-1849740Y-16286520D01*
X-3330160Y-14806100D01*
X-3330160Y-11083212D01*
X-3302304Y-11068322D01*
X-3244289Y-11020711D01*
X-3196678Y-10962696D01*
X-3161299Y-10896508D01*
X-3139513Y-10824689D01*
X-3132157Y-10750000D01*
X-3132157Y-9250000D01*
X-3139513Y-9175311D01*
X-3161299Y-9103492D01*
X-3196678Y-9037304D01*
X-3244289Y-8979289D01*
X-3302304Y-8931678D01*
X-3368492Y-8896299D01*
X-3440311Y-8874513D01*
X-3515000Y-8867157D01*
X-6015000Y-8867157D01*
X-6089689Y-8874513D01*
X-6161508Y-8896299D01*
X-6227696Y-8931678D01*
X-6285711Y-8979289D01*
X-6333322Y-9037304D01*
X-6368701Y-9103492D01*
X-6390487Y-9175311D01*
X-6397843Y-9250000D01*
X-6397843Y-10750000D01*
X-6390487Y-10824689D01*
X-6368701Y-10896508D01*
X-6333322Y-10962696D01*
X-6285711Y-11020711D01*
X-6227696Y-11068322D01*
X-6161508Y-11103701D01*
X-6089689Y-11125487D01*
X-6015000Y-11132843D01*
X-4350577Y-11132843D01*
X-4346159Y-11137261D01*
X-4346160Y-14806100D01*
X-4692140Y-14460120D01*
X-4692140Y-13555308D01*
X-4634569Y-13485158D01*
X-4586715Y-13395630D01*
X-4557247Y-13298486D01*
X-4547297Y-13197460D01*
X-4547297Y-12827460D01*
X-4557247Y-12726434D01*
X-4586715Y-12629290D01*
X-4634569Y-12539762D01*
X-4698970Y-12461290D01*
X-4777442Y-12396889D01*
X-4866970Y-12349035D01*
X-4964114Y-12319567D01*
X-5064589Y-12309671D01*
X-12274040Y-5100220D01*
X-12274040Y-3250000D01*
X3132157Y-3250000D01*
X3132157Y-4750000D01*
X3139513Y-4824689D01*
X3161299Y-4896508D01*
X3196678Y-4962696D01*
X3244289Y-5020711D01*
X3302304Y-5068322D01*
X3368492Y-5103701D01*
X3440311Y-5125487D01*
X3515000Y-5132843D01*
X6015000Y-5132843D01*
X6089689Y-5125487D01*
X6161508Y-5103701D01*
X6227696Y-5068322D01*
X6285711Y-5020711D01*
X6333322Y-4962696D01*
X6368701Y-4896508D01*
X6390487Y-4824689D01*
X6397843Y-4750000D01*
X6397843Y-3250000D01*
X6390487Y-3175311D01*
X6368701Y-3103492D01*
X6333322Y-3037304D01*
X6285711Y-2979289D01*
X6227696Y-2931678D01*
X6161508Y-2896299D01*
X6089689Y-2874513D01*
X6015000Y-2867157D01*
X3515000Y-2867157D01*
X3440311Y-2874513D01*
X3368492Y-2896299D01*
X3302304Y-2931678D01*
X3244289Y-2979289D01*
X3196678Y-3037304D01*
X3161299Y-3103492D01*
X3139513Y-3175311D01*
X3132157Y-3250000D01*
X-12274040Y-3250000D01*
X-12274040Y-527648D01*
X-12216469Y-457498D01*
X-12168615Y-367970D01*
X-12139147Y-270826D01*
X-12129197Y-169800D01*
X-12129197Y200200D01*
X-12139147Y301226D01*
X-12168615Y398370D01*
X-12216469Y487898D01*
X-12280870Y566370D01*
X-12359342Y630771D01*
X-12361906Y632141D01*
X-12421092Y704261D01*
X-12440475Y720168D01*
X-12470307Y750000D01*
X3132157Y750000D01*
X3132157Y-750000D01*
X3139513Y-824689D01*
X3161299Y-896508D01*
X3196678Y-962696D01*
X3244289Y-1020711D01*
X3302304Y-1068322D01*
X3368492Y-1103701D01*
X3440311Y-1125487D01*
X3515000Y-1132843D01*
X6015000Y-1132843D01*
X6089689Y-1125487D01*
X6161508Y-1103701D01*
X6227696Y-1068322D01*
X6285711Y-1020711D01*
X6333322Y-962696D01*
X6368701Y-896508D01*
X6390487Y-824689D01*
X6397843Y-750000D01*
X6397843Y750000D01*
X6390487Y824689D01*
X6368701Y896508D01*
X6333322Y962696D01*
X6285711Y1020711D01*
X6227696Y1068322D01*
X6161508Y1103701D01*
X6089689Y1125487D01*
X6015000Y1132843D01*
X3515000Y1132843D01*
X3440311Y1125487D01*
X3368492Y1103701D01*
X3302304Y1068322D01*
X3244289Y1020711D01*
X3196678Y962696D01*
X3161299Y896508D01*
X3139513Y824689D01*
X3132157Y750000D01*
X-12470307Y750000D01*
X-15776160Y4055853D01*
X-15776160Y6617060D01*
X-13544299Y8848921D01*
X-12669160Y8848921D01*
X-12669160Y8478397D01*
X-12596874Y8114992D01*
X-12455080Y7772672D01*
X-12249228Y7464592D01*
X-11987227Y7202591D01*
X-11679147Y6996739D01*
X-11336827Y6854945D01*
X-10973422Y6782659D01*
X-10602898Y6782659D01*
X-10239493Y6854945D01*
X-9897173Y6996739D01*
X-9589093Y7202591D01*
X-9525025Y7266659D01*
X-6679996Y7266659D01*
X-6348200Y6934862D01*
X-6368701Y6896508D01*
X-6390487Y6824689D01*
X-6397843Y6750000D01*
X-6397843Y5250000D01*
X-6390487Y5175311D01*
X-6368701Y5103492D01*
X-6333322Y5037304D01*
X-6285711Y4979289D01*
X-6227696Y4931678D01*
X-6161508Y4896299D01*
X-6089689Y4874513D01*
X-6015000Y4867157D01*
X-5586730Y4867157D01*
X-5544887Y4832817D01*
X-5302195Y4703096D01*
X-5038860Y4623214D01*
X-4765000Y4596241D01*
X-4491141Y4623214D01*
X-4227806Y4703096D01*
X-4140055Y4750000D01*
X3132157Y4750000D01*
X3132157Y3250000D01*
X3139513Y3175311D01*
X3161299Y3103492D01*
X3196678Y3037304D01*
X3244289Y2979289D01*
X3302304Y2931678D01*
X3368492Y2896299D01*
X3440311Y2874513D01*
X3515000Y2867157D01*
X6015000Y2867157D01*
X6089689Y2874513D01*
X6161508Y2896299D01*
X6227696Y2931678D01*
X6285711Y2979289D01*
X6333322Y3037304D01*
X6368701Y3103492D01*
X6390487Y3175311D01*
X6397843Y3250000D01*
X6397843Y4750000D01*
X6390487Y4824689D01*
X6368701Y4896508D01*
X6333322Y4962696D01*
X6285711Y5020711D01*
X6227696Y5068322D01*
X6161508Y5103701D01*
X6089689Y5125487D01*
X6015000Y5132843D01*
X3515000Y5132843D01*
X3440311Y5125487D01*
X3368492Y5103701D01*
X3302304Y5068322D01*
X3244289Y5020711D01*
X3196678Y4962696D01*
X3161299Y4896508D01*
X3139513Y4824689D01*
X3132157Y4750000D01*
X-4140055Y4750000D01*
X-3985114Y4832817D01*
X-3943270Y4867157D01*
X-3515000Y4867157D01*
X-3440311Y4874513D01*
X-3368492Y4896299D01*
X-3302304Y4931678D01*
X-3244289Y4979289D01*
X-3196678Y5037304D01*
X-3161299Y5103492D01*
X-3139513Y5175311D01*
X-3132157Y5250000D01*
X-3132157Y6750000D01*
X-3139513Y6824689D01*
X-3161299Y6896508D01*
X-3196678Y6962696D01*
X-3244289Y7020711D01*
X-3302304Y7068322D01*
X-3368000Y7103438D01*
X-3368000Y7258686D01*
X-3361240Y7327318D01*
X-3388214Y7601178D01*
X-3468096Y7864514D01*
X-3597817Y8107205D01*
X-3604208Y8114992D01*
X-3772392Y8319926D01*
X-3825704Y8363678D01*
X-4125685Y8663659D01*
X-4039344Y8750000D01*
X3142357Y8750000D01*
X3142357Y7250000D01*
X3149713Y7175311D01*
X3171499Y7103492D01*
X3206878Y7037304D01*
X3254489Y6979289D01*
X3312504Y6931678D01*
X3378692Y6896299D01*
X3450511Y6874513D01*
X3525200Y6867157D01*
X6025200Y6867157D01*
X6099889Y6874513D01*
X6171708Y6896299D01*
X6237896Y6931678D01*
X6295911Y6979289D01*
X6343522Y7037304D01*
X6378901Y7103492D01*
X6400687Y7175311D01*
X6408043Y7250000D01*
X6408043Y8750000D01*
X6400687Y8824689D01*
X6378901Y8896508D01*
X6343522Y8962696D01*
X6295911Y9020711D01*
X6237896Y9068322D01*
X6171708Y9103701D01*
X6099889Y9125487D01*
X6025200Y9132843D01*
X3525200Y9132843D01*
X3450511Y9125487D01*
X3378692Y9103701D01*
X3312504Y9068322D01*
X3254489Y9020711D01*
X3206878Y8962696D01*
X3171499Y8896508D01*
X3149713Y8824689D01*
X3142357Y8750000D01*
X-4039344Y8750000D01*
X-3922187Y8867157D01*
X-3515000Y8867157D01*
X-3440311Y8874513D01*
X-3368492Y8896299D01*
X-3302304Y8931678D01*
X-3244289Y8979289D01*
X-3196678Y9037304D01*
X-3161299Y9103492D01*
X-3139513Y9175311D01*
X-3132157Y9250000D01*
X-3132157Y10654992D01*
X1344000Y10654992D01*
X1344000Y10445008D01*
X1384966Y10239059D01*
X1465323Y10045060D01*
X1581984Y9870465D01*
X1730465Y9721984D01*
X1905060Y9605323D01*
X2099059Y9524966D01*
X2305008Y9484000D01*
X2514992Y9484000D01*
X2720941Y9524966D01*
X2914940Y9605323D01*
X3089535Y9721984D01*
X3238016Y9870465D01*
X3354677Y10045060D01*
X3435034Y10239059D01*
X3476000Y10445008D01*
X3476000Y10654992D01*
X3435034Y10860941D01*
X3354677Y11054940D01*
X3238016Y11229535D01*
X3089535Y11378016D01*
X2914940Y11494677D01*
X2720941Y11575034D01*
X2514992Y11616000D01*
X2305008Y11616000D01*
X2099059Y11575034D01*
X1905060Y11494677D01*
X1730465Y11378016D01*
X1581984Y11229535D01*
X1465323Y11054940D01*
X1384966Y10860941D01*
X1344000Y10654992D01*
X-3132157Y10654992D01*
X-3132157Y10750000D01*
X-3139513Y10824689D01*
X-3161299Y10896508D01*
X-3196678Y10962696D01*
X-3244289Y11020711D01*
X-3302304Y11068322D01*
X-3368492Y11103701D01*
X-3440311Y11125487D01*
X-3515000Y11132843D01*
X-3943271Y11132843D01*
X-3985114Y11167183D01*
X-4227805Y11296904D01*
X-4491141Y11376786D01*
X-4765000Y11403760D01*
X-5038860Y11376786D01*
X-5302196Y11296904D01*
X-5544887Y11167183D01*
X-5586730Y11132843D01*
X-6015000Y11132843D01*
X-6089689Y11125487D01*
X-6161508Y11103701D01*
X-6227696Y11068322D01*
X-6285711Y11020711D01*
X-6333322Y10962696D01*
X-6368701Y10896508D01*
X-6390487Y10824689D01*
X-6397843Y10750000D01*
X-6397843Y10342813D01*
X-6679996Y10060659D01*
X-9525025Y10060659D01*
X-9589093Y10124727D01*
X-9897173Y10330579D01*
X-10239493Y10472373D01*
X-10602898Y10544659D01*
X-10973422Y10544659D01*
X-11336827Y10472373D01*
X-11679147Y10330579D01*
X-11987227Y10124727D01*
X-12249228Y9862726D01*
X-12455080Y9554646D01*
X-12596874Y9212326D01*
X-12669160Y8848921D01*
X-13544299Y8848921D01*
X-10975480Y11417739D01*
X-6319345Y11417739D01*
X-6294401Y11415282D01*
X-6269457Y11417739D01*
X-6269454Y11417739D01*
X-6194816Y11425090D01*
X-6099058Y11454138D01*
X-6010806Y11501310D01*
X-5933453Y11564791D01*
X-5917546Y11584174D01*
X-5235363Y12266357D01*
X-5115940Y12266357D01*
X-5014914Y12276307D01*
X-4917770Y12305775D01*
X-4828242Y12353629D01*
X-4749770Y12418030D01*
X-4685369Y12496502D01*
X-4675727Y12514540D01*
X4721521Y12514540D01*
X4756950Y12471370D01*
G04 #@! TA.AperFunction,Conductor*
D17*
G36*
X4756950Y12471370D02*
G01*
X4835422Y12406969D01*
X4924950Y12359115D01*
X5022094Y12329647D01*
X5123120Y12319697D01*
X5242543Y12319697D01*
X14195841Y3366398D01*
X14195840Y2117381D01*
X12783803Y705343D01*
X12664380Y705343D01*
X12563354Y695393D01*
X12466210Y665925D01*
X12376682Y618071D01*
X12298210Y553670D01*
X12233809Y475198D01*
X12185955Y385670D01*
X12156487Y288526D01*
X12146537Y187500D01*
X12146537Y-182500D01*
X12156487Y-283526D01*
X12185955Y-380670D01*
X12233809Y-470198D01*
X12298210Y-548670D01*
X12376682Y-613071D01*
X12466210Y-660925D01*
X12563354Y-690393D01*
X12664380Y-700343D01*
X12783803Y-700343D01*
X13687840Y-1604380D01*
X13687841Y-5482484D01*
X13329623Y-5275667D01*
X13216622Y-5224467D01*
X13095804Y-5196296D01*
X12971811Y-5192237D01*
X12849409Y-5212446D01*
X12733302Y-5256145D01*
X12627951Y-5321657D01*
X12537405Y-5406463D01*
X12465143Y-5507303D01*
X12059244Y-6210340D01*
X11589884Y-6210340D01*
X11564940Y-6207883D01*
X11539996Y-6210340D01*
X11539993Y-6210340D01*
X11465355Y-6217691D01*
X11369597Y-6246739D01*
X11281345Y-6293911D01*
X11203992Y-6357392D01*
X11188085Y-6376775D01*
X5306043Y-12258817D01*
X5186620Y-12258817D01*
X5085594Y-12268767D01*
X4988450Y-12298235D01*
X4898922Y-12346089D01*
X4820450Y-12410490D01*
X4756049Y-12488962D01*
X4708195Y-12578490D01*
X4678727Y-12675634D01*
X4668777Y-12776660D01*
X4668777Y-13146660D01*
X4678727Y-13247686D01*
X4708195Y-13344830D01*
X4756049Y-13434358D01*
X4813620Y-13504508D01*
X4813621Y-14790318D01*
X2707831Y-16896109D01*
X1350671Y-16896109D01*
X1837405Y-16409375D01*
X1849605Y-16399363D01*
X2095840Y-16399363D01*
X2219302Y-16387203D01*
X2338019Y-16351191D01*
X2447429Y-16292710D01*
X2543328Y-16214008D01*
X2622030Y-16118109D01*
X2680511Y-16008699D01*
X2716523Y-15889982D01*
X2728683Y-15766520D01*
X2728683Y-14266520D01*
X2716523Y-14143058D01*
X2680511Y-14024341D01*
X2622030Y-13914931D01*
X2543328Y-13819032D01*
X2447429Y-13740330D01*
X2338019Y-13681849D01*
X2219302Y-13645837D01*
X2095840Y-13633677D01*
X895840Y-13633677D01*
X772378Y-13645837D01*
X653661Y-13681849D01*
X544251Y-13740330D01*
X448352Y-13819032D01*
X369650Y-13914931D01*
X311169Y-14024341D01*
X275157Y-14143058D01*
X262997Y-14266520D01*
X262997Y-15766520D01*
X275157Y-15889982D01*
X311169Y-16008699D01*
X369650Y-16118109D01*
X448352Y-16214008D01*
X529410Y-16280530D01*
X523420Y-16286520D01*
X-488146Y-16286520D01*
X-316945Y-16195011D01*
X-129500Y-16041180D01*
X24331Y-15853736D01*
X138638Y-15639883D01*
X209028Y-15407838D01*
X226840Y-15226992D01*
X226840Y-14806049D01*
X209028Y-14625203D01*
X138638Y-14393158D01*
X24331Y-14179305D01*
X-129500Y-13991860D01*
X-316944Y-13838029D01*
X-496160Y-13742236D01*
X-496160Y-10445008D01*
X1344000Y-10445008D01*
X1344000Y-10654992D01*
X1384966Y-10860941D01*
X1465323Y-11054940D01*
X1581984Y-11229535D01*
X1730465Y-11378016D01*
X1905060Y-11494677D01*
X2099059Y-11575034D01*
X2305008Y-11616000D01*
X2514992Y-11616000D01*
X2720941Y-11575034D01*
X2914940Y-11494677D01*
X3089535Y-11378016D01*
X3238016Y-11229535D01*
X3354677Y-11054940D01*
X3435034Y-10860941D01*
X3476000Y-10654992D01*
X3476000Y-10445008D01*
X3435034Y-10239059D01*
X3354677Y-10045060D01*
X3238016Y-9870465D01*
X3089535Y-9721984D01*
X2914940Y-9605323D01*
X2720941Y-9524966D01*
X2514992Y-9484000D01*
X2305008Y-9484000D01*
X2099059Y-9524966D01*
X1905060Y-9605323D01*
X1730465Y-9721984D01*
X1581984Y-9870465D01*
X1465323Y-10045060D01*
X1384966Y-10239059D01*
X1344000Y-10445008D01*
X-496160Y-10445008D01*
X-496160Y-9785784D01*
X-493703Y-9760840D01*
X-497530Y-9721984D01*
X-503511Y-9661255D01*
X-532559Y-9565497D01*
X-567914Y-9499352D01*
X-579731Y-9477244D01*
X-627310Y-9419269D01*
X-643212Y-9399892D01*
X-662589Y-9383990D01*
X-2796579Y-7250000D01*
X3132157Y-7250000D01*
X3132157Y-8750000D01*
X3139513Y-8824689D01*
X3161299Y-8896508D01*
X3196678Y-8962696D01*
X3244289Y-9020711D01*
X3302304Y-9068322D01*
X3368492Y-9103701D01*
X3440311Y-9125487D01*
X3515000Y-9132843D01*
X6015000Y-9132843D01*
X6089689Y-9125487D01*
X6161508Y-9103701D01*
X6227696Y-9068322D01*
X6285711Y-9020711D01*
X6333322Y-8962696D01*
X6368701Y-8896508D01*
X6390487Y-8824689D01*
X6397843Y-8750000D01*
X6397843Y-7250000D01*
X6390487Y-7175311D01*
X6368701Y-7103492D01*
X6333322Y-7037304D01*
X6285711Y-6979289D01*
X6227696Y-6931678D01*
X6161508Y-6896299D01*
X6089689Y-6874513D01*
X6015000Y-6867157D01*
X3515000Y-6867157D01*
X3440311Y-6874513D01*
X3368492Y-6896299D01*
X3302304Y-6931678D01*
X3244289Y-6979289D01*
X3196678Y-7037304D01*
X3161299Y-7103492D01*
X3139513Y-7175311D01*
X3132157Y-7250000D01*
X-2796579Y-7250000D01*
X-3158686Y-6887894D01*
X-3139513Y-6824689D01*
X-3132157Y-6750000D01*
X-3132157Y-5250000D01*
X-3139513Y-5175311D01*
X-3161299Y-5103492D01*
X-3196678Y-5037304D01*
X-3244289Y-4979289D01*
X-3302304Y-4931678D01*
X-3368492Y-4896299D01*
X-3440311Y-4874513D01*
X-3515000Y-4867157D01*
X-6015000Y-4867157D01*
X-6089689Y-4874513D01*
X-6161508Y-4896299D01*
X-6227696Y-4931678D01*
X-6285711Y-4979289D01*
X-6333322Y-5037304D01*
X-6368701Y-5103492D01*
X-6390487Y-5175311D01*
X-6397843Y-5250000D01*
X-6397843Y-6750000D01*
X-6390487Y-6824689D01*
X-6368701Y-6896508D01*
X-6333322Y-6962696D01*
X-6285711Y-7020711D01*
X-6227696Y-7068322D01*
X-6161508Y-7103701D01*
X-6089689Y-7125487D01*
X-6015000Y-7132843D01*
X-4350577Y-7132843D01*
X-1512159Y-9971262D01*
X-1512160Y-13742236D01*
X-1691375Y-13838029D01*
X-1878819Y-13991860D01*
X-2032650Y-14179304D01*
X-2146958Y-14393157D01*
X-2217348Y-14625202D01*
X-2235160Y-14806048D01*
X-2235160Y-15226991D01*
X-2217348Y-15407837D01*
X-2146958Y-15639882D01*
X-2032651Y-15853735D01*
X-1878820Y-16041180D01*
X-1691376Y-16195011D01*
X-1520175Y-16286520D01*
X-1849740Y-16286520D01*
X-3330160Y-14806100D01*
X-3330160Y-11083212D01*
X-3302304Y-11068322D01*
X-3244289Y-11020711D01*
X-3196678Y-10962696D01*
X-3161299Y-10896508D01*
X-3139513Y-10824689D01*
X-3132157Y-10750000D01*
X-3132157Y-9250000D01*
X-3139513Y-9175311D01*
X-3161299Y-9103492D01*
X-3196678Y-9037304D01*
X-3244289Y-8979289D01*
X-3302304Y-8931678D01*
X-3368492Y-8896299D01*
X-3440311Y-8874513D01*
X-3515000Y-8867157D01*
X-6015000Y-8867157D01*
X-6089689Y-8874513D01*
X-6161508Y-8896299D01*
X-6227696Y-8931678D01*
X-6285711Y-8979289D01*
X-6333322Y-9037304D01*
X-6368701Y-9103492D01*
X-6390487Y-9175311D01*
X-6397843Y-9250000D01*
X-6397843Y-10750000D01*
X-6390487Y-10824689D01*
X-6368701Y-10896508D01*
X-6333322Y-10962696D01*
X-6285711Y-11020711D01*
X-6227696Y-11068322D01*
X-6161508Y-11103701D01*
X-6089689Y-11125487D01*
X-6015000Y-11132843D01*
X-4350577Y-11132843D01*
X-4346159Y-11137261D01*
X-4346160Y-14806100D01*
X-4692140Y-14460120D01*
X-4692140Y-13555308D01*
X-4634569Y-13485158D01*
X-4586715Y-13395630D01*
X-4557247Y-13298486D01*
X-4547297Y-13197460D01*
X-4547297Y-12827460D01*
X-4557247Y-12726434D01*
X-4586715Y-12629290D01*
X-4634569Y-12539762D01*
X-4698970Y-12461290D01*
X-4777442Y-12396889D01*
X-4866970Y-12349035D01*
X-4964114Y-12319567D01*
X-5064589Y-12309671D01*
X-12274040Y-5100220D01*
X-12274040Y-3250000D01*
X3132157Y-3250000D01*
X3132157Y-4750000D01*
X3139513Y-4824689D01*
X3161299Y-4896508D01*
X3196678Y-4962696D01*
X3244289Y-5020711D01*
X3302304Y-5068322D01*
X3368492Y-5103701D01*
X3440311Y-5125487D01*
X3515000Y-5132843D01*
X6015000Y-5132843D01*
X6089689Y-5125487D01*
X6161508Y-5103701D01*
X6227696Y-5068322D01*
X6285711Y-5020711D01*
X6333322Y-4962696D01*
X6368701Y-4896508D01*
X6390487Y-4824689D01*
X6397843Y-4750000D01*
X6397843Y-3250000D01*
X6390487Y-3175311D01*
X6368701Y-3103492D01*
X6333322Y-3037304D01*
X6285711Y-2979289D01*
X6227696Y-2931678D01*
X6161508Y-2896299D01*
X6089689Y-2874513D01*
X6015000Y-2867157D01*
X3515000Y-2867157D01*
X3440311Y-2874513D01*
X3368492Y-2896299D01*
X3302304Y-2931678D01*
X3244289Y-2979289D01*
X3196678Y-3037304D01*
X3161299Y-3103492D01*
X3139513Y-3175311D01*
X3132157Y-3250000D01*
X-12274040Y-3250000D01*
X-12274040Y-527648D01*
X-12216469Y-457498D01*
X-12168615Y-367970D01*
X-12139147Y-270826D01*
X-12129197Y-169800D01*
X-12129197Y200200D01*
X-12139147Y301226D01*
X-12168615Y398370D01*
X-12216469Y487898D01*
X-12280870Y566370D01*
X-12359342Y630771D01*
X-12361906Y632141D01*
X-12421092Y704261D01*
X-12440475Y720168D01*
X-12470307Y750000D01*
X3132157Y750000D01*
X3132157Y-750000D01*
X3139513Y-824689D01*
X3161299Y-896508D01*
X3196678Y-962696D01*
X3244289Y-1020711D01*
X3302304Y-1068322D01*
X3368492Y-1103701D01*
X3440311Y-1125487D01*
X3515000Y-1132843D01*
X6015000Y-1132843D01*
X6089689Y-1125487D01*
X6161508Y-1103701D01*
X6227696Y-1068322D01*
X6285711Y-1020711D01*
X6333322Y-962696D01*
X6368701Y-896508D01*
X6390487Y-824689D01*
X6397843Y-750000D01*
X6397843Y750000D01*
X6390487Y824689D01*
X6368701Y896508D01*
X6333322Y962696D01*
X6285711Y1020711D01*
X6227696Y1068322D01*
X6161508Y1103701D01*
X6089689Y1125487D01*
X6015000Y1132843D01*
X3515000Y1132843D01*
X3440311Y1125487D01*
X3368492Y1103701D01*
X3302304Y1068322D01*
X3244289Y1020711D01*
X3196678Y962696D01*
X3161299Y896508D01*
X3139513Y824689D01*
X3132157Y750000D01*
X-12470307Y750000D01*
X-15776160Y4055853D01*
X-15776160Y6617060D01*
X-13544299Y8848921D01*
X-12669160Y8848921D01*
X-12669160Y8478397D01*
X-12596874Y8114992D01*
X-12455080Y7772672D01*
X-12249228Y7464592D01*
X-11987227Y7202591D01*
X-11679147Y6996739D01*
X-11336827Y6854945D01*
X-10973422Y6782659D01*
X-10602898Y6782659D01*
X-10239493Y6854945D01*
X-9897173Y6996739D01*
X-9589093Y7202591D01*
X-9525025Y7266659D01*
X-6679996Y7266659D01*
X-6348200Y6934862D01*
X-6368701Y6896508D01*
X-6390487Y6824689D01*
X-6397843Y6750000D01*
X-6397843Y5250000D01*
X-6390487Y5175311D01*
X-6368701Y5103492D01*
X-6333322Y5037304D01*
X-6285711Y4979289D01*
X-6227696Y4931678D01*
X-6161508Y4896299D01*
X-6089689Y4874513D01*
X-6015000Y4867157D01*
X-5586730Y4867157D01*
X-5544887Y4832817D01*
X-5302195Y4703096D01*
X-5038860Y4623214D01*
X-4765000Y4596241D01*
X-4491141Y4623214D01*
X-4227806Y4703096D01*
X-4140055Y4750000D01*
X3132157Y4750000D01*
X3132157Y3250000D01*
X3139513Y3175311D01*
X3161299Y3103492D01*
X3196678Y3037304D01*
X3244289Y2979289D01*
X3302304Y2931678D01*
X3368492Y2896299D01*
X3440311Y2874513D01*
X3515000Y2867157D01*
X6015000Y2867157D01*
X6089689Y2874513D01*
X6161508Y2896299D01*
X6227696Y2931678D01*
X6285711Y2979289D01*
X6333322Y3037304D01*
X6368701Y3103492D01*
X6390487Y3175311D01*
X6397843Y3250000D01*
X6397843Y4750000D01*
X6390487Y4824689D01*
X6368701Y4896508D01*
X6333322Y4962696D01*
X6285711Y5020711D01*
X6227696Y5068322D01*
X6161508Y5103701D01*
X6089689Y5125487D01*
X6015000Y5132843D01*
X3515000Y5132843D01*
X3440311Y5125487D01*
X3368492Y5103701D01*
X3302304Y5068322D01*
X3244289Y5020711D01*
X3196678Y4962696D01*
X3161299Y4896508D01*
X3139513Y4824689D01*
X3132157Y4750000D01*
X-4140055Y4750000D01*
X-3985114Y4832817D01*
X-3943270Y4867157D01*
X-3515000Y4867157D01*
X-3440311Y4874513D01*
X-3368492Y4896299D01*
X-3302304Y4931678D01*
X-3244289Y4979289D01*
X-3196678Y5037304D01*
X-3161299Y5103492D01*
X-3139513Y5175311D01*
X-3132157Y5250000D01*
X-3132157Y6750000D01*
X-3139513Y6824689D01*
X-3161299Y6896508D01*
X-3196678Y6962696D01*
X-3244289Y7020711D01*
X-3302304Y7068322D01*
X-3368000Y7103438D01*
X-3368000Y7258686D01*
X-3361240Y7327318D01*
X-3388214Y7601178D01*
X-3468096Y7864514D01*
X-3597817Y8107205D01*
X-3604208Y8114992D01*
X-3772392Y8319926D01*
X-3825704Y8363678D01*
X-4125685Y8663659D01*
X-4039344Y8750000D01*
X3142357Y8750000D01*
X3142357Y7250000D01*
X3149713Y7175311D01*
X3171499Y7103492D01*
X3206878Y7037304D01*
X3254489Y6979289D01*
X3312504Y6931678D01*
X3378692Y6896299D01*
X3450511Y6874513D01*
X3525200Y6867157D01*
X6025200Y6867157D01*
X6099889Y6874513D01*
X6171708Y6896299D01*
X6237896Y6931678D01*
X6295911Y6979289D01*
X6343522Y7037304D01*
X6378901Y7103492D01*
X6400687Y7175311D01*
X6408043Y7250000D01*
X6408043Y8750000D01*
X6400687Y8824689D01*
X6378901Y8896508D01*
X6343522Y8962696D01*
X6295911Y9020711D01*
X6237896Y9068322D01*
X6171708Y9103701D01*
X6099889Y9125487D01*
X6025200Y9132843D01*
X3525200Y9132843D01*
X3450511Y9125487D01*
X3378692Y9103701D01*
X3312504Y9068322D01*
X3254489Y9020711D01*
X3206878Y8962696D01*
X3171499Y8896508D01*
X3149713Y8824689D01*
X3142357Y8750000D01*
X-4039344Y8750000D01*
X-3922187Y8867157D01*
X-3515000Y8867157D01*
X-3440311Y8874513D01*
X-3368492Y8896299D01*
X-3302304Y8931678D01*
X-3244289Y8979289D01*
X-3196678Y9037304D01*
X-3161299Y9103492D01*
X-3139513Y9175311D01*
X-3132157Y9250000D01*
X-3132157Y10654992D01*
X1344000Y10654992D01*
X1344000Y10445008D01*
X1384966Y10239059D01*
X1465323Y10045060D01*
X1581984Y9870465D01*
X1730465Y9721984D01*
X1905060Y9605323D01*
X2099059Y9524966D01*
X2305008Y9484000D01*
X2514992Y9484000D01*
X2720941Y9524966D01*
X2914940Y9605323D01*
X3089535Y9721984D01*
X3238016Y9870465D01*
X3354677Y10045060D01*
X3435034Y10239059D01*
X3476000Y10445008D01*
X3476000Y10654992D01*
X3435034Y10860941D01*
X3354677Y11054940D01*
X3238016Y11229535D01*
X3089535Y11378016D01*
X2914940Y11494677D01*
X2720941Y11575034D01*
X2514992Y11616000D01*
X2305008Y11616000D01*
X2099059Y11575034D01*
X1905060Y11494677D01*
X1730465Y11378016D01*
X1581984Y11229535D01*
X1465323Y11054940D01*
X1384966Y10860941D01*
X1344000Y10654992D01*
X-3132157Y10654992D01*
X-3132157Y10750000D01*
X-3139513Y10824689D01*
X-3161299Y10896508D01*
X-3196678Y10962696D01*
X-3244289Y11020711D01*
X-3302304Y11068322D01*
X-3368492Y11103701D01*
X-3440311Y11125487D01*
X-3515000Y11132843D01*
X-3943271Y11132843D01*
X-3985114Y11167183D01*
X-4227805Y11296904D01*
X-4491141Y11376786D01*
X-4765000Y11403760D01*
X-5038860Y11376786D01*
X-5302196Y11296904D01*
X-5544887Y11167183D01*
X-5586730Y11132843D01*
X-6015000Y11132843D01*
X-6089689Y11125487D01*
X-6161508Y11103701D01*
X-6227696Y11068322D01*
X-6285711Y11020711D01*
X-6333322Y10962696D01*
X-6368701Y10896508D01*
X-6390487Y10824689D01*
X-6397843Y10750000D01*
X-6397843Y10342813D01*
X-6679996Y10060659D01*
X-9525025Y10060659D01*
X-9589093Y10124727D01*
X-9897173Y10330579D01*
X-10239493Y10472373D01*
X-10602898Y10544659D01*
X-10973422Y10544659D01*
X-11336827Y10472373D01*
X-11679147Y10330579D01*
X-11987227Y10124727D01*
X-12249228Y9862726D01*
X-12455080Y9554646D01*
X-12596874Y9212326D01*
X-12669160Y8848921D01*
X-13544299Y8848921D01*
X-10975480Y11417739D01*
X-6319345Y11417739D01*
X-6294401Y11415282D01*
X-6269457Y11417739D01*
X-6269454Y11417739D01*
X-6194816Y11425090D01*
X-6099058Y11454138D01*
X-6010806Y11501310D01*
X-5933453Y11564791D01*
X-5917546Y11584174D01*
X-5235363Y12266357D01*
X-5115940Y12266357D01*
X-5014914Y12276307D01*
X-4917770Y12305775D01*
X-4828242Y12353629D01*
X-4749770Y12418030D01*
X-4685369Y12496502D01*
X-4675727Y12514540D01*
X4721521Y12514540D01*
X4756950Y12471370D01*
G37*
G04 #@! TD.AperFunction*
M02*
