G04 #@! TF.GenerationSoftware,KiCad,Pcbnew,(5.1.10)-1*
G04 #@! TF.CreationDate,2021-05-29T19:25:13+08:00*
G04 #@! TF.ProjectId,tiny2_V1.0,74696e79-325f-4563-912e-302e6b696361,rev?*
G04 #@! TF.SameCoordinates,Original*
G04 #@! TF.FileFunction,Copper,L2,Bot*
G04 #@! TF.FilePolarity,Positive*
%FSLAX46Y46*%
G04 Gerber Fmt 4.6, Leading zero omitted, Abs format (unit mm)*
G04 Created by KiCad (PCBNEW (5.1.10)-1) date 2021-05-29 19:25:13*
%MOMM*%
%LPD*%
G01*
G04 APERTURE LIST*
G04 #@! TA.AperFunction,ComponentPad*
%ADD10C,3.000000*%
G04 #@! TD*
G04 #@! TA.AperFunction,ComponentPad*
%ADD11C,0.100000*%
G04 #@! TD*
G04 #@! TA.AperFunction,ComponentPad*
%ADD12O,1.700000X2.000000*%
G04 #@! TD*
G04 #@! TA.AperFunction,ViaPad*
%ADD13C,0.800000*%
G04 #@! TD*
G04 #@! TA.AperFunction,Conductor*
%ADD14C,0.254000*%
G04 #@! TD*
G04 #@! TA.AperFunction,Conductor*
%ADD15C,0.100000*%
G04 #@! TD*
G04 APERTURE END LIST*
G04 #@! TA.AperFunction,ComponentPad*
G36*
G01*
X12407816Y-8072282D02*
X12667624Y-8222282D01*
G75*
G02*
X12978746Y-9383404I-425000J-736122D01*
G01*
X12978746Y-9383404D01*
G75*
G02*
X11817624Y-9694526I-736122J425000D01*
G01*
X11557816Y-9544526D01*
G75*
G02*
X11246694Y-8383404I425000J736122D01*
G01*
X11246694Y-8383404D01*
G75*
G02*
X12407816Y-8072282I736122J-425000D01*
G01*
G37*
G04 #@! TD.AperFunction*
G04 #@! TA.AperFunction,ComponentPad*
G36*
G01*
X13138201Y-5607219D02*
X14437239Y-6357219D01*
G75*
G02*
X14528745Y-6698725I-125000J-216506D01*
G01*
X13928745Y-7737955D01*
G75*
G02*
X13587239Y-7829461I-216506J125000D01*
G01*
X12288201Y-7079461D01*
G75*
G02*
X12196695Y-6737955I125000J216506D01*
G01*
X12796695Y-5698725D01*
G75*
G02*
X13138201Y-5607219I216506J-125000D01*
G01*
G37*
G04 #@! TD.AperFunction*
D10*
X-10788160Y8663659D03*
G04 #@! TA.AperFunction,ComponentPad*
D11*
G36*
X-12179122Y3254442D02*
G01*
X-14777198Y4754442D01*
X-13277198Y7352518D01*
X-10679122Y5852518D01*
X-12179122Y3254442D01*
G37*
G04 #@! TD.AperFunction*
D12*
X-1004160Y-15016520D03*
G04 #@! TA.AperFunction,ComponentPad*
G36*
G01*
X2345840Y-14266520D02*
X2345840Y-15766520D01*
G75*
G02*
X2095840Y-16016520I-250000J0D01*
G01*
X895840Y-16016520D01*
G75*
G02*
X645840Y-15766520I0J250000D01*
G01*
X645840Y-14266520D01*
G75*
G02*
X895840Y-14016520I250000J0D01*
G01*
X2095840Y-14016520D01*
G75*
G02*
X2345840Y-14266520I0J-250000D01*
G01*
G37*
G04 #@! TD.AperFunction*
D13*
X-9426160Y-1808520D03*
X-8664160Y-4602520D03*
X-28160Y1747480D03*
X-28160Y-2316520D03*
X9115840Y5811480D03*
X9115840Y2001480D03*
X9115840Y-2316520D03*
X9115840Y-6126520D03*
D14*
X2558518Y18341411D02*
X4239935Y18027099D01*
X5885179Y17558987D01*
X7480213Y16941068D01*
X9011428Y16178613D01*
X10465761Y15278128D01*
X11830804Y14247296D01*
X13094910Y13094910D01*
X14247296Y11830804D01*
X15278128Y10465761D01*
X16178613Y9011428D01*
X16941068Y7480213D01*
X17558987Y5885179D01*
X18027099Y4239935D01*
X18341411Y2558518D01*
X18499240Y855271D01*
X18499240Y-855271D01*
X18341411Y-2558518D01*
X18027099Y-4239935D01*
X17558987Y-5885179D01*
X16941068Y-7480213D01*
X16178613Y-9011428D01*
X15278128Y-10465761D01*
X14247296Y-11830804D01*
X13094910Y-13094910D01*
X11830804Y-14247296D01*
X10465761Y-15278128D01*
X9011428Y-16178613D01*
X7480213Y-16941068D01*
X5885179Y-17558987D01*
X4239935Y-18027099D01*
X2558518Y-18341411D01*
X855271Y-18499240D01*
X-855271Y-18499240D01*
X-2558518Y-18341411D01*
X-4239935Y-18027099D01*
X-5885179Y-17558987D01*
X-7480213Y-16941068D01*
X-9011428Y-16178613D01*
X-10465761Y-15278128D01*
X-11090896Y-14806048D01*
X-2235160Y-14806048D01*
X-2235160Y-15226991D01*
X-2217348Y-15407837D01*
X-2146958Y-15639882D01*
X-2032651Y-15853735D01*
X-1878820Y-16041180D01*
X-1691376Y-16195011D01*
X-1477523Y-16309318D01*
X-1245478Y-16379708D01*
X-1004160Y-16403476D01*
X-762843Y-16379708D01*
X-530798Y-16309318D01*
X-316945Y-16195011D01*
X-129500Y-16041180D01*
X24331Y-15853736D01*
X138638Y-15639883D01*
X209028Y-15407838D01*
X226840Y-15226992D01*
X226840Y-14806049D01*
X209028Y-14625203D01*
X138638Y-14393158D01*
X70949Y-14266520D01*
X262997Y-14266520D01*
X262997Y-15766520D01*
X275157Y-15889982D01*
X311169Y-16008699D01*
X369650Y-16118109D01*
X448352Y-16214008D01*
X544251Y-16292710D01*
X653661Y-16351191D01*
X772378Y-16387203D01*
X895840Y-16399363D01*
X2095840Y-16399363D01*
X2219302Y-16387203D01*
X2338019Y-16351191D01*
X2447429Y-16292710D01*
X2543328Y-16214008D01*
X2622030Y-16118109D01*
X2680511Y-16008699D01*
X2716523Y-15889982D01*
X2728683Y-15766520D01*
X2728683Y-14266520D01*
X2716523Y-14143058D01*
X2680511Y-14024341D01*
X2622030Y-13914931D01*
X2543328Y-13819032D01*
X2447429Y-13740330D01*
X2338019Y-13681849D01*
X2219302Y-13645837D01*
X2095840Y-13633677D01*
X895840Y-13633677D01*
X772378Y-13645837D01*
X653661Y-13681849D01*
X544251Y-13740330D01*
X448352Y-13819032D01*
X369650Y-13914931D01*
X311169Y-14024341D01*
X275157Y-14143058D01*
X262997Y-14266520D01*
X70949Y-14266520D01*
X24331Y-14179305D01*
X-129500Y-13991860D01*
X-316944Y-13838029D01*
X-530797Y-13723722D01*
X-762842Y-13653332D01*
X-1004160Y-13629564D01*
X-1245477Y-13653332D01*
X-1477522Y-13723722D01*
X-1691375Y-13838029D01*
X-1878819Y-13991860D01*
X-2032650Y-14179304D01*
X-2146958Y-14393157D01*
X-2217348Y-14625202D01*
X-2235160Y-14806048D01*
X-11090896Y-14806048D01*
X-11830804Y-14247296D01*
X-13094910Y-13094910D01*
X-14247296Y-11830804D01*
X-15278128Y-10465761D01*
X-15290977Y-10445008D01*
X1344000Y-10445008D01*
X1344000Y-10654992D01*
X1384966Y-10860941D01*
X1465323Y-11054940D01*
X1581984Y-11229535D01*
X1730465Y-11378016D01*
X1905060Y-11494677D01*
X2099059Y-11575034D01*
X2305008Y-11616000D01*
X2514992Y-11616000D01*
X2720941Y-11575034D01*
X2914940Y-11494677D01*
X3089535Y-11378016D01*
X3238016Y-11229535D01*
X3354677Y-11054940D01*
X3435034Y-10860941D01*
X3476000Y-10654992D01*
X3476000Y-10445008D01*
X3435034Y-10239059D01*
X3354677Y-10045060D01*
X3238016Y-9870465D01*
X3089535Y-9721984D01*
X2914940Y-9605323D01*
X2720941Y-9524966D01*
X2514992Y-9484000D01*
X2305008Y-9484000D01*
X2099059Y-9524966D01*
X1905060Y-9605323D01*
X1730465Y-9721984D01*
X1581984Y-9870465D01*
X1465323Y-10045060D01*
X1384966Y-10239059D01*
X1344000Y-10445008D01*
X-15290977Y-10445008D01*
X-16178613Y-9011428D01*
X-16239423Y-8889305D01*
X10748509Y-8889305D01*
X10788009Y-9128552D01*
X10873425Y-9355496D01*
X11001474Y-9561415D01*
X11167236Y-9738397D01*
X11314947Y-9844245D01*
X11679495Y-10054717D01*
X11845018Y-10129714D01*
X12081169Y-10184777D01*
X12323525Y-10192711D01*
X12562772Y-10153211D01*
X12789715Y-10067795D01*
X12995634Y-9939746D01*
X13172616Y-9773984D01*
X13313859Y-9576881D01*
X13413934Y-9356009D01*
X13468997Y-9119857D01*
X13476930Y-8877502D01*
X13437431Y-8638256D01*
X13352015Y-8411312D01*
X13223966Y-8205393D01*
X13058204Y-8028411D01*
X12910493Y-7922563D01*
X12545945Y-7712091D01*
X12380421Y-7637094D01*
X12144269Y-7582031D01*
X11901915Y-7574097D01*
X11662668Y-7613597D01*
X11435724Y-7699013D01*
X11229805Y-7827062D01*
X11052823Y-7992824D01*
X10911581Y-8189927D01*
X10811506Y-8410799D01*
X10756443Y-8646951D01*
X10748509Y-8889305D01*
X-16239423Y-8889305D01*
X-16941068Y-7480213D01*
X-17164160Y-6904345D01*
X11781713Y-6904345D01*
X11801922Y-7026747D01*
X11845621Y-7142854D01*
X11911133Y-7248205D01*
X11995939Y-7338752D01*
X12096779Y-7411013D01*
X13395817Y-8161013D01*
X13508818Y-8212213D01*
X13629636Y-8240384D01*
X13753629Y-8244443D01*
X13876031Y-8224234D01*
X13992138Y-8180535D01*
X14097489Y-8115023D01*
X14188035Y-8030217D01*
X14260297Y-7929377D01*
X14860297Y-6890147D01*
X14911497Y-6777146D01*
X14939668Y-6656328D01*
X14943727Y-6532335D01*
X14923518Y-6409933D01*
X14879819Y-6293826D01*
X14814307Y-6188475D01*
X14729501Y-6097928D01*
X14628661Y-6025667D01*
X13329623Y-5275667D01*
X13216622Y-5224467D01*
X13095804Y-5196296D01*
X12971811Y-5192237D01*
X12849409Y-5212446D01*
X12733302Y-5256145D01*
X12627951Y-5321657D01*
X12537405Y-5406463D01*
X12465143Y-5507303D01*
X11865143Y-6546533D01*
X11813943Y-6659534D01*
X11785772Y-6780352D01*
X11781713Y-6904345D01*
X-17164160Y-6904345D01*
X-17558987Y-5885179D01*
X-18027099Y-4239935D01*
X-18341411Y-2558518D01*
X-18499240Y-855271D01*
X-18499240Y855271D01*
X-18341411Y2558518D01*
X-18027099Y4239935D01*
X-17558987Y5885179D01*
X-16941068Y7480213D01*
X-16259532Y8848921D01*
X-12669160Y8848921D01*
X-12669160Y8478397D01*
X-12596874Y8114992D01*
X-12455080Y7772672D01*
X-12249228Y7464592D01*
X-11987227Y7202591D01*
X-11679147Y6996739D01*
X-11336827Y6854945D01*
X-10973422Y6782659D01*
X-10602898Y6782659D01*
X-10239493Y6854945D01*
X-9897173Y6996739D01*
X-9589093Y7202591D01*
X-9327092Y7464592D01*
X-9121240Y7772672D01*
X-8979446Y8114992D01*
X-8907160Y8478397D01*
X-8907160Y8848921D01*
X-8979446Y9212326D01*
X-9121240Y9554646D01*
X-9327092Y9862726D01*
X-9589093Y10124727D01*
X-9897173Y10330579D01*
X-10239493Y10472373D01*
X-10602898Y10544659D01*
X-10973422Y10544659D01*
X-11336827Y10472373D01*
X-11679147Y10330579D01*
X-11987227Y10124727D01*
X-12249228Y9862726D01*
X-12455080Y9554646D01*
X-12596874Y9212326D01*
X-12669160Y8848921D01*
X-16259532Y8848921D01*
X-16178613Y9011428D01*
X-15278128Y10465761D01*
X-15135228Y10654992D01*
X1344000Y10654992D01*
X1344000Y10445008D01*
X1384966Y10239059D01*
X1465323Y10045060D01*
X1581984Y9870465D01*
X1730465Y9721984D01*
X1905060Y9605323D01*
X2099059Y9524966D01*
X2305008Y9484000D01*
X2514992Y9484000D01*
X2720941Y9524966D01*
X2914940Y9605323D01*
X3089535Y9721984D01*
X3238016Y9870465D01*
X3354677Y10045060D01*
X3435034Y10239059D01*
X3476000Y10445008D01*
X3476000Y10654992D01*
X3435034Y10860941D01*
X3354677Y11054940D01*
X3238016Y11229535D01*
X3089535Y11378016D01*
X2914940Y11494677D01*
X2720941Y11575034D01*
X2514992Y11616000D01*
X2305008Y11616000D01*
X2099059Y11575034D01*
X1905060Y11494677D01*
X1730465Y11378016D01*
X1581984Y11229535D01*
X1465323Y11054940D01*
X1384966Y10860941D01*
X1344000Y10654992D01*
X-15135228Y10654992D01*
X-14247296Y11830804D01*
X-13094910Y13094910D01*
X-11830804Y14247296D01*
X-10465761Y15278128D01*
X-9011428Y16178613D01*
X-7480213Y16941068D01*
X-5885179Y17558987D01*
X-4239935Y18027099D01*
X-2558518Y18341411D01*
X-855271Y18499240D01*
X855271Y18499240D01*
X2558518Y18341411D01*
G04 #@! TA.AperFunction,Conductor*
D15*
G36*
X2558518Y18341411D02*
G01*
X4239935Y18027099D01*
X5885179Y17558987D01*
X7480213Y16941068D01*
X9011428Y16178613D01*
X10465761Y15278128D01*
X11830804Y14247296D01*
X13094910Y13094910D01*
X14247296Y11830804D01*
X15278128Y10465761D01*
X16178613Y9011428D01*
X16941068Y7480213D01*
X17558987Y5885179D01*
X18027099Y4239935D01*
X18341411Y2558518D01*
X18499240Y855271D01*
X18499240Y-855271D01*
X18341411Y-2558518D01*
X18027099Y-4239935D01*
X17558987Y-5885179D01*
X16941068Y-7480213D01*
X16178613Y-9011428D01*
X15278128Y-10465761D01*
X14247296Y-11830804D01*
X13094910Y-13094910D01*
X11830804Y-14247296D01*
X10465761Y-15278128D01*
X9011428Y-16178613D01*
X7480213Y-16941068D01*
X5885179Y-17558987D01*
X4239935Y-18027099D01*
X2558518Y-18341411D01*
X855271Y-18499240D01*
X-855271Y-18499240D01*
X-2558518Y-18341411D01*
X-4239935Y-18027099D01*
X-5885179Y-17558987D01*
X-7480213Y-16941068D01*
X-9011428Y-16178613D01*
X-10465761Y-15278128D01*
X-11090896Y-14806048D01*
X-2235160Y-14806048D01*
X-2235160Y-15226991D01*
X-2217348Y-15407837D01*
X-2146958Y-15639882D01*
X-2032651Y-15853735D01*
X-1878820Y-16041180D01*
X-1691376Y-16195011D01*
X-1477523Y-16309318D01*
X-1245478Y-16379708D01*
X-1004160Y-16403476D01*
X-762843Y-16379708D01*
X-530798Y-16309318D01*
X-316945Y-16195011D01*
X-129500Y-16041180D01*
X24331Y-15853736D01*
X138638Y-15639883D01*
X209028Y-15407838D01*
X226840Y-15226992D01*
X226840Y-14806049D01*
X209028Y-14625203D01*
X138638Y-14393158D01*
X70949Y-14266520D01*
X262997Y-14266520D01*
X262997Y-15766520D01*
X275157Y-15889982D01*
X311169Y-16008699D01*
X369650Y-16118109D01*
X448352Y-16214008D01*
X544251Y-16292710D01*
X653661Y-16351191D01*
X772378Y-16387203D01*
X895840Y-16399363D01*
X2095840Y-16399363D01*
X2219302Y-16387203D01*
X2338019Y-16351191D01*
X2447429Y-16292710D01*
X2543328Y-16214008D01*
X2622030Y-16118109D01*
X2680511Y-16008699D01*
X2716523Y-15889982D01*
X2728683Y-15766520D01*
X2728683Y-14266520D01*
X2716523Y-14143058D01*
X2680511Y-14024341D01*
X2622030Y-13914931D01*
X2543328Y-13819032D01*
X2447429Y-13740330D01*
X2338019Y-13681849D01*
X2219302Y-13645837D01*
X2095840Y-13633677D01*
X895840Y-13633677D01*
X772378Y-13645837D01*
X653661Y-13681849D01*
X544251Y-13740330D01*
X448352Y-13819032D01*
X369650Y-13914931D01*
X311169Y-14024341D01*
X275157Y-14143058D01*
X262997Y-14266520D01*
X70949Y-14266520D01*
X24331Y-14179305D01*
X-129500Y-13991860D01*
X-316944Y-13838029D01*
X-530797Y-13723722D01*
X-762842Y-13653332D01*
X-1004160Y-13629564D01*
X-1245477Y-13653332D01*
X-1477522Y-13723722D01*
X-1691375Y-13838029D01*
X-1878819Y-13991860D01*
X-2032650Y-14179304D01*
X-2146958Y-14393157D01*
X-2217348Y-14625202D01*
X-2235160Y-14806048D01*
X-11090896Y-14806048D01*
X-11830804Y-14247296D01*
X-13094910Y-13094910D01*
X-14247296Y-11830804D01*
X-15278128Y-10465761D01*
X-15290977Y-10445008D01*
X1344000Y-10445008D01*
X1344000Y-10654992D01*
X1384966Y-10860941D01*
X1465323Y-11054940D01*
X1581984Y-11229535D01*
X1730465Y-11378016D01*
X1905060Y-11494677D01*
X2099059Y-11575034D01*
X2305008Y-11616000D01*
X2514992Y-11616000D01*
X2720941Y-11575034D01*
X2914940Y-11494677D01*
X3089535Y-11378016D01*
X3238016Y-11229535D01*
X3354677Y-11054940D01*
X3435034Y-10860941D01*
X3476000Y-10654992D01*
X3476000Y-10445008D01*
X3435034Y-10239059D01*
X3354677Y-10045060D01*
X3238016Y-9870465D01*
X3089535Y-9721984D01*
X2914940Y-9605323D01*
X2720941Y-9524966D01*
X2514992Y-9484000D01*
X2305008Y-9484000D01*
X2099059Y-9524966D01*
X1905060Y-9605323D01*
X1730465Y-9721984D01*
X1581984Y-9870465D01*
X1465323Y-10045060D01*
X1384966Y-10239059D01*
X1344000Y-10445008D01*
X-15290977Y-10445008D01*
X-16178613Y-9011428D01*
X-16239423Y-8889305D01*
X10748509Y-8889305D01*
X10788009Y-9128552D01*
X10873425Y-9355496D01*
X11001474Y-9561415D01*
X11167236Y-9738397D01*
X11314947Y-9844245D01*
X11679495Y-10054717D01*
X11845018Y-10129714D01*
X12081169Y-10184777D01*
X12323525Y-10192711D01*
X12562772Y-10153211D01*
X12789715Y-10067795D01*
X12995634Y-9939746D01*
X13172616Y-9773984D01*
X13313859Y-9576881D01*
X13413934Y-9356009D01*
X13468997Y-9119857D01*
X13476930Y-8877502D01*
X13437431Y-8638256D01*
X13352015Y-8411312D01*
X13223966Y-8205393D01*
X13058204Y-8028411D01*
X12910493Y-7922563D01*
X12545945Y-7712091D01*
X12380421Y-7637094D01*
X12144269Y-7582031D01*
X11901915Y-7574097D01*
X11662668Y-7613597D01*
X11435724Y-7699013D01*
X11229805Y-7827062D01*
X11052823Y-7992824D01*
X10911581Y-8189927D01*
X10811506Y-8410799D01*
X10756443Y-8646951D01*
X10748509Y-8889305D01*
X-16239423Y-8889305D01*
X-16941068Y-7480213D01*
X-17164160Y-6904345D01*
X11781713Y-6904345D01*
X11801922Y-7026747D01*
X11845621Y-7142854D01*
X11911133Y-7248205D01*
X11995939Y-7338752D01*
X12096779Y-7411013D01*
X13395817Y-8161013D01*
X13508818Y-8212213D01*
X13629636Y-8240384D01*
X13753629Y-8244443D01*
X13876031Y-8224234D01*
X13992138Y-8180535D01*
X14097489Y-8115023D01*
X14188035Y-8030217D01*
X14260297Y-7929377D01*
X14860297Y-6890147D01*
X14911497Y-6777146D01*
X14939668Y-6656328D01*
X14943727Y-6532335D01*
X14923518Y-6409933D01*
X14879819Y-6293826D01*
X14814307Y-6188475D01*
X14729501Y-6097928D01*
X14628661Y-6025667D01*
X13329623Y-5275667D01*
X13216622Y-5224467D01*
X13095804Y-5196296D01*
X12971811Y-5192237D01*
X12849409Y-5212446D01*
X12733302Y-5256145D01*
X12627951Y-5321657D01*
X12537405Y-5406463D01*
X12465143Y-5507303D01*
X11865143Y-6546533D01*
X11813943Y-6659534D01*
X11785772Y-6780352D01*
X11781713Y-6904345D01*
X-17164160Y-6904345D01*
X-17558987Y-5885179D01*
X-18027099Y-4239935D01*
X-18341411Y-2558518D01*
X-18499240Y-855271D01*
X-18499240Y855271D01*
X-18341411Y2558518D01*
X-18027099Y4239935D01*
X-17558987Y5885179D01*
X-16941068Y7480213D01*
X-16259532Y8848921D01*
X-12669160Y8848921D01*
X-12669160Y8478397D01*
X-12596874Y8114992D01*
X-12455080Y7772672D01*
X-12249228Y7464592D01*
X-11987227Y7202591D01*
X-11679147Y6996739D01*
X-11336827Y6854945D01*
X-10973422Y6782659D01*
X-10602898Y6782659D01*
X-10239493Y6854945D01*
X-9897173Y6996739D01*
X-9589093Y7202591D01*
X-9327092Y7464592D01*
X-9121240Y7772672D01*
X-8979446Y8114992D01*
X-8907160Y8478397D01*
X-8907160Y8848921D01*
X-8979446Y9212326D01*
X-9121240Y9554646D01*
X-9327092Y9862726D01*
X-9589093Y10124727D01*
X-9897173Y10330579D01*
X-10239493Y10472373D01*
X-10602898Y10544659D01*
X-10973422Y10544659D01*
X-11336827Y10472373D01*
X-11679147Y10330579D01*
X-11987227Y10124727D01*
X-12249228Y9862726D01*
X-12455080Y9554646D01*
X-12596874Y9212326D01*
X-12669160Y8848921D01*
X-16259532Y8848921D01*
X-16178613Y9011428D01*
X-15278128Y10465761D01*
X-15135228Y10654992D01*
X1344000Y10654992D01*
X1344000Y10445008D01*
X1384966Y10239059D01*
X1465323Y10045060D01*
X1581984Y9870465D01*
X1730465Y9721984D01*
X1905060Y9605323D01*
X2099059Y9524966D01*
X2305008Y9484000D01*
X2514992Y9484000D01*
X2720941Y9524966D01*
X2914940Y9605323D01*
X3089535Y9721984D01*
X3238016Y9870465D01*
X3354677Y10045060D01*
X3435034Y10239059D01*
X3476000Y10445008D01*
X3476000Y10654992D01*
X3435034Y10860941D01*
X3354677Y11054940D01*
X3238016Y11229535D01*
X3089535Y11378016D01*
X2914940Y11494677D01*
X2720941Y11575034D01*
X2514992Y11616000D01*
X2305008Y11616000D01*
X2099059Y11575034D01*
X1905060Y11494677D01*
X1730465Y11378016D01*
X1581984Y11229535D01*
X1465323Y11054940D01*
X1384966Y10860941D01*
X1344000Y10654992D01*
X-15135228Y10654992D01*
X-14247296Y11830804D01*
X-13094910Y13094910D01*
X-11830804Y14247296D01*
X-10465761Y15278128D01*
X-9011428Y16178613D01*
X-7480213Y16941068D01*
X-5885179Y17558987D01*
X-4239935Y18027099D01*
X-2558518Y18341411D01*
X-855271Y18499240D01*
X855271Y18499240D01*
X2558518Y18341411D01*
G37*
G04 #@! TD.AperFunction*
M02*
