G04 #@! TF.GenerationSoftware,KiCad,Pcbnew,(5.1.10)-1*
G04 #@! TF.CreationDate,2021-05-29T17:35:04+08:00*
G04 #@! TF.ProjectId,tiny_V1.0,74696e79-5f56-4312-9e30-2e6b69636164,rev?*
G04 #@! TF.SameCoordinates,Original*
G04 #@! TF.FileFunction,Copper,L2,Bot*
G04 #@! TF.FilePolarity,Positive*
%FSLAX46Y46*%
G04 Gerber Fmt 4.6, Leading zero omitted, Abs format (unit mm)*
G04 Created by KiCad (PCBNEW (5.1.10)-1) date 2021-05-29 17:35:04*
%MOMM*%
%LPD*%
G01*
G04 APERTURE LIST*
G04 #@! TA.AperFunction,ComponentPad*
%ADD10O,1.950000X1.700000*%
G04 #@! TD*
G04 #@! TA.AperFunction,ComponentPad*
%ADD11C,3.000000*%
G04 #@! TD*
G04 #@! TA.AperFunction,ComponentPad*
%ADD12R,3.000000X3.000000*%
G04 #@! TD*
G04 #@! TA.AperFunction,SMDPad,CuDef*
%ADD13R,1.900000X1.800000*%
G04 #@! TD*
G04 #@! TA.AperFunction,ComponentPad*
%ADD14O,1.000000X1.000000*%
G04 #@! TD*
G04 #@! TA.AperFunction,ComponentPad*
%ADD15R,1.000000X1.000000*%
G04 #@! TD*
G04 #@! TA.AperFunction,ComponentPad*
%ADD16C,0.100000*%
G04 #@! TD*
G04 #@! TA.AperFunction,ViaPad*
%ADD17C,0.800000*%
G04 #@! TD*
G04 #@! TA.AperFunction,ViaPad*
%ADD18C,0.600000*%
G04 #@! TD*
G04 #@! TA.AperFunction,Conductor*
%ADD19C,0.635000*%
G04 #@! TD*
G04 #@! TA.AperFunction,Conductor*
%ADD20C,0.762000*%
G04 #@! TD*
G04 #@! TA.AperFunction,Conductor*
%ADD21C,1.524000*%
G04 #@! TD*
G04 #@! TA.AperFunction,Conductor*
%ADD22C,1.270000*%
G04 #@! TD*
G04 #@! TA.AperFunction,Conductor*
%ADD23C,0.254000*%
G04 #@! TD*
G04 #@! TA.AperFunction,Conductor*
%ADD24C,0.203200*%
G04 #@! TD*
G04 #@! TA.AperFunction,Conductor*
%ADD25C,0.100000*%
G04 #@! TD*
G04 APERTURE END LIST*
D10*
X12976640Y-8342680D03*
X12976640Y-5842680D03*
G04 #@! TA.AperFunction,ComponentPad*
G36*
G01*
X12251640Y-2492680D02*
X13701640Y-2492680D01*
G75*
G02*
X13951640Y-2742680I0J-250000D01*
G01*
X13951640Y-3942680D01*
G75*
G02*
X13701640Y-4192680I-250000J0D01*
G01*
X12251640Y-4192680D01*
G75*
G02*
X12001640Y-3942680I0J250000D01*
G01*
X12001640Y-2742680D01*
G75*
G02*
X12251640Y-2492680I250000J0D01*
G01*
G37*
G04 #@! TD.AperFunction*
X12953780Y2586940D03*
X12953780Y5086940D03*
G04 #@! TA.AperFunction,ComponentPad*
G36*
G01*
X12228780Y8436940D02*
X13678780Y8436940D01*
G75*
G02*
X13928780Y8186940I0J-250000D01*
G01*
X13928780Y6986940D01*
G75*
G02*
X13678780Y6736940I-250000J0D01*
G01*
X12228780Y6736940D01*
G75*
G02*
X11978780Y6986940I0J250000D01*
G01*
X11978780Y8186940D01*
G75*
G02*
X12228780Y8436940I250000J0D01*
G01*
G37*
G04 #@! TD.AperFunction*
D11*
X1916360Y-15582940D03*
D12*
X-1963640Y-15582940D03*
D13*
X-2590000Y2000000D03*
X-2590000Y6000000D03*
X-2590000Y10000000D03*
X-2590000Y-6000000D03*
X-2590000Y-10000000D03*
X-2590000Y-2000000D03*
X2590000Y-10000000D03*
X2590000Y-6000000D03*
X2590000Y-2000000D03*
X2590000Y10000000D03*
X2590000Y6000000D03*
X2590000Y2000000D03*
D14*
X423960Y16923980D03*
X-846040Y16923980D03*
X-2116040Y16923980D03*
D15*
X-3386040Y16923980D03*
G04 #@! TA.AperFunction,ComponentPad*
G36*
G01*
X7476064Y11574122D02*
X7476064Y11574122D01*
G75*
G02*
X7476064Y12528716I477297J477297D01*
G01*
X7476064Y12528716D01*
G75*
G02*
X8430658Y12528716I477297J-477297D01*
G01*
X8430658Y12528716D01*
G75*
G02*
X8430658Y11574122I-477297J-477297D01*
G01*
X8430658Y11574122D01*
G75*
G02*
X7476064Y11574122I-477297J477297D01*
G01*
G37*
G04 #@! TD.AperFunction*
G04 #@! TA.AperFunction,ComponentPad*
G36*
G01*
X6061850Y12988336D02*
X6061850Y12988336D01*
G75*
G02*
X6061850Y13942930I477297J477297D01*
G01*
X6061850Y13942930D01*
G75*
G02*
X7016444Y13942930I477297J-477297D01*
G01*
X7016444Y13942930D01*
G75*
G02*
X7016444Y12988336I-477297J-477297D01*
G01*
X7016444Y12988336D01*
G75*
G02*
X6061850Y12988336I-477297J477297D01*
G01*
G37*
G04 #@! TD.AperFunction*
G04 #@! TA.AperFunction,ComponentPad*
G36*
G01*
X4647637Y14402549D02*
X4647637Y14402549D01*
G75*
G02*
X4647637Y15357143I477297J477297D01*
G01*
X4647637Y15357143D01*
G75*
G02*
X5602231Y15357143I477297J-477297D01*
G01*
X5602231Y15357143D01*
G75*
G02*
X5602231Y14402549I-477297J-477297D01*
G01*
X5602231Y14402549D01*
G75*
G02*
X4647637Y14402549I-477297J477297D01*
G01*
G37*
G04 #@! TD.AperFunction*
G04 #@! TA.AperFunction,ComponentPad*
D16*
G36*
X3710720Y15339466D02*
G01*
X2756126Y16294060D01*
X3710720Y17248654D01*
X4665314Y16294060D01*
X3710720Y15339466D01*
G37*
G04 #@! TD.AperFunction*
D17*
X3200180Y2481540D03*
X2163860Y2552660D03*
X7314980Y8402280D03*
X7254020Y3657560D03*
X7274340Y5852120D03*
X-3949920Y13860740D03*
X-3955000Y12865060D03*
X-8493980Y13020000D03*
X-7693880Y13007300D03*
D18*
X-11046680Y-11264940D03*
D17*
X-10579320Y-9321840D03*
X-11689300Y-9321840D03*
X-12735780Y-9296440D03*
X-10553920Y-8100100D03*
X-11638500Y-8074700D03*
X-12748480Y-8087400D03*
X5336320Y-261660D03*
X5920520Y-1432600D03*
X6649500Y-7899440D03*
X10403620Y-7942620D03*
X8475760Y-5290860D03*
X6065300Y-14787920D03*
X10690640Y-13015000D03*
X-15588200Y-8074700D03*
X-14838900Y-9746020D03*
X-3464780Y-12753380D03*
X-2057620Y-12753380D03*
X-6804880Y-12702580D03*
X2199420Y3571200D03*
X3164620Y3561040D03*
X-9814780Y9786580D03*
X-8560020Y9804360D03*
X-7254460Y9822140D03*
X-5484080Y9855160D03*
X-2532600Y12105600D03*
X6527580Y-5318800D03*
X2003840Y15039300D03*
X2722660Y13825180D03*
D18*
X7414040Y-2697520D03*
X8074824Y-2697516D03*
X10944640Y-2131100D03*
X11420890Y-1644690D03*
D17*
X-12911040Y11793180D03*
X-14402020Y10886400D03*
X-13487620Y10878780D03*
X-13911800Y11755080D03*
X-2568160Y7787600D03*
X-3485100Y10939740D03*
X-2568160Y8724860D03*
X-2590000Y9884120D03*
X-2568160Y6454100D03*
D18*
X4266980Y-3401100D03*
X4266980Y-2044740D03*
X-11041600Y-12392700D03*
X-10998420Y-13213120D03*
X-142170Y1650960D03*
D17*
X-1643600Y-5946180D03*
X1828580Y-5946180D03*
D18*
X-378571Y2368643D03*
D19*
X7414040Y-2697520D02*
X8074820Y-2697520D01*
X8074820Y-2697520D02*
X8074824Y-2697516D01*
X10368064Y-2697516D02*
X11420890Y-1644690D01*
X8074824Y-2697516D02*
X10368064Y-2697516D01*
D20*
X-13495240Y10886400D02*
X-13487620Y10878780D01*
D21*
X-2590000Y6000000D02*
X-2590000Y9884120D01*
X2075599Y9485599D02*
X2590000Y10000000D01*
X-2075599Y9485599D02*
X2075599Y9485599D01*
X-2590000Y10000000D02*
X-2075599Y9485599D01*
X2590000Y6000000D02*
X-2590000Y6000000D01*
X-2590000Y9884120D02*
X-2590000Y10000000D01*
D22*
X10639780Y10000000D02*
X12941080Y7698700D01*
X2590000Y10000000D02*
X10639780Y10000000D01*
D21*
X12974100Y-3340140D02*
X12976640Y-3342680D01*
D22*
X10639780Y10000000D02*
X10639780Y1356380D01*
X12976640Y-980480D02*
X12976640Y-3342680D01*
X10639780Y1356380D02*
X12976640Y-980480D01*
X2590000Y6000000D02*
X2590000Y10000000D01*
D21*
X-13961696Y11318200D02*
X-14044216Y11235680D01*
X-3908200Y11318200D02*
X-13961696Y11318200D01*
X-2590000Y10000000D02*
X-3908200Y11318200D01*
D23*
X4266980Y-3401100D02*
X4266980Y-2044740D01*
D24*
X2590000Y-10000000D02*
X-2590000Y-10000000D01*
X-2590000Y-10000000D02*
X-1436800Y-10000000D01*
X-1436800Y-10000000D02*
X-142170Y-8705370D01*
X-142170Y-8705370D02*
X-142170Y1650960D01*
X-2590000Y-6000000D02*
X-1697420Y-6000000D01*
X-1697420Y-6000000D02*
X-1643600Y-5946180D01*
X-696180Y-4998760D02*
X-696180Y2051034D01*
X-1643600Y-5946180D02*
X-696180Y-4998760D01*
X-696180Y2051034D02*
X-378571Y2368643D01*
D23*
X-12006524Y12056909D02*
X-13369729Y10306576D01*
X-13383028Y10285529D01*
X-13391965Y10262292D01*
X-13396530Y10227767D01*
X-13368591Y5635683D01*
X-13351099Y-2156087D01*
X-17800280Y-2141673D01*
X-17765081Y5160832D01*
X-17558987Y5885179D01*
X-16941068Y7480213D01*
X-16178613Y9011428D01*
X-15278128Y10465761D01*
X-14247296Y11830804D01*
X-14010448Y12090613D01*
X-13977305Y12092823D01*
X-12006524Y12056909D01*
G04 #@! TA.AperFunction,Conductor*
D25*
G36*
X-12006524Y12056909D02*
G01*
X-13369729Y10306576D01*
X-13383028Y10285529D01*
X-13391965Y10262292D01*
X-13396530Y10227767D01*
X-13368591Y5635683D01*
X-13351099Y-2156087D01*
X-17800280Y-2141673D01*
X-17765081Y5160832D01*
X-17558987Y5885179D01*
X-16941068Y7480213D01*
X-16178613Y9011428D01*
X-15278128Y10465761D01*
X-14247296Y11830804D01*
X-14010448Y12090613D01*
X-13977305Y12092823D01*
X-12006524Y12056909D01*
G37*
G04 #@! TD.AperFunction*
D23*
X-10755745Y-12197483D02*
X-10753405Y-12222269D01*
X-10746274Y-12246122D01*
X-10734626Y-12268126D01*
X-10724998Y-12280848D01*
X-9225128Y-14023288D01*
X-9207115Y-14040473D01*
X-9186095Y-14053815D01*
X-9162876Y-14062799D01*
X-9128876Y-14067435D01*
X-421533Y-14067435D01*
X-414360Y-18141518D01*
X-3638348Y-18139555D01*
X-4239935Y-18027099D01*
X-5818840Y-17577862D01*
X-7883813Y-16740099D01*
X-9011428Y-16178613D01*
X-10465761Y-15278128D01*
X-11498283Y-14498404D01*
X-11486366Y-10441886D01*
X-10748643Y-10436218D01*
X-10755745Y-12197483D01*
G04 #@! TA.AperFunction,Conductor*
D25*
G36*
X-10755745Y-12197483D02*
G01*
X-10753405Y-12222269D01*
X-10746274Y-12246122D01*
X-10734626Y-12268126D01*
X-10724998Y-12280848D01*
X-9225128Y-14023288D01*
X-9207115Y-14040473D01*
X-9186095Y-14053815D01*
X-9162876Y-14062799D01*
X-9128876Y-14067435D01*
X-421533Y-14067435D01*
X-414360Y-18141518D01*
X-3638348Y-18139555D01*
X-4239935Y-18027099D01*
X-5818840Y-17577862D01*
X-7883813Y-16740099D01*
X-9011428Y-16178613D01*
X-10465761Y-15278128D01*
X-11498283Y-14498404D01*
X-11486366Y-10441886D01*
X-10748643Y-10436218D01*
X-10755745Y-12197483D01*
G37*
G04 #@! TD.AperFunction*
D23*
X2558518Y18341411D02*
X4239935Y18027099D01*
X5885179Y17558987D01*
X7480213Y16941068D01*
X9011428Y16178613D01*
X10465761Y15278128D01*
X11830804Y14247296D01*
X13094910Y13094910D01*
X14247296Y11830804D01*
X15278128Y10465761D01*
X16178613Y9011428D01*
X16941068Y7480213D01*
X17558987Y5885179D01*
X18027099Y4239935D01*
X18341411Y2558518D01*
X18499240Y855271D01*
X18499240Y-855271D01*
X18341411Y-2558518D01*
X18027099Y-4239935D01*
X17558987Y-5885179D01*
X16941068Y-7480213D01*
X16178613Y-9011428D01*
X15278128Y-10465761D01*
X14247296Y-11830804D01*
X13094910Y-13094910D01*
X11830804Y-14247296D01*
X10465761Y-15278128D01*
X9011428Y-16178613D01*
X7480213Y-16941068D01*
X5885179Y-17558987D01*
X4239935Y-18027099D01*
X2558518Y-18341411D01*
X855271Y-18499240D01*
X14055Y-18499240D01*
X30026Y-18479709D01*
X65118Y-18413777D01*
X86673Y-18342266D01*
X93863Y-18267924D01*
X86243Y-13939764D01*
X78923Y-13866106D01*
X57242Y-13794633D01*
X22034Y-13728763D01*
X-25348Y-13671027D01*
X-83084Y-13623645D01*
X-148954Y-13588437D01*
X-220427Y-13566756D01*
X-294756Y-13559435D01*
X-8954124Y-13559435D01*
X-10247175Y-12057262D01*
X-10240129Y-10309771D01*
X-10248029Y-10231037D01*
X-10270258Y-10159733D01*
X-10305972Y-10094135D01*
X-10353796Y-10036766D01*
X-10411894Y-9989828D01*
X-10478032Y-9955127D01*
X-10549669Y-9933996D01*
X-10624053Y-9927246D01*
X-11615923Y-9934866D01*
X-11686227Y-9941959D01*
X-11757764Y-9963430D01*
X-11823737Y-9998445D01*
X-11881611Y-10045657D01*
X-11929163Y-10103253D01*
X-11964564Y-10169019D01*
X-11986455Y-10240428D01*
X-11993994Y-10314736D01*
X-12005080Y-14088422D01*
X-13094910Y-13094910D01*
X-14247296Y-11830804D01*
X-15278128Y-10465761D01*
X-16178613Y-9011428D01*
X-16941068Y-7480213D01*
X-17558987Y-5885179D01*
X-17782389Y-5100000D01*
X-3922843Y-5100000D01*
X-3922843Y-6900000D01*
X-3915487Y-6974689D01*
X-3893701Y-7046508D01*
X-3858322Y-7112696D01*
X-3810711Y-7170711D01*
X-3752696Y-7218322D01*
X-3686508Y-7253701D01*
X-3614689Y-7275487D01*
X-3540000Y-7282843D01*
X-1640000Y-7282843D01*
X-1565311Y-7275487D01*
X-1493492Y-7253701D01*
X-1427304Y-7218322D01*
X-1369289Y-7170711D01*
X-1321678Y-7112696D01*
X-1286299Y-7046508D01*
X-1264513Y-6974689D01*
X-1257157Y-6900000D01*
X-1257157Y-6627267D01*
X-1145741Y-6552822D01*
X-1036958Y-6444039D01*
X-951487Y-6316122D01*
X-892613Y-6173989D01*
X-862600Y-6023102D01*
X-862600Y-5869258D01*
X-866180Y-5851259D01*
X-624770Y-5609849D01*
X-624770Y-8505471D01*
X-1257157Y-9137858D01*
X-1257157Y-9100000D01*
X-1264513Y-9025311D01*
X-1286299Y-8953492D01*
X-1321678Y-8887304D01*
X-1369289Y-8829289D01*
X-1427304Y-8781678D01*
X-1493492Y-8746299D01*
X-1565311Y-8724513D01*
X-1640000Y-8717157D01*
X-3540000Y-8717157D01*
X-3614689Y-8724513D01*
X-3686508Y-8746299D01*
X-3752696Y-8781678D01*
X-3810711Y-8829289D01*
X-3858322Y-8887304D01*
X-3893701Y-8953492D01*
X-3915487Y-9025311D01*
X-3922843Y-9100000D01*
X-3922843Y-10900000D01*
X-3915487Y-10974689D01*
X-3893701Y-11046508D01*
X-3858322Y-11112696D01*
X-3810711Y-11170711D01*
X-3752696Y-11218322D01*
X-3686508Y-11253701D01*
X-3614689Y-11275487D01*
X-3540000Y-11282843D01*
X-1640000Y-11282843D01*
X-1565311Y-11275487D01*
X-1493492Y-11253701D01*
X-1427304Y-11218322D01*
X-1369289Y-11170711D01*
X-1321678Y-11112696D01*
X-1286299Y-11046508D01*
X-1264513Y-10974689D01*
X-1257157Y-10900000D01*
X-1257157Y-10482600D01*
X-834123Y-10482600D01*
X-869351Y-10535322D01*
X-943301Y-10713853D01*
X-981000Y-10903380D01*
X-981000Y-11096620D01*
X-943301Y-11286147D01*
X-869351Y-11464678D01*
X-761993Y-11625351D01*
X-625351Y-11761993D01*
X-464678Y-11869351D01*
X-286147Y-11943301D01*
X-96620Y-11981000D01*
X96620Y-11981000D01*
X286147Y-11943301D01*
X464678Y-11869351D01*
X625351Y-11761993D01*
X761993Y-11625351D01*
X869351Y-11464678D01*
X943301Y-11286147D01*
X981000Y-11096620D01*
X981000Y-10903380D01*
X943301Y-10713853D01*
X869351Y-10535322D01*
X834123Y-10482600D01*
X1257157Y-10482600D01*
X1257157Y-10900000D01*
X1264513Y-10974689D01*
X1286299Y-11046508D01*
X1321678Y-11112696D01*
X1369289Y-11170711D01*
X1427304Y-11218322D01*
X1493492Y-11253701D01*
X1565311Y-11275487D01*
X1640000Y-11282843D01*
X3540000Y-11282843D01*
X3614689Y-11275487D01*
X3686508Y-11253701D01*
X3752696Y-11218322D01*
X3810711Y-11170711D01*
X3858322Y-11112696D01*
X3893701Y-11046508D01*
X3915487Y-10974689D01*
X3922843Y-10900000D01*
X3922843Y-9100000D01*
X3915487Y-9025311D01*
X3893701Y-8953492D01*
X3858322Y-8887304D01*
X3810711Y-8829289D01*
X3752696Y-8781678D01*
X3686508Y-8746299D01*
X3614689Y-8724513D01*
X3540000Y-8717157D01*
X1640000Y-8717157D01*
X1565311Y-8724513D01*
X1493492Y-8746299D01*
X1427304Y-8781678D01*
X1369289Y-8829289D01*
X1321678Y-8887304D01*
X1286299Y-8953492D01*
X1264513Y-9025311D01*
X1257157Y-9100000D01*
X1257157Y-9517400D01*
X-271701Y-9517400D01*
X182312Y-9063387D01*
X200731Y-9048271D01*
X261039Y-8974785D01*
X305852Y-8890947D01*
X333447Y-8799976D01*
X340430Y-8729077D01*
X340430Y-8729076D01*
X342765Y-8705371D01*
X340430Y-8681666D01*
X340430Y-5869258D01*
X1047580Y-5869258D01*
X1047580Y-6023102D01*
X1077593Y-6173989D01*
X1136467Y-6316122D01*
X1221938Y-6444039D01*
X1257157Y-6479258D01*
X1257157Y-6900000D01*
X1264513Y-6974689D01*
X1286299Y-7046508D01*
X1321678Y-7112696D01*
X1369289Y-7170711D01*
X1427304Y-7218322D01*
X1493492Y-7253701D01*
X1565311Y-7275487D01*
X1640000Y-7282843D01*
X3540000Y-7282843D01*
X3614689Y-7275487D01*
X3686508Y-7253701D01*
X3752696Y-7218322D01*
X3810711Y-7170711D01*
X3858322Y-7112696D01*
X3893701Y-7046508D01*
X3915487Y-6974689D01*
X3922843Y-6900000D01*
X3922843Y-5842680D01*
X11614684Y-5842680D01*
X11638452Y-6083998D01*
X11708842Y-6316043D01*
X11823149Y-6529896D01*
X11976980Y-6717340D01*
X12164424Y-6871171D01*
X12378277Y-6985478D01*
X12610322Y-7055868D01*
X12791168Y-7073680D01*
X13162112Y-7073680D01*
X13342958Y-7055868D01*
X13575003Y-6985478D01*
X13788856Y-6871171D01*
X13976300Y-6717340D01*
X14130131Y-6529896D01*
X14244438Y-6316043D01*
X14314828Y-6083998D01*
X14338596Y-5842680D01*
X14314828Y-5601362D01*
X14244438Y-5369317D01*
X14130131Y-5155464D01*
X13976300Y-4968020D01*
X13788856Y-4814189D01*
X13575003Y-4699882D01*
X13342958Y-4629492D01*
X13162112Y-4611680D01*
X12791168Y-4611680D01*
X12610322Y-4629492D01*
X12378277Y-4699882D01*
X12164424Y-4814189D01*
X11976980Y-4968020D01*
X11823149Y-5155464D01*
X11708842Y-5369317D01*
X11638452Y-5601362D01*
X11614684Y-5842680D01*
X3922843Y-5842680D01*
X3922843Y-5100000D01*
X3915487Y-5025311D01*
X3893701Y-4953492D01*
X3858322Y-4887304D01*
X3810711Y-4829289D01*
X3752696Y-4781678D01*
X3686508Y-4746299D01*
X3614689Y-4724513D01*
X3540000Y-4717157D01*
X1640000Y-4717157D01*
X1565311Y-4724513D01*
X1493492Y-4746299D01*
X1427304Y-4781678D01*
X1369289Y-4829289D01*
X1321678Y-4887304D01*
X1286299Y-4953492D01*
X1264513Y-5025311D01*
X1257157Y-5100000D01*
X1257157Y-5413102D01*
X1221938Y-5448321D01*
X1136467Y-5576238D01*
X1077593Y-5718371D01*
X1047580Y-5869258D01*
X340430Y-5869258D01*
X340430Y-1977667D01*
X3585980Y-1977667D01*
X3585980Y-2111813D01*
X3612151Y-2243380D01*
X3663486Y-2367314D01*
X3738013Y-2478852D01*
X3758981Y-2499820D01*
X3758980Y-2946021D01*
X3738013Y-2966988D01*
X3663486Y-3078526D01*
X3612151Y-3202460D01*
X3585980Y-3334027D01*
X3585980Y-3468173D01*
X3612151Y-3599740D01*
X3663486Y-3723674D01*
X3738013Y-3835212D01*
X3832868Y-3930067D01*
X3944406Y-4004594D01*
X4068340Y-4055929D01*
X4199907Y-4082100D01*
X4334053Y-4082100D01*
X4465620Y-4055929D01*
X4589554Y-4004594D01*
X4701092Y-3930067D01*
X4795947Y-3835212D01*
X4870474Y-3723674D01*
X4921809Y-3599740D01*
X4947980Y-3468173D01*
X4947980Y-3334027D01*
X4921809Y-3202460D01*
X4870474Y-3078526D01*
X4795947Y-2966988D01*
X4774980Y-2946021D01*
X4774980Y-2499819D01*
X4795947Y-2478852D01*
X4870474Y-2367314D01*
X4921809Y-2243380D01*
X4947980Y-2111813D01*
X4947980Y-1977667D01*
X4921809Y-1846100D01*
X4870474Y-1722166D01*
X4795947Y-1610628D01*
X4701092Y-1515773D01*
X4589554Y-1441246D01*
X4465620Y-1389911D01*
X4334053Y-1363740D01*
X4199907Y-1363740D01*
X4068340Y-1389911D01*
X3944406Y-1441246D01*
X3832868Y-1515773D01*
X3738013Y-1610628D01*
X3663486Y-1722166D01*
X3612151Y-1846100D01*
X3585980Y-1977667D01*
X340430Y-1977667D01*
X340430Y1170481D01*
X386797Y1216848D01*
X461324Y1328386D01*
X512659Y1452320D01*
X538830Y1583887D01*
X538830Y1718033D01*
X512659Y1849600D01*
X461324Y1973534D01*
X386797Y2085072D01*
X291942Y2179927D01*
X279840Y2188013D01*
X302429Y2301570D01*
X302429Y2435716D01*
X276258Y2567283D01*
X224923Y2691217D01*
X150396Y2802755D01*
X55541Y2897610D01*
X-55997Y2972137D01*
X-179931Y3023472D01*
X-311498Y3049643D01*
X-445644Y3049643D01*
X-577211Y3023472D01*
X-701145Y2972137D01*
X-812683Y2897610D01*
X-907538Y2802755D01*
X-982065Y2691217D01*
X-1033400Y2567283D01*
X-1059571Y2435716D01*
X-1059571Y2368967D01*
X-1099388Y2320449D01*
X-1144202Y2236610D01*
X-1171796Y2145640D01*
X-1181115Y2051034D01*
X-1178779Y2027319D01*
X-1178780Y-4798861D01*
X-1302710Y-4922791D01*
X-1321678Y-4887304D01*
X-1369289Y-4829289D01*
X-1427304Y-4781678D01*
X-1493492Y-4746299D01*
X-1565311Y-4724513D01*
X-1640000Y-4717157D01*
X-3540000Y-4717157D01*
X-3614689Y-4724513D01*
X-3686508Y-4746299D01*
X-3752696Y-4781678D01*
X-3810711Y-4829289D01*
X-3858322Y-4887304D01*
X-3893701Y-4953492D01*
X-3915487Y-5025311D01*
X-3922843Y-5100000D01*
X-17782389Y-5100000D01*
X-18027099Y-4239935D01*
X-18341411Y-2558518D01*
X-18499240Y-855271D01*
X-18499240Y855271D01*
X-18341411Y2558518D01*
X-18284155Y2864809D01*
X-18308888Y-2266424D01*
X-18301810Y-2341378D01*
X-18280361Y-2412921D01*
X-18245366Y-2478905D01*
X-18198171Y-2536793D01*
X-18140589Y-2584363D01*
X-18074834Y-2619784D01*
X-18003432Y-2641696D01*
X-17929126Y-2649258D01*
X-13225046Y-2664498D01*
X-13148644Y-2657011D01*
X-13077220Y-2635170D01*
X-13011429Y-2599814D01*
X-12953800Y-2552302D01*
X-12906548Y-2494461D01*
X-12871487Y-2428512D01*
X-12849967Y-2356990D01*
X-12842813Y-2282645D01*
X-12860593Y5637075D01*
X-12860599Y5638538D01*
X-12887735Y10098701D01*
X-12828156Y10175200D01*
X-4381646Y10175200D01*
X-3922843Y9716397D01*
X-3922843Y9100000D01*
X-3915487Y9025311D01*
X-3893701Y8953492D01*
X-3858322Y8887304D01*
X-3810711Y8829289D01*
X-3752696Y8781678D01*
X-3732999Y8771150D01*
X-3733000Y7228850D01*
X-3752696Y7218322D01*
X-3810711Y7170711D01*
X-3858322Y7112696D01*
X-3893701Y7046508D01*
X-3915487Y6974689D01*
X-3922843Y6900000D01*
X-3922843Y5100000D01*
X-3915487Y5025311D01*
X-3893701Y4953492D01*
X-3858322Y4887304D01*
X-3810711Y4829289D01*
X-3752696Y4781678D01*
X-3686508Y4746299D01*
X-3614689Y4724513D01*
X-3540000Y4717157D01*
X-1640000Y4717157D01*
X-1565311Y4724513D01*
X-1493492Y4746299D01*
X-1427304Y4781678D01*
X-1369289Y4829289D01*
X-1346547Y4857000D01*
X1346547Y4857000D01*
X1369289Y4829289D01*
X1427304Y4781678D01*
X1493492Y4746299D01*
X1565311Y4724513D01*
X1640000Y4717157D01*
X3540000Y4717157D01*
X3614689Y4724513D01*
X3686508Y4746299D01*
X3752696Y4781678D01*
X3810711Y4829289D01*
X3858322Y4887304D01*
X3893701Y4953492D01*
X3915487Y5025311D01*
X3922843Y5100000D01*
X3922843Y6900000D01*
X3915487Y6974689D01*
X3893701Y7046508D01*
X3858322Y7112696D01*
X3810711Y7170711D01*
X3752696Y7218322D01*
X3686508Y7253701D01*
X3614689Y7275487D01*
X3606000Y7276343D01*
X3606000Y8723657D01*
X3614689Y8724513D01*
X3686508Y8746299D01*
X3752696Y8781678D01*
X3810711Y8829289D01*
X3858322Y8887304D01*
X3893701Y8953492D01*
X3902955Y8984000D01*
X9623780Y8984000D01*
X9623781Y1406292D01*
X9618865Y1356380D01*
X9638482Y1157210D01*
X9671773Y1047466D01*
X9696579Y965693D01*
X9790921Y789190D01*
X9917885Y634484D01*
X9956648Y602672D01*
X11511007Y-951688D01*
X11420890Y-942812D01*
X11283960Y-956298D01*
X11152292Y-996239D01*
X11030946Y-1061099D01*
X10951236Y-1126516D01*
X10078737Y-1999016D01*
X8109122Y-1999016D01*
X8074824Y-1995638D01*
X8040526Y-1999016D01*
X8040515Y-1999016D01*
X8040474Y-1999020D01*
X7379731Y-1999020D01*
X7277110Y-2009127D01*
X7145443Y-2049068D01*
X7024097Y-2113929D01*
X6917737Y-2201217D01*
X6830449Y-2307577D01*
X6765588Y-2428923D01*
X6725647Y-2560590D01*
X6712161Y-2697520D01*
X6725647Y-2834450D01*
X6765588Y-2966117D01*
X6830449Y-3087463D01*
X6917737Y-3193823D01*
X7024097Y-3281111D01*
X7145443Y-3345972D01*
X7277110Y-3385913D01*
X7379731Y-3396020D01*
X8040522Y-3396020D01*
X8074820Y-3399398D01*
X8109118Y-3396020D01*
X8109129Y-3396020D01*
X8109170Y-3396016D01*
X10333766Y-3396016D01*
X10368064Y-3399394D01*
X10402362Y-3396016D01*
X10402373Y-3396016D01*
X10504994Y-3385909D01*
X10636661Y-3345968D01*
X10758007Y-3281107D01*
X10864367Y-3193819D01*
X10886239Y-3167168D01*
X11939064Y-2114344D01*
X11960640Y-2088053D01*
X11960641Y-2184104D01*
X11900051Y-2216490D01*
X11804152Y-2295192D01*
X11725450Y-2391091D01*
X11666969Y-2500501D01*
X11630957Y-2619218D01*
X11618797Y-2742680D01*
X11618797Y-3942680D01*
X11630957Y-4066142D01*
X11666969Y-4184859D01*
X11725450Y-4294269D01*
X11804152Y-4390168D01*
X11900051Y-4468870D01*
X12009461Y-4527351D01*
X12128178Y-4563363D01*
X12251640Y-4575523D01*
X13701640Y-4575523D01*
X13825102Y-4563363D01*
X13943819Y-4527351D01*
X14053229Y-4468870D01*
X14149128Y-4390168D01*
X14227830Y-4294269D01*
X14286311Y-4184859D01*
X14322323Y-4066142D01*
X14334483Y-3942680D01*
X14334483Y-2742680D01*
X14322323Y-2619218D01*
X14286311Y-2500501D01*
X14227830Y-2391091D01*
X14149128Y-2295192D01*
X14053229Y-2216490D01*
X13992640Y-2184104D01*
X13992640Y-1030381D01*
X13997555Y-980479D01*
X13977938Y-781309D01*
X13919842Y-589794D01*
X13919842Y-589793D01*
X13825500Y-413290D01*
X13698536Y-258584D01*
X13659773Y-226772D01*
X11655780Y1777220D01*
X11655780Y4713140D01*
X11685982Y4613577D01*
X11800289Y4399724D01*
X11954120Y4212280D01*
X12141564Y4058449D01*
X12355417Y3944142D01*
X12587462Y3873752D01*
X12768308Y3855940D01*
X13139252Y3855940D01*
X13320098Y3873752D01*
X13552143Y3944142D01*
X13765996Y4058449D01*
X13953440Y4212280D01*
X14107271Y4399724D01*
X14221578Y4613577D01*
X14291968Y4845622D01*
X14315736Y5086940D01*
X14291968Y5328258D01*
X14221578Y5560303D01*
X14107271Y5774156D01*
X13953440Y5961600D01*
X13765996Y6115431D01*
X13552143Y6229738D01*
X13320098Y6300128D01*
X13139252Y6317940D01*
X12768308Y6317940D01*
X12587462Y6300128D01*
X12355417Y6229738D01*
X12141564Y6115431D01*
X11954120Y5961600D01*
X11800289Y5774156D01*
X11685982Y5560303D01*
X11655780Y5460740D01*
X11655780Y6722926D01*
X11702590Y6635351D01*
X11781292Y6539452D01*
X11877191Y6460750D01*
X11986601Y6402269D01*
X12105318Y6366257D01*
X12228780Y6354097D01*
X13678780Y6354097D01*
X13802242Y6366257D01*
X13920959Y6402269D01*
X14030369Y6460750D01*
X14126268Y6539452D01*
X14204970Y6635351D01*
X14263451Y6744761D01*
X14299463Y6863478D01*
X14311623Y6986940D01*
X14311623Y8186940D01*
X14299463Y8310402D01*
X14263451Y8429119D01*
X14204970Y8538529D01*
X14126268Y8634428D01*
X14030369Y8713130D01*
X13920959Y8771611D01*
X13802242Y8807623D01*
X13678780Y8819783D01*
X13256838Y8819783D01*
X11393492Y10683128D01*
X11361676Y10721896D01*
X11206970Y10848860D01*
X11030467Y10943202D01*
X10838951Y11001298D01*
X10689682Y11016000D01*
X10639780Y11020915D01*
X10589878Y11016000D01*
X8160837Y11016000D01*
X8261385Y11036000D01*
X8453565Y11115604D01*
X8626522Y11231170D01*
X8773610Y11378258D01*
X8889176Y11551215D01*
X8968780Y11743395D01*
X9009361Y11947412D01*
X9009361Y12155426D01*
X8968780Y12359443D01*
X8889176Y12551623D01*
X8773610Y12724580D01*
X8626522Y12871668D01*
X8453565Y12987234D01*
X8261385Y13066838D01*
X8057368Y13107419D01*
X7849354Y13107419D01*
X7645337Y13066838D01*
X7490381Y13002653D01*
X7554566Y13157609D01*
X7595147Y13361626D01*
X7595147Y13569640D01*
X7554566Y13773657D01*
X7474962Y13965837D01*
X7359396Y14138794D01*
X7212308Y14285882D01*
X7039351Y14401448D01*
X6847171Y14481052D01*
X6643154Y14521633D01*
X6435140Y14521633D01*
X6231123Y14481052D01*
X6076168Y14416867D01*
X6140353Y14571822D01*
X6180934Y14775839D01*
X6180934Y14983853D01*
X6140353Y15187870D01*
X6060749Y15380050D01*
X5945183Y15553007D01*
X5798095Y15700095D01*
X5625138Y15815661D01*
X5432958Y15895265D01*
X5228941Y15935846D01*
X5020927Y15935846D01*
X4816910Y15895265D01*
X4801599Y15888923D01*
X4936025Y16023349D01*
X4983636Y16081364D01*
X5019015Y16147552D01*
X5040801Y16219371D01*
X5048157Y16294060D01*
X5040801Y16368749D01*
X5019015Y16440568D01*
X4983636Y16506756D01*
X4936025Y16564771D01*
X3981431Y17519365D01*
X3923416Y17566976D01*
X3857228Y17602355D01*
X3785409Y17624141D01*
X3710720Y17631497D01*
X3636031Y17624141D01*
X3564212Y17602355D01*
X3498024Y17566976D01*
X3440009Y17519365D01*
X2485415Y16564771D01*
X2437804Y16506756D01*
X2402425Y16440568D01*
X2380639Y16368749D01*
X2373283Y16294060D01*
X2380639Y16219371D01*
X2402425Y16147552D01*
X2437804Y16081364D01*
X2485415Y16023349D01*
X3440009Y15068755D01*
X3498024Y15021144D01*
X3564212Y14985765D01*
X3636031Y14963979D01*
X3710720Y14956623D01*
X3785409Y14963979D01*
X3857228Y14985765D01*
X3923416Y15021144D01*
X3981431Y15068755D01*
X4115857Y15203181D01*
X4109515Y15187870D01*
X4068934Y14983853D01*
X4068934Y14775839D01*
X4109515Y14571822D01*
X4189119Y14379642D01*
X4304685Y14206685D01*
X4451773Y14059597D01*
X4624730Y13944031D01*
X4816910Y13864427D01*
X5020927Y13823846D01*
X5228941Y13823846D01*
X5432958Y13864427D01*
X5587913Y13928612D01*
X5523728Y13773657D01*
X5483147Y13569640D01*
X5483147Y13361626D01*
X5523728Y13157609D01*
X5603332Y12965429D01*
X5718898Y12792472D01*
X5865986Y12645384D01*
X6038943Y12529818D01*
X6231123Y12450214D01*
X6435140Y12409633D01*
X6643154Y12409633D01*
X6847171Y12450214D01*
X7002127Y12514399D01*
X6937942Y12359443D01*
X6897361Y12155426D01*
X6897361Y11947412D01*
X6937942Y11743395D01*
X7017546Y11551215D01*
X7133112Y11378258D01*
X7280200Y11231170D01*
X7453157Y11115604D01*
X7645337Y11036000D01*
X7745885Y11016000D01*
X3902955Y11016000D01*
X3893701Y11046508D01*
X3858322Y11112696D01*
X3810711Y11170711D01*
X3752696Y11218322D01*
X3686508Y11253701D01*
X3614689Y11275487D01*
X3540000Y11282843D01*
X1640000Y11282843D01*
X1565311Y11275487D01*
X1493492Y11253701D01*
X1427304Y11218322D01*
X1369289Y11170711D01*
X1321678Y11112696D01*
X1286299Y11046508D01*
X1264513Y10974689D01*
X1257157Y10900000D01*
X1257157Y10628599D01*
X907988Y10628599D01*
X943301Y10713853D01*
X981000Y10903380D01*
X981000Y11096620D01*
X943301Y11286147D01*
X869351Y11464678D01*
X761993Y11625351D01*
X625351Y11761993D01*
X464678Y11869351D01*
X286147Y11943301D01*
X96620Y11981000D01*
X-96620Y11981000D01*
X-286147Y11943301D01*
X-464678Y11869351D01*
X-625351Y11761993D01*
X-761993Y11625351D01*
X-869351Y11464678D01*
X-943301Y11286147D01*
X-981000Y11096620D01*
X-981000Y10903380D01*
X-943301Y10713853D01*
X-907988Y10628599D01*
X-1257157Y10628599D01*
X-1257157Y10900000D01*
X-1264513Y10974689D01*
X-1286299Y11046508D01*
X-1321678Y11112696D01*
X-1369289Y11170711D01*
X-1427304Y11218322D01*
X-1493492Y11253701D01*
X-1565311Y11275487D01*
X-1640000Y11282843D01*
X-2256397Y11282843D01*
X-3060273Y12086718D01*
X-3096067Y12130333D01*
X-3270111Y12273168D01*
X-3468677Y12379303D01*
X-3684133Y12444661D01*
X-3852054Y12461200D01*
X-3852061Y12461200D01*
X-3908200Y12466729D01*
X-3964339Y12461200D01*
X-11496520Y12461200D01*
X-11532851Y12492141D01*
X-11598068Y12528543D01*
X-11669134Y12551523D01*
X-11743318Y12560197D01*
X-13552313Y12593163D01*
X-13094910Y13094910D01*
X-11830804Y14247296D01*
X-10465761Y15278128D01*
X-9011428Y16178613D01*
X-7480213Y16941068D01*
X-6233673Y17423980D01*
X-4268883Y17423980D01*
X-4268883Y16423980D01*
X-4261527Y16349291D01*
X-4239741Y16277472D01*
X-4204362Y16211284D01*
X-4156751Y16153269D01*
X-4098736Y16105658D01*
X-4032548Y16070279D01*
X-3960729Y16048493D01*
X-3886040Y16041137D01*
X-2886040Y16041137D01*
X-2811351Y16048493D01*
X-2739532Y16070279D01*
X-2673344Y16105658D01*
X-2615329Y16153269D01*
X-2591608Y16182174D01*
X-2533350Y16143248D01*
X-2373018Y16076836D01*
X-2202811Y16042980D01*
X-2029269Y16042980D01*
X-1859062Y16076836D01*
X-1698730Y16143248D01*
X-1554435Y16239662D01*
X-1481040Y16313057D01*
X-1407645Y16239662D01*
X-1263350Y16143248D01*
X-1103018Y16076836D01*
X-932811Y16042980D01*
X-759269Y16042980D01*
X-589062Y16076836D01*
X-428730Y16143248D01*
X-284435Y16239662D01*
X-161722Y16362375D01*
X-65308Y16506670D01*
X1104Y16667002D01*
X34960Y16837209D01*
X34960Y17010751D01*
X1104Y17180958D01*
X-65308Y17341290D01*
X-161722Y17485585D01*
X-284435Y17608298D01*
X-428730Y17704712D01*
X-589062Y17771124D01*
X-759269Y17804980D01*
X-932811Y17804980D01*
X-1103018Y17771124D01*
X-1263350Y17704712D01*
X-1407645Y17608298D01*
X-1481040Y17534903D01*
X-1554435Y17608298D01*
X-1698730Y17704712D01*
X-1859062Y17771124D01*
X-2029269Y17804980D01*
X-2202811Y17804980D01*
X-2373018Y17771124D01*
X-2533350Y17704712D01*
X-2591608Y17665786D01*
X-2615329Y17694691D01*
X-2673344Y17742302D01*
X-2739532Y17777681D01*
X-2811351Y17799467D01*
X-2886040Y17806823D01*
X-3886040Y17806823D01*
X-3960729Y17799467D01*
X-4032548Y17777681D01*
X-4098736Y17742302D01*
X-4156751Y17694691D01*
X-4204362Y17636676D01*
X-4239741Y17570488D01*
X-4261527Y17498669D01*
X-4268883Y17423980D01*
X-6233673Y17423980D01*
X-5885179Y17558987D01*
X-4239935Y18027099D01*
X-2558518Y18341411D01*
X-855271Y18499240D01*
X855271Y18499240D01*
X2558518Y18341411D01*
G04 #@! TA.AperFunction,Conductor*
D25*
G36*
X2558518Y18341411D02*
G01*
X4239935Y18027099D01*
X5885179Y17558987D01*
X7480213Y16941068D01*
X9011428Y16178613D01*
X10465761Y15278128D01*
X11830804Y14247296D01*
X13094910Y13094910D01*
X14247296Y11830804D01*
X15278128Y10465761D01*
X16178613Y9011428D01*
X16941068Y7480213D01*
X17558987Y5885179D01*
X18027099Y4239935D01*
X18341411Y2558518D01*
X18499240Y855271D01*
X18499240Y-855271D01*
X18341411Y-2558518D01*
X18027099Y-4239935D01*
X17558987Y-5885179D01*
X16941068Y-7480213D01*
X16178613Y-9011428D01*
X15278128Y-10465761D01*
X14247296Y-11830804D01*
X13094910Y-13094910D01*
X11830804Y-14247296D01*
X10465761Y-15278128D01*
X9011428Y-16178613D01*
X7480213Y-16941068D01*
X5885179Y-17558987D01*
X4239935Y-18027099D01*
X2558518Y-18341411D01*
X855271Y-18499240D01*
X14055Y-18499240D01*
X30026Y-18479709D01*
X65118Y-18413777D01*
X86673Y-18342266D01*
X93863Y-18267924D01*
X86243Y-13939764D01*
X78923Y-13866106D01*
X57242Y-13794633D01*
X22034Y-13728763D01*
X-25348Y-13671027D01*
X-83084Y-13623645D01*
X-148954Y-13588437D01*
X-220427Y-13566756D01*
X-294756Y-13559435D01*
X-8954124Y-13559435D01*
X-10247175Y-12057262D01*
X-10240129Y-10309771D01*
X-10248029Y-10231037D01*
X-10270258Y-10159733D01*
X-10305972Y-10094135D01*
X-10353796Y-10036766D01*
X-10411894Y-9989828D01*
X-10478032Y-9955127D01*
X-10549669Y-9933996D01*
X-10624053Y-9927246D01*
X-11615923Y-9934866D01*
X-11686227Y-9941959D01*
X-11757764Y-9963430D01*
X-11823737Y-9998445D01*
X-11881611Y-10045657D01*
X-11929163Y-10103253D01*
X-11964564Y-10169019D01*
X-11986455Y-10240428D01*
X-11993994Y-10314736D01*
X-12005080Y-14088422D01*
X-13094910Y-13094910D01*
X-14247296Y-11830804D01*
X-15278128Y-10465761D01*
X-16178613Y-9011428D01*
X-16941068Y-7480213D01*
X-17558987Y-5885179D01*
X-17782389Y-5100000D01*
X-3922843Y-5100000D01*
X-3922843Y-6900000D01*
X-3915487Y-6974689D01*
X-3893701Y-7046508D01*
X-3858322Y-7112696D01*
X-3810711Y-7170711D01*
X-3752696Y-7218322D01*
X-3686508Y-7253701D01*
X-3614689Y-7275487D01*
X-3540000Y-7282843D01*
X-1640000Y-7282843D01*
X-1565311Y-7275487D01*
X-1493492Y-7253701D01*
X-1427304Y-7218322D01*
X-1369289Y-7170711D01*
X-1321678Y-7112696D01*
X-1286299Y-7046508D01*
X-1264513Y-6974689D01*
X-1257157Y-6900000D01*
X-1257157Y-6627267D01*
X-1145741Y-6552822D01*
X-1036958Y-6444039D01*
X-951487Y-6316122D01*
X-892613Y-6173989D01*
X-862600Y-6023102D01*
X-862600Y-5869258D01*
X-866180Y-5851259D01*
X-624770Y-5609849D01*
X-624770Y-8505471D01*
X-1257157Y-9137858D01*
X-1257157Y-9100000D01*
X-1264513Y-9025311D01*
X-1286299Y-8953492D01*
X-1321678Y-8887304D01*
X-1369289Y-8829289D01*
X-1427304Y-8781678D01*
X-1493492Y-8746299D01*
X-1565311Y-8724513D01*
X-1640000Y-8717157D01*
X-3540000Y-8717157D01*
X-3614689Y-8724513D01*
X-3686508Y-8746299D01*
X-3752696Y-8781678D01*
X-3810711Y-8829289D01*
X-3858322Y-8887304D01*
X-3893701Y-8953492D01*
X-3915487Y-9025311D01*
X-3922843Y-9100000D01*
X-3922843Y-10900000D01*
X-3915487Y-10974689D01*
X-3893701Y-11046508D01*
X-3858322Y-11112696D01*
X-3810711Y-11170711D01*
X-3752696Y-11218322D01*
X-3686508Y-11253701D01*
X-3614689Y-11275487D01*
X-3540000Y-11282843D01*
X-1640000Y-11282843D01*
X-1565311Y-11275487D01*
X-1493492Y-11253701D01*
X-1427304Y-11218322D01*
X-1369289Y-11170711D01*
X-1321678Y-11112696D01*
X-1286299Y-11046508D01*
X-1264513Y-10974689D01*
X-1257157Y-10900000D01*
X-1257157Y-10482600D01*
X-834123Y-10482600D01*
X-869351Y-10535322D01*
X-943301Y-10713853D01*
X-981000Y-10903380D01*
X-981000Y-11096620D01*
X-943301Y-11286147D01*
X-869351Y-11464678D01*
X-761993Y-11625351D01*
X-625351Y-11761993D01*
X-464678Y-11869351D01*
X-286147Y-11943301D01*
X-96620Y-11981000D01*
X96620Y-11981000D01*
X286147Y-11943301D01*
X464678Y-11869351D01*
X625351Y-11761993D01*
X761993Y-11625351D01*
X869351Y-11464678D01*
X943301Y-11286147D01*
X981000Y-11096620D01*
X981000Y-10903380D01*
X943301Y-10713853D01*
X869351Y-10535322D01*
X834123Y-10482600D01*
X1257157Y-10482600D01*
X1257157Y-10900000D01*
X1264513Y-10974689D01*
X1286299Y-11046508D01*
X1321678Y-11112696D01*
X1369289Y-11170711D01*
X1427304Y-11218322D01*
X1493492Y-11253701D01*
X1565311Y-11275487D01*
X1640000Y-11282843D01*
X3540000Y-11282843D01*
X3614689Y-11275487D01*
X3686508Y-11253701D01*
X3752696Y-11218322D01*
X3810711Y-11170711D01*
X3858322Y-11112696D01*
X3893701Y-11046508D01*
X3915487Y-10974689D01*
X3922843Y-10900000D01*
X3922843Y-9100000D01*
X3915487Y-9025311D01*
X3893701Y-8953492D01*
X3858322Y-8887304D01*
X3810711Y-8829289D01*
X3752696Y-8781678D01*
X3686508Y-8746299D01*
X3614689Y-8724513D01*
X3540000Y-8717157D01*
X1640000Y-8717157D01*
X1565311Y-8724513D01*
X1493492Y-8746299D01*
X1427304Y-8781678D01*
X1369289Y-8829289D01*
X1321678Y-8887304D01*
X1286299Y-8953492D01*
X1264513Y-9025311D01*
X1257157Y-9100000D01*
X1257157Y-9517400D01*
X-271701Y-9517400D01*
X182312Y-9063387D01*
X200731Y-9048271D01*
X261039Y-8974785D01*
X305852Y-8890947D01*
X333447Y-8799976D01*
X340430Y-8729077D01*
X340430Y-8729076D01*
X342765Y-8705371D01*
X340430Y-8681666D01*
X340430Y-5869258D01*
X1047580Y-5869258D01*
X1047580Y-6023102D01*
X1077593Y-6173989D01*
X1136467Y-6316122D01*
X1221938Y-6444039D01*
X1257157Y-6479258D01*
X1257157Y-6900000D01*
X1264513Y-6974689D01*
X1286299Y-7046508D01*
X1321678Y-7112696D01*
X1369289Y-7170711D01*
X1427304Y-7218322D01*
X1493492Y-7253701D01*
X1565311Y-7275487D01*
X1640000Y-7282843D01*
X3540000Y-7282843D01*
X3614689Y-7275487D01*
X3686508Y-7253701D01*
X3752696Y-7218322D01*
X3810711Y-7170711D01*
X3858322Y-7112696D01*
X3893701Y-7046508D01*
X3915487Y-6974689D01*
X3922843Y-6900000D01*
X3922843Y-5842680D01*
X11614684Y-5842680D01*
X11638452Y-6083998D01*
X11708842Y-6316043D01*
X11823149Y-6529896D01*
X11976980Y-6717340D01*
X12164424Y-6871171D01*
X12378277Y-6985478D01*
X12610322Y-7055868D01*
X12791168Y-7073680D01*
X13162112Y-7073680D01*
X13342958Y-7055868D01*
X13575003Y-6985478D01*
X13788856Y-6871171D01*
X13976300Y-6717340D01*
X14130131Y-6529896D01*
X14244438Y-6316043D01*
X14314828Y-6083998D01*
X14338596Y-5842680D01*
X14314828Y-5601362D01*
X14244438Y-5369317D01*
X14130131Y-5155464D01*
X13976300Y-4968020D01*
X13788856Y-4814189D01*
X13575003Y-4699882D01*
X13342958Y-4629492D01*
X13162112Y-4611680D01*
X12791168Y-4611680D01*
X12610322Y-4629492D01*
X12378277Y-4699882D01*
X12164424Y-4814189D01*
X11976980Y-4968020D01*
X11823149Y-5155464D01*
X11708842Y-5369317D01*
X11638452Y-5601362D01*
X11614684Y-5842680D01*
X3922843Y-5842680D01*
X3922843Y-5100000D01*
X3915487Y-5025311D01*
X3893701Y-4953492D01*
X3858322Y-4887304D01*
X3810711Y-4829289D01*
X3752696Y-4781678D01*
X3686508Y-4746299D01*
X3614689Y-4724513D01*
X3540000Y-4717157D01*
X1640000Y-4717157D01*
X1565311Y-4724513D01*
X1493492Y-4746299D01*
X1427304Y-4781678D01*
X1369289Y-4829289D01*
X1321678Y-4887304D01*
X1286299Y-4953492D01*
X1264513Y-5025311D01*
X1257157Y-5100000D01*
X1257157Y-5413102D01*
X1221938Y-5448321D01*
X1136467Y-5576238D01*
X1077593Y-5718371D01*
X1047580Y-5869258D01*
X340430Y-5869258D01*
X340430Y-1977667D01*
X3585980Y-1977667D01*
X3585980Y-2111813D01*
X3612151Y-2243380D01*
X3663486Y-2367314D01*
X3738013Y-2478852D01*
X3758981Y-2499820D01*
X3758980Y-2946021D01*
X3738013Y-2966988D01*
X3663486Y-3078526D01*
X3612151Y-3202460D01*
X3585980Y-3334027D01*
X3585980Y-3468173D01*
X3612151Y-3599740D01*
X3663486Y-3723674D01*
X3738013Y-3835212D01*
X3832868Y-3930067D01*
X3944406Y-4004594D01*
X4068340Y-4055929D01*
X4199907Y-4082100D01*
X4334053Y-4082100D01*
X4465620Y-4055929D01*
X4589554Y-4004594D01*
X4701092Y-3930067D01*
X4795947Y-3835212D01*
X4870474Y-3723674D01*
X4921809Y-3599740D01*
X4947980Y-3468173D01*
X4947980Y-3334027D01*
X4921809Y-3202460D01*
X4870474Y-3078526D01*
X4795947Y-2966988D01*
X4774980Y-2946021D01*
X4774980Y-2499819D01*
X4795947Y-2478852D01*
X4870474Y-2367314D01*
X4921809Y-2243380D01*
X4947980Y-2111813D01*
X4947980Y-1977667D01*
X4921809Y-1846100D01*
X4870474Y-1722166D01*
X4795947Y-1610628D01*
X4701092Y-1515773D01*
X4589554Y-1441246D01*
X4465620Y-1389911D01*
X4334053Y-1363740D01*
X4199907Y-1363740D01*
X4068340Y-1389911D01*
X3944406Y-1441246D01*
X3832868Y-1515773D01*
X3738013Y-1610628D01*
X3663486Y-1722166D01*
X3612151Y-1846100D01*
X3585980Y-1977667D01*
X340430Y-1977667D01*
X340430Y1170481D01*
X386797Y1216848D01*
X461324Y1328386D01*
X512659Y1452320D01*
X538830Y1583887D01*
X538830Y1718033D01*
X512659Y1849600D01*
X461324Y1973534D01*
X386797Y2085072D01*
X291942Y2179927D01*
X279840Y2188013D01*
X302429Y2301570D01*
X302429Y2435716D01*
X276258Y2567283D01*
X224923Y2691217D01*
X150396Y2802755D01*
X55541Y2897610D01*
X-55997Y2972137D01*
X-179931Y3023472D01*
X-311498Y3049643D01*
X-445644Y3049643D01*
X-577211Y3023472D01*
X-701145Y2972137D01*
X-812683Y2897610D01*
X-907538Y2802755D01*
X-982065Y2691217D01*
X-1033400Y2567283D01*
X-1059571Y2435716D01*
X-1059571Y2368967D01*
X-1099388Y2320449D01*
X-1144202Y2236610D01*
X-1171796Y2145640D01*
X-1181115Y2051034D01*
X-1178779Y2027319D01*
X-1178780Y-4798861D01*
X-1302710Y-4922791D01*
X-1321678Y-4887304D01*
X-1369289Y-4829289D01*
X-1427304Y-4781678D01*
X-1493492Y-4746299D01*
X-1565311Y-4724513D01*
X-1640000Y-4717157D01*
X-3540000Y-4717157D01*
X-3614689Y-4724513D01*
X-3686508Y-4746299D01*
X-3752696Y-4781678D01*
X-3810711Y-4829289D01*
X-3858322Y-4887304D01*
X-3893701Y-4953492D01*
X-3915487Y-5025311D01*
X-3922843Y-5100000D01*
X-17782389Y-5100000D01*
X-18027099Y-4239935D01*
X-18341411Y-2558518D01*
X-18499240Y-855271D01*
X-18499240Y855271D01*
X-18341411Y2558518D01*
X-18284155Y2864809D01*
X-18308888Y-2266424D01*
X-18301810Y-2341378D01*
X-18280361Y-2412921D01*
X-18245366Y-2478905D01*
X-18198171Y-2536793D01*
X-18140589Y-2584363D01*
X-18074834Y-2619784D01*
X-18003432Y-2641696D01*
X-17929126Y-2649258D01*
X-13225046Y-2664498D01*
X-13148644Y-2657011D01*
X-13077220Y-2635170D01*
X-13011429Y-2599814D01*
X-12953800Y-2552302D01*
X-12906548Y-2494461D01*
X-12871487Y-2428512D01*
X-12849967Y-2356990D01*
X-12842813Y-2282645D01*
X-12860593Y5637075D01*
X-12860599Y5638538D01*
X-12887735Y10098701D01*
X-12828156Y10175200D01*
X-4381646Y10175200D01*
X-3922843Y9716397D01*
X-3922843Y9100000D01*
X-3915487Y9025311D01*
X-3893701Y8953492D01*
X-3858322Y8887304D01*
X-3810711Y8829289D01*
X-3752696Y8781678D01*
X-3732999Y8771150D01*
X-3733000Y7228850D01*
X-3752696Y7218322D01*
X-3810711Y7170711D01*
X-3858322Y7112696D01*
X-3893701Y7046508D01*
X-3915487Y6974689D01*
X-3922843Y6900000D01*
X-3922843Y5100000D01*
X-3915487Y5025311D01*
X-3893701Y4953492D01*
X-3858322Y4887304D01*
X-3810711Y4829289D01*
X-3752696Y4781678D01*
X-3686508Y4746299D01*
X-3614689Y4724513D01*
X-3540000Y4717157D01*
X-1640000Y4717157D01*
X-1565311Y4724513D01*
X-1493492Y4746299D01*
X-1427304Y4781678D01*
X-1369289Y4829289D01*
X-1346547Y4857000D01*
X1346547Y4857000D01*
X1369289Y4829289D01*
X1427304Y4781678D01*
X1493492Y4746299D01*
X1565311Y4724513D01*
X1640000Y4717157D01*
X3540000Y4717157D01*
X3614689Y4724513D01*
X3686508Y4746299D01*
X3752696Y4781678D01*
X3810711Y4829289D01*
X3858322Y4887304D01*
X3893701Y4953492D01*
X3915487Y5025311D01*
X3922843Y5100000D01*
X3922843Y6900000D01*
X3915487Y6974689D01*
X3893701Y7046508D01*
X3858322Y7112696D01*
X3810711Y7170711D01*
X3752696Y7218322D01*
X3686508Y7253701D01*
X3614689Y7275487D01*
X3606000Y7276343D01*
X3606000Y8723657D01*
X3614689Y8724513D01*
X3686508Y8746299D01*
X3752696Y8781678D01*
X3810711Y8829289D01*
X3858322Y8887304D01*
X3893701Y8953492D01*
X3902955Y8984000D01*
X9623780Y8984000D01*
X9623781Y1406292D01*
X9618865Y1356380D01*
X9638482Y1157210D01*
X9671773Y1047466D01*
X9696579Y965693D01*
X9790921Y789190D01*
X9917885Y634484D01*
X9956648Y602672D01*
X11511007Y-951688D01*
X11420890Y-942812D01*
X11283960Y-956298D01*
X11152292Y-996239D01*
X11030946Y-1061099D01*
X10951236Y-1126516D01*
X10078737Y-1999016D01*
X8109122Y-1999016D01*
X8074824Y-1995638D01*
X8040526Y-1999016D01*
X8040515Y-1999016D01*
X8040474Y-1999020D01*
X7379731Y-1999020D01*
X7277110Y-2009127D01*
X7145443Y-2049068D01*
X7024097Y-2113929D01*
X6917737Y-2201217D01*
X6830449Y-2307577D01*
X6765588Y-2428923D01*
X6725647Y-2560590D01*
X6712161Y-2697520D01*
X6725647Y-2834450D01*
X6765588Y-2966117D01*
X6830449Y-3087463D01*
X6917737Y-3193823D01*
X7024097Y-3281111D01*
X7145443Y-3345972D01*
X7277110Y-3385913D01*
X7379731Y-3396020D01*
X8040522Y-3396020D01*
X8074820Y-3399398D01*
X8109118Y-3396020D01*
X8109129Y-3396020D01*
X8109170Y-3396016D01*
X10333766Y-3396016D01*
X10368064Y-3399394D01*
X10402362Y-3396016D01*
X10402373Y-3396016D01*
X10504994Y-3385909D01*
X10636661Y-3345968D01*
X10758007Y-3281107D01*
X10864367Y-3193819D01*
X10886239Y-3167168D01*
X11939064Y-2114344D01*
X11960640Y-2088053D01*
X11960641Y-2184104D01*
X11900051Y-2216490D01*
X11804152Y-2295192D01*
X11725450Y-2391091D01*
X11666969Y-2500501D01*
X11630957Y-2619218D01*
X11618797Y-2742680D01*
X11618797Y-3942680D01*
X11630957Y-4066142D01*
X11666969Y-4184859D01*
X11725450Y-4294269D01*
X11804152Y-4390168D01*
X11900051Y-4468870D01*
X12009461Y-4527351D01*
X12128178Y-4563363D01*
X12251640Y-4575523D01*
X13701640Y-4575523D01*
X13825102Y-4563363D01*
X13943819Y-4527351D01*
X14053229Y-4468870D01*
X14149128Y-4390168D01*
X14227830Y-4294269D01*
X14286311Y-4184859D01*
X14322323Y-4066142D01*
X14334483Y-3942680D01*
X14334483Y-2742680D01*
X14322323Y-2619218D01*
X14286311Y-2500501D01*
X14227830Y-2391091D01*
X14149128Y-2295192D01*
X14053229Y-2216490D01*
X13992640Y-2184104D01*
X13992640Y-1030381D01*
X13997555Y-980479D01*
X13977938Y-781309D01*
X13919842Y-589794D01*
X13919842Y-589793D01*
X13825500Y-413290D01*
X13698536Y-258584D01*
X13659773Y-226772D01*
X11655780Y1777220D01*
X11655780Y4713140D01*
X11685982Y4613577D01*
X11800289Y4399724D01*
X11954120Y4212280D01*
X12141564Y4058449D01*
X12355417Y3944142D01*
X12587462Y3873752D01*
X12768308Y3855940D01*
X13139252Y3855940D01*
X13320098Y3873752D01*
X13552143Y3944142D01*
X13765996Y4058449D01*
X13953440Y4212280D01*
X14107271Y4399724D01*
X14221578Y4613577D01*
X14291968Y4845622D01*
X14315736Y5086940D01*
X14291968Y5328258D01*
X14221578Y5560303D01*
X14107271Y5774156D01*
X13953440Y5961600D01*
X13765996Y6115431D01*
X13552143Y6229738D01*
X13320098Y6300128D01*
X13139252Y6317940D01*
X12768308Y6317940D01*
X12587462Y6300128D01*
X12355417Y6229738D01*
X12141564Y6115431D01*
X11954120Y5961600D01*
X11800289Y5774156D01*
X11685982Y5560303D01*
X11655780Y5460740D01*
X11655780Y6722926D01*
X11702590Y6635351D01*
X11781292Y6539452D01*
X11877191Y6460750D01*
X11986601Y6402269D01*
X12105318Y6366257D01*
X12228780Y6354097D01*
X13678780Y6354097D01*
X13802242Y6366257D01*
X13920959Y6402269D01*
X14030369Y6460750D01*
X14126268Y6539452D01*
X14204970Y6635351D01*
X14263451Y6744761D01*
X14299463Y6863478D01*
X14311623Y6986940D01*
X14311623Y8186940D01*
X14299463Y8310402D01*
X14263451Y8429119D01*
X14204970Y8538529D01*
X14126268Y8634428D01*
X14030369Y8713130D01*
X13920959Y8771611D01*
X13802242Y8807623D01*
X13678780Y8819783D01*
X13256838Y8819783D01*
X11393492Y10683128D01*
X11361676Y10721896D01*
X11206970Y10848860D01*
X11030467Y10943202D01*
X10838951Y11001298D01*
X10689682Y11016000D01*
X10639780Y11020915D01*
X10589878Y11016000D01*
X8160837Y11016000D01*
X8261385Y11036000D01*
X8453565Y11115604D01*
X8626522Y11231170D01*
X8773610Y11378258D01*
X8889176Y11551215D01*
X8968780Y11743395D01*
X9009361Y11947412D01*
X9009361Y12155426D01*
X8968780Y12359443D01*
X8889176Y12551623D01*
X8773610Y12724580D01*
X8626522Y12871668D01*
X8453565Y12987234D01*
X8261385Y13066838D01*
X8057368Y13107419D01*
X7849354Y13107419D01*
X7645337Y13066838D01*
X7490381Y13002653D01*
X7554566Y13157609D01*
X7595147Y13361626D01*
X7595147Y13569640D01*
X7554566Y13773657D01*
X7474962Y13965837D01*
X7359396Y14138794D01*
X7212308Y14285882D01*
X7039351Y14401448D01*
X6847171Y14481052D01*
X6643154Y14521633D01*
X6435140Y14521633D01*
X6231123Y14481052D01*
X6076168Y14416867D01*
X6140353Y14571822D01*
X6180934Y14775839D01*
X6180934Y14983853D01*
X6140353Y15187870D01*
X6060749Y15380050D01*
X5945183Y15553007D01*
X5798095Y15700095D01*
X5625138Y15815661D01*
X5432958Y15895265D01*
X5228941Y15935846D01*
X5020927Y15935846D01*
X4816910Y15895265D01*
X4801599Y15888923D01*
X4936025Y16023349D01*
X4983636Y16081364D01*
X5019015Y16147552D01*
X5040801Y16219371D01*
X5048157Y16294060D01*
X5040801Y16368749D01*
X5019015Y16440568D01*
X4983636Y16506756D01*
X4936025Y16564771D01*
X3981431Y17519365D01*
X3923416Y17566976D01*
X3857228Y17602355D01*
X3785409Y17624141D01*
X3710720Y17631497D01*
X3636031Y17624141D01*
X3564212Y17602355D01*
X3498024Y17566976D01*
X3440009Y17519365D01*
X2485415Y16564771D01*
X2437804Y16506756D01*
X2402425Y16440568D01*
X2380639Y16368749D01*
X2373283Y16294060D01*
X2380639Y16219371D01*
X2402425Y16147552D01*
X2437804Y16081364D01*
X2485415Y16023349D01*
X3440009Y15068755D01*
X3498024Y15021144D01*
X3564212Y14985765D01*
X3636031Y14963979D01*
X3710720Y14956623D01*
X3785409Y14963979D01*
X3857228Y14985765D01*
X3923416Y15021144D01*
X3981431Y15068755D01*
X4115857Y15203181D01*
X4109515Y15187870D01*
X4068934Y14983853D01*
X4068934Y14775839D01*
X4109515Y14571822D01*
X4189119Y14379642D01*
X4304685Y14206685D01*
X4451773Y14059597D01*
X4624730Y13944031D01*
X4816910Y13864427D01*
X5020927Y13823846D01*
X5228941Y13823846D01*
X5432958Y13864427D01*
X5587913Y13928612D01*
X5523728Y13773657D01*
X5483147Y13569640D01*
X5483147Y13361626D01*
X5523728Y13157609D01*
X5603332Y12965429D01*
X5718898Y12792472D01*
X5865986Y12645384D01*
X6038943Y12529818D01*
X6231123Y12450214D01*
X6435140Y12409633D01*
X6643154Y12409633D01*
X6847171Y12450214D01*
X7002127Y12514399D01*
X6937942Y12359443D01*
X6897361Y12155426D01*
X6897361Y11947412D01*
X6937942Y11743395D01*
X7017546Y11551215D01*
X7133112Y11378258D01*
X7280200Y11231170D01*
X7453157Y11115604D01*
X7645337Y11036000D01*
X7745885Y11016000D01*
X3902955Y11016000D01*
X3893701Y11046508D01*
X3858322Y11112696D01*
X3810711Y11170711D01*
X3752696Y11218322D01*
X3686508Y11253701D01*
X3614689Y11275487D01*
X3540000Y11282843D01*
X1640000Y11282843D01*
X1565311Y11275487D01*
X1493492Y11253701D01*
X1427304Y11218322D01*
X1369289Y11170711D01*
X1321678Y11112696D01*
X1286299Y11046508D01*
X1264513Y10974689D01*
X1257157Y10900000D01*
X1257157Y10628599D01*
X907988Y10628599D01*
X943301Y10713853D01*
X981000Y10903380D01*
X981000Y11096620D01*
X943301Y11286147D01*
X869351Y11464678D01*
X761993Y11625351D01*
X625351Y11761993D01*
X464678Y11869351D01*
X286147Y11943301D01*
X96620Y11981000D01*
X-96620Y11981000D01*
X-286147Y11943301D01*
X-464678Y11869351D01*
X-625351Y11761993D01*
X-761993Y11625351D01*
X-869351Y11464678D01*
X-943301Y11286147D01*
X-981000Y11096620D01*
X-981000Y10903380D01*
X-943301Y10713853D01*
X-907988Y10628599D01*
X-1257157Y10628599D01*
X-1257157Y10900000D01*
X-1264513Y10974689D01*
X-1286299Y11046508D01*
X-1321678Y11112696D01*
X-1369289Y11170711D01*
X-1427304Y11218322D01*
X-1493492Y11253701D01*
X-1565311Y11275487D01*
X-1640000Y11282843D01*
X-2256397Y11282843D01*
X-3060273Y12086718D01*
X-3096067Y12130333D01*
X-3270111Y12273168D01*
X-3468677Y12379303D01*
X-3684133Y12444661D01*
X-3852054Y12461200D01*
X-3852061Y12461200D01*
X-3908200Y12466729D01*
X-3964339Y12461200D01*
X-11496520Y12461200D01*
X-11532851Y12492141D01*
X-11598068Y12528543D01*
X-11669134Y12551523D01*
X-11743318Y12560197D01*
X-13552313Y12593163D01*
X-13094910Y13094910D01*
X-11830804Y14247296D01*
X-10465761Y15278128D01*
X-9011428Y16178613D01*
X-7480213Y16941068D01*
X-6233673Y17423980D01*
X-4268883Y17423980D01*
X-4268883Y16423980D01*
X-4261527Y16349291D01*
X-4239741Y16277472D01*
X-4204362Y16211284D01*
X-4156751Y16153269D01*
X-4098736Y16105658D01*
X-4032548Y16070279D01*
X-3960729Y16048493D01*
X-3886040Y16041137D01*
X-2886040Y16041137D01*
X-2811351Y16048493D01*
X-2739532Y16070279D01*
X-2673344Y16105658D01*
X-2615329Y16153269D01*
X-2591608Y16182174D01*
X-2533350Y16143248D01*
X-2373018Y16076836D01*
X-2202811Y16042980D01*
X-2029269Y16042980D01*
X-1859062Y16076836D01*
X-1698730Y16143248D01*
X-1554435Y16239662D01*
X-1481040Y16313057D01*
X-1407645Y16239662D01*
X-1263350Y16143248D01*
X-1103018Y16076836D01*
X-932811Y16042980D01*
X-759269Y16042980D01*
X-589062Y16076836D01*
X-428730Y16143248D01*
X-284435Y16239662D01*
X-161722Y16362375D01*
X-65308Y16506670D01*
X1104Y16667002D01*
X34960Y16837209D01*
X34960Y17010751D01*
X1104Y17180958D01*
X-65308Y17341290D01*
X-161722Y17485585D01*
X-284435Y17608298D01*
X-428730Y17704712D01*
X-589062Y17771124D01*
X-759269Y17804980D01*
X-932811Y17804980D01*
X-1103018Y17771124D01*
X-1263350Y17704712D01*
X-1407645Y17608298D01*
X-1481040Y17534903D01*
X-1554435Y17608298D01*
X-1698730Y17704712D01*
X-1859062Y17771124D01*
X-2029269Y17804980D01*
X-2202811Y17804980D01*
X-2373018Y17771124D01*
X-2533350Y17704712D01*
X-2591608Y17665786D01*
X-2615329Y17694691D01*
X-2673344Y17742302D01*
X-2739532Y17777681D01*
X-2811351Y17799467D01*
X-2886040Y17806823D01*
X-3886040Y17806823D01*
X-3960729Y17799467D01*
X-4032548Y17777681D01*
X-4098736Y17742302D01*
X-4156751Y17694691D01*
X-4204362Y17636676D01*
X-4239741Y17570488D01*
X-4261527Y17498669D01*
X-4268883Y17423980D01*
X-6233673Y17423980D01*
X-5885179Y17558987D01*
X-4239935Y18027099D01*
X-2558518Y18341411D01*
X-855271Y18499240D01*
X855271Y18499240D01*
X2558518Y18341411D01*
G37*
G04 #@! TD.AperFunction*
M02*
