G04 #@! TF.GenerationSoftware,KiCad,Pcbnew,(5.1.10)-1*
G04 #@! TF.CreationDate,2021-05-29T17:35:04+08:00*
G04 #@! TF.ProjectId,tiny_V1.0,74696e79-5f56-4312-9e30-2e6b69636164,rev?*
G04 #@! TF.SameCoordinates,Original*
G04 #@! TF.FileFunction,Legend,Top*
G04 #@! TF.FilePolarity,Positive*
%FSLAX46Y46*%
G04 Gerber Fmt 4.6, Leading zero omitted, Abs format (unit mm)*
G04 Created by KiCad (PCBNEW (5.1.10)-1) date 2021-05-29 17:35:04*
%MOMM*%
%LPD*%
G01*
G04 APERTURE LIST*
%ADD10C,0.152400*%
%ADD11C,0.120000*%
%ADD12C,0.150000*%
%ADD13C,0.250000*%
G04 APERTURE END LIST*
D10*
X8327472Y7567708D02*
X9101567Y7567708D01*
X8714520Y7180660D02*
X8714520Y7954756D01*
X9074958Y4959854D02*
X9123339Y5104997D01*
X9123339Y5346901D01*
X9074958Y5443663D01*
X9026577Y5492044D01*
X8929815Y5540425D01*
X8833053Y5540425D01*
X8736291Y5492044D01*
X8687910Y5443663D01*
X8639529Y5346901D01*
X8591148Y5153378D01*
X8542767Y5056616D01*
X8494386Y5008235D01*
X8397624Y4959854D01*
X8300862Y4959854D01*
X8204100Y5008235D01*
X8155720Y5056616D01*
X8107339Y5153378D01*
X8107339Y5395282D01*
X8155720Y5540425D01*
X8173500Y3057515D02*
X8125119Y2960753D01*
X8125119Y2815610D01*
X8173500Y2670467D01*
X8270261Y2573705D01*
X8367023Y2525324D01*
X8560547Y2476943D01*
X8705690Y2476943D01*
X8899214Y2525324D01*
X8995976Y2573705D01*
X9092738Y2670467D01*
X9141119Y2815610D01*
X9141119Y2912372D01*
X9092738Y3057515D01*
X9044357Y3105896D01*
X8705690Y3105896D01*
X8705690Y2912372D01*
X8173500Y-8085464D02*
X8125119Y-8182226D01*
X8125119Y-8327369D01*
X8173500Y-8472512D01*
X8270261Y-8569274D01*
X8367023Y-8617655D01*
X8560547Y-8666036D01*
X8705690Y-8666036D01*
X8899214Y-8617655D01*
X8995976Y-8569274D01*
X9092738Y-8472512D01*
X9141119Y-8327369D01*
X9141119Y-8230607D01*
X9092738Y-8085464D01*
X9044357Y-8037083D01*
X8705690Y-8037083D01*
X8705690Y-8230607D01*
X9107978Y-6188205D02*
X9156359Y-6043062D01*
X9156359Y-5801158D01*
X9107978Y-5704396D01*
X9059597Y-5656015D01*
X8962835Y-5607634D01*
X8866073Y-5607634D01*
X8769311Y-5656015D01*
X8720930Y-5704396D01*
X8672549Y-5801158D01*
X8624168Y-5994681D01*
X8575787Y-6091443D01*
X8527406Y-6139824D01*
X8430644Y-6188205D01*
X8333882Y-6188205D01*
X8237120Y-6139824D01*
X8188740Y-6091443D01*
X8140359Y-5994681D01*
X8140359Y-5752777D01*
X8188740Y-5607634D01*
X8241112Y-3511771D02*
X9015207Y-3511771D01*
X8628160Y-3898819D02*
X8628160Y-3124723D01*
X16979559Y-6627262D02*
X16979559Y-7111072D01*
X15963559Y-7111072D01*
X16447368Y-6288596D02*
X16447368Y-5949929D01*
X16979559Y-5804786D02*
X16979559Y-6288596D01*
X15963559Y-6288596D01*
X15963559Y-5804786D01*
X16979559Y-5369358D02*
X15963559Y-5369358D01*
X15963559Y-5127453D01*
X16011940Y-4982310D01*
X16108701Y-4885548D01*
X16205463Y-4837167D01*
X16398987Y-4788786D01*
X16544130Y-4788786D01*
X16737654Y-4837167D01*
X16834416Y-4885548D01*
X16931178Y-4982310D01*
X16979559Y-5127453D01*
X16979559Y-5369358D01*
X16447368Y-4014691D02*
X16495749Y-3869548D01*
X16544130Y-3821167D01*
X16640892Y-3772786D01*
X16786035Y-3772786D01*
X16882797Y-3821167D01*
X16931178Y-3869548D01*
X16979559Y-3966310D01*
X16979559Y-4353358D01*
X15963559Y-4353358D01*
X15963559Y-4014691D01*
X16011940Y-3917929D01*
X16060320Y-3869548D01*
X16157082Y-3821167D01*
X16253844Y-3821167D01*
X16350606Y-3869548D01*
X16398987Y-3917929D01*
X16447368Y-4014691D01*
X16447368Y-4353358D01*
X16895739Y4070128D02*
X16895739Y3586319D01*
X15879739Y3586319D01*
X16363548Y4408795D02*
X16363548Y4747461D01*
X16895739Y4892604D02*
X16895739Y4408795D01*
X15879739Y4408795D01*
X15879739Y4892604D01*
X16895739Y5328033D02*
X15879739Y5328033D01*
X15879739Y5569938D01*
X15928120Y5715080D01*
X16024881Y5811842D01*
X16121643Y5860223D01*
X16315167Y5908604D01*
X16460310Y5908604D01*
X16653834Y5860223D01*
X16750596Y5811842D01*
X16847358Y5715080D01*
X16895739Y5569938D01*
X16895739Y5328033D01*
X16605453Y6295652D02*
X16605453Y6779461D01*
X16895739Y6198890D02*
X15879739Y6537557D01*
X16895739Y6876223D01*
X-3724706Y15557580D02*
X-3386040Y14541580D01*
X-3047373Y15557580D01*
X867855Y15496500D02*
X771093Y15544880D01*
X625950Y15544880D01*
X480807Y15496500D01*
X384045Y15399738D01*
X335664Y15302976D01*
X287283Y15109452D01*
X287283Y14964309D01*
X335664Y14770785D01*
X384045Y14674023D01*
X480807Y14577261D01*
X625950Y14528880D01*
X722712Y14528880D01*
X867855Y14577261D01*
X916236Y14625642D01*
X916236Y14964309D01*
X722712Y14964309D01*
X-919095Y14564440D02*
X-919095Y15580440D01*
X-677190Y15580440D01*
X-532047Y15532060D01*
X-435285Y15435298D01*
X-386904Y15338536D01*
X-338523Y15145012D01*
X-338523Y14999869D01*
X-386904Y14806345D01*
X-435285Y14709583D01*
X-532047Y14612821D01*
X-677190Y14564440D01*
X-919095Y14564440D01*
X-1745683Y14673902D02*
X-1794064Y14625521D01*
X-1939207Y14577140D01*
X-2035969Y14577140D01*
X-2181112Y14625521D01*
X-2277874Y14722283D01*
X-2326255Y14819045D01*
X-2374636Y15012569D01*
X-2374636Y15157712D01*
X-2326255Y15351236D01*
X-2277874Y15447998D01*
X-2181112Y15544760D01*
X-2035969Y15593140D01*
X-1939207Y15593140D01*
X-1794064Y15544760D01*
X-1745683Y15496379D01*
D11*
X7606400Y-10964064D02*
X7606400Y-11179736D01*
X6886400Y-10964064D02*
X6886400Y-11179736D01*
X15436640Y-782680D02*
X9466640Y-782680D01*
X9466640Y-782680D02*
X9466640Y-10902680D01*
X9466640Y-10902680D02*
X15436640Y-10902680D01*
X15436640Y-10902680D02*
X15436640Y-782680D01*
X15426640Y-4092680D02*
X14676640Y-4092680D01*
X14676640Y-4092680D02*
X14676640Y-7592680D01*
X14676640Y-7592680D02*
X15426640Y-7592680D01*
X15426640Y-7592680D02*
X15426640Y-4092680D01*
X15426640Y-792680D02*
X14676640Y-792680D01*
X14676640Y-792680D02*
X14676640Y-2592680D01*
X14676640Y-2592680D02*
X15426640Y-2592680D01*
X15426640Y-2592680D02*
X15426640Y-792680D01*
X15426640Y-9092680D02*
X14676640Y-9092680D01*
X14676640Y-9092680D02*
X14676640Y-10892680D01*
X14676640Y-10892680D02*
X15426640Y-10892680D01*
X15426640Y-10892680D02*
X15426640Y-9092680D01*
X13176640Y-792680D02*
X13176640Y-1542680D01*
X13176640Y-1542680D02*
X10226640Y-1542680D01*
X10226640Y-1542680D02*
X10226640Y-5842680D01*
X13176640Y-10892680D02*
X13176640Y-10142680D01*
X13176640Y-10142680D02*
X10226640Y-10142680D01*
X10226640Y-10142680D02*
X10226640Y-5842680D01*
X15726640Y-1742680D02*
X15726640Y-492680D01*
X15726640Y-492680D02*
X14476640Y-492680D01*
X15413780Y10146940D02*
X9443780Y10146940D01*
X9443780Y10146940D02*
X9443780Y26940D01*
X9443780Y26940D02*
X15413780Y26940D01*
X15413780Y26940D02*
X15413780Y10146940D01*
X15403780Y6836940D02*
X14653780Y6836940D01*
X14653780Y6836940D02*
X14653780Y3336940D01*
X14653780Y3336940D02*
X15403780Y3336940D01*
X15403780Y3336940D02*
X15403780Y6836940D01*
X15403780Y10136940D02*
X14653780Y10136940D01*
X14653780Y10136940D02*
X14653780Y8336940D01*
X14653780Y8336940D02*
X15403780Y8336940D01*
X15403780Y8336940D02*
X15403780Y10136940D01*
X15403780Y1836940D02*
X14653780Y1836940D01*
X14653780Y1836940D02*
X14653780Y36940D01*
X14653780Y36940D02*
X15403780Y36940D01*
X15403780Y36940D02*
X15403780Y1836940D01*
X13153780Y10136940D02*
X13153780Y9386940D01*
X13153780Y9386940D02*
X10203780Y9386940D01*
X10203780Y9386940D02*
X10203780Y5086940D01*
X13153780Y36940D02*
X13153780Y786940D01*
X13153780Y786940D02*
X10203780Y786940D01*
X10203780Y786940D02*
X10203780Y5086940D01*
X15703780Y9186940D02*
X15703780Y10436940D01*
X15703780Y10436940D02*
X14453780Y10436940D01*
X-4463640Y-13382940D02*
X-4463640Y-15582940D01*
X-3163640Y-13382940D02*
X-4463640Y-13382940D01*
X326360Y-20412940D02*
X4006360Y-20412940D01*
X-443640Y-20412940D02*
X-4123640Y-20412940D01*
X-443640Y-20412940D02*
X-443640Y-20152940D01*
X-443640Y-20152940D02*
X326360Y-20152940D01*
X326360Y-20152940D02*
X326360Y-20412940D01*
X-2853640Y-13422940D02*
X2736360Y-13422940D01*
X-2853640Y-12532940D02*
X2736360Y-12532940D01*
X4006360Y-13672940D02*
X4006360Y-15582940D01*
X-4123640Y-13672940D02*
X-4123640Y-15582940D01*
X-2853640Y-12282940D02*
X2736360Y-12282940D01*
X2736360Y-13672940D02*
X2736360Y-12282940D01*
X-2853640Y-13672940D02*
X-2853640Y-12282940D01*
X-4123640Y-13672940D02*
X4006360Y-13672940D01*
X-4123640Y-15582940D02*
X-4123640Y-20412940D01*
X4006360Y-20412940D02*
X4006360Y-15582940D01*
X-1962640Y-3894880D02*
X1337360Y-3894880D01*
X1337360Y-3894880D02*
X1337360Y105120D01*
X6600120Y1256780D02*
X6800120Y1256780D01*
X8900120Y1256780D02*
X8900120Y1656780D01*
X9000120Y1256780D02*
X8900120Y1256780D01*
X9000120Y-1343220D02*
X9000120Y1256780D01*
X8800120Y-1343220D02*
X9000120Y-1343220D01*
X6600120Y-1343220D02*
X6800120Y-1343220D01*
X6600120Y1256780D02*
X6600120Y-1343220D01*
X-8420860Y15770940D02*
X-8420860Y14840940D01*
X-8420860Y12610940D02*
X-8420860Y13540940D01*
X-8420860Y12610940D02*
X-6260860Y12610940D01*
X-8420860Y15770940D02*
X-6960860Y15770940D01*
X-17235660Y-6104901D02*
X-17235660Y-5797619D01*
X-16475660Y-6104901D02*
X-16475660Y-5797619D01*
X-15239220Y-6112521D02*
X-15239220Y-5805239D01*
X-14479220Y-6112521D02*
X-14479220Y-5805239D01*
X1547640Y-2287281D02*
X1547640Y-1979999D01*
X2307640Y-2287281D02*
X2307640Y-1979999D01*
X5751340Y-11220461D02*
X5751340Y-10913179D01*
X6511340Y-11220461D02*
X6511340Y-10913179D01*
X-12140179Y-13064800D02*
X-12447461Y-13064800D01*
X-12140179Y-12304800D02*
X-12447461Y-12304800D01*
X5411520Y-10918259D02*
X5411520Y-11225541D01*
X4651520Y-10918259D02*
X4651520Y-11225541D01*
X-17145740Y-2290160D02*
X-17145740Y-4840160D01*
X-5145740Y2909840D02*
X-5145740Y5459840D01*
X-5145740Y5459840D02*
X-17145740Y5459840D01*
X-17145740Y5459840D02*
X-17145740Y2909840D01*
X-17145740Y-4840160D02*
X-5145740Y-4840160D01*
X-5145740Y-4840160D02*
X-5145740Y-2290160D01*
X1118960Y15813980D02*
X1118960Y16616450D01*
X1118960Y17231510D02*
X1118960Y18033980D01*
X-2626040Y15813980D02*
X1118960Y15813980D01*
X-2626040Y18033980D02*
X1118960Y18033980D01*
X-2626040Y15813980D02*
X-2626040Y16360509D01*
X-2626040Y17487451D02*
X-2626040Y18033980D01*
X-3386040Y15813980D02*
X-4146040Y15813980D01*
X-4146040Y15813980D02*
X-4146040Y16923980D01*
X7953361Y10552353D02*
X9452427Y12051419D01*
X3668294Y14837420D02*
X7953361Y10552353D01*
X5167360Y16336486D02*
X9452427Y12051419D01*
X3668294Y14837420D02*
X5167360Y16336486D01*
X2961187Y15544527D02*
X2211654Y16294060D01*
X2211654Y16294060D02*
X2961187Y17043593D01*
D12*
X-9121920Y-5511840D02*
X-9121920Y-10761840D01*
X-14271920Y-6611840D02*
X-14271920Y-10761840D01*
D13*
X630680Y576040D02*
G75*
G03*
X630680Y576040I-125000J0D01*
G01*
D11*
X-7672960Y-11731100D02*
X-7672960Y-5231100D01*
X-7672960Y-11731100D02*
X727040Y-11731100D01*
X-7672960Y-5231100D02*
X727040Y-5231100D01*
X-6531240Y-14953072D02*
X-6531240Y-13530568D01*
X-4711240Y-14953072D02*
X-4711240Y-13530568D01*
X-4661660Y14054660D02*
X-4661660Y13773500D01*
X-5681660Y14054660D02*
X-5681660Y13773500D01*
X-1182476Y-4146000D02*
X-966804Y-4146000D01*
X-1182476Y-4866000D02*
X-966804Y-4866000D01*
X-1220576Y1068620D02*
X-1004904Y1068620D01*
X-1220576Y348620D02*
X-1004904Y348620D01*
X-11075500Y13677320D02*
X-10794340Y13677320D01*
X-11075500Y12657320D02*
X-10794340Y12657320D01*
X-12730648Y5897160D02*
X-14153152Y5897160D01*
X-12730648Y7717160D02*
X-14153152Y7717160D01*
X-12720488Y8188240D02*
X-14142992Y8188240D01*
X-12720488Y10008240D02*
X-14142992Y10008240D01*
X-8888360Y-14973392D02*
X-8888360Y-13550888D01*
X-7068360Y-14973392D02*
X-7068360Y-13550888D01*
X-16217440Y-6059096D02*
X-16217440Y-5843424D01*
X-15497440Y-6059096D02*
X-15497440Y-5843424D01*
X-8879380Y-6216576D02*
X-8879380Y-6000904D01*
X-8159380Y-6216576D02*
X-8159380Y-6000904D01*
X2891684Y32300D02*
X3107356Y32300D01*
X2891684Y-687700D02*
X3107356Y-687700D01*
D12*
X7903262Y-13039426D02*
X7950881Y-13087045D01*
X7998500Y-13229902D01*
X7998500Y-13325140D01*
X7950881Y-13467998D01*
X7855643Y-13563236D01*
X7760405Y-13610855D01*
X7569929Y-13658474D01*
X7427072Y-13658474D01*
X7236596Y-13610855D01*
X7141358Y-13563236D01*
X7046120Y-13467998D01*
X6998500Y-13325140D01*
X6998500Y-13229902D01*
X7046120Y-13087045D01*
X7093739Y-13039426D01*
X6998500Y-12706093D02*
X6998500Y-12087045D01*
X7379453Y-12420379D01*
X7379453Y-12277521D01*
X7427072Y-12182283D01*
X7474691Y-12134664D01*
X7569929Y-12087045D01*
X7808024Y-12087045D01*
X7903262Y-12134664D01*
X7950881Y-12182283D01*
X7998500Y-12277521D01*
X7998500Y-12563236D01*
X7950881Y-12658474D01*
X7903262Y-12706093D01*
X-204013Y-17166380D02*
X-204013Y-17880666D01*
X-251632Y-18023523D01*
X-346870Y-18118761D01*
X-489727Y-18166380D01*
X-584965Y-18166380D01*
X176939Y-17166380D02*
X795986Y-17166380D01*
X462653Y-17547333D01*
X605510Y-17547333D01*
X700748Y-17594952D01*
X748367Y-17642571D01*
X795986Y-17737809D01*
X795986Y-17975904D01*
X748367Y-18071142D01*
X700748Y-18118761D01*
X605510Y-18166380D01*
X319796Y-18166380D01*
X224558Y-18118761D01*
X176939Y-18071142D01*
X7186460Y-774644D02*
X7995984Y-774644D01*
X8091222Y-727025D01*
X8138841Y-679406D01*
X8186460Y-584168D01*
X8186460Y-393692D01*
X8138841Y-298454D01*
X8091222Y-250835D01*
X7995984Y-203216D01*
X7186460Y-203216D01*
X7186460Y701545D02*
X7186460Y511069D01*
X7234080Y415831D01*
X7281699Y368212D01*
X7424556Y272974D01*
X7615032Y225355D01*
X7995984Y225355D01*
X8091222Y272974D01*
X8138841Y320593D01*
X8186460Y415831D01*
X8186460Y606307D01*
X8138841Y701545D01*
X8091222Y749164D01*
X7995984Y796783D01*
X7757889Y796783D01*
X7662651Y749164D01*
X7615032Y701545D01*
X7567413Y606307D01*
X7567413Y415831D01*
X7615032Y320593D01*
X7662651Y272974D01*
X7757889Y225355D01*
X-8124659Y13365535D02*
X-7315135Y13365535D01*
X-7219897Y13413154D01*
X-7172278Y13460773D01*
X-7124659Y13556011D01*
X-7124659Y13746487D01*
X-7172278Y13841725D01*
X-7219897Y13889344D01*
X-7315135Y13936963D01*
X-8124659Y13936963D01*
X-8029420Y14365535D02*
X-8077040Y14413154D01*
X-8124659Y14508392D01*
X-8124659Y14746487D01*
X-8077040Y14841725D01*
X-8029420Y14889344D01*
X-7934182Y14936963D01*
X-7838944Y14936963D01*
X-7696087Y14889344D01*
X-7124659Y14317916D01*
X-7124659Y14936963D01*
X-16347399Y-4079517D02*
X-16823589Y-4412850D01*
X-16347399Y-4650945D02*
X-17347399Y-4650945D01*
X-17347399Y-4269993D01*
X-17299780Y-4174755D01*
X-17252160Y-4127136D01*
X-17156922Y-4079517D01*
X-17014065Y-4079517D01*
X-16918827Y-4127136D01*
X-16871208Y-4174755D01*
X-16823589Y-4269993D01*
X-16823589Y-4650945D01*
X-16347399Y-3127136D02*
X-16347399Y-3698564D01*
X-16347399Y-3412850D02*
X-17347399Y-3412850D01*
X-17204541Y-3508088D01*
X-17109303Y-3603326D01*
X-17061684Y-3698564D01*
X-16347399Y-2174755D02*
X-16347399Y-2746183D01*
X-16347399Y-2460469D02*
X-17347399Y-2460469D01*
X-17204541Y-2555707D01*
X-17109303Y-2650945D01*
X-17061684Y-2746183D01*
X-14383979Y-4122697D02*
X-14860169Y-4456030D01*
X-14383979Y-4694125D02*
X-15383979Y-4694125D01*
X-15383979Y-4313173D01*
X-15336360Y-4217935D01*
X-15288740Y-4170316D01*
X-15193502Y-4122697D01*
X-15050645Y-4122697D01*
X-14955407Y-4170316D01*
X-14907788Y-4217935D01*
X-14860169Y-4313173D01*
X-14860169Y-4694125D01*
X-14383979Y-3170316D02*
X-14383979Y-3741744D01*
X-14383979Y-3456030D02*
X-15383979Y-3456030D01*
X-15241121Y-3551268D01*
X-15145883Y-3646506D01*
X-15098264Y-3741744D01*
X-15383979Y-2551268D02*
X-15383979Y-2456030D01*
X-15336360Y-2360792D01*
X-15288740Y-2313173D01*
X-15193502Y-2265554D01*
X-15003026Y-2217935D01*
X-14764931Y-2217935D01*
X-14574455Y-2265554D01*
X-14479217Y-2313173D01*
X-14431598Y-2360792D01*
X-14383979Y-2456030D01*
X-14383979Y-2551268D01*
X-14431598Y-2646506D01*
X-14479217Y-2694125D01*
X-14574455Y-2741744D01*
X-14764931Y-2789363D01*
X-15003026Y-2789363D01*
X-15193502Y-2741744D01*
X-15288740Y-2694125D01*
X-15336360Y-2646506D01*
X-15383979Y-2551268D01*
X2514640Y-4157046D02*
X2038450Y-4490380D01*
X2514640Y-4728475D02*
X1514640Y-4728475D01*
X1514640Y-4347522D01*
X1562260Y-4252284D01*
X1609879Y-4204665D01*
X1705117Y-4157046D01*
X1847974Y-4157046D01*
X1943212Y-4204665D01*
X1990831Y-4252284D01*
X2038450Y-4347522D01*
X2038450Y-4728475D01*
X1514640Y-3823713D02*
X1514640Y-3157046D01*
X2514640Y-3585618D01*
X6738660Y-12953066D02*
X6262470Y-13286400D01*
X6738660Y-13524495D02*
X5738660Y-13524495D01*
X5738660Y-13143542D01*
X5786280Y-13048304D01*
X5833899Y-13000685D01*
X5929137Y-12953066D01*
X6071994Y-12953066D01*
X6167232Y-13000685D01*
X6214851Y-13048304D01*
X6262470Y-13143542D01*
X6262470Y-13524495D01*
X5738660Y-12048304D02*
X5738660Y-12524495D01*
X6214851Y-12572114D01*
X6167232Y-12524495D01*
X6119613Y-12429257D01*
X6119613Y-12191161D01*
X6167232Y-12095923D01*
X6214851Y-12048304D01*
X6310089Y-12000685D01*
X6548184Y-12000685D01*
X6643422Y-12048304D01*
X6691041Y-12095923D01*
X6738660Y-12191161D01*
X6738660Y-12429257D01*
X6691041Y-12524495D01*
X6643422Y-12572114D01*
X-11485126Y-14460520D02*
X-11818460Y-13984330D01*
X-12056555Y-14460520D02*
X-12056555Y-13460520D01*
X-11675602Y-13460520D01*
X-11580364Y-13508140D01*
X-11532745Y-13555759D01*
X-11485126Y-13650997D01*
X-11485126Y-13793854D01*
X-11532745Y-13889092D01*
X-11580364Y-13936711D01*
X-11675602Y-13984330D01*
X-12056555Y-13984330D01*
X-10627983Y-13793854D02*
X-10627983Y-14460520D01*
X-10866079Y-13412901D02*
X-11104174Y-14127187D01*
X-10485126Y-14127187D01*
X5562640Y-13011486D02*
X5086450Y-13344820D01*
X5562640Y-13582915D02*
X4562640Y-13582915D01*
X4562640Y-13201962D01*
X4610260Y-13106724D01*
X4657879Y-13059105D01*
X4753117Y-13011486D01*
X4895974Y-13011486D01*
X4991212Y-13059105D01*
X5038831Y-13106724D01*
X5086450Y-13201962D01*
X5086450Y-13582915D01*
X4562640Y-12678153D02*
X4562640Y-12059105D01*
X4943593Y-12392439D01*
X4943593Y-12249581D01*
X4991212Y-12154343D01*
X5038831Y-12106724D01*
X5134069Y-12059105D01*
X5372164Y-12059105D01*
X5467402Y-12106724D01*
X5515021Y-12154343D01*
X5562640Y-12249581D01*
X5562640Y-12535296D01*
X5515021Y-12630534D01*
X5467402Y-12678153D01*
X-11063486Y22559D02*
X-11539677Y22559D01*
X-11539677Y1022559D01*
X-10777772Y927320D02*
X-10730153Y974940D01*
X-10634915Y1022559D01*
X-10396820Y1022559D01*
X-10301581Y974940D01*
X-10253962Y927320D01*
X-10206343Y832082D01*
X-10206343Y736844D01*
X-10253962Y593987D01*
X-10825391Y22559D01*
X-10206343Y22559D01*
X-9283659Y-9670650D02*
X-10283659Y-9670650D01*
X-9378897Y-8623031D02*
X-9331278Y-8670650D01*
X-9283659Y-8813507D01*
X-9283659Y-8908745D01*
X-9331278Y-9051602D01*
X-9426516Y-9146840D01*
X-9521754Y-9194460D01*
X-9712230Y-9242079D01*
X-9855087Y-9242079D01*
X-10045563Y-9194460D01*
X-10140801Y-9146840D01*
X-10236040Y-9051602D01*
X-10283659Y-8908745D01*
X-10283659Y-8813507D01*
X-10236040Y-8670650D01*
X-10188420Y-8623031D01*
X-10283659Y-8289698D02*
X-10283659Y-7670650D01*
X-9902706Y-8003983D01*
X-9902706Y-7861126D01*
X-9855087Y-7765888D01*
X-9807468Y-7718269D01*
X-9712230Y-7670650D01*
X-9474135Y-7670650D01*
X-9378897Y-7718269D01*
X-9331278Y-7765888D01*
X-9283659Y-7861126D01*
X-9283659Y-8146840D01*
X-9331278Y-8242079D01*
X-9378897Y-8289698D01*
X-3809175Y-8697260D02*
X-3809175Y-7697260D01*
X-3571080Y-7697260D01*
X-3428222Y-7744880D01*
X-3332984Y-7840118D01*
X-3285365Y-7935356D01*
X-3237746Y-8125832D01*
X-3237746Y-8268689D01*
X-3285365Y-8459165D01*
X-3332984Y-8554403D01*
X-3428222Y-8649641D01*
X-3571080Y-8697260D01*
X-3809175Y-8697260D01*
X-2332984Y-7697260D02*
X-2809175Y-7697260D01*
X-2856794Y-8173451D01*
X-2809175Y-8125832D01*
X-2713937Y-8078213D01*
X-2475841Y-8078213D01*
X-2380603Y-8125832D01*
X-2332984Y-8173451D01*
X-2285365Y-8268689D01*
X-2285365Y-8506784D01*
X-2332984Y-8602022D01*
X-2380603Y-8649641D01*
X-2475841Y-8697260D01*
X-2713937Y-8697260D01*
X-2809175Y-8649641D01*
X-2856794Y-8602022D01*
X-4690057Y10393402D02*
X-4642438Y10345783D01*
X-4594819Y10202926D01*
X-4594819Y10107688D01*
X-4642438Y9964831D01*
X-4737676Y9869593D01*
X-4832914Y9821974D01*
X-5023390Y9774355D01*
X-5166247Y9774355D01*
X-5356723Y9821974D01*
X-5451961Y9869593D01*
X-5547200Y9964831D01*
X-5594819Y10107688D01*
X-5594819Y10202926D01*
X-5547200Y10345783D01*
X-5499580Y10393402D01*
X-4594819Y11345783D02*
X-4594819Y10774355D01*
X-4594819Y11060069D02*
X-5594819Y11060069D01*
X-5451961Y10964831D01*
X-5356723Y10869593D01*
X-5309104Y10774355D01*
X-5166247Y11917212D02*
X-5213866Y11821974D01*
X-5261485Y11774355D01*
X-5356723Y11726736D01*
X-5404342Y11726736D01*
X-5499580Y11774355D01*
X-5547200Y11821974D01*
X-5594819Y11917212D01*
X-5594819Y12107688D01*
X-5547200Y12202926D01*
X-5499580Y12250545D01*
X-5404342Y12298164D01*
X-5356723Y12298164D01*
X-5261485Y12250545D01*
X-5213866Y12202926D01*
X-5166247Y12107688D01*
X-5166247Y11917212D01*
X-5118628Y11821974D01*
X-5071009Y11774355D01*
X-4975771Y11726736D01*
X-4785295Y11726736D01*
X-4690057Y11774355D01*
X-4642438Y11821974D01*
X-4594819Y11917212D01*
X-4594819Y12107688D01*
X-4642438Y12202926D01*
X-4690057Y12250545D01*
X-4785295Y12298164D01*
X-4975771Y12298164D01*
X-5071009Y12250545D01*
X-5118628Y12202926D01*
X-5166247Y12107688D01*
X-4102557Y-4858062D02*
X-4150176Y-4905681D01*
X-4293033Y-4953300D01*
X-4388271Y-4953300D01*
X-4531128Y-4905681D01*
X-4626366Y-4810443D01*
X-4673985Y-4715205D01*
X-4721604Y-4524729D01*
X-4721604Y-4381872D01*
X-4673985Y-4191396D01*
X-4626366Y-4096158D01*
X-4531128Y-4000920D01*
X-4388271Y-3953300D01*
X-4293033Y-3953300D01*
X-4150176Y-4000920D01*
X-4102557Y-4048539D01*
X-3150176Y-4953300D02*
X-3721604Y-4953300D01*
X-3435890Y-4953300D02*
X-3435890Y-3953300D01*
X-3531128Y-4096158D01*
X-3626366Y-4191396D01*
X-3721604Y-4239015D01*
X-2816842Y-3953300D02*
X-2150176Y-3953300D01*
X-2578747Y-4953300D01*
X-1755597Y1511477D02*
X-1803216Y1463858D01*
X-1946073Y1416239D01*
X-2041311Y1416239D01*
X-2184168Y1463858D01*
X-2279406Y1559096D01*
X-2327025Y1654334D01*
X-2374644Y1844810D01*
X-2374644Y1987667D01*
X-2327025Y2178143D01*
X-2279406Y2273381D01*
X-2184168Y2368620D01*
X-2041311Y2416239D01*
X-1946073Y2416239D01*
X-1803216Y2368620D01*
X-1755597Y2321000D01*
X-803216Y1416239D02*
X-1374644Y1416239D01*
X-1088930Y1416239D02*
X-1088930Y2416239D01*
X-1184168Y2273381D01*
X-1279406Y2178143D01*
X-1374644Y2130524D01*
X53926Y2416239D02*
X-136549Y2416239D01*
X-231787Y2368620D01*
X-279406Y2321000D01*
X-374644Y2178143D01*
X-422263Y1987667D01*
X-422263Y1606715D01*
X-374644Y1511477D01*
X-327025Y1463858D01*
X-231787Y1416239D01*
X-41311Y1416239D01*
X53926Y1463858D01*
X101545Y1511477D01*
X149164Y1606715D01*
X149164Y1844810D01*
X101545Y1940048D01*
X53926Y1987667D01*
X-41311Y2035286D01*
X-231787Y2035286D01*
X-327025Y1987667D01*
X-374644Y1940048D01*
X-422263Y1844810D01*
X-11610797Y11359837D02*
X-11658416Y11312218D01*
X-11801273Y11264599D01*
X-11896511Y11264599D01*
X-12039368Y11312218D01*
X-12134606Y11407456D01*
X-12182225Y11502694D01*
X-12229844Y11693170D01*
X-12229844Y11836027D01*
X-12182225Y12026503D01*
X-12134606Y12121741D01*
X-12039368Y12216980D01*
X-11896511Y12264599D01*
X-11801273Y12264599D01*
X-11658416Y12216980D01*
X-11610797Y12169360D01*
X-10658416Y11264599D02*
X-11229844Y11264599D01*
X-10944130Y11264599D02*
X-10944130Y12264599D01*
X-11039368Y12121741D01*
X-11134606Y12026503D01*
X-11229844Y11978884D01*
X-9753654Y12264599D02*
X-10229844Y12264599D01*
X-10277463Y11788408D01*
X-10229844Y11836027D01*
X-10134606Y11883646D01*
X-9896511Y11883646D01*
X-9801273Y11836027D01*
X-9753654Y11788408D01*
X-9706035Y11693170D01*
X-9706035Y11455075D01*
X-9753654Y11359837D01*
X-9801273Y11312218D01*
X-9896511Y11264599D01*
X-10134606Y11264599D01*
X-10229844Y11312218D01*
X-10277463Y11359837D01*
X-10203637Y6391597D02*
X-10251256Y6343978D01*
X-10394113Y6296359D01*
X-10489351Y6296359D01*
X-10632208Y6343978D01*
X-10727446Y6439216D01*
X-10775065Y6534454D01*
X-10822684Y6724930D01*
X-10822684Y6867787D01*
X-10775065Y7058263D01*
X-10727446Y7153501D01*
X-10632208Y7248740D01*
X-10489351Y7296359D01*
X-10394113Y7296359D01*
X-10251256Y7248740D01*
X-10203637Y7201120D01*
X-9251256Y6296359D02*
X-9822684Y6296359D01*
X-9536970Y6296359D02*
X-9536970Y7296359D01*
X-9632208Y7153501D01*
X-9727446Y7058263D01*
X-9822684Y7010644D01*
X-8917922Y7296359D02*
X-8298875Y7296359D01*
X-8632208Y6915406D01*
X-8489351Y6915406D01*
X-8394113Y6867787D01*
X-8346494Y6820168D01*
X-8298875Y6724930D01*
X-8298875Y6486835D01*
X-8346494Y6391597D01*
X-8394113Y6343978D01*
X-8489351Y6296359D01*
X-8775065Y6296359D01*
X-8870303Y6343978D01*
X-8917922Y6391597D01*
X-10404297Y8672517D02*
X-10451916Y8624898D01*
X-10594773Y8577279D01*
X-10690011Y8577279D01*
X-10832868Y8624898D01*
X-10928106Y8720136D01*
X-10975725Y8815374D01*
X-11023344Y9005850D01*
X-11023344Y9148707D01*
X-10975725Y9339183D01*
X-10928106Y9434421D01*
X-10832868Y9529660D01*
X-10690011Y9577279D01*
X-10594773Y9577279D01*
X-10451916Y9529660D01*
X-10404297Y9482040D01*
X-9451916Y8577279D02*
X-10023344Y8577279D01*
X-9737630Y8577279D02*
X-9737630Y9577279D01*
X-9832868Y9434421D01*
X-9928106Y9339183D01*
X-10023344Y9291564D01*
X-8832868Y9577279D02*
X-8737630Y9577279D01*
X-8642392Y9529660D01*
X-8594773Y9482040D01*
X-8547154Y9386802D01*
X-8499535Y9196326D01*
X-8499535Y8958231D01*
X-8547154Y8767755D01*
X-8594773Y8672517D01*
X-8642392Y8624898D01*
X-8737630Y8577279D01*
X-8832868Y8577279D01*
X-8928106Y8624898D01*
X-8975725Y8672517D01*
X-9023344Y8767755D01*
X-9070963Y8958231D01*
X-9070963Y9196326D01*
X-9023344Y9386802D01*
X-8975725Y9482040D01*
X-8928106Y9529660D01*
X-8832868Y9577279D01*
X-8117086Y-14609122D02*
X-8164705Y-14656741D01*
X-8307562Y-14704360D01*
X-8402800Y-14704360D01*
X-8545658Y-14656741D01*
X-8640896Y-14561503D01*
X-8688515Y-14466265D01*
X-8736134Y-14275789D01*
X-8736134Y-14132932D01*
X-8688515Y-13942456D01*
X-8640896Y-13847218D01*
X-8545658Y-13751980D01*
X-8402800Y-13704360D01*
X-8307562Y-13704360D01*
X-8164705Y-13751980D01*
X-8117086Y-13799599D01*
X-7640896Y-14704360D02*
X-7450420Y-14704360D01*
X-7355181Y-14656741D01*
X-7307562Y-14609122D01*
X-7212324Y-14466265D01*
X-7164705Y-14275789D01*
X-7164705Y-13894837D01*
X-7212324Y-13799599D01*
X-7259943Y-13751980D01*
X-7355181Y-13704360D01*
X-7545658Y-13704360D01*
X-7640896Y-13751980D01*
X-7688515Y-13799599D01*
X-7736134Y-13894837D01*
X-7736134Y-14132932D01*
X-7688515Y-14228170D01*
X-7640896Y-14275789D01*
X-7545658Y-14323408D01*
X-7355181Y-14323408D01*
X-7259943Y-14275789D01*
X-7212324Y-14228170D01*
X-7164705Y-14132932D01*
X-15396157Y-8061026D02*
X-15348538Y-8108645D01*
X-15300919Y-8251502D01*
X-15300919Y-8346740D01*
X-15348538Y-8489598D01*
X-15443776Y-8584836D01*
X-15539014Y-8632455D01*
X-15729490Y-8680074D01*
X-15872347Y-8680074D01*
X-16062823Y-8632455D01*
X-16158061Y-8584836D01*
X-16253300Y-8489598D01*
X-16300919Y-8346740D01*
X-16300919Y-8251502D01*
X-16253300Y-8108645D01*
X-16205680Y-8061026D01*
X-15872347Y-7489598D02*
X-15919966Y-7584836D01*
X-15967585Y-7632455D01*
X-16062823Y-7680074D01*
X-16110442Y-7680074D01*
X-16205680Y-7632455D01*
X-16253300Y-7584836D01*
X-16300919Y-7489598D01*
X-16300919Y-7299121D01*
X-16253300Y-7203883D01*
X-16205680Y-7156264D01*
X-16110442Y-7108645D01*
X-16062823Y-7108645D01*
X-15967585Y-7156264D01*
X-15919966Y-7203883D01*
X-15872347Y-7299121D01*
X-15872347Y-7489598D01*
X-15824728Y-7584836D01*
X-15777109Y-7632455D01*
X-15681871Y-7680074D01*
X-15491395Y-7680074D01*
X-15396157Y-7632455D01*
X-15348538Y-7584836D01*
X-15300919Y-7489598D01*
X-15300919Y-7299121D01*
X-15348538Y-7203883D01*
X-15396157Y-7156264D01*
X-15491395Y-7108645D01*
X-15681871Y-7108645D01*
X-15777109Y-7156264D01*
X-15824728Y-7203883D01*
X-15872347Y-7299121D01*
X-8146997Y-4063066D02*
X-8099378Y-4110685D01*
X-8051759Y-4253542D01*
X-8051759Y-4348780D01*
X-8099378Y-4491638D01*
X-8194616Y-4586876D01*
X-8289854Y-4634495D01*
X-8480330Y-4682114D01*
X-8623187Y-4682114D01*
X-8813663Y-4634495D01*
X-8908901Y-4586876D01*
X-9004140Y-4491638D01*
X-9051759Y-4348780D01*
X-9051759Y-4253542D01*
X-9004140Y-4110685D01*
X-8956520Y-4063066D01*
X-8956520Y-3682114D02*
X-9004140Y-3634495D01*
X-9051759Y-3539257D01*
X-9051759Y-3301161D01*
X-9004140Y-3205923D01*
X-8956520Y-3158304D01*
X-8861282Y-3110685D01*
X-8766044Y-3110685D01*
X-8623187Y-3158304D01*
X-8051759Y-3729733D01*
X-8051759Y-3110685D01*
X2990333Y-1967542D02*
X2942714Y-2015161D01*
X2799857Y-2062780D01*
X2704619Y-2062780D01*
X2561761Y-2015161D01*
X2466523Y-1919923D01*
X2418904Y-1824685D01*
X2371285Y-1634209D01*
X2371285Y-1491352D01*
X2418904Y-1300876D01*
X2466523Y-1205638D01*
X2561761Y-1110400D01*
X2704619Y-1062780D01*
X2799857Y-1062780D01*
X2942714Y-1110400D01*
X2990333Y-1158019D01*
X3942714Y-2062780D02*
X3371285Y-2062780D01*
X3657000Y-2062780D02*
X3657000Y-1062780D01*
X3561761Y-1205638D01*
X3466523Y-1300876D01*
X3371285Y-1348495D01*
M02*
