G04 #@! TF.GenerationSoftware,KiCad,Pcbnew,(5.1.10)-1*
G04 #@! TF.CreationDate,2021-05-29T17:35:04+08:00*
G04 #@! TF.ProjectId,tiny_V1.0,74696e79-5f56-4312-9e30-2e6b69636164,rev?*
G04 #@! TF.SameCoordinates,Original*
G04 #@! TF.FileFunction,Copper,L1,Top*
G04 #@! TF.FilePolarity,Positive*
%FSLAX46Y46*%
G04 Gerber Fmt 4.6, Leading zero omitted, Abs format (unit mm)*
G04 Created by KiCad (PCBNEW (5.1.10)-1) date 2021-05-29 17:35:04*
%MOMM*%
%LPD*%
G01*
G04 APERTURE LIST*
G04 #@! TA.AperFunction,ComponentPad*
%ADD10O,1.950000X1.700000*%
G04 #@! TD*
G04 #@! TA.AperFunction,ComponentPad*
%ADD11C,3.000000*%
G04 #@! TD*
G04 #@! TA.AperFunction,ComponentPad*
%ADD12R,3.000000X3.000000*%
G04 #@! TD*
G04 #@! TA.AperFunction,SMDPad,CuDef*
%ADD13R,1.200000X1.400000*%
G04 #@! TD*
G04 #@! TA.AperFunction,SMDPad,CuDef*
%ADD14R,0.250000X0.750000*%
G04 #@! TD*
G04 #@! TA.AperFunction,SMDPad,CuDef*
%ADD15R,0.900000X0.800000*%
G04 #@! TD*
G04 #@! TA.AperFunction,SMDPad,CuDef*
%ADD16R,3.600000X4.100000*%
G04 #@! TD*
G04 #@! TA.AperFunction,ComponentPad*
%ADD17O,1.000000X1.000000*%
G04 #@! TD*
G04 #@! TA.AperFunction,ComponentPad*
%ADD18R,1.000000X1.000000*%
G04 #@! TD*
G04 #@! TA.AperFunction,ComponentPad*
%ADD19C,0.100000*%
G04 #@! TD*
G04 #@! TA.AperFunction,SMDPad,CuDef*
%ADD20R,3.502000X2.613000*%
G04 #@! TD*
G04 #@! TA.AperFunction,SMDPad,CuDef*
%ADD21R,0.802000X1.505000*%
G04 #@! TD*
G04 #@! TA.AperFunction,SMDPad,CuDef*
%ADD22C,0.100000*%
G04 #@! TD*
G04 #@! TA.AperFunction,SMDPad,CuDef*
%ADD23R,0.550000X0.300000*%
G04 #@! TD*
G04 #@! TA.AperFunction,SMDPad,CuDef*
%ADD24R,0.300000X0.550000*%
G04 #@! TD*
G04 #@! TA.AperFunction,SMDPad,CuDef*
%ADD25R,2.500000X3.300000*%
G04 #@! TD*
G04 #@! TA.AperFunction,ViaPad*
%ADD26C,0.800000*%
G04 #@! TD*
G04 #@! TA.AperFunction,ViaPad*
%ADD27C,0.600000*%
G04 #@! TD*
G04 #@! TA.AperFunction,Conductor*
%ADD28C,0.381000*%
G04 #@! TD*
G04 #@! TA.AperFunction,Conductor*
%ADD29C,0.203200*%
G04 #@! TD*
G04 #@! TA.AperFunction,Conductor*
%ADD30C,0.254000*%
G04 #@! TD*
G04 #@! TA.AperFunction,Conductor*
%ADD31C,0.635000*%
G04 #@! TD*
G04 #@! TA.AperFunction,Conductor*
%ADD32C,1.524000*%
G04 #@! TD*
G04 #@! TA.AperFunction,Conductor*
%ADD33C,0.100000*%
G04 #@! TD*
G04 APERTURE END LIST*
G04 #@! TA.AperFunction,SMDPad,CuDef*
G36*
G01*
X7076400Y-11271900D02*
X7416400Y-11271900D01*
G75*
G02*
X7556400Y-11411900I0J-140000D01*
G01*
X7556400Y-11691900D01*
G75*
G02*
X7416400Y-11831900I-140000J0D01*
G01*
X7076400Y-11831900D01*
G75*
G02*
X6936400Y-11691900I0J140000D01*
G01*
X6936400Y-11411900D01*
G75*
G02*
X7076400Y-11271900I140000J0D01*
G01*
G37*
G04 #@! TD.AperFunction*
G04 #@! TA.AperFunction,SMDPad,CuDef*
G36*
G01*
X7076400Y-10311900D02*
X7416400Y-10311900D01*
G75*
G02*
X7556400Y-10451900I0J-140000D01*
G01*
X7556400Y-10731900D01*
G75*
G02*
X7416400Y-10871900I-140000J0D01*
G01*
X7076400Y-10871900D01*
G75*
G02*
X6936400Y-10731900I0J140000D01*
G01*
X6936400Y-10451900D01*
G75*
G02*
X7076400Y-10311900I140000J0D01*
G01*
G37*
G04 #@! TD.AperFunction*
D10*
X12976640Y-8342680D03*
X12976640Y-5842680D03*
G04 #@! TA.AperFunction,ComponentPad*
G36*
G01*
X12251640Y-2492680D02*
X13701640Y-2492680D01*
G75*
G02*
X13951640Y-2742680I0J-250000D01*
G01*
X13951640Y-3942680D01*
G75*
G02*
X13701640Y-4192680I-250000J0D01*
G01*
X12251640Y-4192680D01*
G75*
G02*
X12001640Y-3942680I0J250000D01*
G01*
X12001640Y-2742680D01*
G75*
G02*
X12251640Y-2492680I250000J0D01*
G01*
G37*
G04 #@! TD.AperFunction*
X12953780Y2586940D03*
X12953780Y5086940D03*
G04 #@! TA.AperFunction,ComponentPad*
G36*
G01*
X12228780Y8436940D02*
X13678780Y8436940D01*
G75*
G02*
X13928780Y8186940I0J-250000D01*
G01*
X13928780Y6986940D01*
G75*
G02*
X13678780Y6736940I-250000J0D01*
G01*
X12228780Y6736940D01*
G75*
G02*
X11978780Y6986940I0J250000D01*
G01*
X11978780Y8186940D01*
G75*
G02*
X12228780Y8436940I250000J0D01*
G01*
G37*
G04 #@! TD.AperFunction*
D11*
X1916360Y-15582940D03*
D12*
X-1963640Y-15582940D03*
D13*
X-1162640Y-2994880D03*
X-1162640Y-794880D03*
X537360Y-794880D03*
X537360Y-2994880D03*
D14*
X8550120Y-1593220D03*
X8050120Y-1593220D03*
X7550120Y-1593220D03*
X7050120Y-1593220D03*
X7050120Y1506780D03*
X7550120Y1506780D03*
X8050120Y1506780D03*
X8550120Y1506780D03*
D15*
X-8660860Y14190940D03*
X-6660860Y15140940D03*
X-6660860Y13240940D03*
G04 #@! TA.AperFunction,SMDPad,CuDef*
G36*
G01*
X-16670660Y-5711260D02*
X-17040660Y-5711260D01*
G75*
G02*
X-17175660Y-5576260I0J135000D01*
G01*
X-17175660Y-5306260D01*
G75*
G02*
X-17040660Y-5171260I135000J0D01*
G01*
X-16670660Y-5171260D01*
G75*
G02*
X-16535660Y-5306260I0J-135000D01*
G01*
X-16535660Y-5576260D01*
G75*
G02*
X-16670660Y-5711260I-135000J0D01*
G01*
G37*
G04 #@! TD.AperFunction*
G04 #@! TA.AperFunction,SMDPad,CuDef*
G36*
G01*
X-16670660Y-6731260D02*
X-17040660Y-6731260D01*
G75*
G02*
X-17175660Y-6596260I0J135000D01*
G01*
X-17175660Y-6326260D01*
G75*
G02*
X-17040660Y-6191260I135000J0D01*
G01*
X-16670660Y-6191260D01*
G75*
G02*
X-16535660Y-6326260I0J-135000D01*
G01*
X-16535660Y-6596260D01*
G75*
G02*
X-16670660Y-6731260I-135000J0D01*
G01*
G37*
G04 #@! TD.AperFunction*
G04 #@! TA.AperFunction,SMDPad,CuDef*
G36*
G01*
X-14674220Y-5718880D02*
X-15044220Y-5718880D01*
G75*
G02*
X-15179220Y-5583880I0J135000D01*
G01*
X-15179220Y-5313880D01*
G75*
G02*
X-15044220Y-5178880I135000J0D01*
G01*
X-14674220Y-5178880D01*
G75*
G02*
X-14539220Y-5313880I0J-135000D01*
G01*
X-14539220Y-5583880D01*
G75*
G02*
X-14674220Y-5718880I-135000J0D01*
G01*
G37*
G04 #@! TD.AperFunction*
G04 #@! TA.AperFunction,SMDPad,CuDef*
G36*
G01*
X-14674220Y-6738880D02*
X-15044220Y-6738880D01*
G75*
G02*
X-15179220Y-6603880I0J135000D01*
G01*
X-15179220Y-6333880D01*
G75*
G02*
X-15044220Y-6198880I135000J0D01*
G01*
X-14674220Y-6198880D01*
G75*
G02*
X-14539220Y-6333880I0J-135000D01*
G01*
X-14539220Y-6603880D01*
G75*
G02*
X-14674220Y-6738880I-135000J0D01*
G01*
G37*
G04 #@! TD.AperFunction*
G04 #@! TA.AperFunction,SMDPad,CuDef*
G36*
G01*
X2112640Y-1893640D02*
X1742640Y-1893640D01*
G75*
G02*
X1607640Y-1758640I0J135000D01*
G01*
X1607640Y-1488640D01*
G75*
G02*
X1742640Y-1353640I135000J0D01*
G01*
X2112640Y-1353640D01*
G75*
G02*
X2247640Y-1488640I0J-135000D01*
G01*
X2247640Y-1758640D01*
G75*
G02*
X2112640Y-1893640I-135000J0D01*
G01*
G37*
G04 #@! TD.AperFunction*
G04 #@! TA.AperFunction,SMDPad,CuDef*
G36*
G01*
X2112640Y-2913640D02*
X1742640Y-2913640D01*
G75*
G02*
X1607640Y-2778640I0J135000D01*
G01*
X1607640Y-2508640D01*
G75*
G02*
X1742640Y-2373640I135000J0D01*
G01*
X2112640Y-2373640D01*
G75*
G02*
X2247640Y-2508640I0J-135000D01*
G01*
X2247640Y-2778640D01*
G75*
G02*
X2112640Y-2913640I-135000J0D01*
G01*
G37*
G04 #@! TD.AperFunction*
G04 #@! TA.AperFunction,SMDPad,CuDef*
G36*
G01*
X6316340Y-10826820D02*
X5946340Y-10826820D01*
G75*
G02*
X5811340Y-10691820I0J135000D01*
G01*
X5811340Y-10421820D01*
G75*
G02*
X5946340Y-10286820I135000J0D01*
G01*
X6316340Y-10286820D01*
G75*
G02*
X6451340Y-10421820I0J-135000D01*
G01*
X6451340Y-10691820D01*
G75*
G02*
X6316340Y-10826820I-135000J0D01*
G01*
G37*
G04 #@! TD.AperFunction*
G04 #@! TA.AperFunction,SMDPad,CuDef*
G36*
G01*
X6316340Y-11846820D02*
X5946340Y-11846820D01*
G75*
G02*
X5811340Y-11711820I0J135000D01*
G01*
X5811340Y-11441820D01*
G75*
G02*
X5946340Y-11306820I135000J0D01*
G01*
X6316340Y-11306820D01*
G75*
G02*
X6451340Y-11441820I0J-135000D01*
G01*
X6451340Y-11711820D01*
G75*
G02*
X6316340Y-11846820I-135000J0D01*
G01*
G37*
G04 #@! TD.AperFunction*
G04 #@! TA.AperFunction,SMDPad,CuDef*
G36*
G01*
X-12533820Y-12499800D02*
X-12533820Y-12869800D01*
G75*
G02*
X-12668820Y-13004800I-135000J0D01*
G01*
X-12938820Y-13004800D01*
G75*
G02*
X-13073820Y-12869800I0J135000D01*
G01*
X-13073820Y-12499800D01*
G75*
G02*
X-12938820Y-12364800I135000J0D01*
G01*
X-12668820Y-12364800D01*
G75*
G02*
X-12533820Y-12499800I0J-135000D01*
G01*
G37*
G04 #@! TD.AperFunction*
G04 #@! TA.AperFunction,SMDPad,CuDef*
G36*
G01*
X-11513820Y-12499800D02*
X-11513820Y-12869800D01*
G75*
G02*
X-11648820Y-13004800I-135000J0D01*
G01*
X-11918820Y-13004800D01*
G75*
G02*
X-12053820Y-12869800I0J135000D01*
G01*
X-12053820Y-12499800D01*
G75*
G02*
X-11918820Y-12364800I135000J0D01*
G01*
X-11648820Y-12364800D01*
G75*
G02*
X-11513820Y-12499800I0J-135000D01*
G01*
G37*
G04 #@! TD.AperFunction*
G04 #@! TA.AperFunction,SMDPad,CuDef*
G36*
G01*
X4846520Y-11311900D02*
X5216520Y-11311900D01*
G75*
G02*
X5351520Y-11446900I0J-135000D01*
G01*
X5351520Y-11716900D01*
G75*
G02*
X5216520Y-11851900I-135000J0D01*
G01*
X4846520Y-11851900D01*
G75*
G02*
X4711520Y-11716900I0J135000D01*
G01*
X4711520Y-11446900D01*
G75*
G02*
X4846520Y-11311900I135000J0D01*
G01*
G37*
G04 #@! TD.AperFunction*
G04 #@! TA.AperFunction,SMDPad,CuDef*
G36*
G01*
X4846520Y-10291900D02*
X5216520Y-10291900D01*
G75*
G02*
X5351520Y-10426900I0J-135000D01*
G01*
X5351520Y-10696900D01*
G75*
G02*
X5216520Y-10831900I-135000J0D01*
G01*
X4846520Y-10831900D01*
G75*
G02*
X4711520Y-10696900I0J135000D01*
G01*
X4711520Y-10426900D01*
G75*
G02*
X4846520Y-10291900I135000J0D01*
G01*
G37*
G04 #@! TD.AperFunction*
D16*
X-15895740Y309840D03*
X-6395740Y309840D03*
D17*
X423960Y16923980D03*
X-846040Y16923980D03*
X-2116040Y16923980D03*
D18*
X-3386040Y16923980D03*
G04 #@! TA.AperFunction,ComponentPad*
G36*
G01*
X7476064Y11574122D02*
X7476064Y11574122D01*
G75*
G02*
X7476064Y12528716I477297J477297D01*
G01*
X7476064Y12528716D01*
G75*
G02*
X8430658Y12528716I477297J-477297D01*
G01*
X8430658Y12528716D01*
G75*
G02*
X8430658Y11574122I-477297J-477297D01*
G01*
X8430658Y11574122D01*
G75*
G02*
X7476064Y11574122I-477297J477297D01*
G01*
G37*
G04 #@! TD.AperFunction*
G04 #@! TA.AperFunction,ComponentPad*
G36*
G01*
X6061850Y12988336D02*
X6061850Y12988336D01*
G75*
G02*
X6061850Y13942930I477297J477297D01*
G01*
X6061850Y13942930D01*
G75*
G02*
X7016444Y13942930I477297J-477297D01*
G01*
X7016444Y13942930D01*
G75*
G02*
X7016444Y12988336I-477297J-477297D01*
G01*
X7016444Y12988336D01*
G75*
G02*
X6061850Y12988336I-477297J477297D01*
G01*
G37*
G04 #@! TD.AperFunction*
G04 #@! TA.AperFunction,ComponentPad*
G36*
G01*
X4647637Y14402549D02*
X4647637Y14402549D01*
G75*
G02*
X4647637Y15357143I477297J477297D01*
G01*
X4647637Y15357143D01*
G75*
G02*
X5602231Y15357143I477297J-477297D01*
G01*
X5602231Y15357143D01*
G75*
G02*
X5602231Y14402549I-477297J-477297D01*
G01*
X5602231Y14402549D01*
G75*
G02*
X4647637Y14402549I-477297J477297D01*
G01*
G37*
G04 #@! TD.AperFunction*
G04 #@! TA.AperFunction,ComponentPad*
D19*
G36*
X3710720Y15339466D02*
G01*
X2756126Y16294060D01*
X3710720Y17248654D01*
X4665314Y16294060D01*
X3710720Y15339466D01*
G37*
G04 #@! TD.AperFunction*
D20*
X-11696920Y-8686840D03*
D21*
X-9791920Y-11184340D03*
X-11061920Y-11184340D03*
X-12331920Y-11184340D03*
X-13601920Y-11184340D03*
X-13601920Y-6189340D03*
X-12331920Y-6189340D03*
X-11061920Y-6189340D03*
X-9791920Y-6189340D03*
G04 #@! TA.AperFunction,SMDPad,CuDef*
D22*
G36*
X1005680Y4576040D02*
G01*
X1155680Y4426040D01*
X1155680Y4276040D01*
X605680Y4276040D01*
X605680Y4576040D01*
X1005680Y4576040D01*
G37*
G04 #@! TD.AperFunction*
G04 #@! TA.AperFunction,SMDPad,CuDef*
G36*
X4405680Y4676040D02*
G01*
X4255680Y4526040D01*
X4105680Y4526040D01*
X4105680Y5076040D01*
X4405680Y5076040D01*
X4405680Y4676040D01*
G37*
G04 #@! TD.AperFunction*
G04 #@! TA.AperFunction,SMDPad,CuDef*
G36*
X4505680Y1276040D02*
G01*
X4355680Y1426040D01*
X4355680Y1576040D01*
X4905680Y1576040D01*
X4905680Y1276040D01*
X4505680Y1276040D01*
G37*
G04 #@! TD.AperFunction*
G04 #@! TA.AperFunction,SMDPad,CuDef*
G36*
X1105680Y1176040D02*
G01*
X1255680Y1326040D01*
X1405680Y1326040D01*
X1405680Y776040D01*
X1105680Y776040D01*
X1105680Y1176040D01*
G37*
G04 #@! TD.AperFunction*
G04 #@! TA.AperFunction,SMDPad,CuDef*
G36*
X4105680Y1326040D02*
G01*
X4255680Y1326040D01*
X4405680Y1176040D01*
X4405680Y776040D01*
X4105680Y776040D01*
X4105680Y1326040D01*
G37*
G04 #@! TD.AperFunction*
G04 #@! TA.AperFunction,SMDPad,CuDef*
G36*
X4355680Y4276040D02*
G01*
X4355680Y4426040D01*
X4505680Y4576040D01*
X4905680Y4576040D01*
X4905680Y4276040D01*
X4355680Y4276040D01*
G37*
G04 #@! TD.AperFunction*
G04 #@! TA.AperFunction,SMDPad,CuDef*
G36*
X1405680Y4526040D02*
G01*
X1255680Y4526040D01*
X1105680Y4676040D01*
X1105680Y5076040D01*
X1405680Y5076040D01*
X1405680Y4526040D01*
G37*
G04 #@! TD.AperFunction*
G04 #@! TA.AperFunction,SMDPad,CuDef*
G36*
X1155680Y1576040D02*
G01*
X1155680Y1426040D01*
X1005680Y1276040D01*
X605680Y1276040D01*
X605680Y1576040D01*
X1155680Y1576040D01*
G37*
G04 #@! TD.AperFunction*
D23*
X880680Y1926040D03*
X880680Y2426040D03*
X880680Y2926040D03*
X880680Y3426040D03*
X880680Y3926040D03*
D24*
X1755680Y4801040D03*
X2255680Y4801040D03*
X2755680Y4801040D03*
X3255680Y4801040D03*
X3755680Y4801040D03*
D23*
X4630680Y3926040D03*
X4630680Y3426040D03*
X4630680Y2926040D03*
X4630680Y2426040D03*
X4630680Y1926040D03*
D24*
X3755680Y1051040D03*
X3255680Y1051040D03*
X2755680Y1051040D03*
X2255680Y1051040D03*
X1755680Y1051040D03*
D25*
X527040Y-8481100D03*
X-6272960Y-8481100D03*
G04 #@! TA.AperFunction,SMDPad,CuDef*
G36*
G01*
X-4971239Y-13341820D02*
X-6271241Y-13341820D01*
G75*
G02*
X-6521240Y-13091821I0J249999D01*
G01*
X-6521240Y-12441819D01*
G75*
G02*
X-6271241Y-12191820I249999J0D01*
G01*
X-4971239Y-12191820D01*
G75*
G02*
X-4721240Y-12441819I0J-249999D01*
G01*
X-4721240Y-13091821D01*
G75*
G02*
X-4971239Y-13341820I-249999J0D01*
G01*
G37*
G04 #@! TD.AperFunction*
G04 #@! TA.AperFunction,SMDPad,CuDef*
G36*
G01*
X-4971239Y-16291820D02*
X-6271241Y-16291820D01*
G75*
G02*
X-6521240Y-16041821I0J249999D01*
G01*
X-6521240Y-15391819D01*
G75*
G02*
X-6271241Y-15141820I249999J0D01*
G01*
X-4971239Y-15141820D01*
G75*
G02*
X-4721240Y-15391819I0J-249999D01*
G01*
X-4721240Y-16041821D01*
G75*
G02*
X-4971239Y-16291820I-249999J0D01*
G01*
G37*
G04 #@! TD.AperFunction*
G04 #@! TA.AperFunction,SMDPad,CuDef*
G36*
G01*
X-5421660Y13589080D02*
X-4921660Y13589080D01*
G75*
G02*
X-4696660Y13364080I0J-225000D01*
G01*
X-4696660Y12914080D01*
G75*
G02*
X-4921660Y12689080I-225000J0D01*
G01*
X-5421660Y12689080D01*
G75*
G02*
X-5646660Y12914080I0J225000D01*
G01*
X-5646660Y13364080D01*
G75*
G02*
X-5421660Y13589080I225000J0D01*
G01*
G37*
G04 #@! TD.AperFunction*
G04 #@! TA.AperFunction,SMDPad,CuDef*
G36*
G01*
X-5421660Y15139080D02*
X-4921660Y15139080D01*
G75*
G02*
X-4696660Y14914080I0J-225000D01*
G01*
X-4696660Y14464080D01*
G75*
G02*
X-4921660Y14239080I-225000J0D01*
G01*
X-5421660Y14239080D01*
G75*
G02*
X-5646660Y14464080I0J225000D01*
G01*
X-5646660Y14914080D01*
G75*
G02*
X-5421660Y15139080I225000J0D01*
G01*
G37*
G04 #@! TD.AperFunction*
G04 #@! TA.AperFunction,SMDPad,CuDef*
G36*
G01*
X-874640Y-4676000D02*
X-874640Y-4336000D01*
G75*
G02*
X-734640Y-4196000I140000J0D01*
G01*
X-454640Y-4196000D01*
G75*
G02*
X-314640Y-4336000I0J-140000D01*
G01*
X-314640Y-4676000D01*
G75*
G02*
X-454640Y-4816000I-140000J0D01*
G01*
X-734640Y-4816000D01*
G75*
G02*
X-874640Y-4676000I0J140000D01*
G01*
G37*
G04 #@! TD.AperFunction*
G04 #@! TA.AperFunction,SMDPad,CuDef*
G36*
G01*
X-1834640Y-4676000D02*
X-1834640Y-4336000D01*
G75*
G02*
X-1694640Y-4196000I140000J0D01*
G01*
X-1414640Y-4196000D01*
G75*
G02*
X-1274640Y-4336000I0J-140000D01*
G01*
X-1274640Y-4676000D01*
G75*
G02*
X-1414640Y-4816000I-140000J0D01*
G01*
X-1694640Y-4816000D01*
G75*
G02*
X-1834640Y-4676000I0J140000D01*
G01*
G37*
G04 #@! TD.AperFunction*
G04 #@! TA.AperFunction,SMDPad,CuDef*
G36*
G01*
X-912740Y538620D02*
X-912740Y878620D01*
G75*
G02*
X-772740Y1018620I140000J0D01*
G01*
X-492740Y1018620D01*
G75*
G02*
X-352740Y878620I0J-140000D01*
G01*
X-352740Y538620D01*
G75*
G02*
X-492740Y398620I-140000J0D01*
G01*
X-772740Y398620D01*
G75*
G02*
X-912740Y538620I0J140000D01*
G01*
G37*
G04 #@! TD.AperFunction*
G04 #@! TA.AperFunction,SMDPad,CuDef*
G36*
G01*
X-1872740Y538620D02*
X-1872740Y878620D01*
G75*
G02*
X-1732740Y1018620I140000J0D01*
G01*
X-1452740Y1018620D01*
G75*
G02*
X-1312740Y878620I0J-140000D01*
G01*
X-1312740Y538620D01*
G75*
G02*
X-1452740Y398620I-140000J0D01*
G01*
X-1732740Y398620D01*
G75*
G02*
X-1872740Y538620I0J140000D01*
G01*
G37*
G04 #@! TD.AperFunction*
G04 #@! TA.AperFunction,SMDPad,CuDef*
G36*
G01*
X-10609920Y12917320D02*
X-10609920Y13417320D01*
G75*
G02*
X-10384920Y13642320I225000J0D01*
G01*
X-9934920Y13642320D01*
G75*
G02*
X-9709920Y13417320I0J-225000D01*
G01*
X-9709920Y12917320D01*
G75*
G02*
X-9934920Y12692320I-225000J0D01*
G01*
X-10384920Y12692320D01*
G75*
G02*
X-10609920Y12917320I0J225000D01*
G01*
G37*
G04 #@! TD.AperFunction*
G04 #@! TA.AperFunction,SMDPad,CuDef*
G36*
G01*
X-12159920Y12917320D02*
X-12159920Y13417320D01*
G75*
G02*
X-11934920Y13642320I225000J0D01*
G01*
X-11484920Y13642320D01*
G75*
G02*
X-11259920Y13417320I0J-225000D01*
G01*
X-11259920Y12917320D01*
G75*
G02*
X-11484920Y12692320I-225000J0D01*
G01*
X-11934920Y12692320D01*
G75*
G02*
X-12159920Y12917320I0J225000D01*
G01*
G37*
G04 #@! TD.AperFunction*
G04 #@! TA.AperFunction,SMDPad,CuDef*
G36*
G01*
X-14341900Y7457161D02*
X-14341900Y6157159D01*
G75*
G02*
X-14591899Y5907160I-249999J0D01*
G01*
X-15241901Y5907160D01*
G75*
G02*
X-15491900Y6157159I0J249999D01*
G01*
X-15491900Y7457161D01*
G75*
G02*
X-15241901Y7707160I249999J0D01*
G01*
X-14591899Y7707160D01*
G75*
G02*
X-14341900Y7457161I0J-249999D01*
G01*
G37*
G04 #@! TD.AperFunction*
G04 #@! TA.AperFunction,SMDPad,CuDef*
G36*
G01*
X-11391900Y7457161D02*
X-11391900Y6157159D01*
G75*
G02*
X-11641899Y5907160I-249999J0D01*
G01*
X-12291901Y5907160D01*
G75*
G02*
X-12541900Y6157159I0J249999D01*
G01*
X-12541900Y7457161D01*
G75*
G02*
X-12291901Y7707160I249999J0D01*
G01*
X-11641899Y7707160D01*
G75*
G02*
X-11391900Y7457161I0J-249999D01*
G01*
G37*
G04 #@! TD.AperFunction*
G04 #@! TA.AperFunction,SMDPad,CuDef*
G36*
G01*
X-14331740Y9748241D02*
X-14331740Y8448239D01*
G75*
G02*
X-14581739Y8198240I-249999J0D01*
G01*
X-15231741Y8198240D01*
G75*
G02*
X-15481740Y8448239I0J249999D01*
G01*
X-15481740Y9748241D01*
G75*
G02*
X-15231741Y9998240I249999J0D01*
G01*
X-14581739Y9998240D01*
G75*
G02*
X-14331740Y9748241I0J-249999D01*
G01*
G37*
G04 #@! TD.AperFunction*
G04 #@! TA.AperFunction,SMDPad,CuDef*
G36*
G01*
X-11381740Y9748241D02*
X-11381740Y8448239D01*
G75*
G02*
X-11631739Y8198240I-249999J0D01*
G01*
X-12281741Y8198240D01*
G75*
G02*
X-12531740Y8448239I0J249999D01*
G01*
X-12531740Y9748241D01*
G75*
G02*
X-12281741Y9998240I249999J0D01*
G01*
X-11631739Y9998240D01*
G75*
G02*
X-11381740Y9748241I0J-249999D01*
G01*
G37*
G04 #@! TD.AperFunction*
G04 #@! TA.AperFunction,SMDPad,CuDef*
G36*
G01*
X-7328359Y-13362140D02*
X-8628361Y-13362140D01*
G75*
G02*
X-8878360Y-13112141I0J249999D01*
G01*
X-8878360Y-12462139D01*
G75*
G02*
X-8628361Y-12212140I249999J0D01*
G01*
X-7328359Y-12212140D01*
G75*
G02*
X-7078360Y-12462139I0J-249999D01*
G01*
X-7078360Y-13112141D01*
G75*
G02*
X-7328359Y-13362140I-249999J0D01*
G01*
G37*
G04 #@! TD.AperFunction*
G04 #@! TA.AperFunction,SMDPad,CuDef*
G36*
G01*
X-7328359Y-16312140D02*
X-8628361Y-16312140D01*
G75*
G02*
X-8878360Y-16062141I0J249999D01*
G01*
X-8878360Y-15412139D01*
G75*
G02*
X-8628361Y-15162140I249999J0D01*
G01*
X-7328359Y-15162140D01*
G75*
G02*
X-7078360Y-15412139I0J-249999D01*
G01*
X-7078360Y-16062141D01*
G75*
G02*
X-7328359Y-16312140I-249999J0D01*
G01*
G37*
G04 #@! TD.AperFunction*
G04 #@! TA.AperFunction,SMDPad,CuDef*
G36*
G01*
X-15687440Y-5751260D02*
X-16027440Y-5751260D01*
G75*
G02*
X-16167440Y-5611260I0J140000D01*
G01*
X-16167440Y-5331260D01*
G75*
G02*
X-16027440Y-5191260I140000J0D01*
G01*
X-15687440Y-5191260D01*
G75*
G02*
X-15547440Y-5331260I0J-140000D01*
G01*
X-15547440Y-5611260D01*
G75*
G02*
X-15687440Y-5751260I-140000J0D01*
G01*
G37*
G04 #@! TD.AperFunction*
G04 #@! TA.AperFunction,SMDPad,CuDef*
G36*
G01*
X-15687440Y-6711260D02*
X-16027440Y-6711260D01*
G75*
G02*
X-16167440Y-6571260I0J140000D01*
G01*
X-16167440Y-6291260D01*
G75*
G02*
X-16027440Y-6151260I140000J0D01*
G01*
X-15687440Y-6151260D01*
G75*
G02*
X-15547440Y-6291260I0J-140000D01*
G01*
X-15547440Y-6571260D01*
G75*
G02*
X-15687440Y-6711260I-140000J0D01*
G01*
G37*
G04 #@! TD.AperFunction*
G04 #@! TA.AperFunction,SMDPad,CuDef*
G36*
G01*
X-8349380Y-5908740D02*
X-8689380Y-5908740D01*
G75*
G02*
X-8829380Y-5768740I0J140000D01*
G01*
X-8829380Y-5488740D01*
G75*
G02*
X-8689380Y-5348740I140000J0D01*
G01*
X-8349380Y-5348740D01*
G75*
G02*
X-8209380Y-5488740I0J-140000D01*
G01*
X-8209380Y-5768740D01*
G75*
G02*
X-8349380Y-5908740I-140000J0D01*
G01*
G37*
G04 #@! TD.AperFunction*
G04 #@! TA.AperFunction,SMDPad,CuDef*
G36*
G01*
X-8349380Y-6868740D02*
X-8689380Y-6868740D01*
G75*
G02*
X-8829380Y-6728740I0J140000D01*
G01*
X-8829380Y-6448740D01*
G75*
G02*
X-8689380Y-6308740I140000J0D01*
G01*
X-8349380Y-6308740D01*
G75*
G02*
X-8209380Y-6448740I0J-140000D01*
G01*
X-8209380Y-6728740D01*
G75*
G02*
X-8349380Y-6868740I-140000J0D01*
G01*
G37*
G04 #@! TD.AperFunction*
G04 #@! TA.AperFunction,SMDPad,CuDef*
G36*
G01*
X3199520Y-497700D02*
X3199520Y-157700D01*
G75*
G02*
X3339520Y-17700I140000J0D01*
G01*
X3619520Y-17700D01*
G75*
G02*
X3759520Y-157700I0J-140000D01*
G01*
X3759520Y-497700D01*
G75*
G02*
X3619520Y-637700I-140000J0D01*
G01*
X3339520Y-637700D01*
G75*
G02*
X3199520Y-497700I0J140000D01*
G01*
G37*
G04 #@! TD.AperFunction*
G04 #@! TA.AperFunction,SMDPad,CuDef*
G36*
G01*
X2239520Y-497700D02*
X2239520Y-157700D01*
G75*
G02*
X2379520Y-17700I140000J0D01*
G01*
X2659520Y-17700D01*
G75*
G02*
X2799520Y-157700I0J-140000D01*
G01*
X2799520Y-497700D01*
G75*
G02*
X2659520Y-637700I-140000J0D01*
G01*
X2379520Y-637700D01*
G75*
G02*
X2239520Y-497700I0J140000D01*
G01*
G37*
G04 #@! TD.AperFunction*
D26*
X3200180Y2481540D03*
X2163860Y2552660D03*
X7314980Y8402280D03*
X7254020Y3657560D03*
X7274340Y5852120D03*
X-3949920Y13860740D03*
X-3955000Y12865060D03*
X-8493980Y13020000D03*
X-7693880Y13007300D03*
D27*
X-11046680Y-11264940D03*
D26*
X-10579320Y-9321840D03*
X-11689300Y-9321840D03*
X-12735780Y-9296440D03*
X-10553920Y-8100100D03*
X-11638500Y-8074700D03*
X-12748480Y-8087400D03*
X5336320Y-261660D03*
X5920520Y-1432600D03*
X6649500Y-7899440D03*
X10403620Y-7942620D03*
X8475760Y-5290860D03*
X6065300Y-14787920D03*
X10690640Y-13015000D03*
X-15588200Y-8074700D03*
X-14838900Y-9746020D03*
X-3464780Y-12753380D03*
X-2057620Y-12753380D03*
X-6804880Y-12702580D03*
X2199420Y3571200D03*
X3164620Y3561040D03*
X-9814780Y9786580D03*
X-8560020Y9804360D03*
X-7254460Y9822140D03*
X-5484080Y9855160D03*
X-2532600Y12105600D03*
X6527580Y-5318800D03*
X2003840Y15039300D03*
X2722660Y13825180D03*
D27*
X7414040Y-2697520D03*
X8074824Y-2697516D03*
X10944640Y-2131100D03*
X11420890Y-1644690D03*
D26*
X-12911040Y11793180D03*
X-14402020Y10886400D03*
X-13487620Y10878780D03*
X-13911800Y11755080D03*
X-2568160Y7787600D03*
X-3485100Y10939740D03*
X-2568160Y8724860D03*
X-2590000Y9884120D03*
X-2568160Y6454100D03*
D27*
X4266980Y-3401100D03*
X4266980Y-2044740D03*
X-11041600Y-12392700D03*
X-10998420Y-13213120D03*
X-142170Y1650960D03*
D26*
X-1643600Y-5946180D03*
X1828580Y-5946180D03*
D27*
X-378571Y2368643D03*
D28*
X7221480Y-11576820D02*
X7246400Y-11551900D01*
X6131340Y-11576820D02*
X7221480Y-11576820D01*
D29*
X2755680Y1960840D02*
X2163860Y2552660D01*
X2755680Y1051040D02*
X2755680Y1960840D01*
X7050120Y3453660D02*
X7254020Y3657560D01*
X7050120Y1506780D02*
X7050120Y3453660D01*
X2755680Y396140D02*
X3479520Y-327700D01*
X2755680Y1051040D02*
X2755680Y396140D01*
D30*
X-1554640Y-3386880D02*
X-1162640Y-2994880D01*
X-1554640Y-4506000D02*
X-1554640Y-3386880D01*
D31*
X11452640Y-1612940D02*
X11452640Y-1612940D01*
D30*
X7414040Y-2697520D02*
X8074820Y-2697520D01*
X8074820Y-2697520D02*
X8074824Y-2697516D01*
X8550120Y-1593220D02*
X8550120Y-2222220D01*
X8550120Y-2222220D02*
X8074824Y-2697516D01*
D31*
X11420890Y-1654850D02*
X11420890Y-1644690D01*
X10944640Y-2131100D02*
X11420890Y-1654850D01*
X-5623520Y15140940D02*
X-5171660Y14689080D01*
X-6660860Y15140940D02*
X-5623520Y15140940D01*
X-3386040Y16923980D02*
X-3487940Y16923980D01*
X-3386040Y16311840D02*
X-3386040Y16923980D01*
X-5008800Y14689080D02*
X-3386040Y16311840D01*
X-5171660Y14689080D02*
X-5008800Y14689080D01*
X15263460Y10329301D02*
X15411674Y10106828D01*
X15411674Y10106828D02*
X15556726Y9882102D01*
X15111908Y10549782D02*
X15263460Y10329301D01*
X15981460Y9179098D02*
X15981460Y2915880D01*
X14638477Y11197441D02*
X14799433Y10983827D01*
X15556726Y9882102D02*
X15698476Y9655336D01*
X14474484Y11408637D02*
X14638477Y11197441D01*
X15836927Y9426526D02*
X15972046Y9195728D01*
X14307414Y11617469D02*
X14474484Y11408637D01*
X13427600Y12624074D02*
X13609409Y12427858D01*
X13243086Y12817501D02*
X13427600Y12624074D01*
X13055634Y13008384D02*
X13243086Y12817501D01*
X12279057Y13743814D02*
X12477150Y13564231D01*
X4305698Y17920062D02*
X4565230Y17855709D01*
X7345241Y16903109D02*
X7589704Y16794762D01*
X15698476Y9655336D02*
X15836927Y9426526D01*
X4045147Y17980669D02*
X4305698Y17920062D01*
X14957269Y10767905D02*
X15111908Y10549782D01*
X3521694Y18090476D02*
X3783867Y18037461D01*
X12672686Y13381730D02*
X12865480Y13196480D01*
X2731087Y18226596D02*
X2995265Y18185049D01*
X2201018Y18298174D02*
X2466373Y18264300D01*
X1935363Y18328176D02*
X2201018Y18298174D01*
X10822116Y14918092D02*
X11037438Y14759493D01*
X13964282Y12027739D02*
X14137343Y11823840D01*
X1402660Y18376620D02*
X1669190Y18354330D01*
X13609409Y12427858D02*
X13788264Y12229123D01*
X1669190Y18354330D02*
X1935363Y18328176D01*
X601621Y18420252D02*
X868838Y18409583D01*
X7832611Y16682861D02*
X8073872Y16567445D01*
X12477150Y13564231D02*
X12672686Y13381730D01*
X334278Y18427042D02*
X601621Y18420252D01*
X10604509Y15073554D02*
X10822116Y14918092D01*
X-3386040Y16923980D02*
X-3386040Y17434874D01*
X10162663Y15374912D02*
X10384615Y15225880D01*
X-3386040Y17434874D02*
X-2571266Y18249648D01*
X2995265Y18185049D02*
X3258954Y18139648D01*
X14799433Y10983827D02*
X14957269Y10767905D01*
X-1536024Y18365955D02*
X-1269259Y18386317D01*
X14137343Y11823840D02*
X14307414Y11617469D01*
X-2333826Y18281711D02*
X-2068238Y18313658D01*
X13788264Y12229123D02*
X13964282Y12027739D01*
X-467963Y18424134D02*
X-200598Y18428983D01*
X-1269259Y18386317D02*
X-1002394Y18402795D01*
X9483893Y15802640D02*
X9712257Y15663324D01*
X-2571266Y18249648D02*
X-2333826Y18281711D01*
X11669307Y14265165D02*
X11875033Y14094369D01*
X-200598Y18428983D02*
X66849Y18429952D01*
X3783867Y18037461D02*
X4045147Y17980669D01*
X5593342Y17560813D02*
X5847620Y17477785D01*
X-1002394Y18402795D02*
X-735257Y18415403D01*
X868838Y18409583D02*
X1135919Y18395035D01*
X11250426Y14597793D02*
X11461084Y14432991D01*
X-735257Y18415403D02*
X-467963Y18424134D01*
X11875033Y14094369D02*
X12078327Y13920549D01*
X4823818Y17787592D02*
X5081450Y17715714D01*
X6100561Y17391113D02*
X6352290Y17300754D01*
X8073872Y16567445D02*
X8313419Y16448548D01*
X5081450Y17715714D02*
X5337924Y17640131D01*
X8787219Y16200383D02*
X9021358Y16071177D01*
X5337924Y17640131D02*
X5593342Y17560813D01*
X6352290Y17300754D02*
X6602676Y17206753D01*
X12078327Y13920549D02*
X12279057Y13743814D01*
X6602676Y17206753D02*
X6851648Y17109138D01*
X15972046Y9195728D02*
X15981460Y9179098D01*
X6851648Y17109138D02*
X7099107Y17007950D01*
X15981460Y2915880D02*
X11420890Y-1644690D01*
X3258954Y18139648D02*
X3521694Y18090476D01*
X10384615Y15225880D02*
X10604509Y15073554D01*
X12865480Y13196480D02*
X13055634Y13008384D01*
X7099107Y17007950D02*
X7345241Y16903109D01*
X1135919Y18395035D02*
X1402660Y18376620D01*
X7589704Y16794762D02*
X7832611Y16682861D01*
X-2068238Y18313658D02*
X-1802234Y18341746D01*
X8313419Y16448548D02*
X8551221Y16326184D01*
X5847620Y17477785D02*
X6100561Y17391113D01*
X8551221Y16326184D02*
X8787219Y16200383D01*
X4565230Y17855709D02*
X4823818Y17787592D01*
X9712257Y15663324D02*
X9938445Y15520790D01*
X9021358Y16071177D02*
X9253624Y15938572D01*
X-1802234Y18341746D02*
X-1536024Y18365955D01*
X9253624Y15938572D02*
X9483893Y15802640D01*
X9938445Y15520790D02*
X10162663Y15374912D01*
X66849Y18429952D02*
X334278Y18427042D01*
X11037438Y14759493D02*
X11250426Y14597793D01*
X2466373Y18264300D02*
X2731087Y18226596D01*
X11461084Y14432991D02*
X11669307Y14265165D01*
D30*
X2519520Y-1706980D02*
X2519520Y-327700D01*
X3510060Y-2697520D02*
X2519520Y-1706980D01*
X7414040Y-2697520D02*
X3510060Y-2697520D01*
D29*
X2255680Y1051040D02*
X2283251Y1023469D01*
X2283251Y-91431D02*
X2519520Y-327700D01*
X2283251Y1023469D02*
X2283251Y-91431D01*
X1755680Y13545020D02*
X1755680Y4801040D01*
X-1214340Y16515040D02*
X1755680Y13545020D01*
X-1214340Y16901120D02*
X-1214340Y16515040D01*
X1255680Y13087440D02*
X1255680Y4876040D01*
X-2484340Y16827460D02*
X1255680Y13087440D01*
X-2484340Y16901120D02*
X-2484340Y16827460D01*
D28*
X-9231320Y-5628740D02*
X-8519380Y-5628740D01*
X-9791920Y-6189340D02*
X-9231320Y-5628740D01*
D29*
X-8165320Y-6588740D02*
X-6272960Y-8481100D01*
X-8519380Y-6588740D02*
X-8165320Y-6588740D01*
X-7894480Y-6588740D02*
X-8519380Y-6588740D01*
X-6395740Y-5090000D02*
X-7894480Y-6588740D01*
X-6395740Y309840D02*
X-6395740Y-5090000D01*
D32*
X-14906740Y9098240D02*
X-14906740Y10062457D01*
X-14672396Y10401984D02*
X-14519875Y10613846D01*
X-14821780Y10188000D02*
X-14672396Y10401984D01*
X-14906740Y10062457D02*
X-14821780Y10188000D01*
X-14205767Y11030714D02*
X-14044216Y11235680D01*
X-14364363Y10823379D02*
X-14205767Y11030714D01*
X-14519875Y10613846D02*
X-14364363Y10823379D01*
X-14044216Y11235680D02*
X-13961696Y11318200D01*
X-13961696Y11318200D02*
X-3863560Y11318200D01*
X-3863560Y11318200D02*
X-3485100Y10939740D01*
X-2568160Y10022800D02*
X-2568160Y8724860D01*
X-2568160Y7787600D02*
X-2568160Y6454100D01*
X-3485100Y10939740D02*
X-2568160Y10022800D01*
X-2568160Y8724860D02*
X-2568160Y7787600D01*
X-2568160Y6454100D02*
X-2568160Y6037540D01*
D31*
X-10686300Y14190940D02*
X-8660860Y14190940D01*
X-11709920Y13167320D02*
X-10686300Y14190940D01*
X-11709920Y12994300D02*
X-12911040Y11793180D01*
X-11709920Y13167320D02*
X-11709920Y12994300D01*
D30*
X-15835060Y-5448880D02*
X-15857440Y-5471260D01*
X-14859220Y-5448880D02*
X-15835060Y-5448880D01*
X-15895740Y-5432960D02*
X-15857440Y-5471260D01*
X-15895740Y309840D02*
X-15895740Y-5432960D01*
X8550120Y1506780D02*
X8550120Y2002180D01*
D29*
X8550120Y382800D02*
X8550120Y1506780D01*
X10345200Y-1412280D02*
X8550120Y382800D01*
X10345200Y-2783880D02*
X10345200Y-1412280D01*
X10904000Y-3342680D02*
X10345200Y-2783880D01*
X12976640Y-3342680D02*
X10904000Y-3342680D01*
D28*
X-14579680Y-6189340D02*
X-14859220Y-6468880D01*
X-13601920Y-6189340D02*
X-14579680Y-6189340D01*
X-15819820Y-6468880D02*
X-15857440Y-6431260D01*
X-14859220Y-6468880D02*
X-15819820Y-6468880D01*
D30*
X-16847440Y-5441260D02*
X-15857440Y-6431260D01*
X-16855660Y-5441260D02*
X-16847440Y-5441260D01*
X-13601920Y-11886700D02*
X-13601920Y-11184340D01*
X-12803820Y-12684800D02*
X-13601920Y-11886700D01*
X6237301Y147771D02*
X7550120Y-1165048D01*
X6237300Y2172592D02*
X6237301Y147771D01*
X7550120Y-1165048D02*
X7550120Y-1593220D01*
X4983852Y3426040D02*
X6237300Y2172592D01*
X4630680Y3426040D02*
X4983852Y3426040D01*
X8050120Y-1090298D02*
X8050120Y-1593220D01*
X6643710Y316112D02*
X8050120Y-1090298D01*
X6643710Y2340932D02*
X6643710Y316112D01*
X5058602Y3926040D02*
X6643710Y2340932D01*
X4630680Y3926040D02*
X5058602Y3926040D01*
X7550120Y1506780D02*
X7550120Y843970D01*
X7550120Y843970D02*
X9821960Y-1427870D01*
X9821960Y-1427870D02*
X9821960Y-3917000D01*
X9821960Y-3917000D02*
X11747640Y-5842680D01*
X11747640Y-5842680D02*
X12976640Y-5842680D01*
X11001280Y5086940D02*
X12953780Y5086940D01*
X8050120Y2135780D02*
X11001280Y5086940D01*
X8050120Y1506780D02*
X8050120Y2135780D01*
D29*
X988260Y708620D02*
X-632740Y708620D01*
X1255680Y976040D02*
X988260Y708620D01*
D30*
X-1140680Y-772920D02*
X-1162640Y-794880D01*
X-1140680Y40600D02*
X-1140680Y-772920D01*
X-632740Y548540D02*
X-1140680Y40600D01*
X-632740Y708620D02*
X-632740Y548540D01*
D29*
X650020Y-3261340D02*
X650020Y-2643640D01*
X-594640Y-4506000D02*
X650020Y-3261340D01*
D30*
X888600Y-2643640D02*
X537360Y-2994880D01*
X1927640Y-2643640D02*
X888600Y-2643640D01*
D29*
X3710720Y12336740D02*
X3710720Y16294060D01*
X2755680Y11381700D02*
X3710720Y12336740D01*
X2755680Y4801040D02*
X2755680Y11381700D01*
X5124934Y13027054D02*
X5124934Y14879846D01*
X3255680Y11157800D02*
X5124934Y13027054D01*
X3255680Y4801040D02*
X3255680Y11157800D01*
X3755680Y4801040D02*
X3755680Y11154892D01*
X3755680Y11154892D02*
X6066421Y13465633D01*
X6066421Y13465633D02*
X6539147Y13465633D01*
X1755680Y313140D02*
X1755680Y1051040D01*
X1755680Y-1451680D02*
X1755680Y313140D01*
X1927640Y-1623640D02*
X1755680Y-1451680D01*
D28*
X7216400Y-10561900D02*
X7246400Y-10591900D01*
X5031520Y-10561900D02*
X7216400Y-10561900D01*
D29*
X4255680Y976040D02*
X4255680Y-2033440D01*
X4255680Y-2033440D02*
X4266980Y-2044740D01*
D30*
X4261900Y-3406180D02*
X4266980Y-3401100D01*
X4261900Y-9792280D02*
X4261900Y-3406180D01*
X5031520Y-10561900D02*
X4261900Y-9792280D01*
D29*
X-11491720Y-12392700D02*
X-11783820Y-12684800D01*
X-11041600Y-12392700D02*
X-11491720Y-12392700D01*
D30*
X205520Y-17752100D02*
X-1963640Y-15582940D01*
X3014760Y-17752100D02*
X205520Y-17752100D01*
X5031520Y-15735340D02*
X3014760Y-17752100D01*
X5031520Y-11581900D02*
X5031520Y-15735340D01*
D29*
X5198319Y12051419D02*
X7953361Y12051419D01*
X4255680Y11108780D02*
X5198319Y12051419D01*
X4255680Y4876040D02*
X4255680Y11108780D01*
X880680Y1926040D02*
X132910Y1926040D01*
X132910Y1926040D02*
X-142170Y1650960D01*
X-1643600Y-5946180D02*
X1828580Y-5946180D01*
X880680Y2426040D02*
X-321174Y2426040D01*
X-315180Y2285960D02*
X-378571Y2349351D01*
X-378571Y2349351D02*
X-378571Y2368643D01*
X-321174Y2426040D02*
X-378571Y2368643D01*
D30*
X-10758389Y-12188988D02*
X-10756049Y-12213774D01*
X-10748918Y-12237627D01*
X-10737270Y-12259631D01*
X-10727642Y-12272353D01*
X-9227772Y-14014793D01*
X-9209759Y-14031978D01*
X-9188739Y-14045320D01*
X-9165520Y-14054304D01*
X-9131520Y-14058940D01*
X-424177Y-14058940D01*
X-417004Y-18133023D01*
X-3683932Y-18131034D01*
X-4239935Y-18027099D01*
X-5757588Y-17595290D01*
X-7964281Y-16700031D01*
X-9011428Y-16178613D01*
X-10465761Y-15278128D01*
X-11500946Y-14496393D01*
X-11489010Y-10433391D01*
X-10751287Y-10427723D01*
X-10758389Y-12188988D01*
G04 #@! TA.AperFunction,Conductor*
D33*
G36*
X-10758389Y-12188988D02*
G01*
X-10756049Y-12213774D01*
X-10748918Y-12237627D01*
X-10737270Y-12259631D01*
X-10727642Y-12272353D01*
X-9227772Y-14014793D01*
X-9209759Y-14031978D01*
X-9188739Y-14045320D01*
X-9165520Y-14054304D01*
X-9131520Y-14058940D01*
X-424177Y-14058940D01*
X-417004Y-18133023D01*
X-3683932Y-18131034D01*
X-4239935Y-18027099D01*
X-5757588Y-17595290D01*
X-7964281Y-16700031D01*
X-9011428Y-16178613D01*
X-10465761Y-15278128D01*
X-11500946Y-14496393D01*
X-11489010Y-10433391D01*
X-10751287Y-10427723D01*
X-10758389Y-12188988D01*
G37*
G04 #@! TD.AperFunction*
D30*
X-4498615Y-11522075D02*
X-8695237Y-11541801D01*
X-8720002Y-11544358D01*
X-8743792Y-11551697D01*
X-8765693Y-11563536D01*
X-8789435Y-11584284D01*
X-9126914Y-11962808D01*
X-10088024Y-11952152D01*
X-10074866Y-10410481D01*
X-9087817Y-10406419D01*
X-9063051Y-10403877D01*
X-9039257Y-10396552D01*
X-9022288Y-10387892D01*
X-7658308Y-9557312D01*
X-7638415Y-9542341D01*
X-7621825Y-9523777D01*
X-7609176Y-9502334D01*
X-7600953Y-9478835D01*
X-7597386Y-9451431D01*
X-7508486Y-5095331D01*
X-7510421Y-5070510D01*
X-7517160Y-5046543D01*
X-7534362Y-5015875D01*
X-8257760Y-4064423D01*
X-8257760Y-40D01*
X-4503585Y-40D01*
X-4498615Y-11522075D01*
G04 #@! TA.AperFunction,Conductor*
D33*
G36*
X-4498615Y-11522075D02*
G01*
X-8695237Y-11541801D01*
X-8720002Y-11544358D01*
X-8743792Y-11551697D01*
X-8765693Y-11563536D01*
X-8789435Y-11584284D01*
X-9126914Y-11962808D01*
X-10088024Y-11952152D01*
X-10074866Y-10410481D01*
X-9087817Y-10406419D01*
X-9063051Y-10403877D01*
X-9039257Y-10396552D01*
X-9022288Y-10387892D01*
X-7658308Y-9557312D01*
X-7638415Y-9542341D01*
X-7621825Y-9523777D01*
X-7609176Y-9502334D01*
X-7600953Y-9478835D01*
X-7597386Y-9451431D01*
X-7508486Y-5095331D01*
X-7510421Y-5070510D01*
X-7517160Y-5046543D01*
X-7534362Y-5015875D01*
X-8257760Y-4064423D01*
X-8257760Y-40D01*
X-4503585Y-40D01*
X-4498615Y-11522075D01*
G37*
G04 #@! TD.AperFunction*
D30*
X-11997100Y12056922D02*
X-13366656Y10306808D01*
X-13380003Y10285792D01*
X-13388994Y10262575D01*
X-13393638Y10227767D01*
X-13365699Y5635683D01*
X-13348207Y-2156087D01*
X-17797388Y-2141673D01*
X-17762139Y5171172D01*
X-17558987Y5885179D01*
X-16941068Y7480213D01*
X-16178613Y9011428D01*
X-15278128Y10465761D01*
X-14247296Y11830804D01*
X-14008980Y12092224D01*
X-13970297Y12092880D01*
X-11997100Y12056922D01*
G04 #@! TA.AperFunction,Conductor*
D33*
G36*
X-11997100Y12056922D02*
G01*
X-13366656Y10306808D01*
X-13380003Y10285792D01*
X-13388994Y10262575D01*
X-13393638Y10227767D01*
X-13365699Y5635683D01*
X-13348207Y-2156087D01*
X-17797388Y-2141673D01*
X-17762139Y5171172D01*
X-17558987Y5885179D01*
X-16941068Y7480213D01*
X-16178613Y9011428D01*
X-15278128Y10465761D01*
X-14247296Y11830804D01*
X-14008980Y12092224D01*
X-13970297Y12092880D01*
X-11997100Y12056922D01*
G37*
G04 #@! TD.AperFunction*
D30*
X16941068Y7480213D02*
X17558987Y5885179D01*
X18027099Y4239935D01*
X18341411Y2558518D01*
X18499240Y855271D01*
X18499240Y-855271D01*
X18341411Y-2558518D01*
X18027099Y-4239935D01*
X17558987Y-5885179D01*
X16941068Y-7480213D01*
X16178613Y-9011428D01*
X15278128Y-10465761D01*
X14247296Y-11830804D01*
X13094910Y-13094910D01*
X11830804Y-14247296D01*
X10465761Y-15278128D01*
X9011428Y-16178613D01*
X7480213Y-16941068D01*
X5885179Y-17558987D01*
X4239935Y-18027099D01*
X3221878Y-18217407D01*
X3298355Y-18176529D01*
X3375708Y-18113048D01*
X3391615Y-18093665D01*
X5373091Y-16112190D01*
X5392468Y-16096288D01*
X5420491Y-16062141D01*
X5455949Y-16018936D01*
X5503120Y-15930685D01*
X5503121Y-15930683D01*
X5532169Y-15834925D01*
X5539520Y-15760287D01*
X5539520Y-15760285D01*
X5541977Y-15735341D01*
X5539520Y-15710397D01*
X5539520Y-12118499D01*
X5582690Y-12083070D01*
X5647091Y-12004598D01*
X5694945Y-11915070D01*
X5724413Y-11817926D01*
X5734363Y-11716900D01*
X5734363Y-11446900D01*
X5724413Y-11345874D01*
X5694945Y-11248730D01*
X5647091Y-11159202D01*
X5625916Y-11133400D01*
X5679238Y-11133400D01*
X5748170Y-11170245D01*
X5845314Y-11199713D01*
X5946340Y-11209663D01*
X6316340Y-11209663D01*
X6417366Y-11199713D01*
X6514510Y-11170245D01*
X6583442Y-11133400D01*
X6745435Y-11133400D01*
X6785924Y-11166628D01*
X6876317Y-11214944D01*
X6974398Y-11244697D01*
X7076400Y-11254743D01*
X7416400Y-11254743D01*
X7518402Y-11244697D01*
X7616483Y-11214944D01*
X7706876Y-11166628D01*
X7786106Y-11101606D01*
X7851128Y-11022376D01*
X7899444Y-10931983D01*
X7929197Y-10833902D01*
X7939243Y-10731900D01*
X7939243Y-10451900D01*
X7929197Y-10349898D01*
X7899444Y-10251817D01*
X7851128Y-10161424D01*
X7786106Y-10082194D01*
X7706876Y-10017172D01*
X7616483Y-9968856D01*
X7518402Y-9939103D01*
X7416400Y-9929057D01*
X7076400Y-9929057D01*
X6974398Y-9939103D01*
X6876317Y-9968856D01*
X6836011Y-9990400D01*
X6602450Y-9990400D01*
X6514510Y-9943395D01*
X6417366Y-9913927D01*
X6316340Y-9903977D01*
X5946340Y-9903977D01*
X5845314Y-9913927D01*
X5748170Y-9943395D01*
X5660230Y-9990400D01*
X5493126Y-9990400D01*
X5414690Y-9948475D01*
X5317546Y-9919007D01*
X5216520Y-9909057D01*
X5097098Y-9909057D01*
X4769900Y-9581860D01*
X4769900Y-3861259D01*
X4795947Y-3835212D01*
X4870474Y-3723674D01*
X4921809Y-3599740D01*
X4947980Y-3468173D01*
X4947980Y-3334027D01*
X4922418Y-3205520D01*
X6958961Y-3205520D01*
X6979928Y-3226487D01*
X7091466Y-3301014D01*
X7215400Y-3352349D01*
X7346967Y-3378520D01*
X7481113Y-3378520D01*
X7612680Y-3352349D01*
X7736614Y-3301014D01*
X7744435Y-3295788D01*
X7752250Y-3301010D01*
X7876184Y-3352345D01*
X8007751Y-3378516D01*
X8141897Y-3378516D01*
X8273464Y-3352345D01*
X8397398Y-3301010D01*
X8508936Y-3226483D01*
X8603791Y-3131628D01*
X8678318Y-3020090D01*
X8729653Y-2896156D01*
X8755824Y-2764589D01*
X8755824Y-2734937D01*
X8891690Y-2599071D01*
X8911068Y-2583168D01*
X8943167Y-2544055D01*
X8974549Y-2505816D01*
X9011519Y-2436649D01*
X9021721Y-2417563D01*
X9050769Y-2321805D01*
X9058120Y-2247167D01*
X9058120Y-2247165D01*
X9060577Y-2222221D01*
X9058120Y-2197277D01*
X9058120Y-1568273D01*
X9057963Y-1566679D01*
X9057963Y-1382294D01*
X9313960Y-1638291D01*
X9313961Y-3892046D01*
X9311503Y-3917000D01*
X9321312Y-4016584D01*
X9350360Y-4112343D01*
X9397531Y-4200595D01*
X9429817Y-4239935D01*
X9461013Y-4277948D01*
X9480390Y-4293850D01*
X11370785Y-6184245D01*
X11386692Y-6203628D01*
X11464045Y-6267109D01*
X11552297Y-6314281D01*
X11648055Y-6343329D01*
X11722693Y-6350680D01*
X11722696Y-6350680D01*
X11727615Y-6351165D01*
X11823149Y-6529896D01*
X11976980Y-6717340D01*
X12164424Y-6871171D01*
X12378277Y-6985478D01*
X12610322Y-7055868D01*
X12791168Y-7073680D01*
X13162112Y-7073680D01*
X13342958Y-7055868D01*
X13575003Y-6985478D01*
X13788856Y-6871171D01*
X13976300Y-6717340D01*
X14130131Y-6529896D01*
X14244438Y-6316043D01*
X14314828Y-6083998D01*
X14338596Y-5842680D01*
X14314828Y-5601362D01*
X14244438Y-5369317D01*
X14130131Y-5155464D01*
X13976300Y-4968020D01*
X13788856Y-4814189D01*
X13575003Y-4699882D01*
X13342958Y-4629492D01*
X13162112Y-4611680D01*
X12791168Y-4611680D01*
X12610322Y-4629492D01*
X12378277Y-4699882D01*
X12164424Y-4814189D01*
X11976980Y-4968020D01*
X11823149Y-5155464D01*
X11807716Y-5184336D01*
X10329960Y-3706580D01*
X10329960Y-3451140D01*
X10545987Y-3667167D01*
X10561099Y-3685581D01*
X10634585Y-3745889D01*
X10674318Y-3767127D01*
X10718423Y-3790702D01*
X10809393Y-3818297D01*
X10904000Y-3827615D01*
X10927707Y-3825280D01*
X11618797Y-3825280D01*
X11618797Y-3942680D01*
X11630957Y-4066142D01*
X11666969Y-4184859D01*
X11725450Y-4294269D01*
X11804152Y-4390168D01*
X11900051Y-4468870D01*
X12009461Y-4527351D01*
X12128178Y-4563363D01*
X12251640Y-4575523D01*
X13701640Y-4575523D01*
X13825102Y-4563363D01*
X13943819Y-4527351D01*
X14053229Y-4468870D01*
X14149128Y-4390168D01*
X14227830Y-4294269D01*
X14286311Y-4184859D01*
X14322323Y-4066142D01*
X14334483Y-3942680D01*
X14334483Y-2742680D01*
X14322323Y-2619218D01*
X14286311Y-2500501D01*
X14227830Y-2391091D01*
X14149128Y-2295192D01*
X14053229Y-2216490D01*
X13943819Y-2158009D01*
X13825102Y-2121997D01*
X13701640Y-2109837D01*
X12251640Y-2109837D01*
X12128178Y-2121997D01*
X12009461Y-2158009D01*
X11900051Y-2216490D01*
X11804152Y-2295192D01*
X11725450Y-2391091D01*
X11666969Y-2500501D01*
X11630957Y-2619218D01*
X11618797Y-2742680D01*
X11618797Y-2860080D01*
X11103900Y-2860080D01*
X11064949Y-2821129D01*
X11081569Y-2819492D01*
X11213238Y-2779551D01*
X11334583Y-2714691D01*
X11414293Y-2649274D01*
X11890556Y-2173012D01*
X11917192Y-2151153D01*
X11939052Y-2124517D01*
X11939064Y-2124505D01*
X11985571Y-2067836D01*
X16451117Y2397709D01*
X16477763Y2419577D01*
X16499631Y2446223D01*
X16499634Y2446226D01*
X16565051Y2525936D01*
X16629911Y2647281D01*
X16639279Y2678162D01*
X16669853Y2778950D01*
X16679960Y2881571D01*
X16679960Y2881582D01*
X16683338Y2915880D01*
X16679960Y2950178D01*
X16679960Y8004588D01*
X16941068Y7480213D01*
G04 #@! TA.AperFunction,Conductor*
D33*
G36*
X16941068Y7480213D02*
G01*
X17558987Y5885179D01*
X18027099Y4239935D01*
X18341411Y2558518D01*
X18499240Y855271D01*
X18499240Y-855271D01*
X18341411Y-2558518D01*
X18027099Y-4239935D01*
X17558987Y-5885179D01*
X16941068Y-7480213D01*
X16178613Y-9011428D01*
X15278128Y-10465761D01*
X14247296Y-11830804D01*
X13094910Y-13094910D01*
X11830804Y-14247296D01*
X10465761Y-15278128D01*
X9011428Y-16178613D01*
X7480213Y-16941068D01*
X5885179Y-17558987D01*
X4239935Y-18027099D01*
X3221878Y-18217407D01*
X3298355Y-18176529D01*
X3375708Y-18113048D01*
X3391615Y-18093665D01*
X5373091Y-16112190D01*
X5392468Y-16096288D01*
X5420491Y-16062141D01*
X5455949Y-16018936D01*
X5503120Y-15930685D01*
X5503121Y-15930683D01*
X5532169Y-15834925D01*
X5539520Y-15760287D01*
X5539520Y-15760285D01*
X5541977Y-15735341D01*
X5539520Y-15710397D01*
X5539520Y-12118499D01*
X5582690Y-12083070D01*
X5647091Y-12004598D01*
X5694945Y-11915070D01*
X5724413Y-11817926D01*
X5734363Y-11716900D01*
X5734363Y-11446900D01*
X5724413Y-11345874D01*
X5694945Y-11248730D01*
X5647091Y-11159202D01*
X5625916Y-11133400D01*
X5679238Y-11133400D01*
X5748170Y-11170245D01*
X5845314Y-11199713D01*
X5946340Y-11209663D01*
X6316340Y-11209663D01*
X6417366Y-11199713D01*
X6514510Y-11170245D01*
X6583442Y-11133400D01*
X6745435Y-11133400D01*
X6785924Y-11166628D01*
X6876317Y-11214944D01*
X6974398Y-11244697D01*
X7076400Y-11254743D01*
X7416400Y-11254743D01*
X7518402Y-11244697D01*
X7616483Y-11214944D01*
X7706876Y-11166628D01*
X7786106Y-11101606D01*
X7851128Y-11022376D01*
X7899444Y-10931983D01*
X7929197Y-10833902D01*
X7939243Y-10731900D01*
X7939243Y-10451900D01*
X7929197Y-10349898D01*
X7899444Y-10251817D01*
X7851128Y-10161424D01*
X7786106Y-10082194D01*
X7706876Y-10017172D01*
X7616483Y-9968856D01*
X7518402Y-9939103D01*
X7416400Y-9929057D01*
X7076400Y-9929057D01*
X6974398Y-9939103D01*
X6876317Y-9968856D01*
X6836011Y-9990400D01*
X6602450Y-9990400D01*
X6514510Y-9943395D01*
X6417366Y-9913927D01*
X6316340Y-9903977D01*
X5946340Y-9903977D01*
X5845314Y-9913927D01*
X5748170Y-9943395D01*
X5660230Y-9990400D01*
X5493126Y-9990400D01*
X5414690Y-9948475D01*
X5317546Y-9919007D01*
X5216520Y-9909057D01*
X5097098Y-9909057D01*
X4769900Y-9581860D01*
X4769900Y-3861259D01*
X4795947Y-3835212D01*
X4870474Y-3723674D01*
X4921809Y-3599740D01*
X4947980Y-3468173D01*
X4947980Y-3334027D01*
X4922418Y-3205520D01*
X6958961Y-3205520D01*
X6979928Y-3226487D01*
X7091466Y-3301014D01*
X7215400Y-3352349D01*
X7346967Y-3378520D01*
X7481113Y-3378520D01*
X7612680Y-3352349D01*
X7736614Y-3301014D01*
X7744435Y-3295788D01*
X7752250Y-3301010D01*
X7876184Y-3352345D01*
X8007751Y-3378516D01*
X8141897Y-3378516D01*
X8273464Y-3352345D01*
X8397398Y-3301010D01*
X8508936Y-3226483D01*
X8603791Y-3131628D01*
X8678318Y-3020090D01*
X8729653Y-2896156D01*
X8755824Y-2764589D01*
X8755824Y-2734937D01*
X8891690Y-2599071D01*
X8911068Y-2583168D01*
X8943167Y-2544055D01*
X8974549Y-2505816D01*
X9011519Y-2436649D01*
X9021721Y-2417563D01*
X9050769Y-2321805D01*
X9058120Y-2247167D01*
X9058120Y-2247165D01*
X9060577Y-2222221D01*
X9058120Y-2197277D01*
X9058120Y-1568273D01*
X9057963Y-1566679D01*
X9057963Y-1382294D01*
X9313960Y-1638291D01*
X9313961Y-3892046D01*
X9311503Y-3917000D01*
X9321312Y-4016584D01*
X9350360Y-4112343D01*
X9397531Y-4200595D01*
X9429817Y-4239935D01*
X9461013Y-4277948D01*
X9480390Y-4293850D01*
X11370785Y-6184245D01*
X11386692Y-6203628D01*
X11464045Y-6267109D01*
X11552297Y-6314281D01*
X11648055Y-6343329D01*
X11722693Y-6350680D01*
X11722696Y-6350680D01*
X11727615Y-6351165D01*
X11823149Y-6529896D01*
X11976980Y-6717340D01*
X12164424Y-6871171D01*
X12378277Y-6985478D01*
X12610322Y-7055868D01*
X12791168Y-7073680D01*
X13162112Y-7073680D01*
X13342958Y-7055868D01*
X13575003Y-6985478D01*
X13788856Y-6871171D01*
X13976300Y-6717340D01*
X14130131Y-6529896D01*
X14244438Y-6316043D01*
X14314828Y-6083998D01*
X14338596Y-5842680D01*
X14314828Y-5601362D01*
X14244438Y-5369317D01*
X14130131Y-5155464D01*
X13976300Y-4968020D01*
X13788856Y-4814189D01*
X13575003Y-4699882D01*
X13342958Y-4629492D01*
X13162112Y-4611680D01*
X12791168Y-4611680D01*
X12610322Y-4629492D01*
X12378277Y-4699882D01*
X12164424Y-4814189D01*
X11976980Y-4968020D01*
X11823149Y-5155464D01*
X11807716Y-5184336D01*
X10329960Y-3706580D01*
X10329960Y-3451140D01*
X10545987Y-3667167D01*
X10561099Y-3685581D01*
X10634585Y-3745889D01*
X10674318Y-3767127D01*
X10718423Y-3790702D01*
X10809393Y-3818297D01*
X10904000Y-3827615D01*
X10927707Y-3825280D01*
X11618797Y-3825280D01*
X11618797Y-3942680D01*
X11630957Y-4066142D01*
X11666969Y-4184859D01*
X11725450Y-4294269D01*
X11804152Y-4390168D01*
X11900051Y-4468870D01*
X12009461Y-4527351D01*
X12128178Y-4563363D01*
X12251640Y-4575523D01*
X13701640Y-4575523D01*
X13825102Y-4563363D01*
X13943819Y-4527351D01*
X14053229Y-4468870D01*
X14149128Y-4390168D01*
X14227830Y-4294269D01*
X14286311Y-4184859D01*
X14322323Y-4066142D01*
X14334483Y-3942680D01*
X14334483Y-2742680D01*
X14322323Y-2619218D01*
X14286311Y-2500501D01*
X14227830Y-2391091D01*
X14149128Y-2295192D01*
X14053229Y-2216490D01*
X13943819Y-2158009D01*
X13825102Y-2121997D01*
X13701640Y-2109837D01*
X12251640Y-2109837D01*
X12128178Y-2121997D01*
X12009461Y-2158009D01*
X11900051Y-2216490D01*
X11804152Y-2295192D01*
X11725450Y-2391091D01*
X11666969Y-2500501D01*
X11630957Y-2619218D01*
X11618797Y-2742680D01*
X11618797Y-2860080D01*
X11103900Y-2860080D01*
X11064949Y-2821129D01*
X11081569Y-2819492D01*
X11213238Y-2779551D01*
X11334583Y-2714691D01*
X11414293Y-2649274D01*
X11890556Y-2173012D01*
X11917192Y-2151153D01*
X11939052Y-2124517D01*
X11939064Y-2124505D01*
X11985571Y-2067836D01*
X16451117Y2397709D01*
X16477763Y2419577D01*
X16499631Y2446223D01*
X16499634Y2446226D01*
X16565051Y2525936D01*
X16629911Y2647281D01*
X16639279Y2678162D01*
X16669853Y2778950D01*
X16679960Y2881571D01*
X16679960Y2881582D01*
X16683338Y2915880D01*
X16679960Y2950178D01*
X16679960Y8004588D01*
X16941068Y7480213D01*
G37*
G04 #@! TD.AperFunction*
D30*
X-3855697Y17953045D02*
X-3882342Y17931177D01*
X-3904211Y17904530D01*
X-3904214Y17904527D01*
X-3964072Y17831590D01*
X-3969631Y17824817D01*
X-3987526Y17791338D01*
X-4032548Y17777681D01*
X-4098736Y17742302D01*
X-4156751Y17694691D01*
X-4204362Y17636676D01*
X-4239741Y17570488D01*
X-4261527Y17498669D01*
X-4268883Y17423980D01*
X-4268883Y16423980D01*
X-4268242Y16417467D01*
X-5090230Y15595477D01*
X-5105345Y15610592D01*
X-5127217Y15637243D01*
X-5233577Y15724531D01*
X-5354923Y15789392D01*
X-5486590Y15829333D01*
X-5589211Y15839440D01*
X-5589222Y15839440D01*
X-5623520Y15842818D01*
X-5657818Y15839440D01*
X-5974010Y15839440D01*
X-5998164Y15859262D01*
X-6064352Y15894641D01*
X-6136171Y15916427D01*
X-6210860Y15923783D01*
X-7110860Y15923783D01*
X-7185549Y15916427D01*
X-7257368Y15894641D01*
X-7323556Y15859262D01*
X-7381571Y15811651D01*
X-7429182Y15753636D01*
X-7464561Y15687448D01*
X-7486347Y15615629D01*
X-7493703Y15540940D01*
X-7493703Y14740940D01*
X-7486347Y14666251D01*
X-7464561Y14594432D01*
X-7429182Y14528244D01*
X-7381571Y14470229D01*
X-7323556Y14422618D01*
X-7257368Y14387239D01*
X-7185549Y14365453D01*
X-7110860Y14358097D01*
X-6210860Y14358097D01*
X-6136171Y14365453D01*
X-6064352Y14387239D01*
X-6024056Y14408778D01*
X-6017823Y14345496D01*
X-5983234Y14231469D01*
X-5927063Y14126381D01*
X-5851470Y14034270D01*
X-5759359Y13958677D01*
X-5654271Y13902506D01*
X-5540244Y13867917D01*
X-5421660Y13856237D01*
X-4921660Y13856237D01*
X-4803076Y13867917D01*
X-4689049Y13902506D01*
X-4583961Y13958677D01*
X-4491850Y14034270D01*
X-4416257Y14126381D01*
X-4360086Y14231469D01*
X-4325497Y14345496D01*
X-4321229Y14388823D01*
X-2916373Y15793678D01*
X-2889738Y15815537D01*
X-2867878Y15842173D01*
X-2867866Y15842185D01*
X-2802449Y15921896D01*
X-2737589Y16043241D01*
X-2737280Y16044258D01*
X-2727423Y16076751D01*
X-2673344Y16105658D01*
X-2615329Y16153269D01*
X-2591608Y16182174D01*
X-2533350Y16143248D01*
X-2446760Y16107381D01*
X773080Y12887540D01*
X773080Y11608758D01*
X761993Y11625351D01*
X625351Y11761993D01*
X464678Y11869351D01*
X286147Y11943301D01*
X96620Y11981000D01*
X-96620Y11981000D01*
X-286147Y11943301D01*
X-464678Y11869351D01*
X-625351Y11761993D01*
X-761993Y11625351D01*
X-869351Y11464678D01*
X-943301Y11286147D01*
X-981000Y11096620D01*
X-981000Y10903380D01*
X-943301Y10713853D01*
X-869351Y10535322D01*
X-761993Y10374649D01*
X-625351Y10238007D01*
X-464678Y10130649D01*
X-286147Y10056699D01*
X-96620Y10019000D01*
X96620Y10019000D01*
X286147Y10056699D01*
X464678Y10130649D01*
X625351Y10238007D01*
X761993Y10374649D01*
X773080Y10391242D01*
X773081Y5262026D01*
X751979Y5222548D01*
X730193Y5150729D01*
X722837Y5076040D01*
X722837Y4958883D01*
X605680Y4958883D01*
X530991Y4951527D01*
X459172Y4929741D01*
X392984Y4894362D01*
X334969Y4846751D01*
X287358Y4788736D01*
X251979Y4722548D01*
X230193Y4650729D01*
X222837Y4576040D01*
X222837Y4276040D01*
X230193Y4201351D01*
X237871Y4176040D01*
X230193Y4150729D01*
X222837Y4076040D01*
X222837Y3776040D01*
X230193Y3701351D01*
X237871Y3676040D01*
X230193Y3650729D01*
X222837Y3576040D01*
X222837Y3276040D01*
X230193Y3201351D01*
X237871Y3176040D01*
X230193Y3150729D01*
X222837Y3076040D01*
X222837Y2908640D01*
X39033Y2908640D01*
X-55997Y2972137D01*
X-179931Y3023472D01*
X-311498Y3049643D01*
X-445644Y3049643D01*
X-577211Y3023472D01*
X-701145Y2972137D01*
X-812683Y2897610D01*
X-907538Y2802755D01*
X-982065Y2691217D01*
X-1033400Y2567283D01*
X-1059571Y2435716D01*
X-1059571Y2301570D01*
X-1033400Y2170003D01*
X-982065Y2046069D01*
X-907538Y1934531D01*
X-812683Y1839676D01*
X-800581Y1831590D01*
X-823170Y1718033D01*
X-823170Y1583887D01*
X-796999Y1452320D01*
X-775808Y1401161D01*
X-874742Y1391417D01*
X-972823Y1361664D01*
X-1063216Y1313348D01*
X-1142446Y1248326D01*
X-1207468Y1169096D01*
X-1255784Y1078703D01*
X-1285537Y980622D01*
X-1295583Y878620D01*
X-1295583Y604117D01*
X-1482245Y417455D01*
X-1501628Y401548D01*
X-1565109Y324195D01*
X-1584475Y287963D01*
X-1762640Y287963D01*
X-1837329Y280607D01*
X-1909148Y258821D01*
X-1975336Y223442D01*
X-2033351Y175831D01*
X-2080962Y117816D01*
X-2116341Y51628D01*
X-2138127Y-20191D01*
X-2145483Y-94880D01*
X-2145483Y-1494880D01*
X-2138127Y-1569569D01*
X-2116341Y-1641388D01*
X-2080962Y-1707576D01*
X-2033351Y-1765591D01*
X-1975336Y-1813202D01*
X-1909148Y-1848581D01*
X-1837329Y-1870367D01*
X-1762640Y-1877723D01*
X-562640Y-1877723D01*
X-487951Y-1870367D01*
X-416132Y-1848581D01*
X-349944Y-1813202D01*
X-291929Y-1765591D01*
X-244318Y-1707576D01*
X-208939Y-1641388D01*
X-187153Y-1569569D01*
X-179797Y-1494880D01*
X-179797Y-94880D01*
X-187153Y-20191D01*
X-208939Y51628D01*
X-229184Y89503D01*
X-202264Y103892D01*
X-123034Y168914D01*
X-76169Y226020D01*
X964555Y226020D01*
X988260Y223685D01*
X1011965Y226020D01*
X1011967Y226020D01*
X1082866Y233003D01*
X1173837Y260598D01*
X1257675Y305411D01*
X1273080Y318054D01*
X1273080Y289434D01*
X1273081Y289424D01*
X1273080Y-1273885D01*
X1264215Y-1290470D01*
X1234747Y-1387614D01*
X1224797Y-1488640D01*
X1224797Y-1758640D01*
X1234747Y-1859666D01*
X1257001Y-1933029D01*
X1212049Y-1919393D01*
X1137360Y-1912037D01*
X-62640Y-1912037D01*
X-137329Y-1919393D01*
X-209148Y-1941179D01*
X-275336Y-1976558D01*
X-333351Y-2024169D01*
X-380962Y-2082184D01*
X-416341Y-2148372D01*
X-438127Y-2220191D01*
X-445483Y-2294880D01*
X-445483Y-3674344D01*
X-584296Y-3813157D01*
X-734640Y-3813157D01*
X-836642Y-3823203D01*
X-934723Y-3852956D01*
X-1025116Y-3901272D01*
X-1104346Y-3966294D01*
X-1169368Y-4045524D01*
X-1217684Y-4135917D01*
X-1247437Y-4233998D01*
X-1257483Y-4336000D01*
X-1257483Y-4676000D01*
X-1247437Y-4778002D01*
X-1217684Y-4876083D01*
X-1169368Y-4966476D01*
X-1104346Y-5045706D01*
X-1025116Y-5110728D01*
X-934723Y-5159044D01*
X-836642Y-5188797D01*
X-734640Y-5198843D01*
X-454640Y-5198843D01*
X-352638Y-5188797D01*
X-254557Y-5159044D01*
X-164164Y-5110728D01*
X-84934Y-5045706D01*
X-19912Y-4966476D01*
X28404Y-4876083D01*
X58157Y-4778002D01*
X68203Y-4676000D01*
X68203Y-4525656D01*
X516137Y-4077723D01*
X1137360Y-4077723D01*
X1212049Y-4070367D01*
X1283868Y-4048581D01*
X1350056Y-4013202D01*
X1408071Y-3965591D01*
X1455682Y-3907576D01*
X1491061Y-3841388D01*
X1512847Y-3769569D01*
X1520203Y-3694880D01*
X1520203Y-3244094D01*
X1544470Y-3257065D01*
X1641614Y-3286533D01*
X1742640Y-3296483D01*
X2112640Y-3296483D01*
X2213666Y-3286533D01*
X2310810Y-3257065D01*
X2400338Y-3209211D01*
X2478810Y-3144810D01*
X2543211Y-3066338D01*
X2591065Y-2976810D01*
X2620533Y-2879666D01*
X2630483Y-2778640D01*
X2630483Y-2536363D01*
X3133210Y-3039091D01*
X3149112Y-3058468D01*
X3168489Y-3074370D01*
X3226464Y-3121949D01*
X3244580Y-3131632D01*
X3314717Y-3169121D01*
X3410475Y-3198169D01*
X3485113Y-3205520D01*
X3485115Y-3205520D01*
X3510059Y-3207977D01*
X3535003Y-3205520D01*
X3611542Y-3205520D01*
X3585980Y-3334027D01*
X3585980Y-3468173D01*
X3612151Y-3599740D01*
X3663486Y-3723674D01*
X3738013Y-3835212D01*
X3753901Y-3851100D01*
X3753900Y-9767336D01*
X3751443Y-9792280D01*
X3753900Y-9817224D01*
X3753900Y-9817226D01*
X3761251Y-9891864D01*
X3790299Y-9987622D01*
X3837471Y-10075875D01*
X3900952Y-10153228D01*
X3920335Y-10169135D01*
X4328677Y-10577478D01*
X4328677Y-10696900D01*
X4338627Y-10797926D01*
X4368095Y-10895070D01*
X4415949Y-10984598D01*
X4480350Y-11063070D01*
X4491109Y-11071900D01*
X4480350Y-11080730D01*
X4415949Y-11159202D01*
X4368095Y-11248730D01*
X4338627Y-11345874D01*
X4328677Y-11446900D01*
X4328677Y-11716900D01*
X4338627Y-11817926D01*
X4368095Y-11915070D01*
X4415949Y-12004598D01*
X4480350Y-12083070D01*
X4523520Y-12118499D01*
X4523521Y-15524918D01*
X2804340Y-17244100D01*
X415941Y-17244100D01*
X88856Y-16917015D01*
X83599Y-13931269D01*
X76279Y-13857611D01*
X54598Y-13786138D01*
X19390Y-13720268D01*
X-27992Y-13662532D01*
X-85728Y-13615150D01*
X-151598Y-13579942D01*
X-223071Y-13558261D01*
X-297400Y-13550940D01*
X-8956768Y-13550940D01*
X-9893824Y-12462337D01*
X-9074784Y-12471417D01*
X-8974966Y-12459253D01*
X-8904851Y-12433517D01*
X-8841105Y-12394597D01*
X-8786175Y-12343988D01*
X-8523172Y-12048998D01*
X-4369769Y-12029476D01*
X-4297069Y-12022127D01*
X-4225606Y-12000415D01*
X-4159751Y-11965179D01*
X-4102036Y-11917771D01*
X-4054679Y-11860016D01*
X-4019499Y-11794131D01*
X-3997849Y-11722648D01*
X-3990560Y-11648316D01*
X-3990881Y-10903380D01*
X-981000Y-10903380D01*
X-981000Y-11096620D01*
X-943301Y-11286147D01*
X-869351Y-11464678D01*
X-761993Y-11625351D01*
X-625351Y-11761993D01*
X-464678Y-11869351D01*
X-286147Y-11943301D01*
X-96620Y-11981000D01*
X96620Y-11981000D01*
X286147Y-11943301D01*
X464678Y-11869351D01*
X625351Y-11761993D01*
X761993Y-11625351D01*
X869351Y-11464678D01*
X943301Y-11286147D01*
X981000Y-11096620D01*
X981000Y-10903380D01*
X943301Y-10713853D01*
X869351Y-10535322D01*
X761993Y-10374649D01*
X625351Y-10238007D01*
X464678Y-10130649D01*
X286147Y-10056699D01*
X96620Y-10019000D01*
X-96620Y-10019000D01*
X-286147Y-10056699D01*
X-464678Y-10130649D01*
X-625351Y-10238007D01*
X-761993Y-10374649D01*
X-869351Y-10535322D01*
X-943301Y-10713853D01*
X-981000Y-10903380D01*
X-3990881Y-10903380D01*
X-3993053Y-5869258D01*
X-2424600Y-5869258D01*
X-2424600Y-6023102D01*
X-2394587Y-6173989D01*
X-2335713Y-6316122D01*
X-2250242Y-6444039D01*
X-2141459Y-6552822D01*
X-2013542Y-6638293D01*
X-1871409Y-6697167D01*
X-1720522Y-6727180D01*
X-1566678Y-6727180D01*
X-1415791Y-6697167D01*
X-1273658Y-6638293D01*
X-1145741Y-6552822D01*
X-1036958Y-6444039D01*
X-1026762Y-6428780D01*
X1211742Y-6428780D01*
X1221938Y-6444039D01*
X1330721Y-6552822D01*
X1458638Y-6638293D01*
X1600771Y-6697167D01*
X1751658Y-6727180D01*
X1905502Y-6727180D01*
X2056389Y-6697167D01*
X2198522Y-6638293D01*
X2326439Y-6552822D01*
X2435222Y-6444039D01*
X2520693Y-6316122D01*
X2579567Y-6173989D01*
X2609580Y-6023102D01*
X2609580Y-5869258D01*
X2579567Y-5718371D01*
X2520693Y-5576238D01*
X2435222Y-5448321D01*
X2326439Y-5339538D01*
X2198522Y-5254067D01*
X2056389Y-5195193D01*
X1905502Y-5165180D01*
X1751658Y-5165180D01*
X1600771Y-5195193D01*
X1458638Y-5254067D01*
X1330721Y-5339538D01*
X1221938Y-5448321D01*
X1211742Y-5463580D01*
X-1026762Y-5463580D01*
X-1036958Y-5448321D01*
X-1145741Y-5339538D01*
X-1273658Y-5254067D01*
X-1415791Y-5195193D01*
X-1566678Y-5165180D01*
X-1720522Y-5165180D01*
X-1871409Y-5195193D01*
X-2013542Y-5254067D01*
X-2141459Y-5339538D01*
X-2250242Y-5448321D01*
X-2335713Y-5576238D01*
X-2394587Y-5718371D01*
X-2424600Y-5869258D01*
X-3993053Y-5869258D01*
X-3995640Y127124D01*
X-4002961Y201289D01*
X-4024642Y272762D01*
X-4059850Y338632D01*
X-4107232Y396368D01*
X-4164968Y443750D01*
X-4212897Y469368D01*
X-4212897Y2359840D01*
X-4220253Y2434529D01*
X-4242039Y2506348D01*
X-4277418Y2572536D01*
X-4325029Y2630551D01*
X-4383044Y2678162D01*
X-4449232Y2713541D01*
X-4521051Y2735327D01*
X-4595740Y2742683D01*
X-8195740Y2742683D01*
X-8270429Y2735327D01*
X-8342248Y2713541D01*
X-8408436Y2678162D01*
X-8466451Y2630551D01*
X-8514062Y2572536D01*
X-8549441Y2506348D01*
X-8571227Y2434529D01*
X-8578583Y2359840D01*
X-8578583Y453290D01*
X-8596432Y443750D01*
X-8654168Y396368D01*
X-8701550Y338632D01*
X-8736758Y272762D01*
X-8758439Y201289D01*
X-8765760Y126960D01*
X-8765760Y-4107220D01*
X-8753211Y-4204198D01*
X-8727212Y-4274216D01*
X-8688053Y-4337816D01*
X-8189539Y-4993489D01*
X-8247378Y-4975943D01*
X-8349380Y-4965897D01*
X-8689380Y-4965897D01*
X-8791382Y-4975943D01*
X-8889463Y-5005696D01*
X-8979856Y-5054012D01*
X-8983789Y-5057240D01*
X-9203249Y-5057240D01*
X-9231321Y-5054475D01*
X-9259393Y-5057240D01*
X-9259394Y-5057240D01*
X-9312536Y-5062474D01*
X-9316231Y-5061353D01*
X-9390920Y-5053997D01*
X-10192920Y-5053997D01*
X-10267609Y-5061353D01*
X-10339428Y-5083139D01*
X-10405616Y-5118518D01*
X-10426920Y-5136001D01*
X-10448224Y-5118518D01*
X-10514412Y-5083139D01*
X-10586231Y-5061353D01*
X-10660920Y-5053997D01*
X-11462920Y-5053997D01*
X-11537609Y-5061353D01*
X-11609428Y-5083139D01*
X-11675616Y-5118518D01*
X-11696920Y-5136001D01*
X-11718224Y-5118518D01*
X-11784412Y-5083139D01*
X-11856231Y-5061353D01*
X-11930920Y-5053997D01*
X-12732920Y-5053997D01*
X-12807609Y-5061353D01*
X-12879428Y-5083139D01*
X-12945616Y-5118518D01*
X-12966920Y-5136001D01*
X-12988224Y-5118518D01*
X-13054412Y-5083139D01*
X-13126231Y-5061353D01*
X-13200920Y-5053997D01*
X-14002920Y-5053997D01*
X-14077609Y-5061353D01*
X-14149428Y-5083139D01*
X-14199032Y-5109654D01*
X-14243649Y-5026182D01*
X-14308050Y-4947710D01*
X-14386522Y-4883309D01*
X-14476050Y-4835455D01*
X-14573194Y-4805987D01*
X-14674220Y-4796037D01*
X-15044220Y-4796037D01*
X-15145246Y-4805987D01*
X-15242390Y-4835455D01*
X-15331918Y-4883309D01*
X-15372497Y-4916612D01*
X-15387740Y-4904102D01*
X-15387740Y-2657482D01*
X-13222154Y-2664498D01*
X-13145752Y-2657011D01*
X-13074328Y-2635170D01*
X-13008537Y-2599814D01*
X-12950908Y-2552302D01*
X-12903656Y-2494461D01*
X-12868595Y-2428512D01*
X-12847075Y-2356990D01*
X-12839921Y-2282645D01*
X-12857701Y5637075D01*
X-12857707Y5638538D01*
X-12884840Y10098206D01*
X-12824588Y10175200D01*
X-4337006Y10175200D01*
X-4253622Y10091816D01*
X-4253617Y10091812D01*
X-3711160Y9549354D01*
X-3711160Y5981394D01*
X-3694621Y5813473D01*
X-3629263Y5598017D01*
X-3523127Y5399451D01*
X-3380292Y5225407D01*
X-3206248Y5082572D01*
X-3007682Y4976437D01*
X-2792226Y4911079D01*
X-2568160Y4889010D01*
X-2344093Y4911079D01*
X-2128637Y4976437D01*
X-1930071Y5082572D01*
X-1756027Y5225407D01*
X-1613192Y5399451D01*
X-1507057Y5598018D01*
X-1441699Y5813474D01*
X-1425160Y5981395D01*
X-1425160Y9966661D01*
X-1419631Y10022800D01*
X-1425160Y10078939D01*
X-1425160Y10078946D01*
X-1441699Y10246867D01*
X-1441924Y10247611D01*
X-1469505Y10338531D01*
X-1507057Y10462323D01*
X-1613192Y10660889D01*
X-1756027Y10834933D01*
X-1799636Y10870722D01*
X-2637172Y11708257D01*
X-2637176Y11708262D01*
X-3015633Y12086718D01*
X-3051427Y12130333D01*
X-3225471Y12273168D01*
X-3424037Y12379303D01*
X-3639493Y12444661D01*
X-3807414Y12461200D01*
X-3807421Y12461200D01*
X-3863560Y12466729D01*
X-3919699Y12461200D01*
X-11087169Y12461200D01*
X-11055110Y12487510D01*
X-10979517Y12579621D01*
X-10923346Y12684709D01*
X-10888757Y12798736D01*
X-10877077Y12917320D01*
X-10877077Y13012335D01*
X-10396971Y13492440D01*
X-9347710Y13492440D01*
X-9323556Y13472618D01*
X-9257368Y13437239D01*
X-9185549Y13415453D01*
X-9110860Y13408097D01*
X-8210860Y13408097D01*
X-8136171Y13415453D01*
X-8064352Y13437239D01*
X-7998164Y13472618D01*
X-7940149Y13520229D01*
X-7892538Y13578244D01*
X-7857159Y13644432D01*
X-7835373Y13716251D01*
X-7828017Y13790940D01*
X-7828017Y14590940D01*
X-7835373Y14665629D01*
X-7857159Y14737448D01*
X-7892538Y14803636D01*
X-7940149Y14861651D01*
X-7998164Y14909262D01*
X-8064352Y14944641D01*
X-8136171Y14966427D01*
X-8210860Y14973783D01*
X-9110860Y14973783D01*
X-9185549Y14966427D01*
X-9257368Y14944641D01*
X-9323556Y14909262D01*
X-9347710Y14889440D01*
X-10652003Y14889440D01*
X-10686301Y14892818D01*
X-10720599Y14889440D01*
X-10720609Y14889440D01*
X-10823230Y14879333D01*
X-10954897Y14839392D01*
X-10954899Y14839391D01*
X-11076244Y14774531D01*
X-11155955Y14709114D01*
X-11155963Y14709106D01*
X-11182603Y14687243D01*
X-11204467Y14660602D01*
X-11839905Y14025163D01*
X-11934920Y14025163D01*
X-12053504Y14013483D01*
X-12104130Y13998126D01*
X-11830804Y14247296D01*
X-10465761Y15278128D01*
X-9011428Y16178613D01*
X-7480213Y16941068D01*
X-5885179Y17558987D01*
X-4239935Y18027099D01*
X-3676276Y18132465D01*
X-3855697Y17953045D01*
G04 #@! TA.AperFunction,Conductor*
D33*
G36*
X-3855697Y17953045D02*
G01*
X-3882342Y17931177D01*
X-3904211Y17904530D01*
X-3904214Y17904527D01*
X-3964072Y17831590D01*
X-3969631Y17824817D01*
X-3987526Y17791338D01*
X-4032548Y17777681D01*
X-4098736Y17742302D01*
X-4156751Y17694691D01*
X-4204362Y17636676D01*
X-4239741Y17570488D01*
X-4261527Y17498669D01*
X-4268883Y17423980D01*
X-4268883Y16423980D01*
X-4268242Y16417467D01*
X-5090230Y15595477D01*
X-5105345Y15610592D01*
X-5127217Y15637243D01*
X-5233577Y15724531D01*
X-5354923Y15789392D01*
X-5486590Y15829333D01*
X-5589211Y15839440D01*
X-5589222Y15839440D01*
X-5623520Y15842818D01*
X-5657818Y15839440D01*
X-5974010Y15839440D01*
X-5998164Y15859262D01*
X-6064352Y15894641D01*
X-6136171Y15916427D01*
X-6210860Y15923783D01*
X-7110860Y15923783D01*
X-7185549Y15916427D01*
X-7257368Y15894641D01*
X-7323556Y15859262D01*
X-7381571Y15811651D01*
X-7429182Y15753636D01*
X-7464561Y15687448D01*
X-7486347Y15615629D01*
X-7493703Y15540940D01*
X-7493703Y14740940D01*
X-7486347Y14666251D01*
X-7464561Y14594432D01*
X-7429182Y14528244D01*
X-7381571Y14470229D01*
X-7323556Y14422618D01*
X-7257368Y14387239D01*
X-7185549Y14365453D01*
X-7110860Y14358097D01*
X-6210860Y14358097D01*
X-6136171Y14365453D01*
X-6064352Y14387239D01*
X-6024056Y14408778D01*
X-6017823Y14345496D01*
X-5983234Y14231469D01*
X-5927063Y14126381D01*
X-5851470Y14034270D01*
X-5759359Y13958677D01*
X-5654271Y13902506D01*
X-5540244Y13867917D01*
X-5421660Y13856237D01*
X-4921660Y13856237D01*
X-4803076Y13867917D01*
X-4689049Y13902506D01*
X-4583961Y13958677D01*
X-4491850Y14034270D01*
X-4416257Y14126381D01*
X-4360086Y14231469D01*
X-4325497Y14345496D01*
X-4321229Y14388823D01*
X-2916373Y15793678D01*
X-2889738Y15815537D01*
X-2867878Y15842173D01*
X-2867866Y15842185D01*
X-2802449Y15921896D01*
X-2737589Y16043241D01*
X-2737280Y16044258D01*
X-2727423Y16076751D01*
X-2673344Y16105658D01*
X-2615329Y16153269D01*
X-2591608Y16182174D01*
X-2533350Y16143248D01*
X-2446760Y16107381D01*
X773080Y12887540D01*
X773080Y11608758D01*
X761993Y11625351D01*
X625351Y11761993D01*
X464678Y11869351D01*
X286147Y11943301D01*
X96620Y11981000D01*
X-96620Y11981000D01*
X-286147Y11943301D01*
X-464678Y11869351D01*
X-625351Y11761993D01*
X-761993Y11625351D01*
X-869351Y11464678D01*
X-943301Y11286147D01*
X-981000Y11096620D01*
X-981000Y10903380D01*
X-943301Y10713853D01*
X-869351Y10535322D01*
X-761993Y10374649D01*
X-625351Y10238007D01*
X-464678Y10130649D01*
X-286147Y10056699D01*
X-96620Y10019000D01*
X96620Y10019000D01*
X286147Y10056699D01*
X464678Y10130649D01*
X625351Y10238007D01*
X761993Y10374649D01*
X773080Y10391242D01*
X773081Y5262026D01*
X751979Y5222548D01*
X730193Y5150729D01*
X722837Y5076040D01*
X722837Y4958883D01*
X605680Y4958883D01*
X530991Y4951527D01*
X459172Y4929741D01*
X392984Y4894362D01*
X334969Y4846751D01*
X287358Y4788736D01*
X251979Y4722548D01*
X230193Y4650729D01*
X222837Y4576040D01*
X222837Y4276040D01*
X230193Y4201351D01*
X237871Y4176040D01*
X230193Y4150729D01*
X222837Y4076040D01*
X222837Y3776040D01*
X230193Y3701351D01*
X237871Y3676040D01*
X230193Y3650729D01*
X222837Y3576040D01*
X222837Y3276040D01*
X230193Y3201351D01*
X237871Y3176040D01*
X230193Y3150729D01*
X222837Y3076040D01*
X222837Y2908640D01*
X39033Y2908640D01*
X-55997Y2972137D01*
X-179931Y3023472D01*
X-311498Y3049643D01*
X-445644Y3049643D01*
X-577211Y3023472D01*
X-701145Y2972137D01*
X-812683Y2897610D01*
X-907538Y2802755D01*
X-982065Y2691217D01*
X-1033400Y2567283D01*
X-1059571Y2435716D01*
X-1059571Y2301570D01*
X-1033400Y2170003D01*
X-982065Y2046069D01*
X-907538Y1934531D01*
X-812683Y1839676D01*
X-800581Y1831590D01*
X-823170Y1718033D01*
X-823170Y1583887D01*
X-796999Y1452320D01*
X-775808Y1401161D01*
X-874742Y1391417D01*
X-972823Y1361664D01*
X-1063216Y1313348D01*
X-1142446Y1248326D01*
X-1207468Y1169096D01*
X-1255784Y1078703D01*
X-1285537Y980622D01*
X-1295583Y878620D01*
X-1295583Y604117D01*
X-1482245Y417455D01*
X-1501628Y401548D01*
X-1565109Y324195D01*
X-1584475Y287963D01*
X-1762640Y287963D01*
X-1837329Y280607D01*
X-1909148Y258821D01*
X-1975336Y223442D01*
X-2033351Y175831D01*
X-2080962Y117816D01*
X-2116341Y51628D01*
X-2138127Y-20191D01*
X-2145483Y-94880D01*
X-2145483Y-1494880D01*
X-2138127Y-1569569D01*
X-2116341Y-1641388D01*
X-2080962Y-1707576D01*
X-2033351Y-1765591D01*
X-1975336Y-1813202D01*
X-1909148Y-1848581D01*
X-1837329Y-1870367D01*
X-1762640Y-1877723D01*
X-562640Y-1877723D01*
X-487951Y-1870367D01*
X-416132Y-1848581D01*
X-349944Y-1813202D01*
X-291929Y-1765591D01*
X-244318Y-1707576D01*
X-208939Y-1641388D01*
X-187153Y-1569569D01*
X-179797Y-1494880D01*
X-179797Y-94880D01*
X-187153Y-20191D01*
X-208939Y51628D01*
X-229184Y89503D01*
X-202264Y103892D01*
X-123034Y168914D01*
X-76169Y226020D01*
X964555Y226020D01*
X988260Y223685D01*
X1011965Y226020D01*
X1011967Y226020D01*
X1082866Y233003D01*
X1173837Y260598D01*
X1257675Y305411D01*
X1273080Y318054D01*
X1273080Y289434D01*
X1273081Y289424D01*
X1273080Y-1273885D01*
X1264215Y-1290470D01*
X1234747Y-1387614D01*
X1224797Y-1488640D01*
X1224797Y-1758640D01*
X1234747Y-1859666D01*
X1257001Y-1933029D01*
X1212049Y-1919393D01*
X1137360Y-1912037D01*
X-62640Y-1912037D01*
X-137329Y-1919393D01*
X-209148Y-1941179D01*
X-275336Y-1976558D01*
X-333351Y-2024169D01*
X-380962Y-2082184D01*
X-416341Y-2148372D01*
X-438127Y-2220191D01*
X-445483Y-2294880D01*
X-445483Y-3674344D01*
X-584296Y-3813157D01*
X-734640Y-3813157D01*
X-836642Y-3823203D01*
X-934723Y-3852956D01*
X-1025116Y-3901272D01*
X-1104346Y-3966294D01*
X-1169368Y-4045524D01*
X-1217684Y-4135917D01*
X-1247437Y-4233998D01*
X-1257483Y-4336000D01*
X-1257483Y-4676000D01*
X-1247437Y-4778002D01*
X-1217684Y-4876083D01*
X-1169368Y-4966476D01*
X-1104346Y-5045706D01*
X-1025116Y-5110728D01*
X-934723Y-5159044D01*
X-836642Y-5188797D01*
X-734640Y-5198843D01*
X-454640Y-5198843D01*
X-352638Y-5188797D01*
X-254557Y-5159044D01*
X-164164Y-5110728D01*
X-84934Y-5045706D01*
X-19912Y-4966476D01*
X28404Y-4876083D01*
X58157Y-4778002D01*
X68203Y-4676000D01*
X68203Y-4525656D01*
X516137Y-4077723D01*
X1137360Y-4077723D01*
X1212049Y-4070367D01*
X1283868Y-4048581D01*
X1350056Y-4013202D01*
X1408071Y-3965591D01*
X1455682Y-3907576D01*
X1491061Y-3841388D01*
X1512847Y-3769569D01*
X1520203Y-3694880D01*
X1520203Y-3244094D01*
X1544470Y-3257065D01*
X1641614Y-3286533D01*
X1742640Y-3296483D01*
X2112640Y-3296483D01*
X2213666Y-3286533D01*
X2310810Y-3257065D01*
X2400338Y-3209211D01*
X2478810Y-3144810D01*
X2543211Y-3066338D01*
X2591065Y-2976810D01*
X2620533Y-2879666D01*
X2630483Y-2778640D01*
X2630483Y-2536363D01*
X3133210Y-3039091D01*
X3149112Y-3058468D01*
X3168489Y-3074370D01*
X3226464Y-3121949D01*
X3244580Y-3131632D01*
X3314717Y-3169121D01*
X3410475Y-3198169D01*
X3485113Y-3205520D01*
X3485115Y-3205520D01*
X3510059Y-3207977D01*
X3535003Y-3205520D01*
X3611542Y-3205520D01*
X3585980Y-3334027D01*
X3585980Y-3468173D01*
X3612151Y-3599740D01*
X3663486Y-3723674D01*
X3738013Y-3835212D01*
X3753901Y-3851100D01*
X3753900Y-9767336D01*
X3751443Y-9792280D01*
X3753900Y-9817224D01*
X3753900Y-9817226D01*
X3761251Y-9891864D01*
X3790299Y-9987622D01*
X3837471Y-10075875D01*
X3900952Y-10153228D01*
X3920335Y-10169135D01*
X4328677Y-10577478D01*
X4328677Y-10696900D01*
X4338627Y-10797926D01*
X4368095Y-10895070D01*
X4415949Y-10984598D01*
X4480350Y-11063070D01*
X4491109Y-11071900D01*
X4480350Y-11080730D01*
X4415949Y-11159202D01*
X4368095Y-11248730D01*
X4338627Y-11345874D01*
X4328677Y-11446900D01*
X4328677Y-11716900D01*
X4338627Y-11817926D01*
X4368095Y-11915070D01*
X4415949Y-12004598D01*
X4480350Y-12083070D01*
X4523520Y-12118499D01*
X4523521Y-15524918D01*
X2804340Y-17244100D01*
X415941Y-17244100D01*
X88856Y-16917015D01*
X83599Y-13931269D01*
X76279Y-13857611D01*
X54598Y-13786138D01*
X19390Y-13720268D01*
X-27992Y-13662532D01*
X-85728Y-13615150D01*
X-151598Y-13579942D01*
X-223071Y-13558261D01*
X-297400Y-13550940D01*
X-8956768Y-13550940D01*
X-9893824Y-12462337D01*
X-9074784Y-12471417D01*
X-8974966Y-12459253D01*
X-8904851Y-12433517D01*
X-8841105Y-12394597D01*
X-8786175Y-12343988D01*
X-8523172Y-12048998D01*
X-4369769Y-12029476D01*
X-4297069Y-12022127D01*
X-4225606Y-12000415D01*
X-4159751Y-11965179D01*
X-4102036Y-11917771D01*
X-4054679Y-11860016D01*
X-4019499Y-11794131D01*
X-3997849Y-11722648D01*
X-3990560Y-11648316D01*
X-3990881Y-10903380D01*
X-981000Y-10903380D01*
X-981000Y-11096620D01*
X-943301Y-11286147D01*
X-869351Y-11464678D01*
X-761993Y-11625351D01*
X-625351Y-11761993D01*
X-464678Y-11869351D01*
X-286147Y-11943301D01*
X-96620Y-11981000D01*
X96620Y-11981000D01*
X286147Y-11943301D01*
X464678Y-11869351D01*
X625351Y-11761993D01*
X761993Y-11625351D01*
X869351Y-11464678D01*
X943301Y-11286147D01*
X981000Y-11096620D01*
X981000Y-10903380D01*
X943301Y-10713853D01*
X869351Y-10535322D01*
X761993Y-10374649D01*
X625351Y-10238007D01*
X464678Y-10130649D01*
X286147Y-10056699D01*
X96620Y-10019000D01*
X-96620Y-10019000D01*
X-286147Y-10056699D01*
X-464678Y-10130649D01*
X-625351Y-10238007D01*
X-761993Y-10374649D01*
X-869351Y-10535322D01*
X-943301Y-10713853D01*
X-981000Y-10903380D01*
X-3990881Y-10903380D01*
X-3993053Y-5869258D01*
X-2424600Y-5869258D01*
X-2424600Y-6023102D01*
X-2394587Y-6173989D01*
X-2335713Y-6316122D01*
X-2250242Y-6444039D01*
X-2141459Y-6552822D01*
X-2013542Y-6638293D01*
X-1871409Y-6697167D01*
X-1720522Y-6727180D01*
X-1566678Y-6727180D01*
X-1415791Y-6697167D01*
X-1273658Y-6638293D01*
X-1145741Y-6552822D01*
X-1036958Y-6444039D01*
X-1026762Y-6428780D01*
X1211742Y-6428780D01*
X1221938Y-6444039D01*
X1330721Y-6552822D01*
X1458638Y-6638293D01*
X1600771Y-6697167D01*
X1751658Y-6727180D01*
X1905502Y-6727180D01*
X2056389Y-6697167D01*
X2198522Y-6638293D01*
X2326439Y-6552822D01*
X2435222Y-6444039D01*
X2520693Y-6316122D01*
X2579567Y-6173989D01*
X2609580Y-6023102D01*
X2609580Y-5869258D01*
X2579567Y-5718371D01*
X2520693Y-5576238D01*
X2435222Y-5448321D01*
X2326439Y-5339538D01*
X2198522Y-5254067D01*
X2056389Y-5195193D01*
X1905502Y-5165180D01*
X1751658Y-5165180D01*
X1600771Y-5195193D01*
X1458638Y-5254067D01*
X1330721Y-5339538D01*
X1221938Y-5448321D01*
X1211742Y-5463580D01*
X-1026762Y-5463580D01*
X-1036958Y-5448321D01*
X-1145741Y-5339538D01*
X-1273658Y-5254067D01*
X-1415791Y-5195193D01*
X-1566678Y-5165180D01*
X-1720522Y-5165180D01*
X-1871409Y-5195193D01*
X-2013542Y-5254067D01*
X-2141459Y-5339538D01*
X-2250242Y-5448321D01*
X-2335713Y-5576238D01*
X-2394587Y-5718371D01*
X-2424600Y-5869258D01*
X-3993053Y-5869258D01*
X-3995640Y127124D01*
X-4002961Y201289D01*
X-4024642Y272762D01*
X-4059850Y338632D01*
X-4107232Y396368D01*
X-4164968Y443750D01*
X-4212897Y469368D01*
X-4212897Y2359840D01*
X-4220253Y2434529D01*
X-4242039Y2506348D01*
X-4277418Y2572536D01*
X-4325029Y2630551D01*
X-4383044Y2678162D01*
X-4449232Y2713541D01*
X-4521051Y2735327D01*
X-4595740Y2742683D01*
X-8195740Y2742683D01*
X-8270429Y2735327D01*
X-8342248Y2713541D01*
X-8408436Y2678162D01*
X-8466451Y2630551D01*
X-8514062Y2572536D01*
X-8549441Y2506348D01*
X-8571227Y2434529D01*
X-8578583Y2359840D01*
X-8578583Y453290D01*
X-8596432Y443750D01*
X-8654168Y396368D01*
X-8701550Y338632D01*
X-8736758Y272762D01*
X-8758439Y201289D01*
X-8765760Y126960D01*
X-8765760Y-4107220D01*
X-8753211Y-4204198D01*
X-8727212Y-4274216D01*
X-8688053Y-4337816D01*
X-8189539Y-4993489D01*
X-8247378Y-4975943D01*
X-8349380Y-4965897D01*
X-8689380Y-4965897D01*
X-8791382Y-4975943D01*
X-8889463Y-5005696D01*
X-8979856Y-5054012D01*
X-8983789Y-5057240D01*
X-9203249Y-5057240D01*
X-9231321Y-5054475D01*
X-9259393Y-5057240D01*
X-9259394Y-5057240D01*
X-9312536Y-5062474D01*
X-9316231Y-5061353D01*
X-9390920Y-5053997D01*
X-10192920Y-5053997D01*
X-10267609Y-5061353D01*
X-10339428Y-5083139D01*
X-10405616Y-5118518D01*
X-10426920Y-5136001D01*
X-10448224Y-5118518D01*
X-10514412Y-5083139D01*
X-10586231Y-5061353D01*
X-10660920Y-5053997D01*
X-11462920Y-5053997D01*
X-11537609Y-5061353D01*
X-11609428Y-5083139D01*
X-11675616Y-5118518D01*
X-11696920Y-5136001D01*
X-11718224Y-5118518D01*
X-11784412Y-5083139D01*
X-11856231Y-5061353D01*
X-11930920Y-5053997D01*
X-12732920Y-5053997D01*
X-12807609Y-5061353D01*
X-12879428Y-5083139D01*
X-12945616Y-5118518D01*
X-12966920Y-5136001D01*
X-12988224Y-5118518D01*
X-13054412Y-5083139D01*
X-13126231Y-5061353D01*
X-13200920Y-5053997D01*
X-14002920Y-5053997D01*
X-14077609Y-5061353D01*
X-14149428Y-5083139D01*
X-14199032Y-5109654D01*
X-14243649Y-5026182D01*
X-14308050Y-4947710D01*
X-14386522Y-4883309D01*
X-14476050Y-4835455D01*
X-14573194Y-4805987D01*
X-14674220Y-4796037D01*
X-15044220Y-4796037D01*
X-15145246Y-4805987D01*
X-15242390Y-4835455D01*
X-15331918Y-4883309D01*
X-15372497Y-4916612D01*
X-15387740Y-4904102D01*
X-15387740Y-2657482D01*
X-13222154Y-2664498D01*
X-13145752Y-2657011D01*
X-13074328Y-2635170D01*
X-13008537Y-2599814D01*
X-12950908Y-2552302D01*
X-12903656Y-2494461D01*
X-12868595Y-2428512D01*
X-12847075Y-2356990D01*
X-12839921Y-2282645D01*
X-12857701Y5637075D01*
X-12857707Y5638538D01*
X-12884840Y10098206D01*
X-12824588Y10175200D01*
X-4337006Y10175200D01*
X-4253622Y10091816D01*
X-4253617Y10091812D01*
X-3711160Y9549354D01*
X-3711160Y5981394D01*
X-3694621Y5813473D01*
X-3629263Y5598017D01*
X-3523127Y5399451D01*
X-3380292Y5225407D01*
X-3206248Y5082572D01*
X-3007682Y4976437D01*
X-2792226Y4911079D01*
X-2568160Y4889010D01*
X-2344093Y4911079D01*
X-2128637Y4976437D01*
X-1930071Y5082572D01*
X-1756027Y5225407D01*
X-1613192Y5399451D01*
X-1507057Y5598018D01*
X-1441699Y5813474D01*
X-1425160Y5981395D01*
X-1425160Y9966661D01*
X-1419631Y10022800D01*
X-1425160Y10078939D01*
X-1425160Y10078946D01*
X-1441699Y10246867D01*
X-1441924Y10247611D01*
X-1469505Y10338531D01*
X-1507057Y10462323D01*
X-1613192Y10660889D01*
X-1756027Y10834933D01*
X-1799636Y10870722D01*
X-2637172Y11708257D01*
X-2637176Y11708262D01*
X-3015633Y12086718D01*
X-3051427Y12130333D01*
X-3225471Y12273168D01*
X-3424037Y12379303D01*
X-3639493Y12444661D01*
X-3807414Y12461200D01*
X-3807421Y12461200D01*
X-3863560Y12466729D01*
X-3919699Y12461200D01*
X-11087169Y12461200D01*
X-11055110Y12487510D01*
X-10979517Y12579621D01*
X-10923346Y12684709D01*
X-10888757Y12798736D01*
X-10877077Y12917320D01*
X-10877077Y13012335D01*
X-10396971Y13492440D01*
X-9347710Y13492440D01*
X-9323556Y13472618D01*
X-9257368Y13437239D01*
X-9185549Y13415453D01*
X-9110860Y13408097D01*
X-8210860Y13408097D01*
X-8136171Y13415453D01*
X-8064352Y13437239D01*
X-7998164Y13472618D01*
X-7940149Y13520229D01*
X-7892538Y13578244D01*
X-7857159Y13644432D01*
X-7835373Y13716251D01*
X-7828017Y13790940D01*
X-7828017Y14590940D01*
X-7835373Y14665629D01*
X-7857159Y14737448D01*
X-7892538Y14803636D01*
X-7940149Y14861651D01*
X-7998164Y14909262D01*
X-8064352Y14944641D01*
X-8136171Y14966427D01*
X-8210860Y14973783D01*
X-9110860Y14973783D01*
X-9185549Y14966427D01*
X-9257368Y14944641D01*
X-9323556Y14909262D01*
X-9347710Y14889440D01*
X-10652003Y14889440D01*
X-10686301Y14892818D01*
X-10720599Y14889440D01*
X-10720609Y14889440D01*
X-10823230Y14879333D01*
X-10954897Y14839392D01*
X-10954899Y14839391D01*
X-11076244Y14774531D01*
X-11155955Y14709114D01*
X-11155963Y14709106D01*
X-11182603Y14687243D01*
X-11204467Y14660602D01*
X-11839905Y14025163D01*
X-11934920Y14025163D01*
X-12053504Y14013483D01*
X-12104130Y13998126D01*
X-11830804Y14247296D01*
X-10465761Y15278128D01*
X-9011428Y16178613D01*
X-7480213Y16941068D01*
X-5885179Y17558987D01*
X-4239935Y18027099D01*
X-3676276Y18132465D01*
X-3855697Y17953045D01*
G37*
G04 #@! TD.AperFunction*
D30*
X-18305996Y-2266424D02*
X-18298918Y-2341378D01*
X-18277469Y-2412921D01*
X-18242474Y-2478905D01*
X-18195279Y-2536793D01*
X-18137697Y-2584363D01*
X-18071942Y-2619784D01*
X-18000540Y-2641696D01*
X-17926234Y-2649258D01*
X-16403739Y-2654190D01*
X-16403739Y-4864583D01*
X-16472490Y-4827835D01*
X-16569634Y-4798367D01*
X-16670660Y-4788417D01*
X-17040660Y-4788417D01*
X-17141686Y-4798367D01*
X-17238830Y-4827835D01*
X-17328358Y-4875689D01*
X-17406830Y-4940090D01*
X-17471231Y-5018562D01*
X-17519085Y-5108090D01*
X-17548553Y-5205234D01*
X-17558503Y-5306260D01*
X-17558503Y-5576260D01*
X-17548553Y-5677286D01*
X-17519085Y-5774430D01*
X-17471231Y-5863958D01*
X-17406830Y-5942430D01*
X-17328358Y-6006831D01*
X-17238830Y-6054685D01*
X-17141686Y-6084153D01*
X-17040660Y-6094103D01*
X-16913017Y-6094103D01*
X-16550283Y-6456838D01*
X-16550283Y-6571260D01*
X-16540237Y-6673262D01*
X-16510484Y-6771343D01*
X-16462168Y-6861736D01*
X-16397146Y-6940966D01*
X-16317916Y-7005988D01*
X-16227523Y-7054304D01*
X-16129442Y-7084057D01*
X-16027440Y-7094103D01*
X-15687440Y-7094103D01*
X-15585438Y-7084057D01*
X-15487357Y-7054304D01*
X-15461307Y-7040380D01*
X-15320826Y-7040380D01*
X-15242390Y-7082305D01*
X-15145246Y-7111773D01*
X-15044220Y-7121723D01*
X-14674220Y-7121723D01*
X-14573194Y-7111773D01*
X-14476050Y-7082305D01*
X-14386522Y-7034451D01*
X-14375672Y-7025546D01*
X-14356621Y-7088348D01*
X-14321242Y-7154536D01*
X-14273631Y-7212551D01*
X-14215616Y-7260162D01*
X-14149428Y-7295541D01*
X-14077609Y-7317327D01*
X-14002920Y-7324683D01*
X-13200920Y-7324683D01*
X-13126231Y-7317327D01*
X-13054412Y-7295541D01*
X-12988224Y-7260162D01*
X-12966920Y-7242679D01*
X-12945616Y-7260162D01*
X-12879428Y-7295541D01*
X-12807609Y-7317327D01*
X-12732920Y-7324683D01*
X-11930920Y-7324683D01*
X-11856231Y-7317327D01*
X-11784412Y-7295541D01*
X-11718224Y-7260162D01*
X-11696920Y-7242679D01*
X-11675616Y-7260162D01*
X-11609428Y-7295541D01*
X-11537609Y-7317327D01*
X-11462920Y-7324683D01*
X-10660920Y-7324683D01*
X-10586231Y-7317327D01*
X-10514412Y-7295541D01*
X-10448224Y-7260162D01*
X-10426920Y-7242679D01*
X-10405616Y-7260162D01*
X-10339428Y-7295541D01*
X-10267609Y-7317327D01*
X-10192920Y-7324683D01*
X-9390920Y-7324683D01*
X-9316231Y-7317327D01*
X-9244412Y-7295541D01*
X-9178224Y-7260162D01*
X-9120209Y-7212551D01*
X-9072598Y-7154536D01*
X-9047638Y-7107841D01*
X-8979856Y-7163468D01*
X-8889463Y-7211784D01*
X-8791382Y-7241537D01*
X-8689380Y-7251583D01*
X-8349380Y-7251583D01*
X-8247378Y-7241537D01*
X-8207208Y-7229351D01*
X-8063085Y-7373474D01*
X-8101017Y-9232120D01*
X-9195937Y-9898859D01*
X-10324348Y-9903503D01*
X-10373655Y-9906912D01*
X-10446341Y-9924092D01*
X-10489798Y-9943941D01*
X-10552313Y-9925501D01*
X-10626697Y-9918751D01*
X-11618567Y-9926371D01*
X-11688871Y-9933464D01*
X-11760408Y-9954935D01*
X-11826381Y-9989950D01*
X-11884255Y-10037162D01*
X-11931807Y-10094758D01*
X-11967208Y-10160524D01*
X-11989099Y-10231933D01*
X-11996638Y-10306241D01*
X-12001585Y-11990108D01*
X-12019846Y-11991907D01*
X-12116990Y-12021375D01*
X-12206518Y-12069229D01*
X-12284990Y-12133630D01*
X-12293820Y-12144389D01*
X-12302650Y-12133630D01*
X-12381122Y-12069229D01*
X-12470650Y-12021375D01*
X-12567794Y-11991907D01*
X-12668820Y-11981957D01*
X-12788243Y-11981957D01*
X-12819447Y-11950753D01*
X-12818077Y-11936840D01*
X-12818077Y-10431840D01*
X-12825433Y-10357151D01*
X-12847219Y-10285332D01*
X-12882598Y-10219144D01*
X-12930209Y-10161129D01*
X-12988224Y-10113518D01*
X-13054412Y-10078139D01*
X-13126231Y-10056353D01*
X-13200920Y-10048997D01*
X-14002920Y-10048997D01*
X-14077609Y-10056353D01*
X-14149428Y-10078139D01*
X-14215616Y-10113518D01*
X-14273631Y-10161129D01*
X-14321242Y-10219144D01*
X-14356621Y-10285332D01*
X-14378407Y-10357151D01*
X-14385763Y-10431840D01*
X-14385763Y-11647444D01*
X-15278128Y-10465761D01*
X-16178613Y-9011428D01*
X-16941068Y-7480213D01*
X-17558987Y-5885179D01*
X-18027099Y-4239935D01*
X-18341411Y-2558518D01*
X-18499240Y-855271D01*
X-18499240Y855271D01*
X-18341411Y2558518D01*
X-18281187Y2880689D01*
X-18305996Y-2266424D01*
G04 #@! TA.AperFunction,Conductor*
D33*
G36*
X-18305996Y-2266424D02*
G01*
X-18298918Y-2341378D01*
X-18277469Y-2412921D01*
X-18242474Y-2478905D01*
X-18195279Y-2536793D01*
X-18137697Y-2584363D01*
X-18071942Y-2619784D01*
X-18000540Y-2641696D01*
X-17926234Y-2649258D01*
X-16403739Y-2654190D01*
X-16403739Y-4864583D01*
X-16472490Y-4827835D01*
X-16569634Y-4798367D01*
X-16670660Y-4788417D01*
X-17040660Y-4788417D01*
X-17141686Y-4798367D01*
X-17238830Y-4827835D01*
X-17328358Y-4875689D01*
X-17406830Y-4940090D01*
X-17471231Y-5018562D01*
X-17519085Y-5108090D01*
X-17548553Y-5205234D01*
X-17558503Y-5306260D01*
X-17558503Y-5576260D01*
X-17548553Y-5677286D01*
X-17519085Y-5774430D01*
X-17471231Y-5863958D01*
X-17406830Y-5942430D01*
X-17328358Y-6006831D01*
X-17238830Y-6054685D01*
X-17141686Y-6084153D01*
X-17040660Y-6094103D01*
X-16913017Y-6094103D01*
X-16550283Y-6456838D01*
X-16550283Y-6571260D01*
X-16540237Y-6673262D01*
X-16510484Y-6771343D01*
X-16462168Y-6861736D01*
X-16397146Y-6940966D01*
X-16317916Y-7005988D01*
X-16227523Y-7054304D01*
X-16129442Y-7084057D01*
X-16027440Y-7094103D01*
X-15687440Y-7094103D01*
X-15585438Y-7084057D01*
X-15487357Y-7054304D01*
X-15461307Y-7040380D01*
X-15320826Y-7040380D01*
X-15242390Y-7082305D01*
X-15145246Y-7111773D01*
X-15044220Y-7121723D01*
X-14674220Y-7121723D01*
X-14573194Y-7111773D01*
X-14476050Y-7082305D01*
X-14386522Y-7034451D01*
X-14375672Y-7025546D01*
X-14356621Y-7088348D01*
X-14321242Y-7154536D01*
X-14273631Y-7212551D01*
X-14215616Y-7260162D01*
X-14149428Y-7295541D01*
X-14077609Y-7317327D01*
X-14002920Y-7324683D01*
X-13200920Y-7324683D01*
X-13126231Y-7317327D01*
X-13054412Y-7295541D01*
X-12988224Y-7260162D01*
X-12966920Y-7242679D01*
X-12945616Y-7260162D01*
X-12879428Y-7295541D01*
X-12807609Y-7317327D01*
X-12732920Y-7324683D01*
X-11930920Y-7324683D01*
X-11856231Y-7317327D01*
X-11784412Y-7295541D01*
X-11718224Y-7260162D01*
X-11696920Y-7242679D01*
X-11675616Y-7260162D01*
X-11609428Y-7295541D01*
X-11537609Y-7317327D01*
X-11462920Y-7324683D01*
X-10660920Y-7324683D01*
X-10586231Y-7317327D01*
X-10514412Y-7295541D01*
X-10448224Y-7260162D01*
X-10426920Y-7242679D01*
X-10405616Y-7260162D01*
X-10339428Y-7295541D01*
X-10267609Y-7317327D01*
X-10192920Y-7324683D01*
X-9390920Y-7324683D01*
X-9316231Y-7317327D01*
X-9244412Y-7295541D01*
X-9178224Y-7260162D01*
X-9120209Y-7212551D01*
X-9072598Y-7154536D01*
X-9047638Y-7107841D01*
X-8979856Y-7163468D01*
X-8889463Y-7211784D01*
X-8791382Y-7241537D01*
X-8689380Y-7251583D01*
X-8349380Y-7251583D01*
X-8247378Y-7241537D01*
X-8207208Y-7229351D01*
X-8063085Y-7373474D01*
X-8101017Y-9232120D01*
X-9195937Y-9898859D01*
X-10324348Y-9903503D01*
X-10373655Y-9906912D01*
X-10446341Y-9924092D01*
X-10489798Y-9943941D01*
X-10552313Y-9925501D01*
X-10626697Y-9918751D01*
X-11618567Y-9926371D01*
X-11688871Y-9933464D01*
X-11760408Y-9954935D01*
X-11826381Y-9989950D01*
X-11884255Y-10037162D01*
X-11931807Y-10094758D01*
X-11967208Y-10160524D01*
X-11989099Y-10231933D01*
X-11996638Y-10306241D01*
X-12001585Y-11990108D01*
X-12019846Y-11991907D01*
X-12116990Y-12021375D01*
X-12206518Y-12069229D01*
X-12284990Y-12133630D01*
X-12293820Y-12144389D01*
X-12302650Y-12133630D01*
X-12381122Y-12069229D01*
X-12470650Y-12021375D01*
X-12567794Y-11991907D01*
X-12668820Y-11981957D01*
X-12788243Y-11981957D01*
X-12819447Y-11950753D01*
X-12818077Y-11936840D01*
X-12818077Y-10431840D01*
X-12825433Y-10357151D01*
X-12847219Y-10285332D01*
X-12882598Y-10219144D01*
X-12930209Y-10161129D01*
X-12988224Y-10113518D01*
X-13054412Y-10078139D01*
X-13126231Y-10056353D01*
X-13200920Y-10048997D01*
X-14002920Y-10048997D01*
X-14077609Y-10056353D01*
X-14149428Y-10078139D01*
X-14215616Y-10113518D01*
X-14273631Y-10161129D01*
X-14321242Y-10219144D01*
X-14356621Y-10285332D01*
X-14378407Y-10357151D01*
X-14385763Y-10431840D01*
X-14385763Y-11647444D01*
X-15278128Y-10465761D01*
X-16178613Y-9011428D01*
X-16941068Y-7480213D01*
X-17558987Y-5885179D01*
X-18027099Y-4239935D01*
X-18341411Y-2558518D01*
X-18499240Y-855271D01*
X-18499240Y855271D01*
X-18341411Y2558518D01*
X-18281187Y2880689D01*
X-18305996Y-2266424D01*
G37*
G04 #@! TD.AperFunction*
D30*
X5729300Y1962171D02*
X5729302Y172725D01*
X5726844Y147771D01*
X5735775Y57097D01*
X5736653Y48186D01*
X5741406Y32517D01*
X5765701Y-47572D01*
X5812872Y-135824D01*
X5834746Y-162477D01*
X5876354Y-213177D01*
X5895731Y-229079D01*
X7042120Y-1375469D01*
X7042120Y-1618167D01*
X7042277Y-1619761D01*
X7042277Y-1968220D01*
X7049633Y-2042909D01*
X7069576Y-2108652D01*
X6979928Y-2168553D01*
X6958961Y-2189520D01*
X4932523Y-2189520D01*
X4947980Y-2111813D01*
X4947980Y-1977667D01*
X4921809Y-1846100D01*
X4870474Y-1722166D01*
X4795947Y-1610628D01*
X4738280Y-1552961D01*
X4738280Y590056D01*
X4759381Y629532D01*
X4781167Y701351D01*
X4788523Y776040D01*
X4788523Y893197D01*
X4905680Y893197D01*
X4980369Y900553D01*
X5052188Y922339D01*
X5118376Y957718D01*
X5176391Y1005329D01*
X5224002Y1063344D01*
X5259381Y1129532D01*
X5281167Y1201351D01*
X5288523Y1276040D01*
X5288523Y1576040D01*
X5281167Y1650729D01*
X5273489Y1676040D01*
X5281167Y1701351D01*
X5288523Y1776040D01*
X5288523Y2076040D01*
X5281167Y2150729D01*
X5273489Y2176040D01*
X5281167Y2201351D01*
X5288523Y2276040D01*
X5288523Y2402948D01*
X5729300Y1962171D01*
G04 #@! TA.AperFunction,Conductor*
D33*
G36*
X5729300Y1962171D02*
G01*
X5729302Y172725D01*
X5726844Y147771D01*
X5735775Y57097D01*
X5736653Y48186D01*
X5741406Y32517D01*
X5765701Y-47572D01*
X5812872Y-135824D01*
X5834746Y-162477D01*
X5876354Y-213177D01*
X5895731Y-229079D01*
X7042120Y-1375469D01*
X7042120Y-1618167D01*
X7042277Y-1619761D01*
X7042277Y-1968220D01*
X7049633Y-2042909D01*
X7069576Y-2108652D01*
X6979928Y-2168553D01*
X6958961Y-2189520D01*
X4932523Y-2189520D01*
X4947980Y-2111813D01*
X4947980Y-1977667D01*
X4921809Y-1846100D01*
X4870474Y-1722166D01*
X4795947Y-1610628D01*
X4738280Y-1552961D01*
X4738280Y590056D01*
X4759381Y629532D01*
X4781167Y701351D01*
X4788523Y776040D01*
X4788523Y893197D01*
X4905680Y893197D01*
X4980369Y900553D01*
X5052188Y922339D01*
X5118376Y957718D01*
X5176391Y1005329D01*
X5224002Y1063344D01*
X5259381Y1129532D01*
X5281167Y1201351D01*
X5288523Y1276040D01*
X5288523Y1576040D01*
X5281167Y1650729D01*
X5273489Y1676040D01*
X5281167Y1701351D01*
X5288523Y1776040D01*
X5288523Y2076040D01*
X5281167Y2150729D01*
X5273489Y2176040D01*
X5281167Y2201351D01*
X5288523Y2276040D01*
X5288523Y2402948D01*
X5729300Y1962171D01*
G37*
G04 #@! TD.AperFunction*
D30*
X2787358Y563344D02*
X2834969Y505329D01*
X2892984Y457718D01*
X2959172Y422339D01*
X3030991Y400553D01*
X3105680Y393197D01*
X3405680Y393197D01*
X3480369Y400553D01*
X3505680Y408231D01*
X3530991Y400553D01*
X3605680Y393197D01*
X3773080Y393197D01*
X3773081Y-1575560D01*
X3738013Y-1610628D01*
X3663486Y-1722166D01*
X3612151Y-1846100D01*
X3585980Y-1977667D01*
X3585980Y-2055019D01*
X3027520Y-1496560D01*
X3027520Y-868806D01*
X3029226Y-867406D01*
X3094248Y-788176D01*
X3142564Y-697783D01*
X3172317Y-599702D01*
X3182363Y-497700D01*
X3182363Y-157700D01*
X3172317Y-55698D01*
X3142564Y42383D01*
X3094248Y132776D01*
X3029226Y212006D01*
X2949996Y277028D01*
X2859603Y325344D01*
X2765851Y353784D01*
X2765851Y603580D01*
X2787358Y563344D01*
G04 #@! TA.AperFunction,Conductor*
D33*
G36*
X2787358Y563344D02*
G01*
X2834969Y505329D01*
X2892984Y457718D01*
X2959172Y422339D01*
X3030991Y400553D01*
X3105680Y393197D01*
X3405680Y393197D01*
X3480369Y400553D01*
X3505680Y408231D01*
X3530991Y400553D01*
X3605680Y393197D01*
X3773080Y393197D01*
X3773081Y-1575560D01*
X3738013Y-1610628D01*
X3663486Y-1722166D01*
X3612151Y-1846100D01*
X3585980Y-1977667D01*
X3585980Y-2055019D01*
X3027520Y-1496560D01*
X3027520Y-868806D01*
X3029226Y-867406D01*
X3094248Y-788176D01*
X3142564Y-697783D01*
X3172317Y-599702D01*
X3182363Y-497700D01*
X3182363Y-157700D01*
X3172317Y-55698D01*
X3142564Y42383D01*
X3094248Y132776D01*
X3029226Y212006D01*
X2949996Y277028D01*
X2859603Y325344D01*
X2765851Y353784D01*
X2765851Y603580D01*
X2787358Y563344D01*
G37*
G04 #@! TD.AperFunction*
D30*
X4392246Y17178949D02*
X4641006Y17113421D01*
X4888863Y17044270D01*
X5135601Y16971556D01*
X5381401Y16895224D01*
X5625996Y16815357D01*
X5869386Y16731958D01*
X6111534Y16645037D01*
X6352433Y16554598D01*
X6591961Y16460686D01*
X6830082Y16363316D01*
X7066836Y16262471D01*
X7302047Y16158224D01*
X7535781Y16050549D01*
X7767853Y15939528D01*
X7998343Y15825127D01*
X8227132Y15707400D01*
X8454189Y15586365D01*
X8679431Y15462069D01*
X8902891Y15334491D01*
X9124466Y15203692D01*
X9344172Y15069657D01*
X9561787Y14932525D01*
X9777475Y14792197D01*
X9990992Y14648828D01*
X10202600Y14502243D01*
X10411970Y14352665D01*
X10619096Y14200103D01*
X10824012Y14044531D01*
X11026694Y13885970D01*
X11227034Y13724497D01*
X11424953Y13560184D01*
X11620521Y13392969D01*
X11813667Y13222912D01*
X12004247Y13050140D01*
X12192389Y12874541D01*
X12377835Y12696351D01*
X12560817Y12515350D01*
X12741162Y12331704D01*
X12918681Y12145609D01*
X13093614Y11956814D01*
X13265668Y11765635D01*
X13434991Y11571912D01*
X13601523Y11375706D01*
X13765170Y11177129D01*
X13925891Y10976234D01*
X14083661Y10773052D01*
X14238494Y10567565D01*
X14390347Y10359829D01*
X14539168Y10149912D01*
X14684965Y9937803D01*
X14827568Y9723751D01*
X14967120Y9507546D01*
X15103490Y9289387D01*
X15236687Y9069261D01*
X15282960Y8990221D01*
X15282961Y3205209D01*
X10982988Y-1094765D01*
X10956337Y-1116637D01*
X10942023Y-1134078D01*
X10924588Y-1148387D01*
X10902719Y-1175034D01*
X10902716Y-1175037D01*
X10856223Y-1231689D01*
X10809045Y-1278866D01*
X10793222Y-1226703D01*
X10748409Y-1142865D01*
X10688101Y-1069379D01*
X10669682Y-1054263D01*
X9032720Y582699D01*
X9032720Y998125D01*
X9050607Y1057091D01*
X9057963Y1131780D01*
X9057963Y1480239D01*
X9058120Y1481833D01*
X9058120Y2027126D01*
X9050769Y2101765D01*
X9021721Y2197523D01*
X8974549Y2285775D01*
X8949301Y2316541D01*
X11211701Y4578940D01*
X11704496Y4578940D01*
X11800289Y4399724D01*
X11954120Y4212280D01*
X12141564Y4058449D01*
X12355417Y3944142D01*
X12587462Y3873752D01*
X12768308Y3855940D01*
X13139252Y3855940D01*
X13320098Y3873752D01*
X13552143Y3944142D01*
X13765996Y4058449D01*
X13953440Y4212280D01*
X14107271Y4399724D01*
X14221578Y4613577D01*
X14291968Y4845622D01*
X14315736Y5086940D01*
X14291968Y5328258D01*
X14221578Y5560303D01*
X14107271Y5774156D01*
X13953440Y5961600D01*
X13765996Y6115431D01*
X13552143Y6229738D01*
X13320098Y6300128D01*
X13139252Y6317940D01*
X12768308Y6317940D01*
X12587462Y6300128D01*
X12355417Y6229738D01*
X12141564Y6115431D01*
X11954120Y5961600D01*
X11800289Y5774156D01*
X11704496Y5594940D01*
X11026223Y5594940D01*
X11001279Y5597397D01*
X10976335Y5594940D01*
X10976333Y5594940D01*
X10901695Y5587589D01*
X10805937Y5558541D01*
X10805935Y5558540D01*
X10717684Y5511369D01*
X10663090Y5466564D01*
X10640332Y5447888D01*
X10624430Y5428511D01*
X7708550Y2512630D01*
X7689173Y2496728D01*
X7673271Y2477351D01*
X7673270Y2477350D01*
X7625691Y2419375D01*
X7579143Y2332289D01*
X7578520Y2331123D01*
X7558347Y2264623D01*
X7425120Y2264623D01*
X7350431Y2257267D01*
X7278612Y2235481D01*
X7212424Y2200102D01*
X7154409Y2152491D01*
X7151710Y2149202D01*
X7151710Y2315989D01*
X7154167Y2340933D01*
X7151710Y2365879D01*
X7144359Y2440517D01*
X7115311Y2536275D01*
X7082842Y2597020D01*
X7068139Y2624528D01*
X7020560Y2682503D01*
X7004658Y2701880D01*
X6985281Y2717782D01*
X5435457Y4267605D01*
X5419550Y4286988D01*
X5342197Y4350469D01*
X5288523Y4379159D01*
X5288523Y4576040D01*
X5281167Y4650729D01*
X5259381Y4722548D01*
X5224002Y4788736D01*
X5176391Y4846751D01*
X5118376Y4894362D01*
X5052188Y4929741D01*
X4980369Y4951527D01*
X4905680Y4958883D01*
X4788523Y4958883D01*
X4788523Y5076040D01*
X4781167Y5150729D01*
X4759381Y5222548D01*
X4738280Y5262024D01*
X4738280Y8186940D01*
X11595937Y8186940D01*
X11595937Y6986940D01*
X11608097Y6863478D01*
X11644109Y6744761D01*
X11702590Y6635351D01*
X11781292Y6539452D01*
X11877191Y6460750D01*
X11986601Y6402269D01*
X12105318Y6366257D01*
X12228780Y6354097D01*
X13678780Y6354097D01*
X13802242Y6366257D01*
X13920959Y6402269D01*
X14030369Y6460750D01*
X14126268Y6539452D01*
X14204970Y6635351D01*
X14263451Y6744761D01*
X14299463Y6863478D01*
X14311623Y6986940D01*
X14311623Y8186940D01*
X14299463Y8310402D01*
X14263451Y8429119D01*
X14204970Y8538529D01*
X14126268Y8634428D01*
X14030369Y8713130D01*
X13920959Y8771611D01*
X13802242Y8807623D01*
X13678780Y8819783D01*
X12228780Y8819783D01*
X12105318Y8807623D01*
X11986601Y8771611D01*
X11877191Y8713130D01*
X11781292Y8634428D01*
X11702590Y8538529D01*
X11644109Y8429119D01*
X11608097Y8310402D01*
X11595937Y8186940D01*
X4738280Y8186940D01*
X4738280Y10908881D01*
X5398219Y11568819D01*
X7010254Y11568819D01*
X7017546Y11551215D01*
X7133112Y11378258D01*
X7280200Y11231170D01*
X7453157Y11115604D01*
X7645337Y11036000D01*
X7849354Y10995419D01*
X8057368Y10995419D01*
X8261385Y11036000D01*
X8453565Y11115604D01*
X8626522Y11231170D01*
X8773610Y11378258D01*
X8889176Y11551215D01*
X8968780Y11743395D01*
X9009361Y11947412D01*
X9009361Y12155426D01*
X8968780Y12359443D01*
X8889176Y12551623D01*
X8773610Y12724580D01*
X8626522Y12871668D01*
X8453565Y12987234D01*
X8261385Y13066838D01*
X8057368Y13107419D01*
X7849354Y13107419D01*
X7645337Y13066838D01*
X7490381Y13002653D01*
X7554566Y13157609D01*
X7595147Y13361626D01*
X7595147Y13569640D01*
X7554566Y13773657D01*
X7474962Y13965837D01*
X7359396Y14138794D01*
X7212308Y14285882D01*
X7039351Y14401448D01*
X6847171Y14481052D01*
X6643154Y14521633D01*
X6435140Y14521633D01*
X6231123Y14481052D01*
X6076168Y14416867D01*
X6140353Y14571822D01*
X6180934Y14775839D01*
X6180934Y14983853D01*
X6140353Y15187870D01*
X6060749Y15380050D01*
X5945183Y15553007D01*
X5798095Y15700095D01*
X5625138Y15815661D01*
X5432958Y15895265D01*
X5228941Y15935846D01*
X5020927Y15935846D01*
X4816910Y15895265D01*
X4801599Y15888923D01*
X4936025Y16023349D01*
X4983636Y16081364D01*
X5019015Y16147552D01*
X5040801Y16219371D01*
X5048157Y16294060D01*
X5040801Y16368749D01*
X5019015Y16440568D01*
X4983636Y16506756D01*
X4936025Y16564771D01*
X4298635Y17202161D01*
X4392246Y17178949D01*
G04 #@! TA.AperFunction,Conductor*
D33*
G36*
X4392246Y17178949D02*
G01*
X4641006Y17113421D01*
X4888863Y17044270D01*
X5135601Y16971556D01*
X5381401Y16895224D01*
X5625996Y16815357D01*
X5869386Y16731958D01*
X6111534Y16645037D01*
X6352433Y16554598D01*
X6591961Y16460686D01*
X6830082Y16363316D01*
X7066836Y16262471D01*
X7302047Y16158224D01*
X7535781Y16050549D01*
X7767853Y15939528D01*
X7998343Y15825127D01*
X8227132Y15707400D01*
X8454189Y15586365D01*
X8679431Y15462069D01*
X8902891Y15334491D01*
X9124466Y15203692D01*
X9344172Y15069657D01*
X9561787Y14932525D01*
X9777475Y14792197D01*
X9990992Y14648828D01*
X10202600Y14502243D01*
X10411970Y14352665D01*
X10619096Y14200103D01*
X10824012Y14044531D01*
X11026694Y13885970D01*
X11227034Y13724497D01*
X11424953Y13560184D01*
X11620521Y13392969D01*
X11813667Y13222912D01*
X12004247Y13050140D01*
X12192389Y12874541D01*
X12377835Y12696351D01*
X12560817Y12515350D01*
X12741162Y12331704D01*
X12918681Y12145609D01*
X13093614Y11956814D01*
X13265668Y11765635D01*
X13434991Y11571912D01*
X13601523Y11375706D01*
X13765170Y11177129D01*
X13925891Y10976234D01*
X14083661Y10773052D01*
X14238494Y10567565D01*
X14390347Y10359829D01*
X14539168Y10149912D01*
X14684965Y9937803D01*
X14827568Y9723751D01*
X14967120Y9507546D01*
X15103490Y9289387D01*
X15236687Y9069261D01*
X15282960Y8990221D01*
X15282961Y3205209D01*
X10982988Y-1094765D01*
X10956337Y-1116637D01*
X10942023Y-1134078D01*
X10924588Y-1148387D01*
X10902719Y-1175034D01*
X10902716Y-1175037D01*
X10856223Y-1231689D01*
X10809045Y-1278866D01*
X10793222Y-1226703D01*
X10748409Y-1142865D01*
X10688101Y-1069379D01*
X10669682Y-1054263D01*
X9032720Y582699D01*
X9032720Y998125D01*
X9050607Y1057091D01*
X9057963Y1131780D01*
X9057963Y1480239D01*
X9058120Y1481833D01*
X9058120Y2027126D01*
X9050769Y2101765D01*
X9021721Y2197523D01*
X8974549Y2285775D01*
X8949301Y2316541D01*
X11211701Y4578940D01*
X11704496Y4578940D01*
X11800289Y4399724D01*
X11954120Y4212280D01*
X12141564Y4058449D01*
X12355417Y3944142D01*
X12587462Y3873752D01*
X12768308Y3855940D01*
X13139252Y3855940D01*
X13320098Y3873752D01*
X13552143Y3944142D01*
X13765996Y4058449D01*
X13953440Y4212280D01*
X14107271Y4399724D01*
X14221578Y4613577D01*
X14291968Y4845622D01*
X14315736Y5086940D01*
X14291968Y5328258D01*
X14221578Y5560303D01*
X14107271Y5774156D01*
X13953440Y5961600D01*
X13765996Y6115431D01*
X13552143Y6229738D01*
X13320098Y6300128D01*
X13139252Y6317940D01*
X12768308Y6317940D01*
X12587462Y6300128D01*
X12355417Y6229738D01*
X12141564Y6115431D01*
X11954120Y5961600D01*
X11800289Y5774156D01*
X11704496Y5594940D01*
X11026223Y5594940D01*
X11001279Y5597397D01*
X10976335Y5594940D01*
X10976333Y5594940D01*
X10901695Y5587589D01*
X10805937Y5558541D01*
X10805935Y5558540D01*
X10717684Y5511369D01*
X10663090Y5466564D01*
X10640332Y5447888D01*
X10624430Y5428511D01*
X7708550Y2512630D01*
X7689173Y2496728D01*
X7673271Y2477351D01*
X7673270Y2477350D01*
X7625691Y2419375D01*
X7579143Y2332289D01*
X7578520Y2331123D01*
X7558347Y2264623D01*
X7425120Y2264623D01*
X7350431Y2257267D01*
X7278612Y2235481D01*
X7212424Y2200102D01*
X7154409Y2152491D01*
X7151710Y2149202D01*
X7151710Y2315989D01*
X7154167Y2340933D01*
X7151710Y2365879D01*
X7144359Y2440517D01*
X7115311Y2536275D01*
X7082842Y2597020D01*
X7068139Y2624528D01*
X7020560Y2682503D01*
X7004658Y2701880D01*
X6985281Y2717782D01*
X5435457Y4267605D01*
X5419550Y4286988D01*
X5342197Y4350469D01*
X5288523Y4379159D01*
X5288523Y4576040D01*
X5281167Y4650729D01*
X5259381Y4722548D01*
X5224002Y4788736D01*
X5176391Y4846751D01*
X5118376Y4894362D01*
X5052188Y4929741D01*
X4980369Y4951527D01*
X4905680Y4958883D01*
X4788523Y4958883D01*
X4788523Y5076040D01*
X4781167Y5150729D01*
X4759381Y5222548D01*
X4738280Y5262024D01*
X4738280Y8186940D01*
X11595937Y8186940D01*
X11595937Y6986940D01*
X11608097Y6863478D01*
X11644109Y6744761D01*
X11702590Y6635351D01*
X11781292Y6539452D01*
X11877191Y6460750D01*
X11986601Y6402269D01*
X12105318Y6366257D01*
X12228780Y6354097D01*
X13678780Y6354097D01*
X13802242Y6366257D01*
X13920959Y6402269D01*
X14030369Y6460750D01*
X14126268Y6539452D01*
X14204970Y6635351D01*
X14263451Y6744761D01*
X14299463Y6863478D01*
X14311623Y6986940D01*
X14311623Y8186940D01*
X14299463Y8310402D01*
X14263451Y8429119D01*
X14204970Y8538529D01*
X14126268Y8634428D01*
X14030369Y8713130D01*
X13920959Y8771611D01*
X13802242Y8807623D01*
X13678780Y8819783D01*
X12228780Y8819783D01*
X12105318Y8807623D01*
X11986601Y8771611D01*
X11877191Y8713130D01*
X11781292Y8634428D01*
X11702590Y8538529D01*
X11644109Y8429119D01*
X11608097Y8310402D01*
X11595937Y8186940D01*
X4738280Y8186940D01*
X4738280Y10908881D01*
X5398219Y11568819D01*
X7010254Y11568819D01*
X7017546Y11551215D01*
X7133112Y11378258D01*
X7280200Y11231170D01*
X7453157Y11115604D01*
X7645337Y11036000D01*
X7849354Y10995419D01*
X8057368Y10995419D01*
X8261385Y11036000D01*
X8453565Y11115604D01*
X8626522Y11231170D01*
X8773610Y11378258D01*
X8889176Y11551215D01*
X8968780Y11743395D01*
X9009361Y11947412D01*
X9009361Y12155426D01*
X8968780Y12359443D01*
X8889176Y12551623D01*
X8773610Y12724580D01*
X8626522Y12871668D01*
X8453565Y12987234D01*
X8261385Y13066838D01*
X8057368Y13107419D01*
X7849354Y13107419D01*
X7645337Y13066838D01*
X7490381Y13002653D01*
X7554566Y13157609D01*
X7595147Y13361626D01*
X7595147Y13569640D01*
X7554566Y13773657D01*
X7474962Y13965837D01*
X7359396Y14138794D01*
X7212308Y14285882D01*
X7039351Y14401448D01*
X6847171Y14481052D01*
X6643154Y14521633D01*
X6435140Y14521633D01*
X6231123Y14481052D01*
X6076168Y14416867D01*
X6140353Y14571822D01*
X6180934Y14775839D01*
X6180934Y14983853D01*
X6140353Y15187870D01*
X6060749Y15380050D01*
X5945183Y15553007D01*
X5798095Y15700095D01*
X5625138Y15815661D01*
X5432958Y15895265D01*
X5228941Y15935846D01*
X5020927Y15935846D01*
X4816910Y15895265D01*
X4801599Y15888923D01*
X4936025Y16023349D01*
X4983636Y16081364D01*
X5019015Y16147552D01*
X5040801Y16219371D01*
X5048157Y16294060D01*
X5040801Y16368749D01*
X5019015Y16440568D01*
X4983636Y16506756D01*
X4936025Y16564771D01*
X4298635Y17202161D01*
X4392246Y17178949D01*
G37*
G04 #@! TD.AperFunction*
D30*
X3530991Y4150553D02*
X3605680Y4143197D01*
X3905680Y4143197D01*
X3980174Y4150534D01*
X3972837Y4076040D01*
X3972837Y3776040D01*
X3980193Y3701351D01*
X3987871Y3676040D01*
X3980193Y3650729D01*
X3972837Y3576040D01*
X3972837Y3276040D01*
X3980193Y3201351D01*
X3987871Y3176040D01*
X3980193Y3150729D01*
X3972837Y3076040D01*
X3972837Y2776040D01*
X3980193Y2701351D01*
X3987871Y2676040D01*
X3980193Y2650729D01*
X3972837Y2576040D01*
X3972837Y2276040D01*
X3980193Y2201351D01*
X3987871Y2176040D01*
X3980193Y2150729D01*
X3972837Y2076040D01*
X3972837Y1776040D01*
X3980174Y1701546D01*
X3905680Y1708883D01*
X3605680Y1708883D01*
X3530991Y1701527D01*
X3505680Y1693849D01*
X3480369Y1701527D01*
X3405680Y1708883D01*
X3105680Y1708883D01*
X3030991Y1701527D01*
X2959172Y1679741D01*
X2892984Y1644362D01*
X2834969Y1596751D01*
X2787358Y1538736D01*
X2755680Y1479472D01*
X2724002Y1538736D01*
X2676391Y1596751D01*
X2618376Y1644362D01*
X2552188Y1679741D01*
X2480369Y1701527D01*
X2405680Y1708883D01*
X2105680Y1708883D01*
X2030991Y1701527D01*
X2005680Y1693849D01*
X1980369Y1701527D01*
X1905680Y1708883D01*
X1605680Y1708883D01*
X1531186Y1701546D01*
X1538523Y1776040D01*
X1538523Y2076040D01*
X1531167Y2150729D01*
X1523489Y2176040D01*
X1531167Y2201351D01*
X1538523Y2276040D01*
X1538523Y2576040D01*
X1531167Y2650729D01*
X1523489Y2676040D01*
X1531167Y2701351D01*
X1538523Y2776040D01*
X1538523Y3076040D01*
X1531167Y3150729D01*
X1523489Y3176040D01*
X1531167Y3201351D01*
X1538523Y3276040D01*
X1538523Y3576040D01*
X1531167Y3650729D01*
X1523489Y3676040D01*
X1531167Y3701351D01*
X1538523Y3776040D01*
X1538523Y4076040D01*
X1531186Y4150534D01*
X1605680Y4143197D01*
X1905680Y4143197D01*
X1980369Y4150553D01*
X2005680Y4158231D01*
X2030991Y4150553D01*
X2105680Y4143197D01*
X2405680Y4143197D01*
X2480369Y4150553D01*
X2505680Y4158231D01*
X2530991Y4150553D01*
X2605680Y4143197D01*
X2905680Y4143197D01*
X2980369Y4150553D01*
X3005680Y4158231D01*
X3030991Y4150553D01*
X3105680Y4143197D01*
X3405680Y4143197D01*
X3480369Y4150553D01*
X3505680Y4158231D01*
X3530991Y4150553D01*
G04 #@! TA.AperFunction,Conductor*
D33*
G36*
X3530991Y4150553D02*
G01*
X3605680Y4143197D01*
X3905680Y4143197D01*
X3980174Y4150534D01*
X3972837Y4076040D01*
X3972837Y3776040D01*
X3980193Y3701351D01*
X3987871Y3676040D01*
X3980193Y3650729D01*
X3972837Y3576040D01*
X3972837Y3276040D01*
X3980193Y3201351D01*
X3987871Y3176040D01*
X3980193Y3150729D01*
X3972837Y3076040D01*
X3972837Y2776040D01*
X3980193Y2701351D01*
X3987871Y2676040D01*
X3980193Y2650729D01*
X3972837Y2576040D01*
X3972837Y2276040D01*
X3980193Y2201351D01*
X3987871Y2176040D01*
X3980193Y2150729D01*
X3972837Y2076040D01*
X3972837Y1776040D01*
X3980174Y1701546D01*
X3905680Y1708883D01*
X3605680Y1708883D01*
X3530991Y1701527D01*
X3505680Y1693849D01*
X3480369Y1701527D01*
X3405680Y1708883D01*
X3105680Y1708883D01*
X3030991Y1701527D01*
X2959172Y1679741D01*
X2892984Y1644362D01*
X2834969Y1596751D01*
X2787358Y1538736D01*
X2755680Y1479472D01*
X2724002Y1538736D01*
X2676391Y1596751D01*
X2618376Y1644362D01*
X2552188Y1679741D01*
X2480369Y1701527D01*
X2405680Y1708883D01*
X2105680Y1708883D01*
X2030991Y1701527D01*
X2005680Y1693849D01*
X1980369Y1701527D01*
X1905680Y1708883D01*
X1605680Y1708883D01*
X1531186Y1701546D01*
X1538523Y1776040D01*
X1538523Y2076040D01*
X1531167Y2150729D01*
X1523489Y2176040D01*
X1531167Y2201351D01*
X1538523Y2276040D01*
X1538523Y2576040D01*
X1531167Y2650729D01*
X1523489Y2676040D01*
X1531167Y2701351D01*
X1538523Y2776040D01*
X1538523Y3076040D01*
X1531167Y3150729D01*
X1523489Y3176040D01*
X1531167Y3201351D01*
X1538523Y3276040D01*
X1538523Y3576040D01*
X1531167Y3650729D01*
X1523489Y3676040D01*
X1531167Y3701351D01*
X1538523Y3776040D01*
X1538523Y4076040D01*
X1531186Y4150534D01*
X1605680Y4143197D01*
X1905680Y4143197D01*
X1980369Y4150553D01*
X2005680Y4158231D01*
X2030991Y4150553D01*
X2105680Y4143197D01*
X2405680Y4143197D01*
X2480369Y4150553D01*
X2505680Y4158231D01*
X2530991Y4150553D01*
X2605680Y4143197D01*
X2905680Y4143197D01*
X2980369Y4150553D01*
X3005680Y4158231D01*
X3030991Y4150553D01*
X3105680Y4143197D01*
X3405680Y4143197D01*
X3480369Y4150553D01*
X3505680Y4158231D01*
X3530991Y4150553D01*
G37*
G04 #@! TD.AperFunction*
D30*
X321601Y17728639D02*
X578775Y17722108D01*
X835870Y17711843D01*
X1092887Y17697844D01*
X1349527Y17680126D01*
X1605925Y17658683D01*
X1862032Y17633518D01*
X2117593Y17604656D01*
X2372912Y17572063D01*
X2627572Y17535791D01*
X2881793Y17495809D01*
X3135407Y17452143D01*
X3335364Y17414720D01*
X2485415Y16564771D01*
X2437804Y16506756D01*
X2402425Y16440568D01*
X2380639Y16368749D01*
X2373283Y16294060D01*
X2380639Y16219371D01*
X2402425Y16147552D01*
X2437804Y16081364D01*
X2485415Y16023349D01*
X3228121Y15280643D01*
X3228120Y12536640D01*
X2431193Y11739712D01*
X2412780Y11724601D01*
X2397669Y11706188D01*
X2397667Y11706186D01*
X2352472Y11651115D01*
X2307658Y11567276D01*
X2280064Y11476306D01*
X2270745Y11381700D01*
X2273081Y11357985D01*
X2273080Y5458883D01*
X2238280Y5458883D01*
X2238280Y13521313D01*
X2240615Y13545020D01*
X2231297Y13639627D01*
X2203702Y13730597D01*
X2184630Y13766277D01*
X2158889Y13814435D01*
X2114903Y13868032D01*
X2113693Y13869507D01*
X2113692Y13869508D01*
X2098581Y13887921D01*
X2080168Y13903032D01*
X-270449Y16253648D01*
X-161722Y16362375D01*
X-65308Y16506670D01*
X1104Y16667002D01*
X34960Y16837209D01*
X34960Y17010751D01*
X1104Y17180958D01*
X-65308Y17341290D01*
X-161722Y17485585D01*
X-284435Y17608298D01*
X-428730Y17704712D01*
X-477583Y17724948D01*
X-450250Y17725841D01*
X-192958Y17730507D01*
X64330Y17731438D01*
X321601Y17728639D01*
G04 #@! TA.AperFunction,Conductor*
D33*
G36*
X321601Y17728639D02*
G01*
X578775Y17722108D01*
X835870Y17711843D01*
X1092887Y17697844D01*
X1349527Y17680126D01*
X1605925Y17658683D01*
X1862032Y17633518D01*
X2117593Y17604656D01*
X2372912Y17572063D01*
X2627572Y17535791D01*
X2881793Y17495809D01*
X3135407Y17452143D01*
X3335364Y17414720D01*
X2485415Y16564771D01*
X2437804Y16506756D01*
X2402425Y16440568D01*
X2380639Y16368749D01*
X2373283Y16294060D01*
X2380639Y16219371D01*
X2402425Y16147552D01*
X2437804Y16081364D01*
X2485415Y16023349D01*
X3228121Y15280643D01*
X3228120Y12536640D01*
X2431193Y11739712D01*
X2412780Y11724601D01*
X2397669Y11706188D01*
X2397667Y11706186D01*
X2352472Y11651115D01*
X2307658Y11567276D01*
X2280064Y11476306D01*
X2270745Y11381700D01*
X2273081Y11357985D01*
X2273080Y5458883D01*
X2238280Y5458883D01*
X2238280Y13521313D01*
X2240615Y13545020D01*
X2231297Y13639627D01*
X2203702Y13730597D01*
X2184630Y13766277D01*
X2158889Y13814435D01*
X2114903Y13868032D01*
X2113693Y13869507D01*
X2113692Y13869508D01*
X2098581Y13887921D01*
X2080168Y13903032D01*
X-270449Y16253648D01*
X-161722Y16362375D01*
X-65308Y16506670D01*
X1104Y16667002D01*
X34960Y16837209D01*
X34960Y17010751D01*
X1104Y17180958D01*
X-65308Y17341290D01*
X-161722Y17485585D01*
X-284435Y17608298D01*
X-428730Y17704712D01*
X-477583Y17724948D01*
X-450250Y17725841D01*
X-192958Y17730507D01*
X64330Y17731438D01*
X321601Y17728639D01*
G37*
G04 #@! TD.AperFunction*
M02*
